<?xml version="1.0" encoding="utf-8"?>
<!-- Generator: Adobe Illustrator 24.1.0, SVG Export Plug-In . SVG Version: 6.00 Build 0)  -->
<svg version="1.1" id="Calque_1" xmlns="http://www.w3.org/2000/svg" xmlns:xlink="http://www.w3.org/1999/xlink" x="0px" y="0px"
	 viewBox="0 0 283.5 283.5" style="enable-background:new 0 0 283.5 283.5;" xml:space="preserve">
<style type="text/css">
	.st0{fill:#22A84D;stroke:#00983A;stroke-miterlimit:10;}
	.st1{fill:none;stroke:#00983A;stroke-miterlimit:10;}
	.st2{fill:#A8C95A;}
	.st3{fill:#FFCC00;}
	.st4{fill:#EBBE00;}
	.st5{fill:#E62F2A;}
	.st6{fill:#86B15B;}
	.st7{fill:#FEF5AF;}
	.st8{fill:#A3C156;}
	.st9{fill:#E9E232;}
	.st10{fill:#E0D1CA;}
</style>
<g>
	<g>
		<path class="st0" d="M83.2,106.6c-11.9,8.3-29.9,19.5-4.3,44.5c3.1,5.4,4.8,10.5-8.6,14.8c-9.4-3.5-30.3-9.1-40.2-26.1
			c-11.8-0.6-14.2-9.6-12.6-12.6c-9.6-8.4-12.1-15.5-2.8-23.9c-5.7-9.9-4.2-16,1.9-19c-4.2-7.8-2.1-11.1,6-14.9
			c6.7-8.5,13.4-8.7,16.2-1.2c14.5-8.2,15.1,0.8,16.5,3C68.1,66.1,87,77.9,69.2,102C79.8,96.3,83.2,106.6,83.2,106.6z"/>
		<path class="st1" d="M50.6,80.8c-27.8,9.1-11.6,57.6,29,80.1"/>
		<path class="st1" d="M38,78.1c-0.3,4.2,3.4,8.8,3.6,8.6"/>
		<path class="st1" d="M53.3,92.3c-5.1,1.8-13,3.8-16.6,9.7"/>
		<path class="st1" d="M24.4,105.9c1.8,2.5,8.5,10.7,14.5,8.3"/>
		<path class="st1" d="M53.3,116.7c-3.4,3.1-9.6,8.9-7.9,11.5"/>
	</g>
	<g>
		<path class="st0" d="M136.1,103.2c-13.6,9.4-34,22.4-7.6,46.9c3.1,5.4,4.6,10.7-10.4,16.1c-10.1-3.1-32.6-7.5-42.3-24.7
			c-12.8,0.1-15-9.1-12.9-12.4c-10-8.2-12.2-15.4-1.5-24.8c-5.5-10-3.5-16.4,3.3-20c-4.1-7.9-1.6-11.5,7.6-16
			c7.9-9.3,15.3-10,17.8-2.3c16.4-9.5,16.5-0.1,17.9,2c14.4-6.2,34.3,4.9,13.2,31.3C133.1,92.7,136.1,103.2,136.1,103.2z"/>
		<path class="st1" d="M102.2,78.4c-31.1,11.3-16.5,61,26.4,81.9"/>
		<path class="st1" d="M88.5,76.4c-0.6,4.5,3.2,9,3.3,8.8"/>
		<path class="st1" d="M104.4,90.2c-5.6,2.2-14.5,4.8-18.8,11.2"/>
		<path class="st1" d="M71.8,106.3c1.8,2.5,8.6,10.6,15.4,7.8"/>
		<path class="st1" d="M102.7,115.7c-3.9,3.5-11.1,9.9-9.4,12.6"/>
	</g>
	<g>
		<path class="st0" d="M163.2,102.5c11.9,8.3,29.9,19.5,4.3,44.5c-3.1,5.4-4.8,10.5,8.6,14.8c9.4-3.5,30.3-9.1,40.2-26.1
			c11.8-0.6,14.2-9.6,12.6-12.6c9.6-8.4,12.1-15.5,2.8-23.9c5.7-9.9,4.2-16-1.9-19c4.2-7.8,2.1-11.1-6-14.9
			c-6.7-8.5-13.4-8.7-16.2-1.2c-14.5-8.2-15.1,0.8-16.5,3c-12.8-5.1-31.7,6.7-13.9,30.8C166.6,92.2,163.2,102.5,163.2,102.5z"/>
		<path class="st1" d="M195.8,76.7c27.8,9.1,11.6,57.6-29,80.1"/>
		<path class="st1" d="M208.4,74c0.3,4.2-3.4,8.8-3.6,8.6"/>
		<path class="st1" d="M193.1,88.2c5.1,1.8,13,3.8,16.6,9.7"/>
		<path class="st1" d="M222,101.8c-1.8,2.5-8.5,10.7-14.5,8.3"/>
		<path class="st1" d="M193.1,112.6c3.4,3.1,9.6,8.9,7.9,11.5"/>
	</g>
	<g>
		<path class="st0" d="M109.1,98.2c15,10.5,37.6,24.9,10.6,48.9c-3,5.5-4.4,10.8,12,17.2c10.6-2.7,34.6-6.2,44.2-23.4
			c13.8,0.8,15.6-8.7,13.3-12.2c10.3-7.9,12.3-15.4,0.3-25.6c5.4-10.1,3-16.8-4.6-20.8c3.9-8,1.1-11.8-8.9-16.9
			c-9-10-16.9-11.2-19.2-3.3c-18.1-10.7-17.7-1-19.1,1.2c-15.7-7.2-36.6,3.3-12.6,31.8C111.8,87.5,109.1,98.2,109.1,98.2z"/>
		<path class="st1" d="M144.2,74.2c33.9,13.3,20.8,64-24.2,83.5"/>
		<path class="st1" d="M158.8,72.9c0.9,4.6-3,9.1-3.1,8.9"/>
		<path class="st1" d="M142.5,86.3c6.2,2.5,15.8,5.8,20.7,12.6"/>
		<path class="st1" d="M178.3,104.7c-1.8,2.5-8.7,10.5-16.1,7.3"/>
		<path class="st1" d="M145.6,112.9c4.4,3.8,12.4,10.8,10.8,13.5"/>
	</g>
	<path class="st1" d="M45.6,143.1c4.1,1.2,9.7,1,11.3,0.2"/>
	<g>
		<polygon class="st2" points="226.4,80.4 226.7,53.9 244.1,60.1 239.3,79.3 		"/>
		<polygon class="st2" points="238.9,79.5 247.1,54.5 269.3,65.5 248.8,87.1 		"/>
		<polygon class="st2" points="247.7,86 268.5,69.4 274.7,86.7 256.8,95.3 		"/>
		<path class="st3" d="M247.6,80.2c-31.2-19.3-57.9,61.7-50.3,83.5C219.8,155.7,278.8,99.5,247.6,80.2z"/>
		<polygon class="st4" points="216.7,91.3 231.2,99.9 232.2,98.3 		"/>
		<polygon class="st4" points="201.6,121.4 213.3,127.5 214.2,126.3 		"/>
		<polygon class="st4" points="241.9,126 227.3,117.3 226.3,118.9 		"/>
	</g>
	<g>
		<ellipse class="st5" cx="97.1" cy="140" rx="14.7" ry="15.1"/>
		<polygon class="st6" points="94.6,125.4 91.4,121.4 93,126.8 86.3,130.1 93.8,128.5 94.6,134.6 96.6,129 103.2,132.9 98,127 
			103.2,123.5 97.4,125.6 97.4,120.8 		"/>
	</g>
	<g>
		<ellipse class="st5" cx="72.8" cy="137" rx="14.7" ry="15.1"/>
		<polygon class="st6" points="70.3,122.4 67.2,118.4 68.7,123.8 62,127.1 69.6,125.5 70.3,131.6 72.4,126.1 79,129.9 73.7,124 
			79,120.5 73.1,122.6 73.1,117.8 		"/>
	</g>
	<g>
		<ellipse class="st5" cx="47.4" cy="135.1" rx="14.7" ry="15.1"/>
		<polygon class="st6" points="44.8,120.5 41.7,116.6 43.3,122 36.6,125.3 44.1,123.7 44.8,129.7 46.9,124.2 53.5,128 48.2,122.1 
			53.5,118.7 47.7,120.8 47.7,116 		"/>
	</g>
	<path class="st7" d="M138.7,60.1c14.9-5.2,20.5,27.1,18.6,48.6c-0.5,7.5-10.5,32.3-15.2,41.1c-4.8,8.8-8.6,2.2-9.3-1
		s-12.4-35.1-11.5-39.1C120.8,100.1,121.5,58.5,138.7,60.1z"/>
	<g>
		<path class="st8" d="M105.6,88.8c12.3,21.5,1.1,70.9,30.6,88.7C138.5,160.8,130.5,110.8,105.6,88.8z"/>
		<path class="st8" d="M139.1,176.8c-1.9-19.2,11.5-67.8,34.5-86.6C163.7,109.9,164.5,168.9,139.1,176.8z"/>
		<path class="st9" d="M137.3,150.1c0,0,0.6,5.6,1,5.7c0.4,0.1,1.3-5.2,1.3-5.8C139.5,149.5,137.3,150.1,137.3,150.1z"/>
		<path class="st9" d="M137,147.3c0.5,0.4,2.8,0.4,3.2,0s2.2-7.1,1.4-7.3s-6.3-0.5-6.1,0.4S137,147.3,137,147.3z"/>
		<path class="st9" d="M135.2,128.2c-1.2,0.1-3.1,1.1-2.3,3.2s1.4,5.7,3.1,6.1c1.7,0.4,6,1.3,7-1.1c1-2.4,1.1-4.9,2-5.2
			s-1.4-3.2-2.4-3S135.2,128.2,135.2,128.2z"/>
		<path class="st9" d="M135.5,116.7c-2.5,0.4-3.2,4-2.7,7c0.5,2.9,3.1,2.5,3.7,2.5s7.9,1.5,8.6-2.4c0.8-3.9-0.4-7.1-2.9-6.7
			C139.7,117.3,135.5,116.7,135.5,116.7z"/>
		<path class="st9" d="M136,105.4c-2.5,0.4-3.2,4-2.7,7s3.1,2.5,3.7,2.5c0.5,0,7.9,1.5,8.6-2.4c0.8-3.9-0.4-7.1-2.9-6.7
			S136,105.4,136,105.4z"/>
		<path class="st9" d="M136,94c-2.5,0.4-3.2,4-2.7,7s3.1,2.5,3.7,2.5s7.9,1.5,8.6-2.4c0.8-3.9-0.4-7.1-2.9-6.7
			C140.2,94.6,136,94,136,94z"/>
		<path class="st9" d="M136.3,82.5c-2.5,0.4-3.2,4-2.7,7c0.5,2.9,3.1,2.5,3.7,2.5s7.9,1.5,8.6-2.4c0.8-3.9-0.4-7.1-2.9-6.7
			C140.6,83.1,136.3,82.5,136.3,82.5z"/>
		<path class="st9" d="M137.2,72.9c-2.1,0.4-2.8,3.5-2.5,6c0.4,2.5,2.6,2,3.1,2s6.6,1,7.4-2.3c0.7-3.3-0.1-6-2.3-5.6
			C140.8,73.3,137.2,72.9,137.2,72.9z"/>
		<path class="st9" d="M137.9,65.6c-1.7,0.4-2.4,2.9-2.3,4.9c0.2,2,2,1.5,2.4,1.4c0.4,0,5.3,0.5,6-2.2s0.1-4.7-1.6-4.4
			S137.9,65.6,137.9,65.6z"/>
		<path class="st9" d="M147.1,123.9c0-2.4-1-7.2,3.4-6.7C149.5,119.7,148,123.1,147.1,123.9z"/>
		<path class="st9" d="M127.4,117c1.6-0.4,4.8,0,3.1,6.4C129,122.4,127.4,117,127.4,117z"/>
		<path class="st9" d="M122.2,105.8c2.2-0.8,8.2-1.6,8.7,1.2s0.9,7.1-1.4,7.3c-2.3,0.2-3.5-0.2-4.3-1.4S122.2,105.8,122.2,105.8z"/>
		<path class="st9" d="M147.4,112.4c0,1.1,1.1,2.7,2.7,2.5c1.6-0.2,3-1.1,3.5-3.4c1.9-2.1,3.6-5.3,0.8-5.9c-2.8,0.5-6.2-0.9-7,2.7
			S147.4,112.4,147.4,112.4z"/>
		<path class="st9" d="M147.6,100.7c-0.1,1.2,0.6,3.4,4.3,3.1s5.2-0.7,5-3.4c-0.1-2.7,0.6-5.7-3.4-6S147.4,94.9,147.6,100.7z"/>
		<path class="st9" d="M122.3,98c0-1.8-1-4.9,5.2-4.3c2,0.9,4.6-1.1,3.8,5s-2,4.3-4.3,4.2C124.6,102.8,122,104,122.3,98z"/>
		<path class="st9" d="M122.3,86.7c0-1.8-1-4.9,5.2-4.3c2,0.9,4.6-1.1,3.8,5s-2,4.3-4.3,4.2C124.6,91.4,122,92.6,122.3,86.7z"/>
		<path class="st9" d="M148.2,87.5c0-1.8-1-4.9,5.2-4.3c2,0.9,4.6-1.1,3.8,5s-2,4.3-4.3,4.2S147.9,93.4,148.2,87.5z"/>
		<path class="st9" d="M124.2,77c-1.3-4.8,9.3-6.4,8.2-1C134.2,81,124.4,82.2,124.2,77z"/>
		<path class="st9" d="M147.1,77.5c-1.3-4.8,9.3-6.4,8.2-1C157.1,81.4,147.3,82.7,147.1,77.5z"/>
		<path class="st9" d="M128.2,68.5c-0.8-3.5,7.1-5,6.1-1C135.5,71.2,128.2,72.3,128.2,68.5z"/>
		<path class="st9" d="M146.5,69.3c-0.8-3.5,7.1-5,6.1-1C153.8,72,146.5,73.1,146.5,69.3z"/>
		
			<ellipse transform="matrix(8.457803e-02 -0.9964 0.9964 8.457803e-02 63.738 192.7929)" class="st9" cx="136.8" cy="61.7" rx="2.2" ry="2.7"/>
		
			<ellipse transform="matrix(8.457803e-02 -0.9964 0.9964 8.457803e-02 69.9191 200.3123)" class="st9" cx="144" cy="62.1" rx="2.8" ry="3.6"/>
	</g>
	<path class="st10" d="M22.6,137.8c6.2,35.1,25.3,73.4,73.4,82.2c-1,12.4,64.1,11.9,63.6,3.1c24.8-4.7,76.5-34.1,77.5-85.3
		C179.2,154.8,56.2,152.7,22.6,137.8z"/>
</g>
</svg>
