<?xml version="1.0" encoding="utf-8"?>
<!-- Generator: Adobe Illustrator 24.1.0, SVG Export Plug-In . SVG Version: 6.00 Build 0)  -->
<svg version="1.1" id="Calque_1" xmlns="http://www.w3.org/2000/svg" xmlns:xlink="http://www.w3.org/1999/xlink" x="0px" y="0px"
	 viewBox="0 0 283.5 283.5" style="enable-background:new 0 0 283.5 283.5;" xml:space="preserve">
<style type="text/css">
	.st0{fill:#22A84D;stroke:#00983A;stroke-miterlimit:10;}
	.st1{fill:none;stroke:#00983A;stroke-miterlimit:10;}
	.st2{fill:#E62F2A;}
	.st3{fill:#86B15B;}
	.st4{fill:#FEF5AF;}
	.st5{fill:#A3C156;}
	.st6{fill:#E9E232;}
	.st7{fill:#E4051E;}
	.st8{fill:#008332;}
	.st9{fill:#F9DDC2;}
	.st10{fill:#EBAE68;}
	.st11{fill:#E98626;}
	.st12{fill:#E0D1CA;}
	.st13{fill:#CB990C;}
	.st14{fill:#BDC7C9;}
	.st15{fill:none;}
	.st16{fill:#FFFFFF;}
	.st17{font-family:'MuseoSlab-700';}
	.st18{font-size:8.3796px;}
	.st19{fill:#FEC900;}
	.st20{font-family:'Roboto-Black';}
	.st21{font-size:3.2424px;}
</style>
<g>
	<path class="st0" d="M87.1,155.8c-11.9,8.3-29.9,19.5-4.3,44.5c3.1,5.4,4.8,10.5-8.6,14.8C64.8,211.6,43.9,206,34,189
		c-11.8-0.6-14.2-9.6-12.6-12.6c-9.6-8.4-12.1-15.5-2.8-23.9c-5.7-9.9-4.2-16,1.9-19c-4.2-7.8-2.1-11.1,6-14.9
		c6.7-8.5,13.4-8.7,16.2-1.2c14.5-8.2,15.1,0.8,16.5,3c12.8-5.1,31.7,6.7,13.9,30.8C83.7,145.5,87.1,155.8,87.1,155.8z"/>
	<path class="st1" d="M54.5,130c-27.8,9.1-11.6,57.6,29,80.1"/>
	<path class="st1" d="M41.9,127.3c-0.3,4.2,3.4,8.8,3.6,8.6"/>
	<path class="st1" d="M57.2,141.5c-5.1,1.8-13,3.8-16.6,9.7"/>
	<path class="st1" d="M28.3,155.1c1.8,2.5,8.5,10.7,14.5,8.3"/>
	<path class="st1" d="M57.2,165.9c-3.4,3.1-9.6,8.9-7.9,11.5"/>
</g>
<g>
	<path class="st0" d="M140,152.4c-13.6,9.4-34,22.4-7.6,46.9c3.1,5.4,4.6,10.7-10.4,16.1c-10.1-3.1-32.6-7.5-42.3-24.7
		c-12.8,0.1-15-9.1-12.9-12.4c-10-8.2-12.2-15.4-1.5-24.8c-5.5-10-3.5-16.4,3.3-20c-4.1-7.9-1.6-11.5,7.6-16
		c7.9-9.3,15.3-10,17.8-2.3c16.4-9.5,16.5-0.1,17.9,2c14.4-6.2,34.3,4.9,13.2,31.3C137,141.9,140,152.4,140,152.4z"/>
	<path class="st1" d="M106.1,127.6c-31.1,11.3-16.5,61,26.4,81.9"/>
	<path class="st1" d="M92.4,125.6c-0.6,4.5,3.2,9,3.3,8.8"/>
	<path class="st1" d="M108.3,139.4c-5.6,2.2-14.5,4.8-18.8,11.2"/>
	<path class="st1" d="M75.7,155.5c1.8,2.5,8.6,10.6,15.4,7.8"/>
	<path class="st1" d="M106.6,164.9c-3.9,3.5-11.1,9.9-9.4,12.6"/>
</g>
<g>
	<path class="st0" d="M167.1,151.7c11.9,8.3,29.9,19.5,4.3,44.5c-3.1,5.4-4.8,10.5,8.6,14.8c9.4-3.5,30.3-9.1,40.2-26.1
		c11.8-0.6,14.2-9.6,12.6-12.6c9.6-8.4,12.1-15.5,2.8-23.9c5.7-9.9,4.2-16-1.9-19c4.2-7.8,2.1-11.1-6-14.9
		c-6.7-8.5-13.4-8.7-16.2-1.2c-14.5-8.2-15.1,0.8-16.5,3c-12.8-5.1-31.7,6.7-13.9,30.8C170.5,141.4,167.1,151.7,167.1,151.7z"/>
	<path class="st1" d="M199.7,125.9c27.8,9.1,11.6,57.6-29,80.1"/>
	<path class="st1" d="M212.3,123.2c0.3,4.2-3.4,8.8-3.6,8.6"/>
	<path class="st1" d="M197,137.4c5.1,1.8,13,3.8,16.6,9.7"/>
	<path class="st1" d="M225.9,151c-1.8,2.5-8.5,10.7-14.5,8.3"/>
	<path class="st1" d="M197,161.8c3.4,3.1,9.6,8.9,7.9,11.5"/>
</g>
<g>
	<path class="st0" d="M113,147.4c15,10.5,37.6,24.9,10.6,48.9c-3,5.5-4.4,10.8,12,17.2c10.6-2.7,34.6-6.2,44.2-23.4
		c13.8,0.8,15.6-8.7,13.3-12.2c10.3-7.9,12.3-15.4,0.3-25.6c5.4-10.1,3-16.8-4.6-20.8c3.9-8,1.1-11.8-8.9-16.9
		c-9-10-16.9-11.2-19.2-3.3c-18.1-10.7-17.7-1-19.1,1.2c-15.7-7.2-36.6,3.3-12.6,31.8C115.7,136.7,113,147.4,113,147.4z"/>
	<path class="st1" d="M148.1,123.4c33.9,13.3,20.8,64-24.2,83.5"/>
	<path class="st1" d="M162.7,122.1c0.9,4.6-3,9.1-3.1,8.9"/>
	<path class="st1" d="M146.4,135.5c6.2,2.5,15.8,5.8,20.7,12.6"/>
	<path class="st1" d="M182.2,153.9c-1.8,2.5-8.7,10.5-16.1,7.3"/>
	<path class="st1" d="M149.5,162.1c4.4,3.8,12.4,10.8,10.8,13.5"/>
</g>
<path class="st1" d="M49.5,192.3c4.1,1.2,9.7,1,11.3,0.2"/>
<g>
	<ellipse class="st2" cx="101" cy="189.2" rx="14.7" ry="15.1"/>
	<polygon class="st3" points="98.5,174.6 95.3,170.6 96.9,176 90.2,179.3 97.7,177.7 98.5,183.8 100.5,178.2 107.1,182.1 
		101.9,176.2 107.1,172.7 101.3,174.8 101.3,170 	"/>
</g>
<g>
	<ellipse class="st2" cx="76.7" cy="186.2" rx="14.7" ry="15.1"/>
	<polygon class="st3" points="74.2,171.6 71.1,167.6 72.6,173 65.9,176.3 73.5,174.7 74.2,180.8 76.3,175.3 82.9,179.1 77.6,173.2 
		82.9,169.7 77,171.8 77,167 	"/>
</g>
<g>
	<ellipse class="st2" cx="51.3" cy="184.3" rx="14.7" ry="15.1"/>
	<polygon class="st3" points="48.7,169.7 45.6,165.8 47.2,171.2 40.5,174.5 48,172.9 48.7,178.9 50.8,173.4 57.4,177.2 52.1,171.3 
		57.4,167.9 51.6,170 51.6,165.2 	"/>
</g>
<path class="st4" d="M142.6,109.3c14.9-5.2,20.5,27.1,18.6,48.6c-0.5,7.5-10.5,32.3-15.2,41.1c-4.8,8.8-8.6,2.2-9.3-1
	c-0.7-3.2-12.4-35.1-11.5-39.1C124.7,149.3,125.4,107.7,142.6,109.3z"/>
<g>
	<path class="st5" d="M109.5,138c12.3,21.5,1.1,70.9,30.6,88.7C142.4,210,134.4,160,109.5,138z"/>
	<path class="st5" d="M143,226c-1.9-19.2,11.5-67.8,34.5-86.6C167.6,159.1,168.4,218.1,143,226z"/>
	<path class="st6" d="M141.2,199.3c0,0,0.6,5.6,1,5.7c0.4,0.1,1.3-5.2,1.3-5.8C143.4,198.7,141.2,199.3,141.2,199.3z"/>
	<path class="st6" d="M140.9,196.5c0.5,0.4,2.8,0.4,3.2,0s2.2-7.1,1.4-7.3c-0.8-0.2-6.3-0.5-6.1,0.4S140.9,196.5,140.9,196.5z"/>
	<path class="st6" d="M139.1,177.4c-1.2,0.1-3.1,1.1-2.3,3.2s1.4,5.7,3.1,6.1c1.7,0.4,6,1.3,7-1.1c1-2.4,1.1-4.9,2-5.2
		c0.9-0.3-1.4-3.2-2.4-3S139.1,177.4,139.1,177.4z"/>
	<path class="st6" d="M139.4,165.9c-2.5,0.4-3.2,4-2.7,7c0.5,2.9,3.1,2.5,3.7,2.5s7.9,1.5,8.6-2.4c0.8-3.9-0.4-7.1-2.9-6.7
		C143.6,166.5,139.4,165.9,139.4,165.9z"/>
	<path class="st6" d="M139.9,154.6c-2.5,0.4-3.2,4-2.7,7s3.1,2.5,3.7,2.5c0.5,0,7.9,1.5,8.6-2.4c0.8-3.9-0.4-7.1-2.9-6.7
		S139.9,154.6,139.9,154.6z"/>
	<path class="st6" d="M139.9,143.2c-2.5,0.4-3.2,4-2.7,7s3.1,2.5,3.7,2.5s7.9,1.5,8.6-2.4c0.8-3.9-0.4-7.1-2.9-6.7
		C144.1,143.8,139.9,143.2,139.9,143.2z"/>
	<path class="st6" d="M140.2,131.7c-2.5,0.4-3.2,4-2.7,7c0.5,2.9,3.1,2.5,3.7,2.5s7.9,1.5,8.6-2.4c0.8-3.9-0.4-7.1-2.9-6.7
		C144.5,132.3,140.2,131.7,140.2,131.7z"/>
	<path class="st6" d="M141.1,122.1c-2.1,0.4-2.8,3.5-2.5,6c0.4,2.5,2.6,2,3.1,2c0.5,0,6.6,1,7.4-2.3c0.7-3.3-0.1-6-2.3-5.6
		C144.7,122.5,141.1,122.1,141.1,122.1z"/>
	<path class="st6" d="M141.8,114.8c-1.7,0.4-2.4,2.9-2.3,4.9c0.2,2,2,1.5,2.4,1.4c0.4,0,5.3,0.5,6-2.2c0.7-2.7,0.1-4.7-1.6-4.4
		S141.8,114.8,141.8,114.8z"/>
	<path class="st6" d="M151,173.1c0-2.4-1-7.2,3.4-6.7C153.4,168.9,151.9,172.3,151,173.1z"/>
	<path class="st6" d="M131.3,166.2c1.6-0.4,4.8,0,3.1,6.4C132.9,171.6,131.3,166.2,131.3,166.2z"/>
	<path class="st6" d="M126.1,155c2.2-0.8,8.2-1.6,8.7,1.2s0.9,7.1-1.4,7.3c-2.3,0.2-3.5-0.2-4.3-1.4S126.1,155,126.1,155z"/>
	<path class="st6" d="M151.3,161.6c0,1.1,1.1,2.7,2.7,2.5c1.6-0.2,3-1.1,3.5-3.4c1.9-2.1,3.6-5.3,0.8-5.9c-2.8,0.5-6.2-0.9-7,2.7
		S151.3,161.6,151.3,161.6z"/>
	<path class="st6" d="M151.5,149.9c-0.1,1.2,0.6,3.4,4.3,3.1s5.2-0.7,5-3.4c-0.1-2.7,0.6-5.7-3.4-6S151.3,144.1,151.5,149.9z"/>
	<path class="st6" d="M126.2,147.2c0-1.8-1-4.9,5.2-4.3c2,0.9,4.6-1.1,3.8,5s-2,4.3-4.3,4.2C128.5,152,125.9,153.2,126.2,147.2z"/>
	<path class="st6" d="M126.2,135.9c0-1.8-1-4.9,5.2-4.3c2,0.9,4.6-1.1,3.8,5s-2,4.3-4.3,4.2C128.5,140.6,125.9,141.8,126.2,135.9z"
		/>
	<path class="st6" d="M152.1,136.7c0-1.8-1-4.9,5.2-4.3c2,0.9,4.6-1.1,3.8,5c-0.8,6.1-2,4.3-4.3,4.2S151.8,142.6,152.1,136.7z"/>
	<path class="st6" d="M128.1,126.2c-1.3-4.8,9.3-6.4,8.2-1C138.1,130.2,128.3,131.4,128.1,126.2z"/>
	<path class="st6" d="M151,126.7c-1.3-4.8,9.3-6.4,8.2-1C161,130.6,151.2,131.9,151,126.7z"/>
	<path class="st6" d="M132.1,117.7c-0.8-3.5,7.1-5,6.1-1C139.4,120.4,132.1,121.5,132.1,117.7z"/>
	<path class="st6" d="M150.4,118.5c-0.8-3.5,7.1-5,6.1-1C157.7,121.2,150.4,122.3,150.4,118.5z"/>
	
		<ellipse transform="matrix(8.457660e-02 -0.9964 0.9964 8.457660e-02 18.3311 241.6867)" class="st6" cx="140.7" cy="110.9" rx="2.2" ry="2.7"/>
	
		<ellipse transform="matrix(8.457660e-02 -0.9964 0.9964 8.457660e-02 24.5065 249.2226)" class="st6" cx="147.9" cy="111.3" rx="2.8" ry="3.6"/>
</g>
<path class="st7" d="M213.6,161.6c5.5-3.2,37.9-1.5,26.4,25.5s-25.8,37.5-39.2,21.8c-15.2,7.8-27-16.6-19-42.4
	S213.6,161.6,213.6,161.6z"/>
<path class="st8" d="M214,156.4c-8,1.9-15.9-34.6,5.2-10.6C237.9,126.6,263.5,144.6,214,156.4z"/>
<g>
	<path class="st9" d="M187.9,137.9c-1.2,9-9.1,25.8-11.2,26.1c4.9,9.5-3.6,9.4-5.9,10.5c-1.4,4.9-2.7,2.6-2,9.7
		c0.6,3.4-2.8,7.7-3.9,8.2c1.2,6.8-0.9,13.2-0.2,17.6c5-2.3,14.9-12,14-14.6s0.1-7.1,2.5-7.9c2.5-0.8,8.2-13.2,8.3-17.3
		s2.1-6,4.4-7.1c-2.2-3.4-1.8-6.2-0.5-9.9C192.2,142.2,190.8,142.6,187.9,137.9z"/>
	<path class="st10" d="M164.9,210c-4.3-2.2-19-5.6-10.3-19.9c1.8,1.9,11,6.6,11.2,6.9C165.8,200.4,164.7,209.1,164.9,210z"/>
	<path class="st11" d="M154.6,190.1c-0.1-1.5,0.7-5.9,1.1-5.9c0.4,0,10.3,6.9,10.5,7.1c-0.6,0.6-0.9,0.9-1.1,1
		c0.3,1.9,0.6,4.3,0.6,4.7C163.3,195.5,154.6,190.8,154.6,190.1z"/>
	<path class="st10" d="M166.2,191.4c4-5.2,2.6-6.5,2.6-9.9c0.1-3.5,0.7-3.6,1-4.2c0.6-0.9,0.6-1.2,0.7-1.4c-1.7-0.2-8.9-4.6-9.9-5.8
		c-1.3,2.2-7,7.4-5,14.1C157.3,185,165.9,191.3,166.2,191.4z"/>
	<path class="st11" d="M160.7,170.1c0.2-1.5,0.9-5.6,1.2-6.2c0.3-0.6,11.3,9.5,11.9,9.6c-1.3,0.6-2.6,0.9-3,0.9
		c-0.2,0.6,0.1,1.3-0.2,1.5C170.1,176.3,161.6,171.6,160.7,170.1z"/>
	<path class="st10" d="M161.8,164c0-1.6,1.2-6.7,6.3-9.6c0.2-0.8,0.8-2.3,1.2-2.3c1.4,1.9,10.1,7.9,10.5,7.8c-0.7,1.3-2,3.7-3.1,4.1
		c0.4,0.8,4.8,7.5-2.9,9.6C170.4,171.3,162.3,163.8,161.8,164z"/>
	<path class="st11" d="M169.3,152.1c0.1-1,0.9-3.9,1.5-4s11.1,6.9,11.2,7.3c-0.7,1.5-1.8,4.1-2.2,4.5
		C178.3,159.3,169.1,152.9,169.3,152.1z"/>
	<path class="st10" d="M170.8,148.1c0.2-1.8,1.2-5.6,4.4-6.8c2-1.6,5.6-5.2,4.6-7.8c2.1-0.8,7.5,1.1,8.1,4.4
		c-0.5,5.4-4.7,16.3-5.9,17.6C180.3,154.1,171.2,148.1,170.8,148.1z"/>
</g>
<g>
	<path class="st9" d="M20.6,133.2c1.2,9,9.1,25.8,11.2,26.1c-4.9,9.5,3.6,9.4,5.9,10.5c1.4,4.9,2.7,2.6,2,9.7
		c-0.6,3.4,2.8,7.7,3.9,8.2c-1.2,6.8,0.9,13.2,0.2,17.6c-5-2.3-14.9-12-14-14.6c0.9-2.6-0.1-7.1-2.5-7.9c-2.5-0.8-8.2-13.2-8.3-17.3
		c-0.1-4.1-2.1-6-4.4-7.1c2.2-3.4,1.8-6.2,0.5-9.9C16.2,137.6,17.6,137.9,20.6,133.2z"/>
	<path class="st10" d="M43.5,205.3c4.3-2.2,19-5.6,10.3-19.9c-1.8,1.9-11,6.6-11.2,6.9C42.6,195.7,43.7,204.4,43.5,205.3z"/>
	<path class="st11" d="M53.9,185.5c0.1-1.5-0.7-5.9-1.1-5.9c-0.4,0-10.3,6.9-10.5,7.1c0.6,0.6,0.9,0.9,1.1,1
		c-0.3,1.9-0.6,4.3-0.6,4.7C45.1,190.8,53.9,186.1,53.9,185.5z"/>
	<path class="st10" d="M42.2,186.8c-4-5.2-2.6-6.5-2.6-9.9c-0.1-3.5-0.7-3.6-1-4.2c-0.6-0.9-0.6-1.2-0.7-1.4
		c1.7-0.2,8.9-4.6,9.9-5.8c1.3,2.2,7,7.4,5,14.1C51.1,180.3,42.5,186.7,42.2,186.8z"/>
	<path class="st11" d="M47.8,165.5c-0.2-1.5-0.9-5.6-1.2-6.2c-0.3-0.6-11.3,9.5-11.9,9.6c1.3,0.6,2.6,0.9,3,0.9
		c0.2,0.6-0.1,1.3,0.2,1.5C38.3,171.6,46.8,167,47.8,165.5z"/>
	<path class="st10" d="M46.6,159.3c0-1.6-1.2-6.7-6.3-9.6c-0.2-0.8-0.8-2.3-1.2-2.3c-1.4,1.9-10.1,7.9-10.5,7.8
		c0.7,1.3,2,3.7,3.1,4.1c-0.4,0.8-4.8,7.5,2.9,9.6C38,166.6,46.2,159.1,46.6,159.3z"/>
	<path class="st11" d="M39.1,147.5c-0.1-1-0.9-3.9-1.5-4c-0.6-0.1-11.1,6.9-11.2,7.3c0.7,1.5,1.8,4.1,2.2,4.5
		C30.2,154.7,39.3,148.3,39.1,147.5z"/>
	<path class="st10" d="M37.7,143.5c-0.2-1.8-1.2-5.6-4.4-6.8c-2-1.6-5.6-5.2-4.6-7.8c-2.1-0.8-7.5,1.1-8.1,4.4
		c0.5,5.4,4.7,16.3,5.9,17.6C28.1,149.5,37.2,143.4,37.7,143.5z"/>
</g>
<path class="st12" d="M26.5,187c6.2,35.1,25.3,73.4,73.4,82.2c-1,12.4,64.1,11.9,63.6,3.1c24.8-4.7,76.5-34.1,77.5-85.3
	C183.1,204,60.1,201.9,26.5,187z"/>
<path class="st13" d="M230.3,269.5c-1.9,0.3-8.1,0.8-8.9-7.8c-0.8-14.8-2.8-38.2-2.8-40.9c0-2.8,1.1-5.6,5.8-5.6
	c4.7,0,36.2,0,36.2,0c3.3,0.3,6.7,0,7.5,4.2c0.8,4.2,7.2,42.3,7.2,42.3c0.8,4.7,0.6,8-5.3,7.9C264.3,269.5,230.3,269.5,230.3,269.5z
	"/>
<path class="st14" d="M224.5,270.9c1.7,2.2,6.7,4.7,9.4,4.7c2.7,0,20.4,0,22.8,0s7.6-3,7.8-3.8C264.7,271,224.5,270.9,224.5,270.9z"
	/>
<g>
	<rect x="219.3" y="222.5" class="st15" width="53.7" height="18"/>
	<text transform="matrix(1 0 0 1 230.5264 228.4198)"><tspan x="0" y="0" class="st16 st17 st18">Pomme </tspan><tspan x="3.9" y="10.1" class="st16 st17 st18">Curry</tspan></text>
</g>
<g>
	<path class="st19" d="M248.3,261.1h-2.1c0-0.4,0-0.7,0-0.8h2.1C248.3,260.5,248.3,260.8,248.3,261.1z"/>
	<path class="st19" d="M246.1,257.3h2.3c0.9-15.4,5.7-11.5,5.4,4.8h2.3c-0.4-14.3-5.3-21.2-8.9-10.6c-3.3-10.9-8.9-2.8-8.8,10.6h2.2
		C240.9,246.5,244.8,241.3,246.1,257.3z"/>
	<text transform="matrix(1 0 0 1 241.7549 259.9784)" class="st16 st20 st21">McData</text>
</g>
</svg>
