<?xml version="1.0" encoding="utf-8"?>
<!-- Generator: Adobe Illustrator 24.1.0, SVG Export Plug-In . SVG Version: 6.00 Build 0)  -->
<svg version="1.1" id="Calque_1" xmlns="http://www.w3.org/2000/svg" xmlns:xlink="http://www.w3.org/1999/xlink" x="0px" y="0px"
	 viewBox="0 0 283.5 283.5" style="enable-background:new 0 0 283.5 283.5;" xml:space="preserve">
<style type="text/css">
	.st0{fill:#22A84D;stroke:#00983A;stroke-miterlimit:10;}
	.st1{fill:none;stroke:#00983A;stroke-miterlimit:10;}
	.st2{fill:#E62F2A;}
	.st3{fill:#86B15B;}
	.st4{fill:#FCEEDE;}
	.st5{fill:#F0C25E;stroke:#61390E;stroke-width:0.5;stroke-miterlimit:10;}
	.st6{fill:none;stroke:#61390E;stroke-width:0.5;stroke-miterlimit:10;}
	.st7{fill:#E0D1CA;}
	.st8{fill:#005738;}
	.st9{fill:#BDC7C9;}
	.st10{fill:#FFFFFF;}
	.st11{fill:#FEC900;}
	.st12{font-family:'Roboto-Black';}
	.st13{font-size:2.7254px;}
</style>
<g>
	<path class="st0" d="M87.1,155.8c-11.9,8.3-29.9,19.5-4.3,44.5c3.1,5.4,4.8,10.5-8.6,14.8C64.8,211.6,43.9,206,34,189
		c-11.8-0.6-14.2-9.6-12.6-12.6c-9.6-8.4-12.1-15.5-2.8-23.9c-5.7-9.9-4.2-16,1.9-19c-4.2-7.8-2.1-11.1,6-14.9
		c6.7-8.5,13.4-8.7,16.2-1.2c14.5-8.2,15.1,0.8,16.5,3c12.8-5.1,31.7,6.7,13.9,30.8C83.7,145.5,87.1,155.8,87.1,155.8z"/>
	<path class="st1" d="M54.5,130c-27.8,9.1-11.6,57.6,29,80.1"/>
	<path class="st1" d="M41.9,127.3c-0.3,4.2,3.4,8.8,3.6,8.6"/>
	<path class="st1" d="M57.2,141.5c-5.1,1.8-13,3.8-16.6,9.7"/>
	<path class="st1" d="M28.3,155.1c1.8,2.5,8.5,10.7,14.5,8.3"/>
	<path class="st1" d="M57.2,165.9c-3.4,3.1-9.6,8.9-7.9,11.5"/>
</g>
<g>
	<path class="st0" d="M147.5,151.8c-13.6,9.4-34,22.4-7.6,46.9c3.1,5.4,4.6,10.7-10.4,16.1c-10.1-3.1-32.6-7.5-42.3-24.7
		c-12.8,0.1-15-9.1-12.9-12.4c-10-8.2-12.2-15.4-1.5-24.8c-5.5-10-3.5-16.4,3.3-20c-4.1-7.9-1.6-11.5,7.6-16
		c7.9-9.3,15.3-10,17.8-2.3c16.4-9.5,16.5-0.1,17.9,2c14.4-6.2,34.3,4.9,13.2,31.3C144.5,141.3,147.5,151.8,147.5,151.8z"/>
	<path class="st1" d="M113.6,127c-31.1,11.3-16.5,61,26.4,81.9"/>
	<path class="st1" d="M99.9,125c-0.6,4.5,3.2,9,3.3,8.8"/>
	<path class="st1" d="M115.8,138.8c-5.6,2.2-14.5,4.8-18.8,11.2"/>
	<path class="st1" d="M83.2,155c1.8,2.5,8.6,10.6,15.4,7.8"/>
	<path class="st1" d="M114.1,164.4c-3.9,3.5-11.1,9.9-9.4,12.6"/>
</g>
<g>
	<path class="st0" d="M167.1,151.7c11.9,8.3,29.9,19.5,4.3,44.5c-3.1,5.4-4.8,10.5,8.6,14.8c9.4-3.5,30.3-9.1,40.2-26.1
		c11.8-0.6,14.2-9.6,12.6-12.6c9.6-8.4,12.1-15.5,2.8-23.9c5.7-9.9,4.2-16-1.9-19c4.2-7.8,2.1-11.1-6-14.9
		c-6.7-8.5-13.4-8.7-16.2-1.2c-14.5-8.2-15.1,0.8-16.5,3c-12.8-5.1-31.7,6.7-13.9,30.8C170.5,141.4,167.1,151.7,167.1,151.7z"/>
	<path class="st1" d="M199.7,125.9c27.8,9.1,11.6,57.6-29,80.1"/>
	<path class="st1" d="M212.3,123.2c0.3,4.2-3.4,8.8-3.6,8.6"/>
	<path class="st1" d="M197,137.4c5.1,1.8,13,3.8,16.6,9.7"/>
	<path class="st1" d="M225.9,151c-1.8,2.5-8.5,10.7-14.5,8.3"/>
	<path class="st1" d="M197,161.8c3.4,3.1,9.6,8.9,7.9,11.5"/>
</g>
<g>
	<path class="st0" d="M103.3,146.8c15,10.5,37.6,24.9,10.6,48.9c-3,5.5-4.4,10.8,12,17.2c10.6-2.7,34.6-6.2,44.2-23.4
		c13.8,0.8,15.6-8.7,13.3-12.2c10.3-7.9,12.3-15.4,0.3-25.6c5.4-10.1,3-16.8-4.6-20.8c3.9-8,1.1-11.8-8.9-16.9
		c-9-10-16.9-11.2-19.2-3.3c-18.1-10.7-17.7-1-19.1,1.2c-15.7-7.2-36.6,3.3-12.6,31.8C106,136.1,103.3,146.8,103.3,146.8z"/>
	<path class="st1" d="M138.5,122.9c33.9,13.3,20.8,64-24.2,83.5"/>
	<path class="st1" d="M153.1,121.5c0.9,4.6-3,9.1-3.1,8.9"/>
	<path class="st1" d="M136.7,134.9c6.2,2.5,15.8,5.8,20.7,12.6"/>
	<path class="st1" d="M172.5,153.3c-1.8,2.5-8.7,10.5-16.1,7.3"/>
	<path class="st1" d="M139.8,161.5c4.4,3.8,12.4,10.8,10.8,13.5"/>
</g>
<path class="st1" d="M49.5,192.3c4.1,1.2,9.7,1,11.3,0.2"/>
<g>
	<ellipse class="st2" cx="123.6" cy="188.2" rx="14.7" ry="15.1"/>
	<polygon class="st3" points="121.1,173.6 117.9,169.7 119.5,175.1 112.8,178.4 120.3,176.8 121.1,182.8 123.2,177.3 129.7,181.1 
		124.5,175.2 129.7,171.8 123.9,173.9 123.9,169 	"/>
</g>
<g>
	<ellipse class="st2" cx="79.9" cy="184.9" rx="14.7" ry="15.1"/>
	<polygon class="st3" points="77.4,170.3 74.2,166.3 75.8,171.7 69.1,175 76.6,173.4 77.4,179.4 79.5,173.9 86,177.7 80.8,171.8 
		86,168.4 80.2,170.5 80.2,165.7 	"/>
</g>
<g>
	<ellipse class="st2" cx="51.3" cy="184.3" rx="14.7" ry="15.1"/>
	<polygon class="st3" points="48.7,169.7 45.6,165.8 47.2,171.2 40.5,174.5 48,172.9 48.7,178.9 50.8,173.4 57.4,177.2 52.1,171.3 
		57.4,167.9 51.6,170 51.6,165.2 	"/>
</g>
<circle class="st4" cx="140.7" cy="191.9" r="12.4"/>
<circle class="st4" cx="228.7" cy="183.8" r="12.4"/>
<circle class="st4" cx="201.1" cy="189.2" r="12.4"/>
<g>
	<path class="st5" d="M50.4,198.8c1.4-11.5-5-11.5,11.1-14.7c4.9,2,7.5,3,8.7,4.5c1.3,1.7,1,4,0.4,8.8
		C66.6,203.4,60.3,206,50.4,198.8z"/>
	<path class="st6" d="M60.7,192.5c-4.7-0.2,7.6,0.6,9.5-3.8"/>
</g>
<g>
	<path class="st5" d="M84.3,198.8c1.4-11.5-5-11.5,11.1-14.7c4.9,2,7.5,3,8.7,4.5c1.3,1.7,1,4,0.4,8.8
		C100.4,203.4,94.1,206,84.3,198.8z"/>
	<path class="st6" d="M94.6,192.5c-4.7-0.2,7.6,0.6,9.5-3.8"/>
</g>
<g>
	<path class="st5" d="M99,198.8c1.4-11.5-5-11.5,11.1-14.7c4.9,2,7.5,3,8.7,4.5c1.3,1.7,1,4,0.4,8.8C115.1,203.4,108.8,206,99,198.8
		z"/>
	<path class="st6" d="M109.3,192.5c-4.7-0.2,7.6,0.6,9.5-3.8"/>
</g>
<g>
	<path class="st5" d="M206,193.3c1.4-11.5-5-11.5,11.1-14.7c4.9,2,7.5,3,8.7,4.5c1.3,1.7,1,4,0.4,8.8
		C222.2,198,215.9,200.6,206,193.3z"/>
	<path class="st6" d="M216.3,187c-4.7-0.2,7.6,0.6,9.5-3.8"/>
</g>
<g>
	<path class="st5" d="M162.2,197.6c1.4-11.5-5-11.5,11.1-14.7c4.9,2,7.5,3,8.7,4.5c1.3,1.7,1,4,0.4,8.8
		C178.4,202.3,172,204.9,162.2,197.6z"/>
	<path class="st6" d="M172.5,191.3c-4.7-0.2,7.6,0.6,9.5-3.8"/>
</g>
<path class="st7" d="M26.5,187c6.2,35.1,25.3,73.4,73.4,82.2c-1,12.4,64.1,11.9,63.6,3.1c24.8-4.7,76.5-34.1,77.5-85.3
	C183.1,204,60.1,201.9,26.5,187z"/>
<path class="st8" d="M227.3,268.4c-1.6,0.2-6.8,0.7-7.5-6.6c-0.7-12.4-2.3-32.1-2.3-34.4c0-2.3,0.9-4.7,4.9-4.7s30.4,0,30.4,0
	c2.8,0.2,5.6,0,6.3,3.5c0.7,3.5,6.1,35.6,6.1,35.6c0.7,4,0.5,6.8-4.4,6.7C255.8,268.4,227.3,268.4,227.3,268.4z"/>
<path class="st9" d="M222.3,269.6c1.4,1.9,5.6,4,7.9,4s17.2,0,19.2,0c2,0,6.4-2.5,6.6-3.2C256.1,269.7,222.3,269.6,222.3,269.6z"/>
<g>
	<path class="st10" d="M229.7,238.3h0.6v-3.6h-0.6V234h2.4c0.3,0,0.6,0,0.8,0.1c0.5,0.2,0.9,0.8,0.9,1.5c0,0.7-0.4,1.3-1,1.5
		c-0.2,0.1-0.5,0.1-0.8,0.1h-0.9v1.1h0.6v0.7h-2.1V238.3z M232,236.5c0.2,0,0.4,0,0.5-0.1c0.3-0.1,0.4-0.4,0.4-0.8
		c0-0.3-0.1-0.6-0.4-0.7c-0.1-0.1-0.3-0.1-0.5-0.1h-0.8v1.7H232z"/>
	<path class="st10" d="M234.2,238.3h0.6v-3.6h-0.6V234h3.7v1.3h-0.8v-0.5h-1.4v1.4h1.6v0.7h-1.6v1.4h1.5v-0.6h0.8v1.3h-3.8V238.3z"
		/>
	<path class="st10" d="M239.3,237.4v0.4c0,0.3,0.4,0.5,0.9,0.5c0.5,0,0.9-0.2,0.9-0.6c0-0.5-0.6-0.7-1.1-0.9
		c-0.7-0.3-1.3-0.6-1.3-1.5c0-1,0.8-1.4,1.7-1.4c0.8,0,1.6,0.3,1.6,0.9v0.7H241v-0.3c0-0.3-0.4-0.4-0.7-0.4c-0.4,0-0.7,0.2-0.7,0.5
		c0,0.5,0.5,0.6,1,0.8c0.7,0.3,1.5,0.6,1.5,1.5c0,1-0.9,1.5-1.8,1.5c-0.8,0-1.7-0.4-1.7-1.1v-0.6H239.3z"/>
	<path class="st10" d="M243.4,238.3h0.6v-3.6h-0.9v0.8h-0.8V234h4.4v1.5h-0.8v-0.8h-1v3.6h0.6v0.7h-2.1V238.3z"/>
	<path class="st10" d="M249.5,233.9c1.5,0,2.6,1.1,2.6,2.5c0,1.5-1.1,2.6-2.6,2.6s-2.6-1.1-2.6-2.6C247,235,248.1,233.9,249.5,233.9
		z M249.5,238.2c0.9,0,1.6-0.8,1.6-1.8c0-1-0.7-1.7-1.6-1.7s-1.6,0.8-1.6,1.7C247.9,237.5,248.6,238.2,249.5,238.2z"/>
</g>
<path class="st11" d="M242.3,259.7h-1.8c0-0.3,0-0.6,0-0.7h1.8C242.3,259.3,242.3,259.5,242.3,259.7z"/>
<path class="st11" d="M240.4,256.6h1.9c0.8-13,4.8-9.7,4.5,4.1h1.9c-0.4-12-4.4-17.8-7.4-8.9c-2.8-9.2-7.4-2.4-7.4,8.9h1.8
	C236.1,247.5,239.3,243.1,240.4,256.6z"/>
<text transform="matrix(1 0 0 1 236.7699 258.8174)" class="st10 st12 st13">McData</text>
</svg>
