<?xml version="1.0" encoding="utf-8"?>
<!-- Generator: Adobe Illustrator 24.1.0, SVG Export Plug-In . SVG Version: 6.00 Build 0)  -->
<svg version="1.1" id="Calque_1" xmlns="http://www.w3.org/2000/svg" xmlns:xlink="http://www.w3.org/1999/xlink" x="0px" y="0px"
	 viewBox="0 0 283.5 283.5" style="enable-background:new 0 0 283.5 283.5;" xml:space="preserve">
<style type="text/css">
	.st0{fill:#22A84D;stroke:#00983A;stroke-miterlimit:10;}
	.st1{fill:none;stroke:#00983A;stroke-miterlimit:10;}
	.st2{fill:#F7A753;}
	.st3{fill:#F7AE6C;}
	.st4{fill:#FBC998;}
	.st5{fill:#E62F2A;}
	.st6{fill:#86B15B;}
	.st7{fill:#FFDE3F;}
	.st8{fill:#F59A00;}
	.st9{fill:none;stroke:#FFD007;stroke-width:0.5;stroke-miterlimit:10;}
	.st10{fill:#E4051E;}
	.st11{fill:#008332;}
	.st12{fill:#E84710;}
	.st13{fill:#9C1914;}
	.st14{fill:#E0D1CA;}
	.st15{fill:#CB990C;}
	.st16{fill:#BDC7C9;}
	.st17{fill:none;}
	.st18{fill:#FFFFFF;}
	.st19{font-family:'MuseoSlab-700';}
	.st20{font-size:7.4837px;}
	.st21{fill:#FEC900;}
	.st22{font-family:'Roboto-Black';}
	.st23{font-size:2.8958px;}
</style>
<g>
	<path class="st0" d="M167.1,151.7c11.9,8.3,29.9,19.5,4.3,44.5c-3.1,5.4-4.8,10.5,8.6,14.8c9.4-3.5,30.3-9.1,40.2-26.1
		c11.8-0.6,14.2-9.6,12.6-12.6c9.6-8.4,12.1-15.5,2.8-23.9c5.7-9.9,4.2-16-1.9-19c4.2-7.8,2.1-11.1-6-14.9
		c-6.7-8.5-13.4-8.7-16.2-1.2c-14.5-8.2-15.1,0.8-16.5,3c-12.8-5.1-31.7,6.7-13.9,30.8C170.5,141.4,167.1,151.7,167.1,151.7z"/>
	<path class="st1" d="M199.7,125.9c27.8,9.1,11.6,57.6-29,80.1"/>
	<path class="st1" d="M212.3,123.2c0.3,4.2-3.4,8.8-3.6,8.6"/>
	<path class="st1" d="M197,137.4c5.1,1.8,13,3.8,16.6,9.7"/>
	<path class="st1" d="M225.9,151c-1.8,2.5-8.5,10.7-14.5,8.3"/>
	<path class="st1" d="M197,161.8c3.4,3.1,9.6,8.9,7.9,11.5"/>
</g>
<g>
	<path class="st0" d="M147.5,151.8c-13.6,9.4-34,22.4-7.6,46.9c3.1,5.4,4.6,10.7-10.4,16.1c-10.1-3.1-32.6-7.5-42.3-24.7
		c-12.8,0.1-15-9.1-12.9-12.4c-10-8.2-12.2-15.4-1.5-24.8c-5.5-10-3.5-16.4,3.3-20c-4.1-7.9-1.6-11.5,7.6-16
		c7.9-9.3,15.3-10,17.8-2.3c16.4-9.5,16.5-0.1,17.9,2c14.4-6.2,34.3,4.9,13.2,31.3C144.5,141.3,147.5,151.8,147.5,151.8z"/>
	<path class="st1" d="M113.6,127c-31.1,11.3-16.5,61,26.4,81.9"/>
	<path class="st1" d="M99.9,125c-0.6,4.5,3.2,9,3.3,8.8"/>
	<path class="st1" d="M115.8,138.8c-5.6,2.2-14.5,4.8-18.8,11.2"/>
	<path class="st1" d="M83.2,155c1.8,2.5,8.6,10.6,15.4,7.8"/>
	<path class="st1" d="M114.1,164.4c-3.9,3.5-11.1,9.9-9.4,12.6"/>
</g>
<g>
	<path class="st0" d="M103.3,146.8c15,10.5,37.6,24.9,10.6,48.9c-3,5.5-4.4,10.8,12,17.2c10.6-2.7,34.6-6.2,44.2-23.4
		c13.8,0.8,15.6-8.7,13.3-12.2c10.3-7.9,12.3-15.4,0.3-25.6c5.4-10.1,3-16.8-4.6-20.8c3.9-8,1.1-11.8-8.9-16.9
		c-9-10-16.9-11.2-19.2-3.3c-18.1-10.7-17.7-1-19.1,1.2c-15.7-7.2-36.6,3.3-12.6,31.8C106,136.1,103.3,146.8,103.3,146.8z"/>
	<path class="st1" d="M138.5,122.9c33.9,13.3,20.8,64-24.2,83.5"/>
	<path class="st1" d="M153.1,121.5c0.9,4.6-3,9.1-3.1,8.9"/>
	<path class="st1" d="M136.7,134.9c6.2,2.5,15.8,5.8,20.7,12.6"/>
	<path class="st1" d="M172.5,153.3c-1.8,2.5-8.7,10.5-16.1,7.3"/>
	<path class="st1" d="M139.8,161.5c4.4,3.8,12.4,10.8,10.8,13.5"/>
</g>
<g>
	<path class="st2" d="M132.2,170.9c4.4-20.3,29.8-33.4,41.1-1.3C186.6,216.6,122.5,220.3,132.2,170.9z"/>
	<path class="st3" d="M135.2,169.6c2.7-17.5,28.4-28.4,24.5,4.2C153.7,199.6,131.2,195.2,135.2,169.6z"/>
	<path class="st4" d="M142,168.2c-4.7-4.8,3.2-14.5,9.7-13.5C156.9,157,146.9,171.4,142,168.2z"/>
</g>
<g>
	<path class="st0" d="M87.1,155.8c-11.9,8.3-29.9,19.5-4.3,44.5c3.1,5.4,4.8,10.5-8.6,14.8C64.8,211.6,43.9,206,34,189
		c-11.8-0.6-14.2-9.6-12.6-12.6c-9.6-8.4-12.1-15.5-2.8-23.9c-5.7-9.9-4.2-16,1.9-19c-4.2-7.8-2.1-11.1,6-14.9
		c6.7-8.5,13.4-8.7,16.2-1.2c14.5-8.2,15.1,0.8,16.5,3c12.8-5.1,31.7,6.7,13.9,30.8C83.7,145.5,87.1,155.8,87.1,155.8z"/>
	<path class="st1" d="M54.5,130c-27.8,9.1-11.6,57.6,29,80.1"/>
	<path class="st1" d="M41.9,127.3c-0.3,4.2,3.4,8.8,3.6,8.6"/>
	<path class="st1" d="M57.2,141.5c-5.1,1.8-13,3.8-16.6,9.7"/>
	<path class="st1" d="M28.3,155.1c1.8,2.5,8.5,10.7,14.5,8.3"/>
	<path class="st1" d="M57.2,165.9c-3.4,3.1-9.6,8.9-7.9,11.5"/>
</g>
<path class="st1" d="M49.5,192.3c4.1,1.2,9.7,1,11.3,0.2"/>
<g>
	<ellipse class="st5" cx="76.7" cy="184.4" rx="14.7" ry="15.1"/>
	<polygon class="st6" points="74.1,169.8 71,165.9 72.5,171.2 65.9,174.5 73.4,172.9 74.1,179 76.2,173.5 82.8,177.3 77.5,171.4 
		82.8,168 77,170.1 77,165.2 	"/>
</g>
<g>
	<ellipse class="st5" cx="128.1" cy="189.2" rx="14.7" ry="15.1"/>
	<polygon class="st6" points="125.6,174.6 122.5,170.6 124,176 117.3,179.3 124.9,177.7 125.6,183.8 127.7,178.3 134.3,182.1 
		129,176.2 134.3,172.7 128.4,174.8 128.4,170 	"/>
</g>
<g>
	<polygon class="st7" points="164.4,188.2 167.5,197.7 169.6,176.8 166.4,169.9 	"/>
	<path class="st7" d="M198.8,198.2l-31.2-0.5l2.1-20.9l27.2,0.7c1.3,1.9,2.3,2.6,2.7,2.3L198.8,198.2z"/>
	<path class="st7" d="M195.1,169.4l-4.5-0.1c-1.1,0.7-3.1,1.1-4.5,0.1l-19.7,0.5l3.2,6.9l27.2,0.7c0.5-1,0.4-1.8,1.7-1.9
		L195.1,169.4z"/>
	<ellipse transform="matrix(0.1139 -0.9935 0.9935 0.1139 -8.9582 335.0116)" class="st8" cx="183.3" cy="172.5" rx="1" ry="2"/>
	
		<ellipse transform="matrix(0.1139 -0.9935 0.9935 0.1139 -17.2624 325.558)" class="st8" cx="173.9" cy="172.5" rx="1.5" ry="2.9"/>
	
		<ellipse transform="matrix(0.1139 -0.9935 0.9935 0.1139 -4.1896 344.7148)" class="st8" cx="191.1" cy="174.7" rx="0.7" ry="1.1"/>
	
		<ellipse transform="matrix(0.1139 -0.9935 0.9935 0.1139 -17.4276 346.6903)" class="st8" cx="185.6" cy="183.1" rx="3.1" ry="2.9"/>
	<ellipse transform="matrix(0.2157 -0.9765 0.9765 0.2157 -39.3823 334.5)" class="st8" cx="188.5" cy="191.8" rx="2.6" ry="3.5"/>
	<ellipse transform="matrix(0.1139 -0.9935 0.9935 0.1139 -31.6826 342.8119)" class="st8" cx="176.3" cy="189.2" rx="1.5" ry="2"/>
	
		<ellipse transform="matrix(4.371467e-02 -0.999 0.999 4.371467e-02 -19.3875 337.8156)" class="st8" cx="166.8" cy="179" rx="1.9" ry="0.9"/>
	
		<ellipse transform="matrix(4.371467e-02 -0.999 0.999 4.371467e-02 -27.0867 344.9174)" class="st8" cx="166.6" cy="186.6" rx="1.1" ry="0.9"/>
	<polyline class="st9" points="196.8,177.5 169.6,176.8 167.5,197.7 	"/>
	<line class="st9" x1="169.6" y1="176.8" x2="166.4" y2="169.9"/>
</g>
<path class="st10" d="M211,142.9c4.6-5.4,39.3-15,36.8,17.5c-2.5,32.5-13.9,48.6-33.6,36.8c-13.2,13.6-34.3-7.9-35-37.9
	C178.4,129.3,211,142.9,211,142.9z"/>
<path class="st11" d="M209.5,137.2c-7.8,4.9-29-30.9,1.7-13C224.2,97.4,257.5,107.3,209.5,137.2z"/>
<g>
	<polygon class="st7" points="81.4,194.1 84.5,203.6 86.6,182.7 83.4,175.8 	"/>
	<path class="st7" d="M115.8,204.1l-31.2-0.5l2.1-20.9l27.2,0.7c1.3,1.9,2.3,2.6,2.7,2.3L115.8,204.1z"/>
	<path class="st7" d="M112.1,175.2l-4.5-0.1c-1.1,0.7-3.1,1.1-4.5,0.1l-19.7,0.5l3.2,6.9l27.2,0.7c0.5-1,0.4-1.8,1.7-1.9
		L112.1,175.2z"/>
	<ellipse transform="matrix(0.1139 -0.9935 0.9935 0.1139 -88.3592 257.7529)" class="st8" cx="100.3" cy="178.4" rx="1" ry="2"/>
	
		<ellipse transform="matrix(0.1139 -0.9935 0.9935 0.1139 -96.6635 248.2993)" class="st8" cx="90.9" cy="178.3" rx="1.5" ry="2.9"/>
	
		<ellipse transform="matrix(0.1139 -0.9935 0.9935 0.1139 -83.5907 267.4561)" class="st8" cx="108.1" cy="180.6" rx="0.7" ry="1.1"/>
	<ellipse transform="matrix(0.1139 -0.9935 0.9935 0.1139 -96.8286 269.4315)" class="st8" cx="102.6" cy="189" rx="3.1" ry="2.9"/>
	
		<ellipse transform="matrix(0.2157 -0.9765 0.9765 0.2157 -110.2335 258.0561)" class="st8" cx="105.5" cy="197.6" rx="2.6" ry="3.5"/>
	<ellipse transform="matrix(0.1139 -0.9935 0.9935 0.1139 -111.0837 265.5532)" class="st8" cx="93.3" cy="195" rx="1.5" ry="2"/>
	
		<ellipse transform="matrix(4.371467e-02 -0.999 0.999 4.371467e-02 -104.6462 260.5089)" class="st8" cx="83.8" cy="184.9" rx="1.9" ry="0.9"/>
	
		<ellipse transform="matrix(4.371467e-02 -0.999 0.999 4.371467e-02 -112.3454 267.6107)" class="st8" cx="83.6" cy="192.5" rx="1.1" ry="0.9"/>
	<polyline class="st9" points="113.8,183.4 86.6,182.7 84.5,203.6 	"/>
	<line class="st9" x1="86.6" y1="182.7" x2="83.4" y2="175.8"/>
</g>
<g>
	<path class="st12" d="M7.4,93.4l35.3-8.9c6.2,1.5,4.7,12.5,4.5,17.9c2.7,6.6,10.7,17.9,11.4,40.7c6,17.1,10.7,29.9,10,39.9
		c5.3,15.1,9.7,23.6,4.2,24.5l-34.5,10.2c-5.1-0.7-3.9-5.3-4.7-16.5c-3.8-12.2-10.3-25.8-10.4-43.4c-3.9-13.3-9.7-20.5-9.8-39.1
		C7.1,104.5,4.2,96.1,7.4,93.4z"/>
	<path class="st13" d="M17.3,113.1c1.1,8.5,2.9,26.3,10.2,40.4c1.5,10.9,3,25.9,8.2,35.2c2.7,8.3,4.4,20,4.3,22.7
		c0.5,2.3,4.5,4.4,4.8,4.3s5.6-1.7,5.6-1.7c-3.2-3-4.6-2-5.1-16c-1.7-10.7-6.6-18.2-7.2-20.9c-2.1-9.3-3.1-15.8-3.2-19.4
		c-0.2-6.9-11.9-27.3-10.1-41.1c-0.4-4.8-5.7-17.5-6.3-18.8c0.1-2.9-0.3-5.8,1.2-7.4l-5.9,1.5C11.2,96.9,9.8,97.1,17.3,113.1z"/>
	<path class="st13" d="M43.7,106.6c3.1,8,9.9,24.6,10.2,40.4c3.9,10.3,9.6,24.2,9.4,34.9c1.5,8.6,5.6,19.7,6.9,22
		c0.6,2.2-1.9,6-2.2,6.1c-0.3,0.1-5.7,1.2-5.7,1.2c1.4-4.1,3-4-3.1-16.5c-3.6-10.2-2.8-19.1-3.6-21.8c-2.5-9.2-4.7-15.4-6.4-18.6
		c-3.1-6.2-2.4-29.7-10.6-41c-1.9-4.4-3.3-18.1-3.3-19.6c-1.4-2.5-2.5-5.2-4.6-6l5.9-1.5C41.5,89.4,42.8,89,43.7,106.6z"/>
</g>
<path class="st14" d="M26.5,187c6.2,35.1,25.3,73.4,73.4,82.2c-1,12.4,64.1,11.9,63.6,3.1c24.8-4.7,76.5-34.1,77.5-85.3
	C183.1,204,60.1,201.9,26.5,187z"/>
<path class="st15" d="M226.4,269.6c-1.7,0.2-7.2,0.7-8-7c-0.7-13.2-2.5-34.1-2.5-36.6s1-5,5.2-5c4.2,0,32.3,0,32.3,0
	c3,0.2,6,0,6.7,3.7c0.7,3.7,6.5,37.8,6.5,37.8c0.7,4.2,0.5,7.2-4.7,7.1S226.4,269.6,226.4,269.6z"/>
<path class="st16" d="M221.1,270.9c1.5,2,6,4.2,8.4,4.2s18.3,0,20.4,0s6.8-2.7,7-3.4C257.1,271,221.1,270.9,221.1,270.9z"/>
<g>
	<rect x="217.4" y="233" class="st17" width="47.9" height="10.4"/>
	<text transform="matrix(1 0 0 1 217.3971 238.3129)" class="st18 st19 st20">MOUTARDE</text>
</g>
<g>
	<path class="st21" d="M242.4,262.1h-1.9c0-0.3,0-0.7,0-0.8h1.9C242.4,261.6,242.4,261.9,242.4,262.1z"/>
	<path class="st21" d="M240.5,258.8h2.1c0.8-13.8,5.1-10.3,4.8,4.3h2.1c-0.4-12.8-4.7-18.9-7.9-9.5c-3-9.7-7.9-2.5-7.8,9.5h2
		C235.8,249.1,239.3,244.4,240.5,258.8z"/>
	<text transform="matrix(1 0 0 1 236.566 261.1381)" class="st18 st22 st23">McData</text>
</g>
</svg>
