<?xml version="1.0" encoding="utf-8"?>
<!-- Generator: Adobe Illustrator 24.1.0, SVG Export Plug-In . SVG Version: 6.00 Build 0)  -->
<svg version="1.1" id="Calque_1" xmlns="http://www.w3.org/2000/svg" xmlns:xlink="http://www.w3.org/1999/xlink" x="0px" y="0px"
	 viewBox="0 0 283.5 283.5" style="enable-background:new 0 0 283.5 283.5;" xml:space="preserve">
<style type="text/css">
	.st0{fill:#F59E47;}
	.st1{fill:#00983D;}
	.st2{fill:#FFE3B1;}
	.st3{fill:#B55E16;}
</style>
<path class="st0" d="M36.7,168.4c-8.1-84.9,191.9-128.4,214,0C187.9,157.3,82.4,155.1,36.7,168.4z"/>
<path class="st1" d="M36.4,178.7c68-14.7,182.3-9.7,216.3,2.6c2.9,5.9-0.2,6.8-4.9,6.5c-32.5-11.6-168-11.9-208-1.3
	C32.3,184.3,34,182.1,36.4,178.7z"/>
<ellipse class="st2" cx="88.1" cy="127.3" rx="4.8" ry="2.2"/>
<ellipse transform="matrix(0.2769 -0.9609 0.9609 0.2769 -33.4071 180.7137)" class="st2" cx="103.4" cy="112.6" rx="4.8" ry="2.2"/>
<ellipse transform="matrix(0.866 -0.5 0.5 0.866 -44.8154 79.3145)" class="st2" cx="125.6" cy="123.3" rx="4.8" ry="2.2"/>
<ellipse transform="matrix(0.8207 -0.5713 0.5713 0.8207 -34.4183 102.0892)" class="st2" cx="145.5" cy="105.9" rx="2.2" ry="4.8"/>
<ellipse class="st2" cx="166.9" cy="134.1" rx="4.8" ry="2.2"/>
<ellipse transform="matrix(0.2769 -0.9609 0.9609 0.2769 21.646 287.6554)" class="st2" cx="202" cy="129.4" rx="4.8" ry="2.2"/>
<ellipse transform="matrix(0.9485 -0.3168 0.3168 0.9485 -37.4557 67.782)" class="st2" cx="189.7" cy="149.1" rx="2.2" ry="4.8"/>
<ellipse transform="matrix(0.1067 -0.9943 0.9943 0.1067 51.8523 348.0506)" class="st2" cx="219.6" cy="145.2" rx="2.2" ry="4.8"/>
<ellipse transform="matrix(0.2769 -0.9609 0.9609 0.2769 -29.3375 237.2647)" class="st2" cx="143" cy="138.1" rx="4.8" ry="2.2"/>
<ellipse transform="matrix(0.8838 -0.4678 0.4678 0.8838 -33.1474 94.0632)" class="st2" cx="172.8" cy="113.8" rx="4.8" ry="2.2"/>
<ellipse transform="matrix(0.5 -0.866 0.866 0.5 -69.4534 165.3511)" class="st2" cx="108.5" cy="142.8" rx="2.2" ry="4.8"/>
<ellipse transform="matrix(0.9335 -0.3585 0.3585 0.9335 -48.7369 37.7836)" class="st2" cx="77.5" cy="150.3" rx="4.8" ry="2.2"/>
<path class="st0" d="M38.9,227.6c26.7,8.8,192.9,11.2,209.7-0.5c3.5,17.6-0.7,29-6.6,28.3c-17.6,11.5-179.4,13.8-196.6,0.5
	C35.3,249.3,35.2,237.7,38.9,227.6z"/>
<path class="st3" d="M34.5,193.8c63.8,9,182.3,3.1,214.2,2.3c3.4,5.1,1.9,22.6,0,23.1c-42.2,11-169.2,10-212.7,0
	C31.5,209,32.3,199,34.5,193.8z"/>
</svg>
