<?xml version="1.0" encoding="utf-8"?>
<!-- Generator: Adobe Illustrator 24.1.0, SVG Export Plug-In . SVG Version: 6.00 Build 0)  -->
<svg version="1.1" id="Calque_1" xmlns="http://www.w3.org/2000/svg" xmlns:xlink="http://www.w3.org/1999/xlink" x="0px" y="0px"
	 viewBox="0 0 283.5 283.5" style="enable-background:new 0 0 283.5 283.5;" xml:space="preserve">
<style type="text/css">
	.st0{fill:#F59E47;}
	.st1{fill:#00983D;}
	.st2{fill:#FFE3B1;}
	.st3{fill:#69B42D;stroke:#168536;stroke-miterlimit:10;}
	.st4{fill:#E6243B;stroke:#C8161A;stroke-width:2;stroke-miterlimit:10;}
	.st5{fill:#E6243B;stroke:#BF1618;stroke-width:2;stroke-miterlimit:10;}
	.st6{fill:#FAEE6F;}
	.st7{fill:#D3E5BC;}
	.st8{fill:#C3153D;}
	.st9{fill:#F9D0DF;}
	.st10{fill:none;stroke:#000000;stroke-width:0.5;stroke-miterlimit:10;}
	.st11{fill:#B55E16;}
</style>
<path class="st0" d="M36.7,100.4c-8.1-84.9,191.9-128.4,214,0C187.9,89.3,82.4,87.1,36.7,100.4z"/>
<path class="st1" d="M36.4,154.7c68-14.7,182.3-9.7,216.3,2.6c2.9,5.9-0.2,6.8-4.9,6.5c-32.5-11.6-168-11.9-208-1.3
	C32.3,160.3,34,158.1,36.4,154.7z"/>
<ellipse class="st2" cx="88.1" cy="59.3" rx="4.8" ry="2.2"/>
<ellipse transform="matrix(0.2769 -0.9609 0.9609 0.2769 31.934 131.5431)" class="st2" cx="103.4" cy="44.6" rx="4.8" ry="2.2"/>
<ellipse transform="matrix(0.866 -0.5 0.5 0.866 -10.8154 70.2042)" class="st2" cx="125.6" cy="55.3" rx="4.8" ry="2.2"/>
<ellipse transform="matrix(0.8207 -0.5713 0.5713 0.8207 4.4295 89.9)" class="st2" cx="145.5" cy="37.9" rx="2.2" ry="4.8"/>
<ellipse class="st2" cx="166.9" cy="66.1" rx="4.8" ry="2.2"/>
<ellipse transform="matrix(0.2769 -0.9609 0.9609 0.2769 86.9871 238.4848)" class="st2" cx="202" cy="61.4" rx="4.8" ry="2.2"/>
<ellipse transform="matrix(0.9485 -0.3168 0.3168 0.9485 -15.9104 64.2785)" class="st2" cx="189.7" cy="81.1" rx="2.2" ry="4.8"/>
<ellipse transform="matrix(0.1067 -0.9943 0.9943 0.1067 119.4642 287.3047)" class="st2" cx="219.6" cy="77.2" rx="2.2" ry="4.8"/>
<ellipse transform="matrix(0.2769 -0.9609 0.9609 0.2769 36.0036 188.0941)" class="st2" cx="143" cy="70.1" rx="4.8" ry="2.2"/>
<ellipse transform="matrix(0.8838 -0.4678 0.4678 0.8838 -1.3337 86.1622)" class="st2" cx="172.8" cy="45.8" rx="4.8" ry="2.2"/>
<ellipse transform="matrix(0.5 -0.866 0.866 0.5 -10.5636 131.3511)" class="st2" cx="108.5" cy="74.8" rx="2.2" ry="4.8"/>
<ellipse transform="matrix(0.9335 -0.3585 0.3585 0.9335 -24.3569 33.2628)" class="st2" cx="77.5" cy="82.3" rx="4.8" ry="2.2"/>
<path class="st0" d="M38.9,219.6c26.7,8.8,192.9,11.2,209.7-0.5c3.5,17.6-0.7,29-6.6,28.3c-17.6,11.5-179.4,13.8-196.6,0.5
	C35.3,241.3,35.2,229.7,38.9,219.6z"/>
<ellipse transform="matrix(0.9868 -0.1618 0.1618 0.9868 -21.6297 14.8455)" class="st3" cx="80.3" cy="140.2" rx="28.4" ry="3.4"/>
<ellipse class="st3" cx="149.2" cy="138" rx="23.6" ry="3.6"/>
<ellipse transform="matrix(0.1067 -0.9943 0.9943 0.1067 55.1969 349.1645)" class="st3" cx="221.9" cy="143.9" rx="3.6" ry="22"/>
<ellipse transform="matrix(0.9868 -0.1618 0.1618 0.9868 -26.5693 16.7517)" class="st4" cx="89.6" cy="171.5" rx="41.1" ry="6.4"/>
<ellipse transform="matrix(0.1857 -0.9826 0.9826 0.1857 -5.0167 340.5913)" class="st5" cx="203" cy="173.3" rx="5.7" ry="43.7"/>
<path class="st6" d="M75.4,171.6c-0.8,0.2,1.9-1.2,2.1-0.4C77.6,172,77,171.1,75.4,171.6z"/>
<path class="st6" d="M68.5,171.2c-0.7-0.6,1.3,2.1,1.8,1.3S69.8,172.4,68.5,171.2z"/>
<path class="st6" d="M80.6,170.1c-0.8,0.2,1.9-1.2,2.1-0.4C82.8,170.5,82.2,169.6,80.6,170.1z"/>
<path class="st6" d="M79.7,177.9c-0.5,0.7,0.9-2,1.5-1.5C81.8,177,80.8,176.6,79.7,177.9z"/>
<path class="st6" d="M72.9,177.1c-0.5,0.7,0.9-2,1.5-1.5C75,176.2,74,175.8,72.9,177.1z"/>
<path class="st6" d="M81.7,174c-0.5,0.7,0.9-2,1.5-1.5C83.8,173.1,82.8,172.7,81.7,174z"/>
<path class="st6" d="M107.5,166.4c-0.6,0.6,1.2-1.9,1.7-1.2C109.7,165.8,108.7,165.3,107.5,166.4z"/>
<path class="st6" d="M99.6,169.7c-0.6,0.6,1.2-1.9,1.7-1.2C101.8,169.1,100.9,168.5,99.6,169.7z"/>
<path class="st6" d="M94.3,168.9c-0.6,0.6,1.2-1.9,1.7-1.2C96.4,168.4,95.5,167.8,94.3,168.9z"/>
<path class="st6" d="M98.4,173.4c-0.8,0.1,2-0.9,2.1-0.1S100.1,173.2,98.4,173.4z"/>
<path class="st6" d="M105.2,171.6c-0.8,0.1,2-0.9,2.1-0.1S106.9,171.4,105.2,171.6z"/>
<path class="st6" d="M94.5,172c-0.8,0.1,2-0.9,2.1-0.1S96.2,171.7,94.5,172z"/>
<path class="st6" d="M218.8,174.1c0.8,0.3-1.8-1.1-2-0.4S217.3,173.6,218.8,174.1z"/>
<path class="st6" d="M225.7,174c0.7-0.5-1.4,1.8-1.8,1C223.5,174.2,224.4,175,225.7,174z"/>
<path class="st6" d="M213.7,172.5c0.8,0.3-1.8-1.1-2-0.4C211.5,172.7,212.1,172,213.7,172.5z"/>
<path class="st6" d="M214.2,179.5c0.5,0.6-0.8-1.9-1.4-1.4C212.2,178.6,213.2,178.3,214.2,179.5z"/>
<path class="st6" d="M221,179c0.5,0.6-0.8-1.9-1.4-1.4S220,177.9,221,179z"/>
<path class="st6" d="M212.4,175.9c0.5,0.6-0.8-1.9-1.4-1.4C210.3,175,211.4,174.7,212.4,175.9z"/>
<path class="st6" d="M187.1,167.9c0.6,0.5-1.1-1.7-1.6-1.2S185.9,166.9,187.1,167.9z"/>
<path class="st6" d="M194.7,171.2c0.6,0.5-1.1-1.7-1.6-1.2C192.6,170.6,193.5,170.1,194.7,171.2z"/>
<path class="st6" d="M200.1,170.8c0.6,0.5-1.1-1.7-1.6-1.2S198.9,169.7,200.1,170.8z"/>
<path class="st6" d="M195.8,174.6c0.8,0.2-2-0.9-2.1-0.2C193.6,175.1,194.1,174.3,195.8,174.6z"/>
<path class="st6" d="M189,172.7c0.8,0.2-2-0.9-2.1-0.2C186.8,173.2,187.4,172.3,189,172.7z"/>
<path class="st6" d="M199.7,173.5c0.8,0.2-2-0.9-2.1-0.2C197.5,174,198.1,173.1,199.7,173.5z"/>
<path class="st7" d="M67.4,141c-0.4,0.1,1-0.7,1.1-0.2C68.7,141.2,68.3,140.8,67.4,141z"/>
<path class="st7" d="M61.7,142.8c-0.4-0.3,0.7,1.2,1,0.7S62.4,143.5,61.7,142.8z"/>
<path class="st7" d="M75.3,139.2c-0.4,0.1,1-0.7,1.1-0.2C76.5,139.4,76.2,138.9,75.3,139.2z"/>
<path class="st7" d="M74.8,142.5c-0.3,0.4,0.5-1.1,0.8-0.8C75.9,141.9,75.4,141.7,74.8,142.5z"/>
<path class="st7" d="M70.1,143.1c-0.3,0.4,0.5-1.1,0.8-0.8C71.2,142.5,70.7,142.3,70.1,143.1z"/>
<path class="st7" d="M77.9,141.3c-0.3,0.4,0.5-1.1,0.8-0.8C79,140.8,78.5,140.6,77.9,141.3z"/>
<path class="st7" d="M96.9,138c-0.3,0.3,0.6-1,0.9-0.7S97.6,137.4,96.9,138z"/>
<path class="st7" d="M87.6,138.8c-0.3,0.3,0.6-1,0.9-0.7C88.8,138.5,88.3,138.2,87.6,138.8z"/>
<path class="st7" d="M82.7,138.4c-0.3,0.3,0.6-1,0.9-0.7S83.4,137.8,82.7,138.4z"/>
<path class="st7" d="M85,140.9c-0.5,0.1,1.1-0.5,1.1-0.1C86.2,141.2,85.9,140.7,85,140.9z"/>
<path class="st7" d="M91.7,138.8c-0.5,0.1,1.1-0.5,1.1-0.1C92.9,139.2,92.6,138.7,91.7,138.8z"/>
<path class="st7" d="M81.9,141.1c-0.5,0.1,1.1-0.5,1.1-0.1S82.8,140.9,81.9,141.1z"/>
<path class="st7" d="M137.1,138.2c-0.5,0.1,1.1-0.6,1.1-0.1C138.3,138.5,138,138,137.1,138.2z"/>
<path class="st7" d="M131.2,137.5c-0.3-0.4,0.6,1.2,0.9,0.8C132.4,137.8,131.9,138.2,131.2,137.5z"/>
<path class="st7" d="M145,137c-0.5,0.1,1.1-0.6,1.1-0.1C146.2,137.3,145.9,136.8,145,137z"/>
<path class="st7" d="M144.3,140.2c-0.3,0.3,0.6-1.1,0.9-0.7C145.5,139.8,145,139.6,144.3,140.2z"/>
<path class="st7" d="M139.6,140.4c-0.3,0.3,0.6-1.1,0.9-0.7C140.8,140,140.2,139.8,139.6,140.4z"/>
<path class="st7" d="M147.5,139.3c-0.3,0.3,0.6-1.1,0.9-0.7C148.7,138.9,148.1,138.7,147.5,139.3z"/>
<path class="st7" d="M166.7,137.6c-0.4,0.3,0.7-1,1-0.6S167.4,137,166.7,137.6z"/>
<path class="st7" d="M157.4,137.6c-0.4,0.3,0.7-1,1-0.6C158.6,137.4,158.1,137.1,157.4,137.6z"/>
<path class="st7" d="M152.5,136.9c-0.4,0.3,0.7-1,1-0.6C153.7,136.6,153.2,136.3,152.5,136.9z"/>
<path class="st7" d="M154.6,139.5c-0.5,0,1.1-0.4,1.1,0C155.7,139.9,155.5,139.4,154.6,139.5z"/>
<path class="st7" d="M161.5,138c-0.5,0,1.1-0.4,1.1,0C162.6,138.4,162.4,137.9,161.5,138z"/>
<path class="st7" d="M151.5,139.4c-0.5,0,1.1-0.4,1.1,0C152.6,139.9,152.4,139.4,151.5,139.4z"/>
<path class="st7" d="M210.6,141.5c-0.5,0,1.2-0.3,1.1,0.2C211.7,142.1,211.6,141.5,210.6,141.5z"/>
<path class="st7" d="M204.6,141.2c-0.2-0.4,0.3,1.3,0.7,1C205.7,141.8,205.1,142,204.6,141.2z"/>
<path class="st7" d="M218.6,142.4c-0.5,0,1.2-0.3,1.1,0.2C219.7,143,219.6,142.4,218.6,142.4z"/>
<path class="st7" d="M217.1,145.3c-0.4,0.2,0.8-0.9,1-0.5C218.3,145.2,217.9,144.8,217.1,145.3z"/>
<path class="st7" d="M212.5,144.3c-0.4,0.2,0.8-0.9,1-0.5C213.7,144.2,213.3,143.8,212.5,144.3z"/>
<path class="st7" d="M220.4,145.3c-0.4,0.2,0.8-0.9,1-0.5C221.6,145.2,221.2,144.8,220.4,145.3z"/>
<path class="st7" d="M239.4,145.6c-0.4,0.2,1-0.8,1.1-0.3C240.6,145.7,240.2,145.2,239.4,145.6z"/>
<path class="st7" d="M230.4,146.2c-0.4,0.2,1-0.8,1.1-0.3C231.6,146.3,231.2,145.9,230.4,146.2z"/>
<path class="st7" d="M227.3,143.4c-0.4,0.2,1-0.8,1.1-0.3C228.5,143.5,228.1,143.1,227.3,143.4z"/>
<path class="st7" d="M233.6,146.7c-0.5-0.1,1.2-0.1,1.1,0.3C234.6,147.5,234.5,146.9,233.6,146.7z"/>
<path class="st7" d="M234.2,144.6c-0.5-0.1,1.2-0.1,1.1,0.3C235.2,145.4,235.1,144.8,234.2,144.6z"/>
<path class="st7" d="M225.4,145.4c-0.5-0.1,1.2-0.1,1.1,0.3C226.4,146.1,226.3,145.5,225.4,145.4z"/>
<g>
	<path class="st8" d="M156.7,110.2c-1.4-2.3-2.2,6.4-2,7c15.8,14.4,75.1,19.7,89.4,8c0.8-1.9,0.9-5,0.9-7.1
		C228,129.8,168.1,128.3,156.7,110.2z"/>
	
		<ellipse transform="matrix(8.028515e-02 -0.9968 0.9968 8.028515e-02 73.1441 303.3641)" class="st9" cx="201" cy="112" rx="14.2" ry="45.1"/>
	
		<ellipse transform="matrix(8.028515e-02 -0.9968 0.9968 8.028515e-02 72.4995 304.0455)" class="st10" cx="201" cy="112.7" rx="12" ry="37.9"/>
	
		<ellipse transform="matrix(8.051790e-02 -0.9968 0.9968 8.051790e-02 73.0061 304.7538)" class="st10" cx="201.7" cy="112.8" rx="9.1" ry="29.4"/>
	
		<ellipse transform="matrix(8.051790e-02 -0.9968 0.9968 8.051790e-02 72.4717 304.0488)" class="st10" cx="201" cy="112.7" rx="6.3" ry="20.4"/>
	<path class="st10" d="M199.8,109c-5.8-0.4-19.9,0.4-6,6.8C197.4,114.5,200.1,111.7,199.8,109z"/>
	<path class="st10" d="M204.1,109.9c-0.2,1-2.8,5-4.2,5.8c-0.2,0.1-0.1,0.4,0.1,0.4C205.6,117.1,226.3,114.7,204.1,109.9z"/>
</g>
<g>
	<path class="st8" d="M53.2,109.5c-1.4-2.3-2.2,6.4-2,7c15.8,14.4,75.1,19.7,89.4,8c0.8-1.9,0.9-5,0.9-7.1
		C124.5,129.1,64.6,127.6,53.2,109.5z"/>
	
		<ellipse transform="matrix(8.028515e-02 -0.9968 0.9968 8.028515e-02 -21.3294 199.5461)" class="st9" cx="97.5" cy="111.3" rx="14.2" ry="45.1"/>
	
		<ellipse transform="matrix(8.028515e-02 -0.9968 0.9968 8.028515e-02 -21.974 200.2275)" class="st10" cx="97.5" cy="112" rx="12" ry="37.9"/>
	
		<ellipse transform="matrix(8.051790e-02 -0.9968 0.9968 8.051790e-02 -21.4434 200.9379)" class="st10" cx="98.2" cy="112.1" rx="9.1" ry="29.4"/>
	
		<ellipse transform="matrix(8.051790e-02 -0.9968 0.9968 8.051790e-02 -21.9778 200.2329)" class="st10" cx="97.5" cy="112" rx="6.3" ry="20.4"/>
	<path class="st10" d="M96.3,108.3c-5.8-0.4-19.9,0.4-6,6.8C94,113.8,96.6,111,96.3,108.3z"/>
	<path class="st10" d="M100.6,109.2c-0.2,1-2.8,5-4.2,5.8c-0.2,0.1-0.1,0.4,0.1,0.4C102.1,116.4,122.8,113.9,100.6,109.2z"/>
</g>
<path class="st11" d="M36.3,185.5c63.8,9,182.3,3.1,214.2,2.3c3.4,5.1,1.9,22.6,0,23.1c-42.2,11-169.2,10-212.7,0
	C33.4,200.7,34.1,190.7,36.3,185.5z"/>
</svg>
