<?xml version="1.0" encoding="utf-8"?>
<!-- Generator: Adobe Illustrator 24.1.0, SVG Export Plug-In . SVG Version: 6.00 Build 0)  -->
<svg version="1.1" id="Calque_1" xmlns="http://www.w3.org/2000/svg" xmlns:xlink="http://www.w3.org/1999/xlink" x="0px" y="0px"
	 viewBox="0 0 283.5 283.5" style="enable-background:new 0 0 283.5 283.5;" xml:space="preserve">
<style type="text/css">
	.st0{fill:#F59E47;}
	.st1{fill:#00983D;}
	.st2{fill:#FCBC00;}
	.st3{fill:#FFE3B1;}
	.st4{fill:#91371A;}
	.st5{fill:#E6243B;stroke:#C8161A;stroke-width:2;stroke-miterlimit:10;}
	.st6{fill:#E6243B;stroke:#BF1618;stroke-width:2;stroke-miterlimit:10;}
	.st7{fill:#FAEE6F;}
	.st8{fill:#5A5A59;}
	.st9{fill:#C3153D;}
	.st10{fill:#F9D0DF;}
	.st11{fill:none;stroke:#000000;stroke-width:0.5;stroke-miterlimit:10;}
</style>
<path class="st0" d="M36.7,94.4c-8.1-84.9,191.9-128.4,214,0C187.9,83.3,82.4,81.1,36.7,94.4z"/>
<path class="st1" d="M36.4,100.7c68-14.7,182.3-9.7,216.3,2.6c2.9,5.9-0.2,6.8-4.9,6.5c-32.5-11.6-168-11.9-208-1.3
	C32.3,106.3,34,104.1,36.4,100.7z"/>
<path class="st2" d="M112.3,190.5c11.8,1.6,59.3,1.1,62.2,0c4.8-0.3,8,0.8,0,9.4c-8,8.6-24.9,26.8-26.6,28.4
	c-3.2,3.5-5.6,3.5-9.4-1.6C123.4,208.6,103.7,191.9,112.3,190.5z"/>
<ellipse class="st3" cx="88.1" cy="53.3" rx="4.8" ry="2.2"/>
<ellipse transform="matrix(0.2769 -0.9609 0.9609 0.2769 37.6994 127.2045)" class="st3" cx="103.4" cy="38.6" rx="4.8" ry="2.2"/>
<ellipse transform="matrix(0.866 -0.5 0.5 0.866 -7.8154 69.4004)" class="st3" cx="125.6" cy="49.3" rx="4.8" ry="2.2"/>
<ellipse transform="matrix(0.8207 -0.5713 0.5713 0.8207 7.8573 88.8245)" class="st3" cx="145.5" cy="31.9" rx="2.2" ry="4.8"/>
<ellipse class="st3" cx="166.9" cy="60.1" rx="4.8" ry="2.2"/>
<ellipse transform="matrix(0.2769 -0.9609 0.9609 0.2769 92.7525 234.1463)" class="st3" cx="202" cy="55.4" rx="4.8" ry="2.2"/>
<ellipse transform="matrix(0.9485 -0.3168 0.3168 0.9485 -14.0093 63.9694)" class="st3" cx="189.7" cy="75.1" rx="2.2" ry="4.8"/>
<ellipse transform="matrix(0.1067 -0.9943 0.9943 0.1067 125.43 281.9447)" class="st3" cx="219.6" cy="71.2" rx="2.2" ry="4.8"/>
<ellipse transform="matrix(0.2769 -0.9609 0.9609 0.2769 41.769 183.7556)" class="st3" cx="143" cy="64.1" rx="4.8" ry="2.2"/>
<ellipse transform="matrix(0.8838 -0.4678 0.4678 0.8838 1.4734 85.465)" class="st3" cx="172.8" cy="39.8" rx="4.8" ry="2.2"/>
<ellipse transform="matrix(0.5 -0.866 0.866 0.5 -5.3675 128.3511)" class="st3" cx="108.5" cy="68.8" rx="2.2" ry="4.8"/>
<ellipse transform="matrix(0.9335 -0.3585 0.3585 0.9335 -22.2057 32.8639)" class="st3" cx="77.5" cy="76.3" rx="4.8" ry="2.2"/>
<path class="st0" d="M38.9,227.6c26.7,8.8,192.9,11.2,209.7-0.5c3.5,17.6-0.7,29-6.6,28.3c-17.6,11.5-179.4,13.8-196.6,0.5
	C35.3,249.3,35.2,237.7,38.9,227.6z"/>
<path class="st4" d="M36.9,199c13.6,1.2,70.2,3.2,71.8,3.3c1.8,5.4,12.7,16.8,13.5,19.3c-11.2-0.3-77.6-1-83.9-5.3
	C35.3,206.4,34.1,206.2,36.9,199z"/>
<path class="st4" d="M251.7,199c-13.5,1.2-69.9,3.2-71.4,3.3c-1.2,1-12.6,16.8-13.4,19.3c11.1-0.3,77.2-1,83.4-5.3
	C253.3,206.4,254.5,206.2,251.7,199z"/>
<ellipse transform="matrix(0.9868 -0.1618 0.1618 0.9868 -17.8324 16.0403)" class="st5" cx="89.6" cy="117.5" rx="41.1" ry="6.4"/>
<ellipse transform="matrix(0.1857 -0.9826 0.9826 0.1857 48.0444 296.6172)" class="st6" cx="203" cy="119.3" rx="5.7" ry="43.7"/>
<path class="st7" d="M75.4,117.6c-0.8,0.2,1.9-1.2,2.1-0.4C77.6,118,77,117.1,75.4,117.6z"/>
<path class="st7" d="M68.5,117.2c-0.7-0.6,1.3,2.1,1.8,1.3S69.8,118.4,68.5,117.2z"/>
<path class="st7" d="M80.6,116.1c-0.8,0.2,1.9-1.2,2.1-0.4S82.2,115.6,80.6,116.1z"/>
<path class="st7" d="M79.7,123.9c-0.5,0.7,0.9-2,1.5-1.5C81.8,123,80.8,122.6,79.7,123.9z"/>
<path class="st7" d="M72.9,123.1c-0.5,0.7,0.9-2,1.5-1.5C75,122.2,74,121.8,72.9,123.1z"/>
<path class="st7" d="M81.7,120c-0.5,0.7,0.9-2,1.5-1.5S82.8,118.7,81.7,120z"/>
<path class="st7" d="M107.5,112.4c-0.6,0.6,1.2-1.9,1.7-1.2C109.7,111.8,108.7,111.3,107.5,112.4z"/>
<path class="st7" d="M99.6,115.7c-0.6,0.6,1.2-1.9,1.7-1.2C101.8,115.1,100.9,114.5,99.6,115.7z"/>
<path class="st7" d="M94.3,114.9c-0.6,0.6,1.2-1.9,1.7-1.2C96.4,114.4,95.5,113.8,94.3,114.9z"/>
<path class="st7" d="M98.4,119.4c-0.8,0.1,2-0.9,2.1-0.1C100.6,120.1,100.1,119.2,98.4,119.4z"/>
<path class="st7" d="M105.2,117.6c-0.8,0.1,2-0.9,2.1-0.1S106.9,117.4,105.2,117.6z"/>
<path class="st7" d="M94.5,118c-0.8,0.1,2-0.9,2.1-0.1S96.2,117.7,94.5,118z"/>
<path class="st7" d="M218.8,120.1c0.8,0.3-1.8-1.1-2-0.4S217.3,119.6,218.8,120.1z"/>
<path class="st7" d="M225.7,120c0.7-0.5-1.4,1.8-1.8,1S224.4,121,225.7,120z"/>
<path class="st7" d="M213.7,118.5c0.8,0.3-1.8-1.1-2-0.4C211.5,118.7,212.1,118,213.7,118.5z"/>
<path class="st7" d="M214.2,125.5c0.5,0.6-0.8-1.9-1.4-1.4C212.2,124.6,213.2,124.3,214.2,125.5z"/>
<path class="st7" d="M221,125c0.5,0.6-0.8-1.9-1.4-1.4C219,124.1,220,123.9,221,125z"/>
<path class="st7" d="M212.4,121.9c0.5,0.6-0.8-1.9-1.4-1.4C210.3,121,211.4,120.7,212.4,121.9z"/>
<path class="st7" d="M187.1,113.9c0.6,0.5-1.1-1.7-1.6-1.2C184.9,113.3,185.9,112.9,187.1,113.9z"/>
<path class="st7" d="M194.7,117.2c0.6,0.5-1.1-1.7-1.6-1.2S193.5,116.1,194.7,117.2z"/>
<path class="st7" d="M200.1,116.8c0.6,0.5-1.1-1.7-1.6-1.2C198,116.2,198.9,115.7,200.1,116.8z"/>
<path class="st7" d="M195.8,120.6c0.8,0.2-2-0.9-2.1-0.2C193.6,121.1,194.1,120.3,195.8,120.6z"/>
<path class="st7" d="M189,118.7c0.8,0.2-2-0.9-2.1-0.2C186.8,119.2,187.4,118.3,189,118.7z"/>
<path class="st7" d="M199.7,119.5c0.8,0.2-2-0.9-2.1-0.2C197.5,120,198.1,119.1,199.7,119.5z"/>
<circle class="st8" cx="121.6" cy="32.4" r="0.5"/>
<circle class="st8" cx="153.2" cy="69.8" r="0.5"/>
<circle class="st8" cx="181.4" cy="62.9" r="0.5"/>
<circle class="st8" cx="166.5" cy="36.8" r="0.5"/>
<circle class="st8" cx="98.2" cy="55" r="0.5"/>
<circle class="st8" cx="70.5" cy="71.6" r="0.5"/>
<circle class="st8" cx="60.5" cy="55.9" r="0.5"/>
<circle class="st8" cx="76.5" cy="43.4" r="0.5"/>
<circle class="st8" cx="124.8" cy="70.7" r="0.5"/>
<circle class="st8" cx="140.1" cy="47.6" r="0.5"/>
<circle class="st8" cx="150.1" cy="47.4" r="0.5"/>
<circle class="st8" cx="158.1" cy="17.1" r="0.5"/>
<circle class="st8" cx="179.4" cy="25.7" r="0.5"/>
<circle class="st8" cx="195.3" cy="33.2" r="0.5"/>
<circle class="st8" cx="192.7" cy="37" r="0.5"/>
<circle class="st8" cx="181.8" cy="56.7" r="0.5"/>
<circle class="st8" cx="221.7" cy="53.4" r="0.5"/>
<circle class="st8" cx="212.4" cy="48.5" r="0.5"/>
<circle class="st8" cx="207.7" cy="67.8" r="0.5"/>
<circle class="st8" cx="203.5" cy="78.9" r="0.5"/>
<circle class="st8" cx="240.1" cy="80.5" r="0.5"/>
<circle class="st8" cx="143" cy="82.7" r="0.5"/>
<circle class="st8" cx="133.2" cy="70.3" r="0.5"/>
<circle class="st8" cx="120.2" cy="56.7" r="0.5"/>
<circle class="st8" cx="135.5" cy="22.4" r="0.5"/>
<circle class="st8" cx="97.5" cy="34.6" r="0.5"/>
<circle class="st8" cx="97.8" cy="69.2" r="0.5"/>
<circle class="st8" cx="92.5" cy="78" r="0.5"/>
<path class="st4" d="M36.8,164.8c63.8,6.1,182.3,2.1,214.2,1.6c3.4,3.4,1.9,15.3,0,15.6c-42.2,7.4-169.2,6.8-212.7,0
	C33.9,175.2,34.7,168.4,36.8,164.8z"/>
<g>
	<path class="st9" d="M50.8,142.9c-1.4-2.3-2.2,6.4-2,7c15.8,14.4,75.1,19.7,89.4,8c0.8-1.9,0.9-5,0.9-7.1
		C122.1,162.5,62.2,161,50.8,142.9z"/>
	
		<ellipse transform="matrix(8.028515e-02 -0.9968 0.9968 8.028515e-02 -56.8483 227.7874)" class="st10" cx="95" cy="144.7" rx="14.2" ry="45.1"/>
	
		<ellipse transform="matrix(8.028515e-02 -0.9968 0.9968 8.028515e-02 -57.4928 228.4688)" class="st11" cx="95.1" cy="145.4" rx="12" ry="37.9"/>
	
		<ellipse transform="matrix(8.051790e-02 -0.9968 0.9968 8.051790e-02 -56.961 229.1715)" class="st11" cx="95.7" cy="145.5" rx="9.1" ry="29.4"/>
	
		<ellipse transform="matrix(8.051790e-02 -0.9968 0.9968 8.051790e-02 -57.4954 228.4665)" class="st11" cx="95.1" cy="145.4" rx="6.3" ry="20.4"/>
	<path class="st11" d="M93.8,141.7c-5.8-0.4-19.9,0.4-6,6.8C91.5,147.2,94.2,144.4,93.8,141.7z"/>
	<path class="st11" d="M98.2,142.6c-0.2,1-2.8,5-4.2,5.8c-0.2,0.1-0.1,0.4,0.1,0.4C99.7,149.7,120.3,147.3,98.2,142.6z"/>
</g>
<g>
	<path class="st9" d="M154.8,144.8c-1.4-2.3-2.2,6.4-2,7c15.8,14.4,75.1,19.7,89.4,8c0.8-1.9,0.9-5,0.9-7.1
		C226.1,164.4,166.2,162.8,154.8,144.8z"/>
	
		<ellipse transform="matrix(8.028515e-02 -0.9968 0.9968 8.028515e-02 36.933 333.1921)" class="st10" cx="199" cy="146.6" rx="14.2" ry="45.1"/>
	
		<ellipse transform="matrix(8.028515e-02 -0.9968 0.9968 8.028515e-02 36.2884 333.8735)" class="st11" cx="199.1" cy="147.3" rx="12" ry="37.9"/>
	
		<ellipse transform="matrix(8.051790e-02 -0.9968 0.9968 8.051790e-02 36.7961 334.5738)" class="st11" cx="199.7" cy="147.3" rx="9.1" ry="29.4"/>
	
		<ellipse transform="matrix(8.051790e-02 -0.9968 0.9968 8.051790e-02 36.2617 333.8688)" class="st11" cx="199.1" cy="147.3" rx="6.3" ry="20.4"/>
	<path class="st11" d="M197.9,143.6c-5.8-0.4-19.9,0.4-6,6.8C195.5,149.1,198.2,146.2,197.9,143.6z"/>
	<path class="st11" d="M202.2,144.5c-0.2,1-2.8,5-4.2,5.8c-0.2,0.1-0.1,0.4,0.1,0.4C203.7,151.6,224.3,149.2,202.2,144.5z"/>
</g>
</svg>
