<?xml version="1.0" encoding="utf-8"?>
<!-- Generator: Adobe Illustrator 24.1.0, SVG Export Plug-In . SVG Version: 6.00 Build 0)  -->
<svg version="1.1" id="Calque_1" xmlns="http://www.w3.org/2000/svg" xmlns:xlink="http://www.w3.org/1999/xlink" x="0px" y="0px"
	 viewBox="0 0 283.5 283.5" style="enable-background:new 0 0 283.5 283.5;" xml:space="preserve">
<style type="text/css">
	.st0{fill:#F59E47;}
	.st1{fill:#00983D;}
	.st2{fill:#FCBC00;}
	.st3{fill:#FFE3B1;}
	.st4{fill:#E6243B;stroke:#C8161A;stroke-width:2;stroke-miterlimit:10;}
	.st5{fill:#FAEE6F;}
	.st6{fill:#E6243B;stroke:#BF1618;stroke-width:2;stroke-miterlimit:10;}
	.st7{fill:#5A5A59;}
	.st8{fill:#C3153D;}
	.st9{fill:#F9D0DF;}
	.st10{fill:none;stroke:#000000;stroke-width:0.5;stroke-miterlimit:10;}
	.st11{fill:#D23016;}
	.st12{fill:#ECA12F;}
</style>
<path class="st0" d="M36.7,90.4c-8.1-84.9,191.9-128.4,214,0C187.9,79.3,82.4,77.1,36.7,90.4z"/>
<path class="st1" d="M36.4,97.7c68-14.7,182.3-9.7,216.3,2.6c2.9,5.9-0.2,6.8-4.9,6.5c-32.5-11.6-168-11.9-208-1.3
	C32.3,103.3,34,101.1,36.4,97.7z"/>
<path class="st2" d="M112.3,206.5c11.8,1.6,59.3,1.1,62.2,0c4.8-0.3,8,0.8,0,9.4c-8,8.6-24.9,26.8-26.6,28.4
	c-3.2,3.5-5.6,3.5-9.4-1.6C123.4,224.6,103.7,207.9,112.3,206.5z"/>
<ellipse class="st3" cx="88.1" cy="49.3" rx="4.8" ry="2.2"/>
<ellipse transform="matrix(0.2769 -0.9609 0.9609 0.2769 41.543 124.3121)" class="st3" cx="103.4" cy="34.6" rx="4.8" ry="2.2"/>
<ellipse transform="matrix(0.866 -0.5 0.5 0.866 -5.8154 68.8645)" class="st3" cx="125.6" cy="45.3" rx="4.8" ry="2.2"/>
<ellipse transform="matrix(0.8207 -0.5713 0.5713 0.8207 10.1424 88.1075)" class="st3" cx="145.5" cy="27.9" rx="2.2" ry="4.8"/>
<ellipse class="st3" cx="166.9" cy="56.1" rx="4.8" ry="2.2"/>
<ellipse transform="matrix(0.2769 -0.9609 0.9609 0.2769 96.5961 231.2539)" class="st3" cx="202" cy="51.4" rx="4.8" ry="2.2"/>
<ellipse transform="matrix(0.9485 -0.3168 0.3168 0.9485 -12.7419 63.7633)" class="st3" cx="189.7" cy="71.1" rx="2.2" ry="4.8"/>
<ellipse transform="matrix(0.1067 -0.9943 0.9943 0.1067 129.4072 278.3714)" class="st3" cx="219.6" cy="67.2" rx="2.2" ry="4.8"/>
<ellipse transform="matrix(0.2769 -0.9609 0.9609 0.2769 45.6126 180.8632)" class="st3" cx="143" cy="60.1" rx="4.8" ry="2.2"/>
<ellipse transform="matrix(0.8838 -0.4678 0.4678 0.8838 3.3448 85.0003)" class="st3" cx="172.8" cy="35.8" rx="4.8" ry="2.2"/>
<ellipse transform="matrix(0.5 -0.866 0.866 0.5 -1.9034 126.3511)" class="st3" cx="108.5" cy="64.8" rx="2.2" ry="4.8"/>
<ellipse transform="matrix(0.9335 -0.3585 0.3585 0.9335 -20.7715 32.598)" class="st3" cx="77.5" cy="72.3" rx="4.8" ry="2.2"/>
<path class="st0" d="M38.9,243.6c26.7,8.8,192.9,11.2,209.7-0.5c3.5,17.6-0.7,29-6.6,28.3c-17.6,11.5-179.4,13.8-196.6,0.5
	C35.3,265.3,35.2,253.7,38.9,243.6z"/>
<g>
	<ellipse transform="matrix(0.9868 -0.1618 0.1618 0.9868 -23.3202 16.65)" class="st4" cx="90.6" cy="151.5" rx="41.1" ry="6.4"/>
	<path class="st5" d="M76.4,151.6c-0.8,0.2,1.9-1.2,2.1-0.4C78.6,152,78,151.1,76.4,151.6z"/>
	<path class="st5" d="M69.5,151.2c-0.7-0.6,1.3,2.1,1.8,1.3S70.8,152.4,69.5,151.2z"/>
	<path class="st5" d="M81.6,150.1c-0.8,0.2,1.9-1.2,2.1-0.4C83.8,150.5,83.2,149.6,81.6,150.1z"/>
	<path class="st5" d="M80.7,157.9c-0.5,0.7,0.9-2,1.5-1.5C82.8,157,81.8,156.6,80.7,157.9z"/>
	<path class="st5" d="M73.9,157.1c-0.5,0.7,0.9-2,1.5-1.5C76,156.2,75,155.8,73.9,157.1z"/>
	<path class="st5" d="M82.7,154c-0.5,0.7,0.9-2,1.5-1.5C84.8,153.1,83.8,152.7,82.7,154z"/>
	<path class="st5" d="M108.5,146.4c-0.6,0.6,1.2-1.9,1.7-1.2C110.7,145.8,109.7,145.3,108.5,146.4z"/>
	<path class="st5" d="M100.6,149.7c-0.6,0.6,1.2-1.9,1.7-1.2C102.8,149.1,101.9,148.5,100.6,149.7z"/>
	<path class="st5" d="M95.3,148.9c-0.6,0.6,1.2-1.9,1.7-1.2C97.4,148.4,96.5,147.8,95.3,148.9z"/>
	<path class="st5" d="M99.4,153.4c-0.8,0.1,2-0.9,2.1-0.1S101.1,153.2,99.4,153.4z"/>
	<path class="st5" d="M106.2,151.6c-0.8,0.1,2-0.9,2.1-0.1S107.9,151.4,106.2,151.6z"/>
	<path class="st5" d="M95.5,152c-0.8,0.1,2-0.9,2.1-0.1S97.2,151.7,95.5,152z"/>
</g>
<g>
	<ellipse transform="matrix(0.1857 -0.9826 0.9826 0.1857 16.6008 322.6759)" class="st6" cx="203" cy="151.3" rx="5.7" ry="43.7"/>
	<path class="st5" d="M218.8,152.1c0.8,0.3-1.8-1.1-2-0.4S217.3,151.6,218.8,152.1z"/>
	<path class="st5" d="M225.7,152c0.7-0.5-1.4,1.8-1.8,1C223.5,152.2,224.4,153,225.7,152z"/>
	<path class="st5" d="M213.7,150.5c0.8,0.3-1.8-1.1-2-0.4C211.5,150.7,212.1,150,213.7,150.5z"/>
	<path class="st5" d="M214.2,157.5c0.5,0.6-0.8-1.9-1.4-1.4C212.2,156.6,213.2,156.3,214.2,157.5z"/>
	<path class="st5" d="M221,157c0.5,0.6-0.8-1.9-1.4-1.4S220,155.9,221,157z"/>
	<path class="st5" d="M212.4,153.9c0.5,0.6-0.8-1.9-1.4-1.4C210.3,153,211.4,152.7,212.4,153.9z"/>
	<path class="st5" d="M187.1,145.9c0.6,0.5-1.1-1.7-1.6-1.2S185.9,144.9,187.1,145.9z"/>
	<path class="st5" d="M194.7,149.2c0.6,0.5-1.1-1.7-1.6-1.2C192.6,148.6,193.5,148.1,194.7,149.2z"/>
	<path class="st5" d="M200.1,148.8c0.6,0.5-1.1-1.7-1.6-1.2S198.9,147.7,200.1,148.8z"/>
	<path class="st5" d="M195.8,152.6c0.8,0.2-2-0.9-2.1-0.2C193.6,153.1,194.1,152.3,195.8,152.6z"/>
	<path class="st5" d="M189,150.7c0.8,0.2-2-0.9-2.1-0.2C186.8,151.2,187.4,150.3,189,150.7z"/>
	<path class="st5" d="M199.7,151.5c0.8,0.2-2-0.9-2.1-0.2C197.5,152,198.1,151.1,199.7,151.5z"/>
</g>
<circle class="st7" cx="121.6" cy="28.4" r="0.5"/>
<circle class="st7" cx="153.2" cy="65.8" r="0.5"/>
<circle class="st7" cx="181.4" cy="58.9" r="0.5"/>
<circle class="st7" cx="166.5" cy="32.8" r="0.5"/>
<circle class="st7" cx="98.2" cy="51" r="0.5"/>
<circle class="st7" cx="70.5" cy="67.6" r="0.5"/>
<circle class="st7" cx="60.5" cy="51.9" r="0.5"/>
<circle class="st7" cx="76.5" cy="39.4" r="0.5"/>
<circle class="st7" cx="124.8" cy="66.7" r="0.5"/>
<circle class="st7" cx="140.1" cy="43.6" r="0.5"/>
<circle class="st7" cx="150.1" cy="43.4" r="0.5"/>
<circle class="st7" cx="158.1" cy="33.1" r="0.5"/>
<circle class="st7" cx="179.4" cy="21.7" r="0.5"/>
<circle class="st7" cx="195.3" cy="29.2" r="0.5"/>
<circle class="st7" cx="192.7" cy="33" r="0.5"/>
<circle class="st7" cx="181.8" cy="52.7" r="0.5"/>
<circle class="st7" cx="221.7" cy="49.4" r="0.5"/>
<circle class="st7" cx="212.4" cy="44.5" r="0.5"/>
<circle class="st7" cx="207.7" cy="63.8" r="0.5"/>
<circle class="st7" cx="203.5" cy="74.9" r="0.5"/>
<circle class="st7" cx="240.1" cy="76.5" r="0.5"/>
<circle class="st7" cx="143" cy="78.7" r="0.5"/>
<circle class="st7" cx="133.2" cy="66.3" r="0.5"/>
<circle class="st7" cx="120.2" cy="52.7" r="0.5"/>
<circle class="st7" cx="135.5" cy="18.4" r="0.5"/>
<circle class="st7" cx="97.5" cy="30.6" r="0.5"/>
<circle class="st7" cx="97.8" cy="65.2" r="0.5"/>
<circle class="st7" cx="92.5" cy="74" r="0.5"/>
<g>
	<path class="st8" d="M48.3,116.1c-1.4-2.3-2.2,6.4-2,7c15.8,14.4,75.1,19.7,89.4,8c0.8-1.9,0.9-5,0.9-7.1
		C119.6,135.7,59.7,134.2,48.3,116.1z"/>
	
		<ellipse transform="matrix(8.028515e-02 -0.9968 0.9968 8.028515e-02 -32.4062 200.7162)" class="st9" cx="92.6" cy="117.9" rx="14.2" ry="45.1"/>
	
		<ellipse transform="matrix(8.028515e-02 -0.9968 0.9968 8.028515e-02 -33.0508 201.3975)" class="st10" cx="92.6" cy="118.6" rx="12" ry="37.9"/>
	
		<ellipse transform="matrix(8.051790e-02 -0.9968 0.9968 8.051790e-02 -32.5188 202.1066)" class="st10" cx="93.3" cy="118.7" rx="9.1" ry="29.4"/>
	
		<ellipse transform="matrix(8.051790e-02 -0.9968 0.9968 8.051790e-02 -33.0532 201.4015)" class="st10" cx="92.6" cy="118.6" rx="6.3" ry="20.4"/>
	<path class="st10" d="M91.4,114.9c-5.8-0.4-19.9,0.4-6,6.8C89,120.4,91.7,117.6,91.4,114.9z"/>
	<path class="st10" d="M95.7,115.8c-0.2,1-2.8,5-4.2,5.8c-0.2,0.1-0.1,0.4,0.1,0.4C97.2,122.9,117.9,120.5,95.7,115.8z"/>
</g>
<g>
	<path class="st8" d="M155.7,118c-1.4-2.3-2.2,6.4-2,7c15.8,14.4,75.1,19.7,89.4,8c0.8-1.9,0.9-5,0.9-7.1
		C227,137.6,167.1,136.1,155.7,118z"/>
	
		<ellipse transform="matrix(8.028515e-02 -0.9968 0.9968 8.028515e-02 64.5026 309.5105)" class="st9" cx="200" cy="119.8" rx="14.2" ry="45.1"/>
	
		<ellipse transform="matrix(8.028515e-02 -0.9968 0.9968 8.028515e-02 63.858 310.1918)" class="st10" cx="200" cy="120.5" rx="12" ry="37.9"/>
	
		<ellipse transform="matrix(8.051790e-02 -0.9968 0.9968 8.051790e-02 64.365 310.8984)" class="st10" cx="200.7" cy="120.6" rx="9.1" ry="29.4"/>
	
		<ellipse transform="matrix(8.051790e-02 -0.9968 0.9968 8.051790e-02 63.8306 310.1933)" class="st10" cx="200" cy="120.5" rx="6.3" ry="20.4"/>
	<path class="st10" d="M198.8,116.8c-5.8-0.4-19.9,0.4-6,6.8C196.5,122.3,199.1,119.5,198.8,116.8z"/>
	<path class="st10" d="M203.1,117.7c-0.2,1-2.8,5-4.2,5.8c-0.2,0.1-0.1,0.4,0.1,0.4C204.6,124.8,225.3,122.4,203.1,117.7z"/>
</g>
<path class="st11" d="M283.2,208.5c-6.2,4.8-31.8-3.8-32.9-0.7c-0.2,0.6-0.6,1.6-1.4,1.9c-1.4,0.5-3.8-0.6-7.1-6
	c-5.1-8.3-39.2-36-39.2-36c-2.7-1.3-4.2-7.3,2.6-5.3c6.8,2,61.7,16.3,65.7,18.2C273.3,187.2,282.2,201,283.2,208.5z"/>
<path class="st11" d="M23.9,180.3c4.1-1.7,59.7-12.9,66.6-14.6c6.9-1.6,5,4.3,2.3,5.4c0,0-35.6,25.7-41.1,33.8
	c-3.6,5.2-6,6.2-7.4,5.6c-0.8-0.4-1.1-1.4-1.3-2c-1-3.1-27,4-32.9-1.1C11.2,204.8,22.5,178.3,23.9,180.3z"/>
<path class="st12" d="M35.2,213.5c14.4,1.7,58.7,6.9,69.1,4.7c1.8,13.4,11.7,27.3,13.1,28.6c-23.3-1.4-79.4-4.7-80.6-7.9
	C34.3,231.3,32,220.2,35.2,213.5z"/>
<path class="st12" d="M249.9,215c-14.4,1.7-58.7,6.9-69.1,4.7c-1.8,13.4-11.7,27.3-13.1,28.6c23.3-1.4,79.4-4.7,80.6-7.9
	C250.8,232.9,253.1,221.7,249.9,215z"/>
<path class="st12" d="M65,196.4c11.3,11.2,156.2,10.7,163,1.7c-6.4-6.7-29.3-25.5-26-24.4c-14.8,0.9-93.5,5.9-106.1,0
	C92,179.6,69.4,198.1,65,196.4z"/>
</svg>
