<?xml version="1.0" encoding="utf-8"?>
<!-- Generator: Adobe Illustrator 24.1.0, SVG Export Plug-In . SVG Version: 6.00 Build 0)  -->
<svg version="1.1" id="Calque_1" xmlns="http://www.w3.org/2000/svg" xmlns:xlink="http://www.w3.org/1999/xlink" x="0px" y="0px"
	 viewBox="0 0 283.5 283.5" style="enable-background:new 0 0 283.5 283.5;" xml:space="preserve">
<style type="text/css">
	.st0{fill:#F59E47;}
	.st1{fill:#00983D;}
	.st2{fill:#FCBC00;}
	.st3{fill:#FFE3B1;}
	.st4{fill:#5A5A59;}
	.st5{fill:#C3153D;}
	.st6{fill:#F9D0DF;}
	.st7{fill:none;stroke:#000000;stroke-width:0.5;stroke-miterlimit:10;}
	.st8{fill:#D23016;}
	.st9{fill:#ECA12F;}
</style>
<path class="st0" d="M36.7,112.4c-8.1-84.9,191.9-128.4,214,0C187.9,101.3,82.4,99.1,36.7,112.4z"/>
<path class="st1" d="M36.4,152.7c68-14.7,182.3-9.7,216.3,2.6c2.9,5.9-0.2,6.8-4.9,6.5c-32.5-11.6-168-11.9-208-1.3
	C32.3,158.3,34,156.1,36.4,152.7z"/>
<path class="st2" d="M104.8,177.1c14.7,2,74.1,1.3,77.7,0c6-0.3,10.1,1,0,11.7s-31.2,33.5-33.2,35.5c-4,4.4-7,4.4-11.7-2
	C118.7,199.7,94.1,178.8,104.8,177.1z"/>
<ellipse class="st3" cx="88.1" cy="71.3" rx="4.8" ry="2.2"/>
<ellipse transform="matrix(0.2769 -0.9609 0.9609 0.2769 20.4032 140.2203)" class="st3" cx="103.4" cy="56.6" rx="4.8" ry="2.2"/>
<ellipse transform="matrix(0.866 -0.5 0.5 0.866 -16.8154 71.8119)" class="st3" cx="125.6" cy="67.3" rx="4.8" ry="2.2"/>
<ellipse transform="matrix(0.8207 -0.5713 0.5713 0.8207 -2.426 92.0511)" class="st3" cx="145.5" cy="49.9" rx="2.2" ry="4.8"/>
<ellipse class="st3" cx="166.9" cy="78.1" rx="4.8" ry="2.2"/>
<ellipse transform="matrix(0.2769 -0.9609 0.9609 0.2769 75.4563 247.162)" class="st3" cx="202" cy="73.4" rx="4.8" ry="2.2"/>
<ellipse transform="matrix(0.9485 -0.3168 0.3168 0.9485 -19.7125 64.8968)" class="st3" cx="189.7" cy="93.1" rx="2.2" ry="4.8"/>
<ellipse transform="matrix(0.1067 -0.9943 0.9943 0.1067 107.5327 298.0245)" class="st3" cx="219.6" cy="89.2" rx="2.2" ry="4.8"/>
<ellipse transform="matrix(0.2769 -0.9609 0.9609 0.2769 24.4728 196.7713)" class="st3" cx="143" cy="82.1" rx="4.8" ry="2.2"/>
<ellipse transform="matrix(0.8838 -0.4678 0.4678 0.8838 -6.9479 87.5565)" class="st3" cx="172.8" cy="57.8" rx="4.8" ry="2.2"/>
<ellipse transform="matrix(0.5 -0.866 0.866 0.5 -20.956 137.3511)" class="st3" cx="108.5" cy="86.8" rx="2.2" ry="4.8"/>
<ellipse transform="matrix(0.9335 -0.3585 0.3585 0.9335 -28.6592 34.0606)" class="st3" cx="77.5" cy="94.3" rx="4.8" ry="2.2"/>
<path class="st0" d="M38.9,227.6c26.7,8.8,192.9,11.2,209.7-0.5c3.5,17.6-0.7,29-6.6,28.3c-17.6,11.5-179.4,13.8-196.6,0.5
	C35.3,249.3,35.2,237.7,38.9,227.6z"/>
<circle class="st4" cx="121.6" cy="50.4" r="0.5"/>
<circle class="st4" cx="153.2" cy="87.8" r="0.5"/>
<circle class="st4" cx="181.4" cy="80.9" r="0.5"/>
<circle class="st4" cx="166.5" cy="54.8" r="0.5"/>
<circle class="st4" cx="98.2" cy="73" r="0.5"/>
<circle class="st4" cx="70.5" cy="89.6" r="0.5"/>
<circle class="st4" cx="60.5" cy="73.9" r="0.5"/>
<circle class="st4" cx="76.5" cy="61.4" r="0.5"/>
<circle class="st4" cx="124.8" cy="88.7" r="0.5"/>
<circle class="st4" cx="140.1" cy="65.6" r="0.5"/>
<circle class="st4" cx="150.1" cy="65.4" r="0.5"/>
<circle class="st4" cx="158.1" cy="55.1" r="0.5"/>
<circle class="st4" cx="179.4" cy="43.7" r="0.5"/>
<circle class="st4" cx="195.3" cy="51.2" r="0.5"/>
<circle class="st4" cx="192.7" cy="55" r="0.5"/>
<circle class="st4" cx="181.8" cy="74.7" r="0.5"/>
<circle class="st4" cx="221.7" cy="71.4" r="0.5"/>
<circle class="st4" cx="212.4" cy="66.5" r="0.5"/>
<circle class="st4" cx="207.7" cy="85.8" r="0.5"/>
<circle class="st4" cx="203.5" cy="96.9" r="0.5"/>
<circle class="st4" cx="240.1" cy="98.5" r="0.5"/>
<circle class="st4" cx="143" cy="100.7" r="0.5"/>
<circle class="st4" cx="133.2" cy="88.3" r="0.5"/>
<circle class="st4" cx="120.2" cy="74.7" r="0.5"/>
<circle class="st4" cx="135.5" cy="40.4" r="0.5"/>
<circle class="st4" cx="97.5" cy="52.6" r="0.5"/>
<circle class="st4" cx="97.8" cy="87.2" r="0.5"/>
<circle class="st4" cx="92.5" cy="96" r="0.5"/>
<g>
	<path class="st5" d="M52.1,120.8c-1.4-2.3-2.2,6.4-2,7c15.8,14.4,75.1,19.7,89.4,8c0.8-1.9,0.9-5,0.9-7.1
		C123.3,140.4,63.5,138.9,52.1,120.8z"/>
	
		<ellipse transform="matrix(8.028515e-02 -0.9968 0.9968 8.028515e-02 -33.6443 208.7417)" class="st6" cx="96.3" cy="122.6" rx="14.2" ry="45.1"/>
	
		<ellipse transform="matrix(8.028515e-02 -0.9968 0.9968 8.028515e-02 -34.2889 209.423)" class="st7" cx="96.3" cy="123.3" rx="12" ry="37.9"/>
	
		<ellipse transform="matrix(8.051790e-02 -0.9968 0.9968 8.051790e-02 -33.7577 210.1309)" class="st7" cx="97" cy="123.4" rx="9.1" ry="29.4"/>
	
		<ellipse transform="matrix(8.051790e-02 -0.9968 0.9968 8.051790e-02 -34.2921 209.4258)" class="st7" cx="96.4" cy="123.3" rx="6.3" ry="20.4"/>
	<path class="st7" d="M95.1,119.6c-5.8-0.4-19.9,0.4-6,6.8C92.8,125.1,95.5,122.3,95.1,119.6z"/>
	<path class="st7" d="M99.5,120.5c-0.2,1-2.8,5-4.2,5.8c-0.2,0.1-0.1,0.4,0.1,0.4C100.9,127.6,121.6,125.2,99.5,120.5z"/>
</g>
<g>
	<path class="st5" d="M152.3,121.1c-1.4-2.3-2.2,6.4-2,7c15.8,14.4,75.1,19.7,89.4,8c0.8-1.9,0.9-5,0.9-7.1
		C223.6,140.7,163.7,139.2,152.3,121.1z"/>
	
		<ellipse transform="matrix(8.028515e-02 -0.9968 0.9968 8.028515e-02 58.2285 308.9165)" class="st6" cx="196.5" cy="122.9" rx="14.2" ry="45.1"/>
	
		<ellipse transform="matrix(8.028515e-02 -0.9968 0.9968 8.028515e-02 57.584 309.5979)" class="st7" cx="196.6" cy="123.6" rx="12" ry="37.9"/>
	
		<ellipse transform="matrix(8.051790e-02 -0.9968 0.9968 8.051790e-02 58.0918 310.3038)" class="st7" cx="197.2" cy="123.7" rx="9.1" ry="29.4"/>
	
		<ellipse transform="matrix(8.051790e-02 -0.9968 0.9968 8.051790e-02 57.5574 309.5988)" class="st7" cx="196.6" cy="123.6" rx="6.3" ry="20.4"/>
	<path class="st7" d="M195.3,119.9c-5.8-0.4-19.9,0.4-6,6.8C193,125.4,195.7,122.6,195.3,119.9z"/>
	<path class="st7" d="M199.7,120.8c-0.2,1-2.8,5-4.2,5.8c-0.2,0.1-0.1,0.4,0.1,0.4C201.2,127.9,221.8,125.5,199.7,120.8z"/>
</g>
<path class="st8" d="M276.1,203.3c-6.2,4.8-31.8-10.8-32.9-7.7c-0.2,0.6-0.6,1.6-1.4,1.9c-1.4,0.5-3.8-0.6-7.1-6
	c-5.1-8.3-46.2-17-46.2-17c-2.7-1.3-4.2-7.3,2.6-5.3c6.8,2,68.7-2.7,72.7-0.8C266,173,275.8,199.8,276.1,203.3z"/>
<path class="st8" d="M10.9,193.2c5.9,5.1,41.9-2,42.9,1.1c0.2,0.6,0.5,1.6,1.3,2c1.4,0.6,3.8-0.4,7.4-5.6c5.5-8,41.1-16.8,41.1-16.8
	c2.8-1.2,4.6-7-2.3-5.4c-6.9,1.6-62.5-1.2-66.6,0.6C33.1,172.5,7.8,195.5,10.9,193.2z"/>
<path class="st9" d="M36.8,196.7c14.4,1.7,58.7,6.9,69.1,4.7c1.8,13.4,11.7,27.3,13.1,28.6c-23.3-1.4-79.4-4.7-80.6-7.9
	C35.9,214.5,33.6,203.4,36.8,196.7z"/>
<path class="st9" d="M251.5,198.2c-14.4,1.7-58.7,6.9-69.1,4.7c-1.8,13.4-11.7,27.3-13.1,28.6c23.3-1.4,79.4-4.7,80.6-7.9
	C252.4,216.1,254.7,204.9,251.5,198.2z"/>
</svg>
