<?xml version="1.0" encoding="utf-8"?>
<!-- Generator: Adobe Illustrator 24.1.0, SVG Export Plug-In . SVG Version: 6.00 Build 0)  -->
<svg version="1.1" id="Calque_1" xmlns="http://www.w3.org/2000/svg" xmlns:xlink="http://www.w3.org/1999/xlink" x="0px" y="0px"
	 viewBox="0 0 283.5 283.5" style="enable-background:new 0 0 283.5 283.5;" xml:space="preserve">
<style type="text/css">
	.st0{fill:#F59E47;}
	.st1{fill:#91371A;}
	.st2{fill:#00983D;}
	.st3{fill:#FCBC00;}
	.st4{fill:#FFE3B1;}
	.st5{fill:#69B42D;stroke:#168536;stroke-miterlimit:10;}
	.st6{fill:#D3E5BC;}
</style>
<path class="st0" d="M32.9,97.8c-8.1-84.9,191.9-128.4,214,0C184.2,86.7,78.7,84.5,32.9,97.8z"/>
<path class="st1" d="M32.7,104c61.9-16.3,188.3-10.9,214.2,1.6c3.4,3.4,1.9,15.3,0,15.6c-36.9-11.9-170.2-13.7-212.7,0
	C29.8,114.3,30.5,107.5,32.7,104z"/>
<path class="st1" d="M33.3,176.5c63.8,6.1,182.3,2.1,214.2,1.6c3.4,3.4,1.9,15.3,0,15.6c-42.2,7.4-169.2,6.8-212.7,0
	C30.4,186.8,31.1,180,33.3,176.5z"/>
<path class="st2" d="M32.7,139.1c68-14.7,182.3-9.7,216.3,2.6c2.9,5.9-0.2,6.8-4.9,6.5c-32.5-11.6-168-11.9-208-1.3
	C28.6,144.8,30.3,142.6,32.7,139.1z"/>
<path class="st0" d="M32.7,153.8c18.7-5.6,181.1-9.4,214.2,0c3.2,5.3,1.9,10.9,2,11.9c-13.3,8.1-187.9,7.5-212.9,0
	C31.6,165.1,33.7,160.4,32.7,153.8z"/>
<path class="st3" d="M102.1,205.2c13.8,1.9,69.1,1.3,72.6,0c5.6-0.3,9.4,0.9,0,10.9c-9.4,10-29.1,31.3-31,33.2
	c-3.8,4.1-6.6,4.1-10.9-1.9C115,226.2,92.1,206.7,102.1,205.2z"/>
<path class="st2" d="M89.5,205.1c-14.7-0.6-48.2-3.5-52.2-6.1c-9.7,2.7-3.8,9.3,1.6,9.6c7.3,1.3,42.5,5.8,53.2,5
	C97.1,213.9,92.4,208.8,89.5,205.1z"/>
<path class="st2" d="M190.5,206.4c14.7-0.6,48.2-3.5,52.2-6.1c9.7,2.7,3.8,9.3-1.6,9.6c-7.3,1.3-42.5,5.8-53.2,5
	C182.9,215.2,187.6,210.1,190.5,206.4z"/>
<path class="st0" d="M99.6,221.7c-15.4-1.3-60.1-2.6-64.5-6.8c-3.6,6.1-1.6,27.4,6.6,28.3c10,5.3,61.9,10.4,76.3,8.8
	C134.8,254.3,102.1,228.6,99.6,221.7z"/>
<path class="st0" d="M180.4,221.2c15.4-1.3,60.1-2.6,64.5-6.8c3.6,6.1,1.6,27.4-6.6,28.3c-10,5.3-61.9,10.4-76.3,8.8
	C145.2,253.7,177.9,228.1,180.4,221.2z"/>
<ellipse class="st4" cx="84.4" cy="56.7" rx="4.8" ry="2.2"/>
<ellipse transform="matrix(0.2769 -0.9609 0.9609 0.2769 31.6859 126.0986)" class="st4" cx="99.6" cy="42" rx="4.8" ry="2.2"/>
<ellipse transform="matrix(0.866 -0.5 0.5 0.866 -10.038 67.9908)" class="st4" cx="121.9" cy="52.7" rx="4.8" ry="2.2"/>
<ellipse transform="matrix(0.8207 -0.5713 0.5713 0.8207 5.2199 87.3041)" class="st4" cx="141.7" cy="35.3" rx="2.2" ry="4.8"/>
<ellipse class="st4" cx="163.2" cy="63.6" rx="4.8" ry="2.2"/>
<ellipse transform="matrix(0.2769 -0.9609 0.9609 0.2769 86.739 233.0403)" class="st4" cx="198.2" cy="58.9" rx="4.8" ry="2.2"/>
<ellipse transform="matrix(0.9485 -0.3168 0.3168 0.9485 -15.2928 62.9613)" class="st4" cx="185.9" cy="78.5" rx="2.2" ry="4.8"/>
<ellipse transform="matrix(0.1067 -0.9943 0.9943 0.1067 118.6646 281.2998)" class="st4" cx="215.9" cy="74.6" rx="2.2" ry="4.8"/>
<ellipse transform="matrix(0.2769 -0.9609 0.9609 0.2769 35.7555 182.6496)" class="st4" cx="139.2" cy="67.6" rx="4.8" ry="2.2"/>
<ellipse transform="matrix(0.8838 -0.4678 0.4678 0.8838 -0.572 84.1146)" class="st4" cx="169.1" cy="43.2" rx="4.8" ry="2.2"/>
<ellipse transform="matrix(0.5 -0.866 0.866 0.5 -10.2196 126.8321)" class="st4" cx="104.7" cy="72.3" rx="2.2" ry="4.8"/>
<ellipse transform="matrix(0.9335 -0.3585 0.3585 0.9335 -23.6887 31.7513)" class="st4" cx="73.8" cy="79.8" rx="4.8" ry="2.2"/>
<ellipse transform="matrix(0.9868 -0.1618 0.1618 0.9868 -19.208 13.981)" class="st5" cx="76.2" cy="124.9" rx="28.4" ry="3.4"/>
<ellipse class="st5" cx="145.1" cy="122.7" rx="23.6" ry="3.6"/>
<ellipse transform="matrix(0.1067 -0.9943 0.9943 0.1067 66.7511 331.4214)" class="st5" cx="217.8" cy="128.6" rx="3.6" ry="22"/>
<path class="st6" d="M63.3,125.7c-0.4,0.1,1-0.7,1.1-0.2C64.6,125.9,64.2,125.5,63.3,125.7z"/>
<path class="st6" d="M57.6,127.5c-0.4-0.3,0.7,1.2,1,0.7C58.8,127.7,58.3,128.2,57.6,127.5z"/>
<path class="st6" d="M71.2,123.9c-0.4,0.1,1-0.7,1.1-0.2C72.4,124.1,72.1,123.6,71.2,123.9z"/>
<path class="st6" d="M70.7,127.2c-0.3,0.4,0.5-1.1,0.8-0.8C71.9,126.6,71.3,126.4,70.7,127.2z"/>
<path class="st6" d="M66,127.8c-0.3,0.4,0.5-1.1,0.8-0.8S66.6,127,66,127.8z"/>
<path class="st6" d="M73.8,126c-0.3,0.4,0.5-1.1,0.8-0.8S74.4,125.3,73.8,126z"/>
<path class="st6" d="M92.8,122.7c-0.3,0.3,0.6-1,0.9-0.7C94,122.3,93.5,122.1,92.8,122.7z"/>
<path class="st6" d="M83.5,123.5c-0.3,0.3,0.6-1,0.9-0.7C84.7,123.2,84.2,122.9,83.5,123.5z"/>
<path class="st6" d="M78.6,123.1c-0.3,0.3,0.6-1,0.9-0.7S79.3,122.5,78.6,123.1z"/>
<path class="st6" d="M80.9,125.6c-0.5,0.1,1.1-0.5,1.1-0.1C82.1,125.9,81.8,125.4,80.9,125.6z"/>
<path class="st6" d="M87.6,123.5c-0.5,0.1,1.1-0.5,1.1-0.1C88.8,123.9,88.5,123.4,87.6,123.5z"/>
<path class="st6" d="M77.8,125.8c-0.5,0.1,1.1-0.5,1.1-0.1C78.9,126.1,78.7,125.6,77.8,125.8z"/>
<path class="st6" d="M133,122.9c-0.5,0.1,1.1-0.6,1.1-0.1C134.2,123.2,133.9,122.7,133,122.9z"/>
<path class="st6" d="M127.1,122.2c-0.3-0.4,0.6,1.2,0.9,0.8C128.3,122.5,127.8,122.9,127.1,122.2z"/>
<path class="st6" d="M140.9,121.7c-0.5,0.1,1.1-0.6,1.1-0.1C142.1,122,141.8,121.5,140.9,121.7z"/>
<path class="st6" d="M140.2,124.9c-0.3,0.3,0.6-1.1,0.9-0.7C141.4,124.5,140.9,124.3,140.2,124.9z"/>
<path class="st6" d="M135.5,125.1c-0.3,0.3,0.6-1.1,0.9-0.7C136.7,124.7,136.1,124.5,135.5,125.1z"/>
<path class="st6" d="M143.4,124c-0.3,0.3,0.6-1.1,0.9-0.7C144.6,123.6,144,123.4,143.4,124z"/>
<path class="st6" d="M162.6,122.3c-0.4,0.3,0.7-1,1-0.6C163.8,122,163.3,121.7,162.6,122.3z"/>
<path class="st6" d="M153.3,122.3c-0.4,0.3,0.7-1,1-0.6C154.5,122.1,154,121.8,153.3,122.3z"/>
<path class="st6" d="M148.4,121.6c-0.4,0.3,0.7-1,1-0.6C149.6,121.3,149.1,121,148.4,121.6z"/>
<path class="st6" d="M150.5,124.2c-0.5,0,1.1-0.4,1.1,0C151.6,124.6,151.4,124.1,150.5,124.2z"/>
<path class="st6" d="M157.4,122.7c-0.5,0,1.1-0.4,1.1,0S158.3,122.6,157.4,122.7z"/>
<path class="st6" d="M147.4,124.1c-0.5,0,1.1-0.4,1.1,0S148.3,124.1,147.4,124.1z"/>
<path class="st6" d="M206.5,126.2c-0.5,0,1.2-0.3,1.1,0.2C207.6,126.8,207.5,126.2,206.5,126.2z"/>
<path class="st6" d="M200.5,125.9c-0.2-0.4,0.3,1.3,0.7,1C201.6,126.5,201,126.7,200.5,125.9z"/>
<path class="st6" d="M214.5,127.1c-0.5,0,1.2-0.3,1.1,0.2C215.6,127.7,215.5,127.1,214.5,127.1z"/>
<path class="st6" d="M213,130c-0.4,0.2,0.8-0.9,1-0.5C214.2,129.9,213.8,129.5,213,130z"/>
<path class="st6" d="M208.4,129c-0.4,0.2,0.8-0.9,1-0.5C209.6,128.9,209.2,128.5,208.4,129z"/>
<path class="st6" d="M216.3,130c-0.4,0.2,0.8-0.9,1-0.5C217.5,129.9,217.1,129.5,216.3,130z"/>
<path class="st6" d="M235.3,130.3c-0.4,0.2,1-0.8,1.1-0.3C236.5,130.4,236.1,129.9,235.3,130.3z"/>
<path class="st6" d="M226.3,130.9c-0.4,0.2,1-0.8,1.1-0.3C227.5,131,227.1,130.6,226.3,130.9z"/>
<path class="st6" d="M223.2,128.1c-0.4,0.2,1-0.8,1.1-0.3C224.4,128.2,224,127.8,223.2,128.1z"/>
<path class="st6" d="M229.5,131.4c-0.5-0.1,1.2-0.1,1.1,0.3C230.5,132.2,230.4,131.6,229.5,131.4z"/>
<path class="st6" d="M230.1,129.3c-0.5-0.1,1.2-0.1,1.1,0.3C231.1,130.1,231,129.5,230.1,129.3z"/>
<path class="st6" d="M221.3,130.1c-0.5-0.1,1.2-0.1,1.1,0.3C222.3,130.8,222.2,130.2,221.3,130.1z"/>
</svg>
