<?xml version="1.0" encoding="utf-8"?>
<!-- Generator: Adobe Illustrator 24.1.0, SVG Export Plug-In . SVG Version: 6.00 Build 0)  -->
<svg version="1.1" id="Calque_1" xmlns="http://www.w3.org/2000/svg" xmlns:xlink="http://www.w3.org/1999/xlink" x="0px" y="0px"
	 viewBox="0 0 283.5 283.5" style="enable-background:new 0 0 283.5 283.5;" xml:space="preserve">
<style type="text/css">
	.st0{fill:#F59E47;}
	.st1{fill:#00983D;}
	.st2{fill:#FCBC00;}
	.st3{fill:#FFE3B1;}
	.st4{fill:#91371A;}
	.st5{fill:#69B42D;stroke:#168536;stroke-miterlimit:10;}
	.st6{fill:#E6243B;stroke:#C8161A;stroke-width:2;stroke-miterlimit:10;}
	.st7{fill:#E6243B;stroke:#BF1618;stroke-width:2;stroke-miterlimit:10;}
	.st8{fill:#FAEE6F;}
	.st9{fill:#D3E5BC;}
</style>
<path class="st0" d="M32.9,105.8c-8.1-84.9,191.9-128.4,214,0C184.2,94.7,78.7,92.5,32.9,105.8z"/>
<path class="st1" d="M32.7,126.1c68-14.7,182.3-9.7,216.3,2.6c2.9,5.9-0.2,6.8-4.9,6.5c-32.5-11.6-168-11.9-208-1.3
	C28.6,131.8,30.3,129.6,32.7,126.1z"/>
<path class="st2" d="M102.4,150.3c13.8,1.9,69.1,1.3,72.6,0c5.6-0.3,9.4,0.9,0,10.9c-9.4,10-29.1,31.3-31,33.2
	c-3.8,4.1-6.6,4.1-10.9-1.9C115.4,171.4,92.4,151.8,102.4,150.3z"/>
<ellipse class="st3" cx="84.4" cy="64.7" rx="4.8" ry="2.2"/>
<ellipse transform="matrix(0.2769 -0.9609 0.9609 0.2769 23.9987 131.8834)" class="st3" cx="99.6" cy="50" rx="4.8" ry="2.2"/>
<ellipse transform="matrix(0.866 -0.5 0.5 0.866 -14.038 69.0626)" class="st3" cx="121.9" cy="60.7" rx="4.8" ry="2.2"/>
<ellipse transform="matrix(0.8207 -0.5713 0.5713 0.8207 0.6496 88.7381)" class="st3" cx="141.7" cy="43.3" rx="2.2" ry="4.8"/>
<ellipse class="st3" cx="163.2" cy="71.6" rx="4.8" ry="2.2"/>
<ellipse transform="matrix(0.2769 -0.9609 0.9609 0.2769 79.0518 238.8251)" class="st3" cx="198.2" cy="66.9" rx="4.8" ry="2.2"/>
<ellipse transform="matrix(0.9485 -0.3168 0.3168 0.9485 -17.8276 63.3735)" class="st3" cx="185.9" cy="86.5" rx="2.2" ry="4.8"/>
<ellipse transform="matrix(0.1067 -0.9943 0.9943 0.1067 110.7103 288.4464)" class="st3" cx="215.9" cy="82.6" rx="2.2" ry="4.8"/>
<ellipse transform="matrix(0.2769 -0.9609 0.9609 0.2769 28.0683 188.4344)" class="st3" cx="139.2" cy="75.6" rx="4.8" ry="2.2"/>
<ellipse transform="matrix(0.8838 -0.4678 0.4678 0.8838 -4.3148 85.0441)" class="st3" cx="169.1" cy="51.2" rx="4.8" ry="2.2"/>
<ellipse transform="matrix(0.5 -0.866 0.866 0.5 -17.1478 130.8321)" class="st3" cx="104.7" cy="80.3" rx="2.2" ry="4.8"/>
<ellipse transform="matrix(0.9335 -0.3585 0.3585 0.9335 -26.5569 32.2832)" class="st3" cx="73.8" cy="87.8" rx="4.8" ry="2.2"/>
<path class="st0" d="M35.1,191c26.7,8.8,192.9,11.2,209.7-0.5c3.5,17.6-0.7,29-6.6,28.3c-17.6,11.5-179.4,13.8-196.6,0.5
	C31.6,212.7,31.5,201.1,35.1,191z"/>
<path class="st4" d="M33.1,162.5c13.6,1.2,70.2,3.2,71.8,3.3c1.8,5.4,12.7,16.8,13.5,19.3c-11.2-0.3-77.6-1-83.9-5.3
	C31.6,169.8,30.4,169.7,33.1,162.5z"/>
<path class="st4" d="M248,162.5c-13.5,1.2-69.9,3.2-71.4,3.3c-1.2,1-12.6,16.8-13.4,19.3c11.1-0.3,77.2-1,83.4-5.3
	C249.6,169.8,250.7,169.7,248,162.5z"/>
<ellipse transform="matrix(0.9868 -0.1618 0.1618 0.9868 -17.0586 13.8638)" class="st5" cx="76.6" cy="111.7" rx="28.4" ry="3.4"/>
<ellipse class="st5" cx="145.5" cy="109.5" rx="23.6" ry="3.6"/>
<ellipse transform="matrix(0.1067 -0.9943 0.9943 0.1067 80.249 319.9333)" class="st5" cx="218.2" cy="115.3" rx="3.6" ry="22"/>
<ellipse transform="matrix(0.9868 -0.1618 0.1618 0.9868 -21.9982 15.7701)" class="st6" cx="85.8" cy="143" rx="41.1" ry="6.4"/>
<ellipse transform="matrix(0.1857 -0.9826 0.9826 0.1857 19.9973 313.6595)" class="st7" cx="199.2" cy="144.8" rx="5.7" ry="43.7"/>
<path class="st8" d="M71.6,143.1c-0.8,0.2,1.9-1.2,2.1-0.4C73.9,143.5,73.3,142.6,71.6,143.1z"/>
<path class="st8" d="M64.8,142.6c-0.7-0.6,1.3,2.1,1.8,1.3C67,143,66.1,143.8,64.8,142.6z"/>
<path class="st8" d="M76.9,141.5c-0.8,0.2,1.9-1.2,2.1-0.4C79.1,141.9,78.5,141.1,76.9,141.5z"/>
<path class="st8" d="M75.9,149.4c-0.5,0.7,0.9-2,1.5-1.5C78,148.5,77,148.1,75.9,149.4z"/>
<path class="st8" d="M69.2,148.6c-0.5,0.7,0.9-2,1.5-1.5C71.2,147.6,70.2,147.3,69.2,148.6z"/>
<path class="st8" d="M78,145.5c-0.5,0.7,0.9-2,1.5-1.5C80.1,144.6,79.1,144.2,78,145.5z"/>
<path class="st8" d="M103.7,137.9c-0.6,0.6,1.2-1.9,1.7-1.2C105.9,137.3,105,136.7,103.7,137.9z"/>
<path class="st8" d="M95.9,141.1c-0.6,0.6,1.2-1.9,1.7-1.2C98.1,140.5,97.2,140,95.9,141.1z"/>
<path class="st8" d="M90.5,140.4c-0.6,0.6,1.2-1.9,1.7-1.2C92.7,139.8,91.8,139.3,90.5,140.4z"/>
<path class="st8" d="M94.6,144.9c-0.8,0.1,2-0.9,2.1-0.1S96.3,144.6,94.6,144.9z"/>
<path class="st8" d="M101.5,143.1c-0.8,0.1,2-0.9,2.1-0.1S103.2,142.8,101.5,143.1z"/>
<path class="st8" d="M90.8,143.4c-0.8,0.1,2-0.9,2.1-0.1C92.9,144.1,92.4,143.1,90.8,143.4z"/>
<path class="st8" d="M215.1,145.5c0.8,0.3-1.8-1.1-2-0.4S213.5,145,215.1,145.5z"/>
<path class="st8" d="M222,145.4c0.7-0.5-1.4,1.8-1.8,1C219.8,145.7,220.6,146.4,222,145.4z"/>
<path class="st8" d="M210,143.9c0.8,0.3-1.8-1.1-2-0.4C207.7,144.2,208.4,143.4,210,143.9z"/>
<path class="st8" d="M210.5,150.9c0.5,0.6-0.8-1.9-1.4-1.4S209.5,149.7,210.5,150.9z"/>
<path class="st8" d="M217.3,150.5c0.5,0.6-0.8-1.9-1.4-1.4C215.3,149.6,216.3,149.3,217.3,150.5z"/>
<path class="st8" d="M208.6,147.3c0.5,0.6-0.8-1.9-1.4-1.4S207.6,146.2,208.6,147.3z"/>
<path class="st8" d="M183.3,139.4c0.6,0.5-1.1-1.7-1.6-1.2S182.1,138.3,183.3,139.4z"/>
<path class="st8" d="M191,142.6c0.6,0.5-1.1-1.7-1.6-1.2S189.8,141.6,191,142.6z"/>
<path class="st8" d="M196.4,142.2c0.6,0.5-1.1-1.7-1.6-1.2C194.3,141.6,195.2,141.2,196.4,142.2z"/>
<path class="st8" d="M192,146c0.8,0.2-2-0.9-2.1-0.2C189.8,146.5,190.4,145.7,192,146z"/>
<path class="st8" d="M185.3,144.1c0.8,0.2-2-0.9-2.1-0.2C183.1,144.6,183.6,143.8,185.3,144.1z"/>
<path class="st8" d="M196,144.9c0.8,0.2-2-0.9-2.1-0.2C193.8,145.4,194.3,144.6,196,144.9z"/>
<path class="st9" d="M63.7,112.5c-0.4,0.1,1-0.7,1.1-0.2C64.9,112.7,64.6,112.2,63.7,112.5z"/>
<path class="st9" d="M57.9,114.3c-0.4-0.3,0.7,1.2,1,0.7C59.2,114.5,58.7,114.9,57.9,114.3z"/>
<path class="st9" d="M71.5,110.6c-0.4,0.1,1-0.7,1.1-0.2C72.7,110.8,72.4,110.3,71.5,110.6z"/>
<path class="st9" d="M71.1,113.9c-0.3,0.4,0.5-1.1,0.8-0.8C72.2,113.4,71.7,113.2,71.1,113.9z"/>
<path class="st9" d="M66.4,114.5c-0.3,0.4,0.5-1.1,0.8-0.8C67.5,114,67,113.8,66.4,114.5z"/>
<path class="st9" d="M74.2,112.8c-0.3,0.4,0.5-1.1,0.8-0.8S74.8,112,74.2,112.8z"/>
<path class="st9" d="M93.1,109.4c-0.3,0.3,0.6-1,0.9-0.7C94.3,109.1,93.8,108.8,93.1,109.4z"/>
<path class="st9" d="M83.9,110.2c-0.3,0.3,0.6-1,0.9-0.7C85.1,109.9,84.6,109.6,83.9,110.2z"/>
<path class="st9" d="M79,109.9c-0.3,0.3,0.6-1,0.9-0.7S79.6,109.3,79,109.9z"/>
<path class="st9" d="M81.2,112.3c-0.5,0.1,1.1-0.5,1.1-0.1C82.4,112.7,82.1,112.1,81.2,112.3z"/>
<path class="st9" d="M88,110.3c-0.5,0.1,1.1-0.5,1.1-0.1C89.1,110.6,88.9,110.1,88,110.3z"/>
<path class="st9" d="M78.1,112.5c-0.5,0.1,1.1-0.5,1.1-0.1C79.3,112.9,79,112.4,78.1,112.5z"/>
<path class="st9" d="M133.3,109.7c-0.5,0.1,1.1-0.6,1.1-0.1C134.5,110,134.2,109.5,133.3,109.7z"/>
<path class="st9" d="M127.5,109c-0.3-0.4,0.6,1.2,0.9,0.8C128.7,109.3,128.1,109.7,127.5,109z"/>
<path class="st9" d="M141.3,108.4c-0.5,0.1,1.1-0.6,1.1-0.1C142.5,108.7,142.2,108.2,141.3,108.4z"/>
<path class="st9" d="M140.6,111.7c-0.3,0.3,0.6-1.1,0.9-0.7C141.8,111.3,141.2,111,140.6,111.7z"/>
<path class="st9" d="M135.9,111.9c-0.3,0.3,0.6-1.1,0.9-0.7C137,111.5,136.5,111.2,135.9,111.9z"/>
<path class="st9" d="M143.8,110.8c-0.3,0.3,0.6-1.1,0.9-0.7C144.9,110.4,144.4,110.1,143.8,110.8z"/>
<path class="st9" d="M162.9,109c-0.4,0.3,0.7-1,1-0.6C164.2,108.8,163.7,108.5,162.9,109z"/>
<path class="st9" d="M153.7,109.1c-0.4,0.3,0.7-1,1-0.6S154.4,108.5,153.7,109.1z"/>
<path class="st9" d="M148.8,108.3c-0.4,0.3,0.7-1,1-0.6C150,108.1,149.5,107.8,148.8,108.3z"/>
<path class="st9" d="M150.8,110.9c-0.5,0,1.1-0.4,1.1,0C152,111.4,151.8,110.8,150.8,110.9z"/>
<path class="st9" d="M157.7,109.4c-0.5,0,1.1-0.4,1.1,0S158.6,109.4,157.7,109.4z"/>
<path class="st9" d="M147.7,110.9c-0.5,0,1.1-0.4,1.1,0S148.6,110.8,147.7,110.9z"/>
<path class="st9" d="M206.9,112.9c-0.5,0,1.2-0.3,1.1,0.2C208,113.5,207.8,112.9,206.9,112.9z"/>
<path class="st9" d="M200.9,112.6c-0.2-0.4,0.3,1.3,0.7,1C202,113.2,201.3,113.5,200.9,112.6z"/>
<path class="st9" d="M214.9,113.8c-0.5,0,1.2-0.3,1.1,0.2C216,114.4,215.8,113.9,214.9,113.8z"/>
<path class="st9" d="M213.4,116.7c-0.4,0.2,0.8-0.9,1-0.5C214.6,116.6,214.1,116.3,213.4,116.7z"/>
<path class="st9" d="M208.7,115.7c-0.4,0.2,0.8-0.9,1-0.5C210,115.6,209.5,115.2,208.7,115.7z"/>
<path class="st9" d="M216.7,116.7c-0.4,0.2,0.8-0.9,1-0.5C217.9,116.6,217.4,116.2,216.7,116.7z"/>
<path class="st9" d="M235.6,117c-0.4,0.2,1-0.8,1.1-0.3C236.9,117.1,236.5,116.7,235.6,117z"/>
<path class="st9" d="M226.7,117.7c-0.4,0.2,1-0.8,1.1-0.3C227.9,117.7,227.5,117.3,226.7,117.7z"/>
<path class="st9" d="M223.5,114.9c-0.4,0.2,1-0.8,1.1-0.3C224.8,114.9,224.4,114.5,223.5,114.9z"/>
<path class="st9" d="M229.9,118.2c-0.5-0.1,1.2-0.1,1.1,0.3C230.9,118.9,230.8,118.3,229.9,118.2z"/>
<path class="st9" d="M230.5,116.1c-0.5-0.1,1.2-0.1,1.1,0.3C231.5,116.8,231.4,116.2,230.5,116.1z"/>
<path class="st9" d="M221.6,116.8c-0.5-0.1,1.2-0.1,1.1,0.3C222.6,117.5,222.5,117,221.6,116.8z"/>
</svg>
