<?xml version="1.0" encoding="utf-8"?>
<!-- Generator: Adobe Illustrator 24.1.0, SVG Export Plug-In . SVG Version: 6.00 Build 0)  -->
<svg version="1.1" id="Calque_1" xmlns="http://www.w3.org/2000/svg" xmlns:xlink="http://www.w3.org/1999/xlink" x="0px" y="0px"
	 viewBox="0 0 283.5 283.5" style="enable-background:new 0 0 283.5 283.5;" xml:space="preserve">
<style type="text/css">
	.st0{fill:#F59E47;}
	.st1{fill:#91371A;}
	.st2{fill:#69B42D;stroke:#168536;stroke-miterlimit:10;}
	.st3{fill:#D3E5BC;}
</style>
<path class="st0" d="M32.9,140.8c-8.1-84.9,191.9-128.4,214,0C184.2,129.7,78.7,127.5,32.9,140.8z"/>
<path class="st0" d="M37.1,184c26.7,8.8,192.9,11.2,209.7-0.5c3.5,17.6-0.7,29-6.6,28.3c-17.6,11.5-179.4,13.8-196.6,0.5
	C33.6,205.7,33.5,194.1,37.1,184z"/>
<path class="st1" d="M34,159.9c63.8,6.1,182.3,2.1,214.2,1.6c3.4,3.4,1.9,15.3,0,15.6c-42.2,7.4-169.2,6.8-212.7,0
	C31.1,170.2,31.8,163.4,34,159.9z"/>
<ellipse transform="matrix(0.9999 -1.415157e-02 1.415157e-02 0.9999 -2.0738 1.0509)" class="st2" cx="73.2" cy="147.1" rx="28.4" ry="3.4"/>
<ellipse class="st2" cx="142.1" cy="144.8" rx="23.6" ry="3.6"/>
<ellipse transform="matrix(0.9994 -3.517167e-02 3.517167e-02 0.9994 -5.1674 7.6481)" class="st2" cx="214.8" cy="150.7" rx="22" ry="3.6"/>
<path class="st3" d="M60.3,146c-0.5,0.1,1.1-0.5,1.1-0.1C61.5,146.3,61.3,145.8,60.3,146z"/>
<path class="st3" d="M54.4,146.9c-0.3-0.4,0.5,1.2,0.9,0.8C55.6,147.3,55,147.6,54.4,146.9z"/>
<path class="st3" d="M68.4,145.3c-0.5,0.1,1.1-0.5,1.1-0.1C69.5,145.7,69.3,145.1,68.4,145.3z"/>
<path class="st3" d="M67.4,148.4c-0.3,0.3,0.6-1,0.9-0.7C68.6,148.1,68.1,147.8,67.4,148.4z"/>
<path class="st3" d="M62.7,148.3c-0.3,0.3,0.6-1,0.9-0.7C63.9,148,63.4,147.7,62.7,148.3z"/>
<path class="st3" d="M70.7,147.8c-0.3,0.3,0.6-1,0.9-0.7C71.9,147.4,71.4,147.2,70.7,147.8z"/>
<path class="st3" d="M89.9,147.3c-0.4,0.3,0.8-0.9,1-0.5C91.1,147.1,90.7,146.8,89.9,147.3z"/>
<path class="st3" d="M80.7,146.7c-0.4,0.3,0.8-0.9,1-0.5C81.9,146.6,81.4,146.2,80.7,146.7z"/>
<path class="st3" d="M75.8,145.7c-0.4,0.3,0.8-0.9,1-0.5C77,145.5,76.6,145.1,75.8,145.7z"/>
<path class="st3" d="M77.7,148.4c-0.5,0,1.2-0.4,1.1,0.1C78.8,148.9,78.6,148.4,77.7,148.4z"/>
<path class="st3" d="M84.7,147.4c-0.5,0,1.2-0.4,1.1,0.1C85.8,147.9,85.6,147.3,84.7,147.4z"/>
<path class="st3" d="M74.6,148.1c-0.5,0,1.2-0.4,1.1,0.1C75.7,148.7,75.5,148.1,74.6,148.1z"/>
<path class="st3" d="M130,145.1c-0.5,0.1,1.1-0.6,1.1-0.1C131.2,145.4,130.9,144.9,130,145.1z"/>
<path class="st3" d="M124.1,144.4c-0.3-0.4,0.6,1.2,0.9,0.8S124.8,145.1,124.1,144.4z"/>
<path class="st3" d="M137.9,143.8c-0.5,0.1,1.1-0.6,1.1-0.1C139.1,144.1,138.8,143.6,137.9,143.8z"/>
<path class="st3" d="M137.2,147.1c-0.3,0.3,0.6-1.1,0.9-0.7C138.4,146.7,137.9,146.4,137.2,147.1z"/>
<path class="st3" d="M132.5,147.3c-0.3,0.3,0.6-1.1,0.9-0.7C133.6,146.9,133.1,146.6,132.5,147.3z"/>
<path class="st3" d="M140.4,146.2c-0.3,0.3,0.6-1.1,0.9-0.7C141.6,145.8,141,145.5,140.4,146.2z"/>
<path class="st3" d="M159.6,144.4c-0.4,0.3,0.7-1,1-0.6C160.8,144.2,160.3,143.8,159.6,144.4z"/>
<path class="st3" d="M150.3,144.5c-0.4,0.3,0.7-1,1-0.6C151.5,144.2,151,143.9,150.3,144.5z"/>
<path class="st3" d="M145.4,143.7c-0.4,0.3,0.7-1,1-0.6C146.6,143.5,146.1,143.2,145.4,143.7z"/>
<path class="st3" d="M147.5,146.3c-0.5,0,1.1-0.4,1.1,0S148.4,146.2,147.5,146.3z"/>
<path class="st3" d="M154.3,144.8c-0.5,0,1.1-0.4,1.1,0S155.3,144.8,154.3,144.8z"/>
<path class="st3" d="M144.3,146.3c-0.5,0,1.1-0.4,1.1,0S145.3,146.2,144.3,146.3z"/>
<path class="st3" d="M203.3,149.9c-0.5,0,1.1-0.4,1.1,0C204.4,150.4,204.2,149.8,203.3,149.9z"/>
<path class="st3" d="M197.3,150.5c-0.3-0.4,0.5,1.3,0.8,0.9C198.5,151,197.9,151.3,197.3,150.5z"/>
<path class="st3" d="M211.3,149.7c-0.5,0,1.1-0.4,1.1,0C212.5,150.1,212.3,149.6,211.3,149.7z"/>
<path class="st3" d="M210.2,152.8c-0.4,0.3,0.7-1,1-0.6C211.4,152.5,211,152.2,210.2,152.8z"/>
<path class="st3" d="M205.5,152.4c-0.4,0.3,0.7-1,1-0.6C206.7,152.2,206.2,151.8,205.5,152.4z"/>
<path class="st3" d="M213.5,152.3c-0.4,0.3,0.7-1,1-0.6C214.7,152,214.2,151.7,213.5,152.3z"/>
<path class="st3" d="M232.3,149.9c-0.4,0.2,0.8-0.9,1-0.5C233.6,149.8,233.1,149.5,232.3,149.9z"/>
<path class="st3" d="M223.5,151.8c-0.4,0.2,0.8-0.9,1-0.5C224.8,151.7,224.3,151.4,223.5,151.8z"/>
<path class="st3" d="M220,149.5c-0.4,0.2,0.8-0.9,1-0.5C221.3,149.4,220.8,149,220,149.5z"/>
<path class="st3" d="M226.8,151.9c-0.5,0,1.2-0.3,1.1,0.1C227.9,152.5,227.7,151.9,226.8,151.9z"/>
<path class="st3" d="M227.1,149.7c-0.5,0,1.2-0.3,1.1,0.1S228,149.7,227.1,149.7z"/>
<path class="st3" d="M218.4,151.7c-0.5,0,1.2-0.3,1.1,0.1C219.5,152.3,219.4,151.7,218.4,151.7z"/>
</svg>
