<?xml version="1.0" encoding="utf-8"?>
<!-- Generator: Adobe Illustrator 24.1.0, SVG Export Plug-In . SVG Version: 6.00 Build 0)  -->
<svg version="1.1" id="Calque_1" xmlns="http://www.w3.org/2000/svg" xmlns:xlink="http://www.w3.org/1999/xlink" x="0px" y="0px"
	 viewBox="0 0 283.5 283.5" style="enable-background:new 0 0 283.5 283.5;" xml:space="preserve">
<style type="text/css">
	.st0{fill:#F59E47;}
	.st1{fill:#69B42D;stroke:#168536;stroke-miterlimit:10;}
	.st2{fill:#D3E5BC;}
	.st3{fill:#FCBC00;}
	.st4{fill:#91371A;}
</style>
<path class="st0" d="M32.9,140.8c-8.1-84.9,191.9-128.4,214,0C184.2,129.7,78.7,127.5,32.9,140.8z"/>
<path class="st0" d="M37.1,195c26.7,8.8,192.9,11.2,209.7-0.5c3.5,17.6-0.7,29-6.6,28.3c-17.6,11.5-179.4,13.8-196.6,0.5
	C33.6,216.7,33.5,205.1,37.1,195z"/>
<ellipse transform="matrix(0.9868 -0.1618 0.1618 0.9868 -22.415 13.4515)" class="st1" cx="71.4" cy="144.4" rx="28.4" ry="3.4"/>
<ellipse class="st1" cx="140.2" cy="142.1" rx="23.6" ry="3.6"/>
<ellipse transform="matrix(0.1067 -0.9943 0.9943 0.1067 43.0994 343.9482)" class="st1" cx="213" cy="148" rx="3.6" ry="22"/>
<path class="st2" d="M58.5,145.2c-0.4,0.1,1-0.7,1.1-0.2C59.7,145.4,59.4,144.9,58.5,145.2z"/>
<path class="st2" d="M52.7,147c-0.4-0.3,0.7,1.2,1,0.7S53.5,147.6,52.7,147z"/>
<path class="st2" d="M66.3,143.3c-0.4,0.1,1-0.7,1.1-0.2C67.5,143.5,67.2,143,66.3,143.3z"/>
<path class="st2" d="M65.9,146.6c-0.3,0.4,0.5-1.1,0.8-0.8C67,146.1,66.5,145.9,65.9,146.6z"/>
<path class="st2" d="M61.2,147.2c-0.3,0.4,0.5-1.1,0.8-0.8C62.3,146.7,61.8,146.5,61.2,147.2z"/>
<path class="st2" d="M69,145.4c-0.3,0.4,0.5-1.1,0.8-0.8C70.1,144.9,69.5,144.7,69,145.4z"/>
<path class="st2" d="M87.9,142.1c-0.3,0.3,0.6-1,0.9-0.7C89.1,141.8,88.6,141.5,87.9,142.1z"/>
<path class="st2" d="M78.7,142.9c-0.3,0.3,0.6-1,0.9-0.7C79.9,142.6,79.4,142.3,78.7,142.9z"/>
<path class="st2" d="M73.7,142.6c-0.3,0.3,0.6-1,0.9-0.7S74.4,142,73.7,142.6z"/>
<path class="st2" d="M76,145c-0.5,0.1,1.1-0.5,1.1-0.1C77.2,145.3,76.9,144.8,76,145z"/>
<path class="st2" d="M82.8,143c-0.5,0.1,1.1-0.5,1.1-0.1C83.9,143.3,83.7,142.8,82.8,143z"/>
<path class="st2" d="M72.9,145.2c-0.5,0.1,1.1-0.5,1.1-0.1C74.1,145.6,73.8,145.1,72.9,145.2z"/>
<path class="st2" d="M128.1,142.3c-0.5,0.1,1.1-0.6,1.1-0.1C129.3,142.6,129,142.1,128.1,142.3z"/>
<path class="st2" d="M122.3,141.7c-0.3-0.4,0.6,1.2,0.9,0.8S122.9,142.4,122.3,141.7z"/>
<path class="st2" d="M136.1,141.1c-0.5,0.1,1.1-0.6,1.1-0.1S137,140.9,136.1,141.1z"/>
<path class="st2" d="M135.4,144.4c-0.3,0.3,0.6-1.1,0.9-0.7C136.5,143.9,136,143.7,135.4,144.4z"/>
<path class="st2" d="M130.6,144.6c-0.3,0.3,0.6-1.1,0.9-0.7C131.8,144.2,131.3,143.9,130.6,144.6z"/>
<path class="st2" d="M138.6,143.5c-0.3,0.3,0.6-1.1,0.9-0.7C139.7,143.1,139.2,142.8,138.6,143.5z"/>
<path class="st2" d="M157.7,141.7c-0.4,0.3,0.7-1,1-0.6S158.5,141.1,157.7,141.7z"/>
<path class="st2" d="M148.4,141.8c-0.4,0.3,0.7-1,1-0.6S149.2,141.2,148.4,141.8z"/>
<path class="st2" d="M143.6,141c-0.4,0.3,0.7-1,1-0.6S144.3,140.4,143.6,141z"/>
<path class="st2" d="M145.6,143.6c-0.5,0,1.1-0.4,1.1,0C146.8,144,146.5,143.5,145.6,143.6z"/>
<path class="st2" d="M152.5,142.1c-0.5,0,1.1-0.4,1.1,0S153.4,142,152.5,142.1z"/>
<path class="st2" d="M142.5,143.6c-0.5,0,1.1-0.4,1.1,0S143.4,143.5,142.5,143.6z"/>
<path class="st2" d="M201.7,145.6c-0.5,0,1.2-0.3,1.1,0.2C202.8,146.2,202.6,145.6,201.7,145.6z"/>
<path class="st2" d="M195.7,145.3c-0.2-0.4,0.3,1.3,0.7,1C196.7,145.9,196.1,146.2,195.7,145.3z"/>
<path class="st2" d="M209.7,146.5c-0.5,0,1.2-0.3,1.1,0.2S210.6,146.5,209.7,146.5z"/>
<path class="st2" d="M208.2,149.4c-0.4,0.2,0.8-0.9,1-0.5C209.4,149.3,208.9,148.9,208.2,149.4z"/>
<path class="st2" d="M203.5,148.4c-0.4,0.2,0.8-0.9,1-0.5C204.8,148.3,204.3,147.9,203.5,148.4z"/>
<path class="st2" d="M211.4,149.4c-0.4,0.2,0.8-0.9,1-0.5C212.7,149.3,212.2,148.9,211.4,149.4z"/>
<path class="st2" d="M230.4,149.7c-0.4,0.2,1-0.8,1.1-0.3C231.6,149.8,231.3,149.4,230.4,149.7z"/>
<path class="st2" d="M221.4,150.3c-0.4,0.2,1-0.8,1.1-0.3C222.7,150.4,222.3,150,221.4,150.3z"/>
<path class="st2" d="M218.3,147.5c-0.4,0.2,1-0.8,1.1-0.3C219.6,147.6,219.2,147.2,218.3,147.5z"/>
<path class="st2" d="M224.7,150.9c-0.5-0.1,1.2-0.1,1.1,0.3C225.7,151.6,225.6,151,224.7,150.9z"/>
<path class="st2" d="M225.3,148.8c-0.5-0.1,1.2-0.1,1.1,0.3C226.2,149.5,226.2,148.9,225.3,148.8z"/>
<path class="st2" d="M216.4,149.5c-0.5-0.1,1.2-0.1,1.1,0.3C217.4,150.2,217.3,149.6,216.4,149.5z"/>
<path class="st3" d="M102.6,152.2c13.8,1.9,69.1,1.3,72.6,0c5.6-0.3,9.4,0.9,0,10.9s-29.1,31.3-31,33.2c-3.8,4.1-6.6,4.1-10.9-1.9
	C115.6,173.3,92.6,153.8,102.6,152.2z"/>
<path class="st4" d="M33.3,164.4c13.6,1.2,70.2,3.2,71.8,3.3c1.8,5.4,12.7,16.8,13.5,19.3c-11.2-0.3-77.6-1-83.9-5.3
	C31.7,171.8,30.6,171.6,33.3,164.4z"/>
<path class="st4" d="M248.2,164.4c-13.5,1.2-69.9,3.2-71.4,3.3c-1.2,1-12.6,16.8-13.4,19.3c11.1-0.3,77.2-1,83.4-5.3
	C249.7,171.8,250.9,171.6,248.2,164.4z"/>
</svg>
