<?xml version="1.0" encoding="utf-8"?>
<!-- Generator: Adobe Illustrator 24.1.0, SVG Export Plug-In . SVG Version: 6.00 Build 0)  -->
<svg version="1.1" id="Calque_1" xmlns="http://www.w3.org/2000/svg" xmlns:xlink="http://www.w3.org/1999/xlink" x="0px" y="0px"
	 viewBox="0 0 283.5 283.5" style="enable-background:new 0 0 283.5 283.5;" xml:space="preserve">
<style type="text/css">
	.st0{fill:#F59E47;}
	.st1{fill:#69B42D;stroke:#168536;stroke-width:1;stroke-miterlimit:9.9998;}
	.st2{fill:#69B42D;stroke:#168536;stroke-miterlimit:10;}
	.st3{fill:#69B42D;stroke:#168536;stroke-width:1;stroke-miterlimit:10.0001;}
	.st4{fill:#D3E5BC;}
	.st5{fill:#FCBC00;}
	.st6{fill:#91371A;}
</style>
<path class="st0" d="M33.9,108.8c-8.1-84.9,191.9-128.4,214,0C185.2,97.7,79.7,95.5,33.9,108.8z"/>
<path class="st0" d="M37.1,196c26.7,8.8,192.9,11.2,209.7-0.5c3.5,17.6-0.7,29-6.6,28.3c-17.6,11.5-179.4,13.8-196.6,0.5
	C33.6,217.7,33.5,206.1,37.1,196z"/>
<ellipse transform="matrix(0.9868 -0.1618 0.1618 0.9868 -17.2316 13.1966)" class="st1" cx="72.4" cy="112.4" rx="28.4" ry="3.4"/>
<ellipse class="st2" cx="141.2" cy="110.1" rx="23.6" ry="3.6"/>
<ellipse transform="matrix(0.1067 -0.9943 0.9943 0.1067 75.8597 316.3423)" class="st3" cx="214" cy="116" rx="3.6" ry="22"/>
<path class="st4" d="M59.5,113.2c-0.4,0.1,1-0.7,1.1-0.2C60.7,113.4,60.4,112.9,59.5,113.2z"/>
<path class="st4" d="M53.7,115c-0.4-0.3,0.7,1.2,1,0.7S54.5,115.6,53.7,115z"/>
<path class="st4" d="M67.3,111.3c-0.4,0.1,1-0.7,1.1-0.2C68.5,111.5,68.2,111,67.3,111.3z"/>
<path class="st4" d="M66.9,114.6c-0.3,0.4,0.5-1.1,0.8-0.8C68,114.1,67.5,113.9,66.9,114.6z"/>
<path class="st4" d="M62.2,115.2c-0.3,0.4,0.5-1.1,0.8-0.8C63.3,114.7,62.8,114.5,62.2,115.2z"/>
<path class="st4" d="M70,113.4c-0.3,0.4,0.5-1.1,0.8-0.8C71.1,112.9,70.5,112.7,70,113.4z"/>
<path class="st4" d="M88.9,110.1c-0.3,0.3,0.6-1,0.9-0.7C90.1,109.8,89.6,109.5,88.9,110.1z"/>
<path class="st4" d="M79.7,110.9c-0.3,0.3,0.6-1,0.9-0.7S80.4,110.3,79.7,110.9z"/>
<path class="st4" d="M74.7,110.6c-0.3,0.3,0.6-1,0.9-0.7C75.9,110.2,75.4,110,74.7,110.6z"/>
<path class="st4" d="M77,113c-0.5,0.1,1.1-0.5,1.1-0.1C78.2,113.3,77.9,112.8,77,113z"/>
<path class="st4" d="M83.8,111c-0.5,0.1,1.1-0.5,1.1-0.1S84.7,110.8,83.8,111z"/>
<path class="st4" d="M73.9,113.2c-0.5,0.1,1.1-0.5,1.1-0.1C75.1,113.6,74.8,113.1,73.9,113.2z"/>
<path class="st4" d="M129.1,110.3c-0.5,0.1,1.1-0.6,1.1-0.1C130.3,110.6,130,110.1,129.1,110.3z"/>
<path class="st4" d="M123.3,109.7c-0.3-0.4,0.6,1.2,0.9,0.8C124.5,110,123.9,110.4,123.3,109.7z"/>
<path class="st4" d="M137.1,109.1c-0.5,0.1,1.1-0.6,1.1-0.1C138.3,109.4,138,108.9,137.1,109.1z"/>
<path class="st4" d="M136.4,112.4c-0.3,0.3,0.6-1.1,0.9-0.7C137.5,111.9,137,111.7,136.4,112.4z"/>
<path class="st4" d="M131.6,112.6c-0.3,0.3,0.6-1.1,0.9-0.7C132.8,112.2,132.3,111.9,131.6,112.6z"/>
<path class="st4" d="M139.6,111.5c-0.3,0.3,0.6-1.1,0.9-0.7C140.7,111.1,140.2,110.8,139.6,111.5z"/>
<path class="st4" d="M158.7,109.7c-0.4,0.3,0.7-1,1-0.6C159.9,109.5,159.5,109.1,158.7,109.7z"/>
<path class="st4" d="M149.4,109.8c-0.4,0.3,0.7-1,1-0.6C150.7,109.5,150.2,109.2,149.4,109.8z"/>
<path class="st4" d="M144.6,109c-0.4,0.3,0.7-1,1-0.6C145.8,108.8,145.3,108.4,144.6,109z"/>
<path class="st4" d="M146.6,111.6c-0.5,0,1.1-0.4,1.1,0C147.8,112,147.5,111.5,146.6,111.6z"/>
<path class="st4" d="M153.5,110.1c-0.5,0,1.1-0.4,1.1,0S154.4,110,153.5,110.1z"/>
<path class="st4" d="M143.5,111.6c-0.5,0,1.1-0.4,1.1,0S144.4,111.5,143.5,111.6z"/>
<path class="st4" d="M202.7,113.6c-0.5,0,1.2-0.3,1.1,0.2C203.8,114.2,203.6,113.6,202.7,113.6z"/>
<path class="st4" d="M196.7,113.3c-0.2-0.4,0.3,1.3,0.7,1C197.7,113.9,197.1,114.2,196.7,113.3z"/>
<path class="st4" d="M210.7,114.5c-0.5,0,1.2-0.3,1.1,0.2S211.6,114.5,210.7,114.5z"/>
<path class="st4" d="M209.2,117.4c-0.4,0.2,0.8-0.9,1-0.5S209.9,116.9,209.2,117.4z"/>
<path class="st4" d="M204.5,116.4c-0.4,0.2,0.8-0.9,1-0.5C205.8,116.3,205.3,115.9,204.5,116.4z"/>
<path class="st4" d="M212.4,117.4c-0.4,0.2,0.8-0.9,1-0.5C213.7,117.3,213.2,116.9,212.4,117.4z"/>
<path class="st4" d="M231.4,117.7c-0.4,0.2,1-0.8,1.1-0.3C232.6,117.8,232.3,117.4,231.4,117.7z"/>
<path class="st4" d="M222.4,118.3c-0.4,0.2,1-0.8,1.1-0.3C223.7,118.4,223.3,118,222.4,118.3z"/>
<path class="st4" d="M219.3,115.5c-0.4,0.2,1-0.8,1.1-0.3C220.6,115.6,220.2,115.2,219.3,115.5z"/>
<path class="st4" d="M225.7,118.9c-0.5-0.1,1.2-0.1,1.1,0.3C226.7,119.6,226.6,119,225.7,118.9z"/>
<path class="st4" d="M226.3,116.8c-0.5-0.1,1.2-0.1,1.1,0.3C227.2,117.5,227.2,116.9,226.3,116.8z"/>
<path class="st4" d="M217.4,117.5c-0.5-0.1,1.2-0.1,1.1,0.3C218.4,118.2,218.3,117.6,217.4,117.5z"/>
<path class="st5" d="M111.1,122.3c11.8,1.6,59.4,1.1,62.4,0c4.8-0.3,8.1,0.8,0,9.4c-8.1,8.6-25,26.9-26.6,28.5
	c-3.2,3.5-5.6,3.5-9.4-1.6C122.2,140.5,102.5,123.7,111.1,122.3z"/>
<path class="st6" d="M33.3,131.4c13.6,1.2,70.2,3.2,71.8,3.3c1.8,5.4,12.7,16.8,13.5,19.3c-11.2-0.3-77.6-1-83.9-5.3
	C31.7,138.8,30.6,138.6,33.3,131.4z"/>
<path class="st6" d="M248.2,131.4c-13.5,1.2-69.9,3.2-71.4,3.3c-1.2,1-12.6,16.8-13.4,19.3c11.1-0.3,77.2-1,83.4-5.3
	C249.7,138.8,250.9,138.6,248.2,131.4z"/>
<path class="st5" d="M113.6,163.7c11.3,1.5,56.5,1,59.3,0c4.6-0.3,7.7,0.8,0,9s-23.8,25.6-25.3,27.1c-3.1,3.3-5.4,3.3-9-1.5
	C124.2,181,105.4,165,113.6,163.7z"/>
<path class="st6" d="M35.6,168.6c13.6,1.2,70.2,3.2,71.8,3.3c1.8,5.4,12.7,16.8,13.5,19.3c-11.2-0.3-77.6-1-83.9-5.3
	C34,176,32.9,175.8,35.6,168.6z"/>
<path class="st6" d="M250.5,168.6c-13.5,1.2-69.9,3.2-71.4,3.3c-1.2,1-12.6,16.8-13.4,19.3c11.1-0.3,77.2-1,83.4-5.3
	C252,176,253.2,175.8,250.5,168.6z"/>
</svg>
