<?xml version="1.0" encoding="utf-8"?>
<!-- Generator: Adobe Illustrator 24.1.0, SVG Export Plug-In . SVG Version: 6.00 Build 0)  -->
<svg version="1.1" id="Calque_1" xmlns="http://www.w3.org/2000/svg" xmlns:xlink="http://www.w3.org/1999/xlink" x="0px" y="0px"
	 viewBox="0 0 283.5 283.5" style="enable-background:new 0 0 283.5 283.5;" xml:space="preserve">
<style type="text/css">
	.st0{fill:#F59E47;}
	.st1{fill:#F9B612;}
</style>
<path class="st0" d="M33.9,141.8c-8.1-84.9,191.9-128.4,214,0C185.2,130.7,79.7,128.5,33.9,141.8z"/>
<path class="st0" d="M37.1,196c26.7,8.8,192.9,11.2,209.7-0.5c3.5,17.6-0.7,29-6.6,28.3c-17.6,11.5-179.4,13.8-196.6,0.5
	C33.6,217.7,33.5,206.1,37.1,196z"/>
<path class="st1" d="M35.3,146c-3.7,1.9-7.4,32.8-4.1,34.7s97.9,15.1,101.6,16.4s115.1-18.3,118.4-19.5c3.3-1.3,0-28.4-3.3-29
	c-3.3-0.6-117.2,15.8-117.2,15.8L35.3,146z"/>
</svg>
