<?xml version="1.0" encoding="utf-8"?>
<!-- Generator: Adobe Illustrator 24.1.0, SVG Export Plug-In . SVG Version: 6.00 Build 0)  -->
<svg version="1.1" id="Calque_1" xmlns="http://www.w3.org/2000/svg" xmlns:xlink="http://www.w3.org/1999/xlink" x="0px" y="0px"
	 viewBox="0 0 283.5 283.5" style="enable-background:new 0 0 283.5 283.5;" xml:space="preserve">
<style type="text/css">
	.st0{fill:#F59E47;}
	.st1{fill:#F9B612;}
	.st2{fill:#FCBC00;}
</style>
<path class="st0" d="M33.9,111.8c-8.1-84.9,191.9-128.4,214,0C185.2,100.7,79.7,98.5,33.9,111.8z"/>
<path class="st1" d="M35.6,114c-3.7,1.9-7.4,32.8-4.1,34.7c3.3,1.9,97.9,15.1,101.6,16.4s115.1-18.3,118.4-19.5
	c3.3-1.3,0-28.4-3.3-29c-3.3-0.6-117.2,15.8-117.2,15.8L35.6,114z"/>
<path class="st2" d="M104.4,171.3c13.1,1.5,66,1,69.3,0c5.4-0.3,9,0.8,0,8.8s-27.8,25.1-29.6,26.6c-3.6,3.3-6.3,3.3-10.4-1.5
	C116.7,188.2,94.8,172.6,104.4,171.3z"/>
<path class="st0" d="M101.1,178.6c-15.4-1.3-60.1-2.6-64.5-6.8c-3.6,6.1-1.6,27.4,6.6,28.3c10,5.3,61.9,10.4,76.3,8.8
	C136.3,211.1,103.6,185.4,101.1,178.6z"/>
<path class="st0" d="M181.9,178.1c15.4-1.3,60.1-2.6,64.5-6.8c3.6,6.1,1.6,27.4-6.6,28.3c-10,5.3-61.9,10.4-76.3,8.8
	C146.7,210.6,179.4,184.9,181.9,178.1z"/>
</svg>
