<?xml version="1.0" encoding="utf-8"?>
<!-- Generator: Adobe Illustrator 24.1.0, SVG Export Plug-In . SVG Version: 6.00 Build 0)  -->
<svg version="1.1" id="Calque_1" xmlns="http://www.w3.org/2000/svg" xmlns:xlink="http://www.w3.org/1999/xlink" x="0px" y="0px"
	 viewBox="0 0 283.5 283.5" style="enable-background:new 0 0 283.5 283.5;" xml:space="preserve">
<style type="text/css">
	.st0{fill:#F9B612;}
	.st1{fill:#F59E47;}
	.st2{fill:#FFE3B1;}
	.st3{fill:#FCBC00;}
	.st4{fill:#00983D;}
	.st5{fill:#B0C599;stroke:#299644;stroke-miterlimit:10;}
	.st6{fill:#D3E5BC;}
</style>
<path class="st0" d="M181.6,166.3c0,0,72.1-15.4,74.2-14.7c2.1,0.7,3.8,27.8,1.7,29c-2.1,1.2-72.7,19.8-75,18.5
	C180.2,197.9,181.6,166.3,181.6,166.3"/>
<path class="st1" d="M34.7,119.7c-8.1-84.9,191.9-128.4,214,0C186,108.6,80.4,106.4,34.7,119.7z"/>
<ellipse class="st2" cx="86.1" cy="78.6" rx="4.8" ry="2.2"/>
<ellipse transform="matrix(0.2769 -0.9609 0.9609 0.2769 11.9504 143.595)" class="st2" cx="101.4" cy="63.9" rx="4.8" ry="2.2"/>
<ellipse transform="matrix(0.866 -0.5 0.5 0.866 -20.7331 71.7983)" class="st2" cx="123.6" cy="74.6" rx="4.8" ry="2.2"/>
<ellipse transform="matrix(0.8207 -0.5713 0.5713 0.8207 -6.9541 92.2267)" class="st2" cx="143.5" cy="57.2" rx="2.2" ry="4.8"/>
<ellipse class="st2" cx="164.9" cy="85.4" rx="4.8" ry="2.2"/>
<ellipse transform="matrix(0.2769 -0.9609 0.9609 0.2769 67.0035 250.5367)" class="st2" cx="200" cy="80.7" rx="4.8" ry="2.2"/>
<ellipse transform="matrix(0.9485 -0.3168 0.3168 0.9485 -22.1288 64.6445)" class="st2" cx="187.7" cy="100.4" rx="2.2" ry="4.8"/>
<ellipse transform="matrix(0.1067 -0.9943 0.9943 0.1067 98.4982 302.5762)" class="st2" cx="217.6" cy="96.5" rx="2.2" ry="4.8"/>
<ellipse transform="matrix(0.2769 -0.9609 0.9609 0.2769 16.02 200.146)" class="st2" cx="141" cy="89.4" rx="4.8" ry="2.2"/>
<ellipse transform="matrix(0.8838 -0.4678 0.4678 0.8838 -10.5954 87.4768)" class="st2" cx="170.8" cy="65.1" rx="4.8" ry="2.2"/>
<ellipse transform="matrix(0.5 -0.866 0.866 0.5 -28.2732 139.2846)" class="st2" cx="106.5" cy="94.1" rx="2.2" ry="4.8"/>
<ellipse transform="matrix(0.9335 -0.3585 0.3585 0.9335 -31.4097 33.8348)" class="st2" cx="75.5" cy="101.6" rx="4.8" ry="2.2"/>
<path class="st1" d="M39.1,193.2c26.7,8.8,192.9,11.2,209.7-0.5c3.5,17.6-0.7,29-6.6,28.3c-17.6,11.5-179.4,13.8-196.6,0.5
	C35.5,214.9,35.4,203.3,39.1,193.2z"/>
<path class="st3" d="M108.9,151.9c13.8,1.9,69.1,1.3,72.6,0c5.6-0.3,9.4,0.9,0,10.9s-29.1,31.3-31,33.2c-3.8,4.1-6.6,4.1-10.9-1.9
	C121.9,173,98.9,153.5,108.9,151.9z"/>
<path class="st0" d="M109.7,165.1c0,0,7.5,33.6,4.3,32.6c-3.2-1-84.2-7.9-87.1-9.6s-2.2-32.7,0.8-34.8L109.7,165.1"/>
<path class="st4" d="M33.3,128.1c68-14.7,182.3-9.7,216.3,2.6c2.9,5.9-0.2,6.8-4.9,6.5c-32.5-11.6-168-11.9-208-1.3
	C29.2,133.7,30.9,131.5,33.3,128.1z"/>
<ellipse transform="matrix(0.9981 -6.232030e-02 6.232030e-02 0.9981 -8.831 5.7092)" class="st5" cx="87.1" cy="144.4" rx="35.7" ry="5.2"/>
<path class="st6" d="M77,142.7c-0.6,0.2,1.3-1,1.4-0.4C78.6,143,78.1,142.3,77,142.7z"/>
<path class="st6" d="M81,138.8c-0.6,0.2,1.3-1,1.4-0.4S82.1,138.4,81,138.8z"/>
<path class="st6" d="M77.9,140.8c-0.4,0.6,0.6-1.7,1-1.3C79.3,140,78.7,139.7,77.9,140.8z"/>
<path class="st6" d="M83.6,140.4c-0.4,0.6,0.6-1.7,1-1.3C85,139.6,84.3,139.3,83.6,140.4z"/>
<path class="st6" d="M80.6,142.1c-0.4,0.6,0.6-1.7,1-1.3C82,141.3,81.3,141,80.6,142.1z"/>
<path class="st6" d="M88.8,140c-0.4,0.5,0.8-1.6,1.1-1.1C90.3,139.5,89.7,139,88.8,140z"/>
<path class="st6" d="M86.5,139.4c-0.4,0.5,0.8-1.6,1.1-1.1C88,138.8,87.4,138.4,86.5,139.4z"/>
<path class="st6" d="M88,141.5c-0.6,0.1,1.4-0.8,1.4-0.1S89.1,141.3,88,141.5z"/>
<path class="st6" d="M83.4,142c-0.6,0.1,1.4-0.8,1.4-0.1S84.6,141.8,83.4,142z"/>
<ellipse transform="matrix(0.1691 -0.9856 0.9856 0.1691 23.6897 316.0006)" class="st5" cx="199.3" cy="144" rx="5.2" ry="35.7"/>
<path class="st6" d="M180.3,141.7c-0.6,0,1.6-0.5,1.4,0.2C181.6,142.5,181.5,141.7,180.3,141.7z"/>
<path class="st6" d="M185.4,139.4c-0.6,0,1.6-0.5,1.4,0.2C186.7,140.3,186.6,139.4,185.4,139.4z"/>
<path class="st6" d="M181.8,140.2c-0.5,0.4,1.2-1.4,1.4-0.8C183.4,139.9,182.9,139.4,181.8,140.2z"/>
<path class="st6" d="M187.2,141.9c-0.5,0.4,1.2-1.4,1.4-0.8C188.8,141.7,188.3,141.1,187.2,141.9z"/>
<path class="st6" d="M183.8,142.4c-0.5,0.4,1.2-1.4,1.4-0.8C185.4,142.1,184.9,141.6,183.8,142.4z"/>
<path class="st6" d="M192.3,143.4c-0.6,0.3,1.3-1.2,1.5-0.6C193.8,143.4,193.4,142.8,192.3,143.4z"/>
<path class="st6" d="M190.4,142c-0.6,0.3,1.3-1.2,1.5-0.6C191.9,142,191.5,141.4,190.4,142z"/>
<path class="st6" d="M190.9,144.5c-0.6-0.1,1.6-0.3,1.4,0.4C192.1,145.6,192,144.7,190.9,144.5z"/>
<path class="st6" d="M186.5,143.3c-0.6-0.1,1.6-0.3,1.4,0.4C187.7,144.4,187.6,143.5,186.5,143.3z"/>
</svg>
