<?xml version="1.0" encoding="utf-8"?>
<!-- Generator: Adobe Illustrator 24.1.0, SVG Export Plug-In . SVG Version: 6.00 Build 0)  -->
<svg version="1.1" id="Calque_1" xmlns="http://www.w3.org/2000/svg" xmlns:xlink="http://www.w3.org/1999/xlink" x="0px" y="0px"
	 viewBox="0 0 283.5 283.5" style="enable-background:new 0 0 283.5 283.5;" xml:space="preserve">
<style type="text/css">
	.st0{fill:#F59E47;}
	.st1{fill:#FFE3B1;}
	.st2{fill:#FCBC00;}
	.st3{fill:#91371A;}
	.st4{fill:#D23016;}
</style>
<g>
	<path class="st0" d="M34.7,154.9c-8.1-84.9,191.9-128.4,214,0C186,143.8,80.5,141.6,34.7,154.9z"/>
	<ellipse class="st1" cx="87.9" cy="109.5" rx="4.8" ry="2.2"/>
	
		<ellipse transform="matrix(0.2769 -0.9609 0.9609 0.2769 -16.4664 167.6849)" class="st1" cx="103.2" cy="94.8" rx="4.8" ry="2.2"/>
	<ellipse transform="matrix(0.866 -0.5 0.5 0.866 -35.9552 76.8405)" class="st1" cx="125.4" cy="105.5" rx="4.8" ry="2.2"/>
	<ellipse transform="matrix(0.8207 -0.5713 0.5713 0.8207 -24.2996 98.7973)" class="st1" cx="145.3" cy="88.1" rx="2.2" ry="4.8"/>
	<ellipse class="st1" cx="166.7" cy="116.4" rx="4.8" ry="2.2"/>
	
		<ellipse transform="matrix(0.2769 -0.9609 0.9609 0.2769 38.5867 274.6267)" class="st1" cx="201.8" cy="111.7" rx="4.8" ry="2.2"/>
	
		<ellipse transform="matrix(0.9485 -0.3168 0.3168 0.9485 -31.8349 66.8074)" class="st1" cx="189.5" cy="131.3" rx="2.2" ry="4.8"/>
	
		<ellipse transform="matrix(0.1067 -0.9943 0.9943 0.1067 69.3547 331.9906)" class="st1" cx="219.4" cy="127.4" rx="2.2" ry="4.8"/>
	
		<ellipse transform="matrix(0.2769 -0.9609 0.9609 0.2769 -12.3968 224.236)" class="st1" cx="142.8" cy="120.4" rx="4.8" ry="2.2"/>
	<ellipse transform="matrix(0.8838 -0.4678 0.4678 0.8838 -24.8552 91.9112)" class="st1" cx="172.6" cy="96" rx="4.8" ry="2.2"/>
	<ellipse transform="matrix(0.5 -0.866 0.866 0.5 -54.157 156.3045)" class="st1" cx="108.3" cy="125.1" rx="2.2" ry="4.8"/>
	<ellipse transform="matrix(0.9335 -0.3585 0.3585 0.9335 -42.3781 36.5353)" class="st1" cx="77.3" cy="132.5" rx="4.8" ry="2.2"/>
</g>
<path class="st2" d="M107.4,202.6c13.8,1.9,69.1,1.3,72.6,0c5.6-0.3,9.4,0.9,0,10.9c-9.4,10-29.1,31.3-31,33.2
	c-3.8,4.1-6.6,4.1-10.9-1.9C120.3,223.7,97.3,204.2,107.4,202.6z"/>
<path class="st0" d="M104.9,219.2c-15.4-1.3-60.1-2.6-64.5-6.8c-3.6,6.1-1.6,27.4,6.6,28.3c10,5.3,61.9,10.4,76.3,8.8
	C140.1,251.7,107.4,226.1,104.9,219.2z"/>
<path class="st0" d="M185.7,218.7c15.4-1.3,60.1-2.6,64.5-6.8c3.6,6.1,1.6,27.4-6.6,28.3c-10,5.3-61.9,10.4-76.3,8.8
	C150.5,251.2,183.2,225.6,185.7,218.7z"/>
<path class="st3" d="M89,176.6c37.7,6.1,107.7,2.1,126.5,1.6c2,3.4,1.1,15.3,0,15.6c-24.9,7.4-99.9,6.8-125.7,0
	C87.2,187,87.7,180.1,89,176.6z"/>
<path class="st4" d="M280,201.6c-6.2,4.8-31.8-3.8-32.9-0.7c-0.2,0.6-0.6,1.6-1.4,1.9c-1.4,0.5-3.8-0.6-7.1-6
	c-5.1-8.3-39.2-36-39.2-36c-2.7-1.3-4.2-7.3,2.6-5.3s61.7,16.3,65.7,18.2"/>
<path class="st4" d="M18.9,200.6c5.9,5.1,31.9-2,32.9,1.1c0.2,0.6,0.5,1.6,1.3,2c1.4,0.6,3.8-0.4,7.4-5.6c5.5-8,41.1-33.8,41.1-33.8
	c2.8-1.2,4.6-7-2.3-5.4s-62.5,12.8-66.6,14.6"/>
</svg>
