<?xml version="1.0" encoding="utf-8"?>
<!-- Generator: Adobe Illustrator 24.1.0, SVG Export Plug-In . SVG Version: 6.00 Build 0)  -->
<svg version="1.1" id="Calque_1" xmlns="http://www.w3.org/2000/svg" xmlns:xlink="http://www.w3.org/1999/xlink" x="0px" y="0px"
	 viewBox="0 0 283.5 283.5" style="enable-background:new 0 0 283.5 283.5;" xml:space="preserve">
<style type="text/css">
	.st0{fill:#F59E47;}
	.st1{fill:#FCBC00;}
	.st2{fill:#FFE3B1;}
	.st3{fill:#91371A;}
	.st4{fill:#69B42D;stroke:#168536;stroke-miterlimit:10;}
	.st5{fill:#D3E5BC;}
</style>
<path class="st0" d="M36.7,142.4c-8.1-84.9,191.9-128.4,214,0C187.9,131.3,82.4,129.1,36.7,142.4z"/>
<path class="st1" d="M110.9,156.4c12.1,1.7,60.9,1.1,63.9,0c5-0.3,8.3,0.8,0,9.6c-8.3,8.8-25.6,27.6-27.3,29.2
	c-3.3,3.6-5.8,3.6-9.6-1.7C122.3,175,102,157.8,110.9,156.4z"/>
<ellipse class="st2" cx="88.1" cy="101.3" rx="4.8" ry="2.2"/>
<ellipse transform="matrix(0.2769 -0.9609 0.9609 0.2769 -8.4237 161.9132)" class="st2" cx="103.4" cy="86.6" rx="4.8" ry="2.2"/>
<ellipse transform="matrix(0.866 -0.5 0.5 0.866 -31.8154 75.8311)" class="st2" cx="125.6" cy="97.3" rx="4.8" ry="2.2"/>
<ellipse transform="matrix(0.8207 -0.5713 0.5713 0.8207 -19.5647 97.4286)" class="st2" cx="145.5" cy="79.9" rx="2.2" ry="4.8"/>
<ellipse class="st2" cx="166.9" cy="108.1" rx="4.8" ry="2.2"/>
<ellipse transform="matrix(0.2769 -0.9609 0.9609 0.2769 46.6294 268.8549)" class="st2" cx="202" cy="103.4" rx="4.8" ry="2.2"/>
<ellipse transform="matrix(0.9485 -0.3168 0.3168 0.9485 -29.2178 66.4425)" class="st2" cx="189.7" cy="123.1" rx="2.2" ry="4.8"/>
<ellipse transform="matrix(0.1067 -0.9943 0.9943 0.1067 77.7039 324.8242)" class="st2" cx="219.6" cy="119.2" rx="2.2" ry="4.8"/>
<ellipse transform="matrix(0.2769 -0.9609 0.9609 0.2769 -4.3541 218.4642)" class="st2" cx="143" cy="112.1" rx="4.8" ry="2.2"/>
<ellipse transform="matrix(0.8838 -0.4678 0.4678 0.8838 -20.9834 91.0422)" class="st2" cx="172.8" cy="87.8" rx="4.8" ry="2.2"/>
<ellipse transform="matrix(0.5 -0.866 0.866 0.5 -46.9367 152.3511)" class="st2" cx="108.5" cy="116.8" rx="2.2" ry="4.8"/>
<ellipse transform="matrix(0.9335 -0.3585 0.3585 0.9335 -39.4151 36.055)" class="st2" cx="77.5" cy="124.3" rx="4.8" ry="2.2"/>
<path class="st3" d="M36.9,167c13.6,1.2,70.2,3.2,71.8,3.3c1.8,5.4,12.7,16.8,13.5,19.3c-11.2-0.3-77.6-1-83.9-5.3
	C35.3,174.4,34.1,174.2,36.9,167z"/>
<path class="st3" d="M251.7,167c-13.5,1.2-69.9,3.2-71.4,3.3c-1.2,1-12.6,16.8-13.4,19.3c11.1-0.3,77.2-1,83.4-5.3
	C253.3,174.4,254.5,174.2,251.7,167z"/>
<ellipse transform="matrix(0.9868 -0.1618 0.1618 0.9868 -22.9241 14.9509)" class="st4" cx="80.3" cy="148.2" rx="28.4" ry="3.4"/>
<ellipse class="st4" cx="149.2" cy="146" rx="23.6" ry="3.6"/>
<ellipse transform="matrix(0.1067 -0.9943 0.9943 0.1067 47.2426 356.3111)" class="st4" cx="221.9" cy="151.9" rx="3.6" ry="22"/>
<path class="st5" d="M67.4,149c-0.4,0.1,1-0.7,1.1-0.2C68.7,149.2,68.3,148.8,67.4,149z"/>
<path class="st5" d="M61.7,150.8c-0.4-0.3,0.7,1.2,1,0.7S62.4,151.5,61.7,150.8z"/>
<path class="st5" d="M75.3,147.2c-0.4,0.1,1-0.7,1.1-0.2C76.5,147.4,76.2,146.9,75.3,147.2z"/>
<path class="st5" d="M74.8,150.5c-0.3,0.4,0.5-1.1,0.8-0.8C75.9,149.9,75.4,149.7,74.8,150.5z"/>
<path class="st5" d="M70.1,151.1c-0.3,0.4,0.5-1.1,0.8-0.8C71.2,150.5,70.7,150.3,70.1,151.1z"/>
<path class="st5" d="M77.9,149.3c-0.3,0.4,0.5-1.1,0.8-0.8C79,148.8,78.5,148.6,77.9,149.3z"/>
<path class="st5" d="M96.9,146c-0.3,0.3,0.6-1,0.9-0.7S97.6,145.4,96.9,146z"/>
<path class="st5" d="M87.6,146.8c-0.3,0.3,0.6-1,0.9-0.7C88.8,146.5,88.3,146.2,87.6,146.8z"/>
<path class="st5" d="M82.7,146.4c-0.3,0.3,0.6-1,0.9-0.7S83.4,145.8,82.7,146.4z"/>
<path class="st5" d="M85,148.9c-0.5,0.1,1.1-0.5,1.1-0.1C86.2,149.2,85.9,148.7,85,148.9z"/>
<path class="st5" d="M91.7,146.8c-0.5,0.1,1.1-0.5,1.1-0.1C92.9,147.2,92.6,146.7,91.7,146.8z"/>
<path class="st5" d="M81.9,149.1c-0.5,0.1,1.1-0.5,1.1-0.1S82.8,148.9,81.9,149.1z"/>
<path class="st5" d="M137.1,146.2c-0.5,0.1,1.1-0.6,1.1-0.1C138.3,146.5,138,146,137.1,146.2z"/>
<path class="st5" d="M131.2,145.5c-0.3-0.4,0.6,1.2,0.9,0.8C132.4,145.8,131.9,146.2,131.2,145.5z"/>
<path class="st5" d="M145,145c-0.5,0.1,1.1-0.6,1.1-0.1C146.2,145.3,145.9,144.8,145,145z"/>
<path class="st5" d="M144.3,148.2c-0.3,0.3,0.6-1.1,0.9-0.7C145.5,147.8,145,147.6,144.3,148.2z"/>
<path class="st5" d="M139.6,148.4c-0.3,0.3,0.6-1.1,0.9-0.7C140.8,148,140.2,147.8,139.6,148.4z"/>
<path class="st5" d="M147.5,147.3c-0.3,0.3,0.6-1.1,0.9-0.7C148.7,146.9,148.1,146.7,147.5,147.3z"/>
<path class="st5" d="M166.7,145.6c-0.4,0.3,0.7-1,1-0.6S167.4,145,166.7,145.6z"/>
<path class="st5" d="M157.4,145.6c-0.4,0.3,0.7-1,1-0.6C158.6,145.4,158.1,145.1,157.4,145.6z"/>
<path class="st5" d="M152.5,144.9c-0.4,0.3,0.7-1,1-0.6C153.7,144.6,153.2,144.3,152.5,144.9z"/>
<path class="st5" d="M154.6,147.5c-0.5,0,1.1-0.4,1.1,0C155.7,147.9,155.5,147.4,154.6,147.5z"/>
<path class="st5" d="M161.5,146c-0.5,0,1.1-0.4,1.1,0C162.6,146.4,162.4,145.9,161.5,146z"/>
<path class="st5" d="M151.5,147.4c-0.5,0,1.1-0.4,1.1,0C152.6,147.9,152.4,147.4,151.5,147.4z"/>
<path class="st5" d="M210.6,149.5c-0.5,0,1.2-0.3,1.1,0.2C211.7,150.1,211.6,149.5,210.6,149.5z"/>
<path class="st5" d="M204.6,149.2c-0.2-0.4,0.3,1.3,0.7,1C205.7,149.8,205.1,150,204.6,149.2z"/>
<path class="st5" d="M218.6,150.4c-0.5,0,1.2-0.3,1.1,0.2C219.7,151,219.6,150.4,218.6,150.4z"/>
<path class="st5" d="M217.1,153.3c-0.4,0.2,0.8-0.9,1-0.5C218.3,153.2,217.9,152.8,217.1,153.3z"/>
<path class="st5" d="M212.5,152.3c-0.4,0.2,0.8-0.9,1-0.5C213.7,152.2,213.3,151.8,212.5,152.3z"/>
<path class="st5" d="M220.4,153.3c-0.4,0.2,0.8-0.9,1-0.5C221.6,153.2,221.2,152.8,220.4,153.3z"/>
<path class="st5" d="M239.4,153.6c-0.4,0.2,1-0.8,1.1-0.3C240.6,153.7,240.2,153.2,239.4,153.6z"/>
<path class="st5" d="M230.4,154.2c-0.4,0.2,1-0.8,1.1-0.3C231.6,154.3,231.2,153.9,230.4,154.2z"/>
<path class="st5" d="M227.3,151.4c-0.4,0.2,1-0.8,1.1-0.3C228.5,151.5,228.1,151.1,227.3,151.4z"/>
<path class="st5" d="M233.6,154.7c-0.5-0.1,1.2-0.1,1.1,0.3C234.6,155.5,234.5,154.9,233.6,154.7z"/>
<path class="st5" d="M234.2,152.6c-0.5-0.1,1.2-0.1,1.1,0.3C235.2,153.4,235.1,152.8,234.2,152.6z"/>
<path class="st5" d="M225.4,153.4c-0.5-0.1,1.2-0.1,1.1,0.3C226.4,154.1,226.3,153.5,225.4,153.4z"/>
<path class="st1" d="M109.5,200.6c13.8,1.9,69.1,1.3,72.6,0c5.6-0.3,9.4,0.9,0,10.9s-29.1,31.3-31,33.2c-3.8,4.1-6.6,4.1-10.9-1.9
	C122.5,221.7,99.5,202.1,109.5,200.6z"/>
<path class="st0" d="M106.1,213.1c-15.4-1.3-60.1-2.6-64.5-6.8c-3.6,6.1-1.6,27.4,6.6,28.3c10,5.3,61.9,10.4,76.3,8.8
	C141.2,245.7,108.5,220,106.1,213.1z"/>
<path class="st0" d="M188.8,211.6c15.4-1.3,60.1-2.6,64.5-6.8c3.6,6.1,1.6,27.4-6.6,28.3c-10,5.3-61.9,10.4-76.3,8.8
	C153.7,244.2,186.4,218.5,188.8,211.6z"/>
</svg>
