<?xml version="1.0" encoding="utf-8"?>
<!-- Generator: Adobe Illustrator 24.1.0, SVG Export Plug-In . SVG Version: 6.00 Build 0)  -->
<svg version="1.1" id="Calque_1" xmlns="http://www.w3.org/2000/svg" xmlns:xlink="http://www.w3.org/1999/xlink" x="0px" y="0px"
	 viewBox="0 0 283.5 283.5" style="enable-background:new 0 0 283.5 283.5;" xml:space="preserve">
<style type="text/css">
	.st0{fill:#E41728;}
	.st1{fill:#FEC800;}
	.st2{fill:#FEC900;}
	.st3{fill:#FFFFFF;}
	.st4{font-family:'Roboto-Black';}
	.st5{font-size:13.5088px;}
</style>
<path class="st0" d="M119.6,147.5c-3.4-7.4-25.1-49.6-26.8-52.5s-6.8-7.4-12.6,0c-5.7,7.4-26.3,43.9-26.3,43.9l3.4,69.6
	c0.6,7.4,4,9.1,6.8,10.8c2.9,1.7,37.1,17.1,40.5,18.3s12,4,12.6-5.7C117.9,222.2,119.6,147.5,119.6,147.5z"/>
<path class="st0" d="M199,83c0-4.6-1.1-9.7-8.6-9.1c-7.4,0.6-87.9,0.5-91.3,0s-6.3,4-5.7,9.2c0.6,5.1,2.9,8.6,4.6,11.4
	c1.7,2.9,25.4,46.4,25.9,47.3s1.7,2,1.7,8.7c0,6.6-3.2,86.1-3.2,86.1s0.6,6.4,10.4,4.6s79.7-22.2,82.1-23.1
	c2.3-0.9,8.7-0.3,9.2-13.6c0.6-13.3,7.2-63.3,6.9-66.2s-0.3-9-3.5-14.7C224.4,117.8,199,83,199,83z"/>
<path class="st1" d="M110.3,66.3c4.9-11.6,16.5-37.6,35.5-19.4c2,3.2,4.6,0,5.2-1.2c5.5-5.2,23.7-12.7,33.8,22.2
	c-4,0.7-11,2.9-12.4-2c0.2-20.6-17.9-25.1-18.8,0.9c-2.6,2.3-10.2,3.2-11.9,0.9c-1.1-12.1-11.9-33.2-22.1-0.9
	C115.8,69.2,113.5,70.4,110.3,66.3z"/>
<g>
	<path class="st2" d="M179.3,205.3l-8.8,1.9c0.2-1.6,0-3.1,0-3.5l8.8-1.9C179.3,202.9,179.2,204.4,179.3,205.3z"/>
	<path class="st2" d="M170.2,191.8l9.6-2c3.8-65,23.8-53.1,22.5,15.3l9.6-2c-1.8-59.2-22-83.6-36.9-36.4
		c-13.8-42.5-36.9-3.9-36.6,52l9.1-1.9C148.4,151.3,164.7,125.9,170.2,191.8z"/>
	<text transform="matrix(1 -0.2126 0 1 151.9546 206.575)" class="st3 st4 st5">McData</text>
</g>
</svg>
