<?xml version="1.0" encoding="utf-8"?>
<!-- Generator: Adobe Illustrator 24.1.0, SVG Export Plug-In . SVG Version: 6.00 Build 0)  -->
<svg version="1.1" id="Calque_1" xmlns="http://www.w3.org/2000/svg" xmlns:xlink="http://www.w3.org/1999/xlink" x="0px" y="0px"
	 viewBox="0 0 219.5 235.4" style="enable-background:new 0 0 219.5 235.4;" xml:space="preserve">
<style type="text/css">
	.st0{fill:#F59E47;}
	.st1{fill:#91371A;}
	.st2{fill:#00983D;}
	.st3{fill:#FCBC00;}
	.st4{fill:#FFE3B1;}
	.st5{fill:#69B42D;stroke:#168536;stroke-width:1;stroke-miterlimit:9.9998;}
	.st6{fill:#69B42D;stroke:#168536;stroke-miterlimit:10;}
	.st7{fill:#69B42D;stroke:#168536;stroke-width:1;stroke-miterlimit:10;}
	.st8{fill:#D3E5BC;}
	.st9{fill:#FFFFFF;}
	.st10{fill:#3F3F3E;}
	.st11{fill:#DF6F83;}
	.st12{fill:#FFEEBF;}
	.st13{fill:#E5281E;}
	.st14{fill:#FBB900;}
	.st15{fill:#FEC900;}
	.st16{font-family:'Roboto-Bold';}
	.st17{font-size:6.3855px;}
</style>
<g>
	<g>
		<path class="st0" d="M10.1,70.2c-6.6-68.8,155.5-104.1,173.5,0C132.7,61.2,47.1,59.4,10.1,70.2z"/>
		<path class="st1" d="M9.9,75.2C60,62,162.5,66.3,183.6,76.5c2.8,2.8,1.5,12.4,0,12.7c-30-9.6-138-11.1-172.5,0
			C7.5,83.5,8.1,78,9.9,75.2z"/>
		<path class="st1" d="M10.3,133.9c51.7,5,147.8,1.7,173.7,1.3c2.8,2.8,1.5,12.4,0,12.7c-34.2,6-137.2,5.5-172.5,0
			C8,142.3,8.6,136.8,10.3,133.9z"/>
		<path class="st2" d="M9.9,103.7c55.1-11.9,147.8-7.9,175.3,2.1c2.4,4.8-0.2,5.5-4,5.3c-26.4-9.4-136.2-9.6-168.6-1
			C6.5,108.2,7.9,106.5,9.9,103.7z"/>
		<path class="st0" d="M9.9,115.6c15.2-4.5,146.8-7.6,173.7,0c2.6,4.3,1.5,8.9,1.6,9.6c-10.8,6.6-152.3,6.1-172.6,0
			C8.9,124.7,10.7,120.9,9.9,115.6z"/>
		<path class="st3" d="M66.1,157.2c11.2,1.5,56,1,58.8,0c4.6-0.3,7.6,0.8,0,8.9c-7.6,8.1-23.6,25.4-25.1,26.9
			c-3,3.3-5.3,3.3-8.9-1.5C76.6,174.3,58,158.4,66.1,157.2z"/>
		<path class="st2" d="M55.9,157.1c-11.9-0.5-39-2.8-42.3-5c-7.9,2.2-3,7.5,1.3,7.8c5.9,1,34.5,4.7,43.1,4.1
			C62,164.3,58.2,160.1,55.9,157.1z"/>
		<path class="st2" d="M137.7,158.2c11.9-0.5,39.1-2.8,42.3-5c7.9,2.2,3,7.5-1.3,7.8c-5.9,1-34.5,4.7-43.1,4.1
			C131.7,165.3,135.5,161.2,137.7,158.2z"/>
		<path class="st0" d="M64.1,170.6c-12.5-1-48.7-2.1-52.3-5.5c-2.9,5-1.3,22.2,5.3,23c8.1,4.3,50.2,8.4,61.9,7.1
			C92.6,197,66.1,176.2,64.1,170.6z"/>
		<path class="st0" d="M129.6,170.2c12.5-1,48.7-2.1,52.3-5.5c2.9,5,1.3,22.2-5.3,23c-8.1,4.3-50.2,8.4-61.9,7.1
			C101.1,196.6,127.6,175.8,129.6,170.2z"/>
		<ellipse class="st4" cx="51.8" cy="36.8" rx="3.9" ry="1.8"/>
		<ellipse transform="matrix(0.277 -0.9609 0.9609 0.277 22.445 79.6253)" class="st4" cx="64.1" cy="24.9" rx="3.9" ry="1.8"/>
		<ellipse transform="matrix(0.866 -0.5 0.5 0.866 -5.7868 45.5611)" class="st4" cx="82.1" cy="33.6" rx="3.9" ry="1.8"/>
		<ellipse transform="matrix(0.8208 -0.5713 0.5713 0.8208 6.4745 59.6125)" class="st4" cx="98.2" cy="19.5" rx="1.8" ry="3.9"/>
		<ellipse class="st4" cx="115.6" cy="42.4" rx="3.9" ry="1.8"/>
		<ellipse transform="matrix(0.277 -0.9609 0.9609 0.277 67.0522 166.3279)" class="st4" cx="144.1" cy="38.6" rx="3.9" ry="1.8"/>
		
			<ellipse transform="matrix(0.9485 -0.3168 0.3168 0.9485 -10.3452 45.2957)" class="st4" cx="134.1" cy="54.5" rx="1.8" ry="3.9"/>
		
			<ellipse transform="matrix(0.1066 -0.9943 0.9943 0.1066 90.3898 203.2913)" class="st4" cx="158.3" cy="51.3" rx="1.8" ry="3.9"/>
		<ellipse transform="matrix(0.277 -0.9609 0.9609 0.277 25.7196 125.4383)" class="st4" cx="96.2" cy="45.6" rx="3.9" ry="1.8"/>
		<ellipse transform="matrix(0.8838 -0.4678 0.4678 0.8838 1.8914 59.3392)" class="st4" cx="120.4" cy="25.9" rx="3.9" ry="1.8"/>
		<ellipse transform="matrix(0.5 -0.866 0.866 0.5 -8.6073 83.7878)" class="st4" cx="68.3" cy="49.3" rx="1.8" ry="3.9"/>
		<ellipse transform="matrix(0.9335 -0.3585 0.3585 0.9335 -17.0057 19.1792)" class="st4" cx="43.2" cy="55.4" rx="3.9" ry="1.8"/>
		<ellipse transform="matrix(0.9868 -0.1618 0.1618 0.9868 -14.2987 8.5299)" class="st5" cx="45.2" cy="92.1" rx="23" ry="2.8"/>
		<ellipse class="st6" cx="101" cy="90.3" rx="19.1" ry="2.9"/>
		<ellipse transform="matrix(0.1066 -0.9943 0.9943 0.1066 48.4046 243.9623)" class="st7" cx="160" cy="95" rx="3" ry="17.8"/>
		<path class="st8" d="M34.7,92.8c-0.4,0.1,0.8-0.5,0.9-0.2C35.7,93,35.4,92.6,34.7,92.8z"/>
		<path class="st8" d="M30,94.3c-0.3-0.3,0.6,0.9,0.8,0.6C31.1,94.4,30.6,94.8,30,94.3z"/>
		<path class="st8" d="M41.1,91.3c-0.4,0.1,0.8-0.5,0.9-0.2C42.1,91.5,41.8,91.1,41.1,91.3z"/>
		<path class="st8" d="M40.7,93.9c-0.2,0.3,0.4-0.9,0.6-0.7C41.6,93.5,41.2,93.4,40.7,93.9z"/>
		<path class="st8" d="M36.9,94.4c-0.2,0.3,0.4-0.9,0.6-0.7C37.8,94,37.3,93.8,36.9,94.4z"/>
		<path class="st8" d="M43.2,93c-0.2,0.3,0.4-0.9,0.7-0.7C44.1,92.6,43.7,92.4,43.2,93z"/>
		<path class="st8" d="M58.6,90.3c-0.3,0.3,0.5-0.8,0.7-0.6C59.5,90,59.1,89.8,58.6,90.3z"/>
		<path class="st8" d="M51.1,91c-0.3,0.3,0.5-0.8,0.7-0.6C52,90.7,51.6,90.5,51.1,91z"/>
		<path class="st8" d="M47.1,90.7c-0.3,0.3,0.5-0.8,0.7-0.6C48,90.4,47.6,90.2,47.1,90.7z"/>
		<path class="st8" d="M48.9,92.7c-0.4,0.1,0.9-0.4,0.9-0.1C49.9,92.9,49.7,92.5,48.9,92.7z"/>
		<path class="st8" d="M54.4,91c-0.4,0.1,0.9-0.4,0.9-0.1C55.3,91.3,55.1,90.9,54.4,91z"/>
		<path class="st8" d="M46.4,92.8c-0.4,0.1,0.9-0.4,0.9-0.1C47.4,93.1,47.1,92.7,46.4,92.8z"/>
		<path class="st8" d="M91.2,90.5c-0.4,0.1,0.9-0.5,0.9-0.1S91.9,90.3,91.2,90.5z"/>
		<path class="st8" d="M86.4,90c-0.3-0.3,0.5,1,0.7,0.6C87.4,90.2,86.9,90.5,86.4,90z"/>
		<path class="st8" d="M97.7,89.5c-0.4,0.1,0.9-0.5,0.9-0.1S98.3,89.4,97.7,89.5z"/>
		<path class="st8" d="M97,92.1c-0.3,0.3,0.5-0.9,0.7-0.6S97.5,91.6,97,92.1z"/>
		<path class="st8" d="M93.2,92.3c-0.3,0.3,0.5-0.9,0.7-0.6S93.7,91.8,93.2,92.3z"/>
		<path class="st8" d="M99.6,91.4c-0.3,0.3,0.5-0.9,0.7-0.6C100.5,91.1,100.1,90.9,99.6,91.4z"/>
		<path class="st8" d="M115.2,90c-0.3,0.2,0.6-0.8,0.8-0.5S115.7,89.5,115.2,90z"/>
		<path class="st8" d="M107.6,90c-0.3,0.2,0.6-0.8,0.8-0.5S108.2,89.6,107.6,90z"/>
		<path class="st8" d="M103.7,89.4c-0.3,0.2,0.6-0.8,0.8-0.5C104.7,89.2,104.3,89,103.7,89.4z"/>
		<path class="st8" d="M105.3,91.5c-0.4,0,0.9-0.3,0.9,0S106.1,91.5,105.3,91.5z"/>
		<path class="st8" d="M110.9,90.3c-0.4,0,0.9-0.4,0.9,0S111.7,90.3,110.9,90.3z"/>
		<path class="st8" d="M102.8,91.5c-0.4,0,0.9-0.3,0.9,0S103.5,91.4,102.8,91.5z"/>
		<path class="st8" d="M150.8,93.1c-0.4,0,1-0.2,0.9,0.1S151.5,93.2,150.8,93.1z"/>
		<path class="st8" d="M145.9,92.9c-0.2-0.3,0.2,1.1,0.6,0.8S146.3,93.6,145.9,92.9z"/>
		<path class="st8" d="M157.3,93.9c-0.4,0,1-0.2,0.9,0.1C158.1,94.4,158,93.9,157.3,93.9z"/>
		<path class="st8" d="M156,96.2c-0.3,0.2,0.7-0.7,0.8-0.4C157,96.2,156.7,95.9,156,96.2z"/>
		<path class="st8" d="M152.3,95.4c-0.3,0.2,0.7-0.7,0.8-0.4C153.2,95.4,152.9,95,152.3,95.4z"/>
		<path class="st8" d="M158.7,96.2c-0.3,0.2,0.7-0.7,0.8-0.4C159.6,96.2,159.3,95.8,158.7,96.2z"/>
		<path class="st8" d="M174.1,96.5c-0.3,0.1,0.8-0.6,0.9-0.3S174.8,96.2,174.1,96.5z"/>
		<path class="st8" d="M166.8,97c-0.3,0.1,0.8-0.6,0.9-0.3C167.8,97.1,167.5,96.7,166.8,97z"/>
		<path class="st8" d="M164.3,94.7c-0.3,0.1,0.8-0.6,0.9-0.3C165.2,94.8,164.9,94.4,164.3,94.7z"/>
		<path class="st8" d="M169.4,97.4c-0.4-0.1,1-0.1,0.9,0.2C170.2,98,170.1,97.5,169.4,97.4z"/>
		<path class="st8" d="M169.9,95.7c-0.4-0.1,1-0.1,0.9,0.2C170.7,96.3,170.6,95.8,169.9,95.7z"/>
		<path class="st8" d="M162.7,96.3c-0.4-0.1,1-0.1,0.9,0.3C163.5,96.9,163.5,96.4,162.7,96.3z"/>
	</g>
	<g>
		<polygon class="st9" points="188.1,93 180.6,124.1 183.5,124.1 190.4,93 		"/>
		<polygon class="st9" points="188.7,93 181.3,124.1 184.2,124.1 191,93 		"/>
		<path class="st9" d="M156.5,126.6c-0.1,1.5,0,2.9,0.1,4.4c0.1,0.5,8.4,68.8,7.2,82.1c2.7,4.1,8.4,5.4,12.6,5.6
			c2,0.1,6.9,0.4,8.6,0c8.9,0.2,12.8-2.7,15.2-6.3c1.3-13.6,6-79.2,7.6-82.3c-0.2-1.6,0.3-3.6,0-3.6L156.5,126.6z"/>
		<path class="st10" d="M156.7,130.3h19.2c0,5.6,5.3,34.1,6.6,37.8c2.3,8.3-1,45.1-6,50.6c-9.2-0.6-11.9-4.3-12.6-5.6
			C165.3,204.8,156.7,130.3,156.7,130.3z"/>
		<path class="st10" d="M183.2,130.3H208c-1.3,8.9-7.9,80.8-7.6,82.1c-4,5.3-6.7,6.3-15.2,6.3c1-9.2,2-40.8,0.6-46
			C183.2,166.8,179.7,130.3,183.2,130.3z"/>
		<polygon class="st11" points="185.7,93 178.7,121.4 181.4,121.4 187.8,93 		"/>
		<polygon class="st12" points="190.2,93 183.2,121.4 186,121.4 192.3,93 		"/>
		<path class="st10" d="M154.3,121.4c0,0-2.7,4.6,0,5.3c2.7,0.7,57,0,57,0s-0.6-5.3-1.6-5.3H154.3z"/>
	</g>
	<g>
		<polygon class="st9" points="115.9,159.6 110.2,160 113,176 125.9,182.6 152.8,185.4 170.4,181 177.5,170.8 176.3,161.2 		"/>
		<g>
			<path class="st13" d="M120.9,230c10.4-5.8,31.4-4.6,43.3,0c5.4,6.4,4.7-30.6,16.7-66.1c0.1-1.8,0.3-3.5-0.7-2.5
				c-1.4-0.3-2.9-1.4-3.8-0.3c-4,25.1-55.2,29.8-64.5,0.4c-0.6-3.2-1-1.6-1.7-1.6c-2,0.3-3.2,0-3.1,1.8
				C108.4,168.4,118.6,228.6,120.9,230z"/>
			<path class="st14" d="M113.2,145.1c-3.4,43.8,62.4,48,62.4,1.6c-0.2-1-0.1-1.4-1.3-1.2c-1.2,0.1-3.4-0.6-3.6,0.4
				c-0.2,1.8-0.4,3.5-0.6,3.9c0.3-1,0.3-3.6-0.2-3.6c-1.1-0.3-5.1-1.8-5.5-0.3c-0.3,1-0.6,1.9-1,2.9c0.3-1.5,1.7-6.7,1.8-7.1
				c0-1.5-0.8-1.9-1.5-2c-0.7-0.1-4-1.2-4.3,0.4c-0.4,1.6-2.1,7.9-2.6,8c-0.5,0.1,0.2-6,0.4-6c0.2-0.1-5.1-2.9-5.9-0.2
				c-0.7,2.6-1.2,5.7-1.5,5.1c-0.4-0.7-0.1-10.2-0.5-10.5c0-0.8,0.1-2.6-2.3-2.3s-4.1-1-4,4.1c-4,1-3.7-0.5-4,7.2
				c-1.2-1.9-1.5-4.8-2-4.9c-0.5-0.1-5-0.4-4.9,2.1s0.2,6.5,0.4,6.7c-0.6-1.2-3.2-9-3.2-9.7c-0.1-1.3-5.4-0.4-5.5,1
				c0.3,1.5,1.4,7.6,1.6,7.9c-0.6-1.3-1-4-1.9-3.7c-0.9,0.2-4.4,0-4.4,1.9c0,1.5-0.1,3.2,0.1,3.5c-0.4-1.8,0-5.9-2.7-5.8
				C115.3,144.6,114.5,144.1,113.2,145.1z"/>
			<path class="st15" d="M146,216.7h-4.2c0.1-0.6,0.1-1.1,0-1.7h4.2C145.9,215.6,145.9,216.1,146,216.7z"/>
			<path class="st15" d="M141.7,209.3h4.6c1.8-30.4,11.2-22.7,10.6,9.5h4.6c-0.9-28.2-10.4-41.7-17.5-20.9
				c-6.5-21.5-17.5-5.6-17.3,20.9h4.3C131.4,188,139.1,177.6,141.7,209.3z"/>
			<text transform="matrix(1 0 0 1 133.0697 214.5048)" class="st9 st16 st17">McData</text>
		</g>
	</g>
</g>
</svg>
