<?xml version="1.0" encoding="utf-8"?>
<!-- Generator: Adobe Illustrator 24.1.0, SVG Export Plug-In . SVG Version: 6.00 Build 0)  -->
<svg version="1.1" xmlns="http://www.w3.org/2000/svg" xmlns:xlink="http://www.w3.org/1999/xlink" x="0px" y="0px"
	 viewBox="0 0 219.5 235.4" style="enable-background:new 0 0 219.5 235.4;" xml:space="preserve">
<style type="text/css">
	.st0{fill:#F59E47;}
	.st1{fill:#91371A;}
	.st2{fill:#00983D;}
	.st3{fill:#FCBC00;}
	.st4{fill:#FFE3B1;}
	.st5{fill:#69B42D;stroke:#168536;stroke-miterlimit:10;}
	.st6{fill:#D3E5BC;}
	.st7{fill:#FFFFFF;}
	.st8{fill:#3F3F3E;}
	.st9{fill:#DF6F83;}
	.st10{fill:#FFEEBF;}
	.st11{fill:#E5281E;}
	.st12{fill:#FBB900;}
	.st13{fill:#FEC900;}
	.st14{font-family:'Roboto-Bold';}
	.st15{font-size:8.6988px;}
</style>
<g id="Calque_1">
</g>
<g id="Calque_2">
</g>
<g id="Calque_3">
	<g>
		<g>
			<path class="st0" d="M2.1,66.7c-6.6-68.8,155.5-104.1,173.5,0C124.7,57.7,39.1,55.9,2.1,66.7z"/>
			<path class="st1" d="M1.9,71.7c50.1-13.2,152.6-8.9,173.7,1.3c2.8,2.8,1.5,12.4,0,12.7c-30-9.6-138-11.1-172.5,0
				C-0.5,80,0.1,74.5,1.9,71.7z"/>
			<path class="st1" d="M2.3,130.4c51.7,5,147.8,1.7,173.7,1.3c2.8,2.8,1.5,12.4,0,12.7c-34.2,6-137.2,5.5-172.5,0
				C0,138.8,0.6,133.3,2.3,130.4z"/>
			<path class="st2" d="M1.9,100.2c55.1-11.9,147.8-7.9,175.3,2.1c2.4,4.8-0.2,5.5-4,5.3c-26.4-9.4-136.2-9.6-168.6-1
				C-1.5,104.7-0.1,103,1.9,100.2z"/>
			<path class="st0" d="M1.9,112.1c15.2-4.5,146.8-7.6,173.7,0c2.6,4.3,1.5,8.9,1.6,9.6c-10.8,6.6-152.3,6.1-172.6,0
				C0.9,121.2,2.7,117.4,1.9,112.1z"/>
			<path class="st3" d="M58.1,153.7c11.2,1.5,56,1,58.8,0c4.6-0.3,7.6,0.8,0,8.9c-7.6,8.1-23.6,25.4-25.1,26.9
				c-3,3.3-5.3,3.3-8.9-1.5C68.6,170.8,50,154.9,58.1,153.7z"/>
			<path class="st2" d="M47.9,153.6c-11.9-0.5-39-2.8-42.3-5c-7.9,2.2-3,7.5,1.3,7.8c5.9,1,34.5,4.7,43.1,4.1
				C54,160.8,50.2,156.6,47.9,153.6z"/>
			<path class="st2" d="M129.7,154.7c11.9-0.5,39.1-2.8,42.3-5c7.9,2.2,3,7.5-1.3,7.8c-5.9,1-34.5,4.7-43.1,4.1
				C123.7,161.8,127.5,157.7,129.7,154.7z"/>
			<path class="st0" d="M56.1,167.1c-12.5-1-48.7-2.1-52.3-5.5c-2.9,5-1.3,22.2,5.3,23c8.1,4.3,50.2,8.4,61.9,7.1
				C84.6,193.5,58.1,172.7,56.1,167.1z"/>
			<path class="st0" d="M121.6,166.7c12.5-1,48.7-2.1,52.3-5.5c2.9,5,1.3,22.2-5.3,23c-8.1,4.3-50.2,8.4-61.9,7.1
				C93.1,193.1,119.6,172.3,121.6,166.7z"/>
			<ellipse class="st4" cx="43.8" cy="33.3" rx="3.9" ry="1.8"/>
			<ellipse transform="matrix(0.277 -0.9609 0.9609 0.277 20.0036 69.4132)" class="st4" cx="56.1" cy="21.4" rx="3.9" ry="1.8"/>
			<ellipse transform="matrix(0.866 -0.5 0.5 0.866 -5.1247 41.0985)" class="st4" cx="74.1" cy="30.1" rx="3.9" ry="1.8"/>
			<ellipse transform="matrix(0.8208 -0.5713 0.5713 0.8208 7.0321 54.4234)" class="st4" cx="90.2" cy="16" rx="1.8" ry="3.9"/>
			<ellipse class="st4" cx="107.6" cy="38.9" rx="3.9" ry="1.8"/>
			<ellipse transform="matrix(0.277 -0.9609 0.9609 0.277 64.6241 156.1042)" class="st4" cx="136" cy="35.1" rx="3.9" ry="1.8"/>
			<ellipse transform="matrix(0.9485 -0.3168 0.3168 0.9485 -9.6643 42.574)" class="st4" cx="126.1" cy="51" rx="1.8" ry="3.9"/>
			
				<ellipse transform="matrix(0.1066 -0.9943 0.9943 0.1066 86.7444 192.2306)" class="st4" cx="150.3" cy="47.8" rx="1.8" ry="3.9"/>
			<ellipse transform="matrix(0.277 -0.9609 0.9609 0.277 23.3011 115.2547)" class="st4" cx="88.2" cy="42.1" rx="3.9" ry="1.8"/>
			<ellipse transform="matrix(0.8838 -0.4678 0.4678 0.8838 2.5769 55.1814)" class="st4" cx="112.4" cy="22.4" rx="3.9" ry="1.8"/>
			<ellipse transform="matrix(0.5 -0.866 0.866 0.5 -9.6663 75.1544)" class="st4" cx="60.3" cy="45.9" rx="1.8" ry="3.9"/>
			<ellipse transform="matrix(0.9335 -0.3585 0.3585 0.9335 -16.3118 16.061)" class="st4" cx="35.2" cy="52" rx="3.9" ry="1.8"/>
			<ellipse transform="matrix(0.9868 -0.1618 0.1618 0.9868 -13.8504 7.178)" class="st5" cx="37.2" cy="88.6" rx="23" ry="2.8"/>
			<ellipse class="st5" cx="93" cy="86.8" rx="19.1" ry="2.9"/>
			
				<ellipse transform="matrix(0.1066 -0.9943 0.9943 0.1066 44.6631 232.8515)" class="st5" cx="151.9" cy="91.6" rx="3" ry="17.8"/>
			<path class="st6" d="M26.7,89.3c-0.4,0.1,0.8-0.5,0.9-0.2C27.7,89.5,27.4,89.1,26.7,89.3z"/>
			<path class="st6" d="M22,90.8c-0.3-0.3,0.6,0.9,0.8,0.6C23.1,90.9,22.6,91.3,22,90.8z"/>
			<path class="st6" d="M33.1,87.8c-0.4,0.1,0.8-0.5,0.9-0.2C34.1,88,33.8,87.6,33.1,87.8z"/>
			<path class="st6" d="M32.7,90.4c-0.2,0.3,0.4-0.9,0.6-0.7C33.6,90,33.2,89.9,32.7,90.4z"/>
			<path class="st6" d="M28.9,90.9c-0.2,0.3,0.4-0.9,0.6-0.7C29.8,90.5,29.3,90.3,28.9,90.9z"/>
			<path class="st6" d="M35.2,89.5c-0.2,0.3,0.4-0.9,0.7-0.7C36.1,89.1,35.7,88.9,35.2,89.5z"/>
			<path class="st6" d="M50.6,86.8c-0.3,0.3,0.5-0.8,0.7-0.6C51.5,86.5,51.1,86.3,50.6,86.8z"/>
			<path class="st6" d="M43.1,87.5c-0.3,0.3,0.5-0.8,0.7-0.6C44,87.2,43.6,87,43.1,87.5z"/>
			<path class="st6" d="M39.1,87.2c-0.3,0.3,0.5-0.8,0.7-0.6C40,86.9,39.6,86.7,39.1,87.2z"/>
			<path class="st6" d="M40.9,89.2c-0.4,0.1,0.9-0.4,0.9-0.1C41.9,89.4,41.7,89,40.9,89.2z"/>
			<path class="st6" d="M46.4,87.5c-0.4,0.1,0.9-0.4,0.9-0.1C47.3,87.8,47.1,87.4,46.4,87.5z"/>
			<path class="st6" d="M38.4,89.3c-0.4,0.1,0.9-0.4,0.9-0.1C39.4,89.6,39.1,89.2,38.4,89.3z"/>
			<path class="st6" d="M83.2,87c-0.4,0.1,0.9-0.5,0.9-0.1S83.9,86.8,83.2,87z"/>
			<path class="st6" d="M78.4,86.5c-0.3-0.3,0.5,1,0.7,0.6C79.4,86.7,78.9,87,78.4,86.5z"/>
			<path class="st6" d="M89.7,86c-0.4,0.1,0.9-0.5,0.9-0.1C90.6,86.3,90.3,85.9,89.7,86z"/>
			<path class="st6" d="M89,88.6c-0.3,0.3,0.5-0.9,0.7-0.6S89.5,88.1,89,88.6z"/>
			<path class="st6" d="M85.2,88.8c-0.3,0.3,0.5-0.9,0.7-0.6S85.7,88.3,85.2,88.8z"/>
			<path class="st6" d="M91.6,87.9c-0.3,0.3,0.5-0.9,0.7-0.6C92.5,87.6,92.1,87.4,91.6,87.9z"/>
			<path class="st6" d="M107.2,86.5c-0.3,0.2,0.6-0.8,0.8-0.5S107.7,86,107.2,86.5z"/>
			<path class="st6" d="M99.6,86.5c-0.3,0.2,0.6-0.8,0.8-0.5S100.2,86.1,99.6,86.5z"/>
			<path class="st6" d="M95.7,85.9c-0.3,0.2,0.6-0.8,0.8-0.5C96.7,85.7,96.3,85.5,95.7,85.9z"/>
			<path class="st6" d="M97.3,88c-0.4,0,0.9-0.3,0.9,0S98.1,88,97.3,88z"/>
			<path class="st6" d="M102.9,86.8c-0.4,0,0.9-0.4,0.9,0S103.7,86.8,102.9,86.8z"/>
			<path class="st6" d="M94.8,88c-0.4,0,0.9-0.3,0.9,0S95.5,87.9,94.8,88z"/>
			<path class="st6" d="M142.8,89.6c-0.4,0,1-0.2,0.9,0.1S143.5,89.7,142.8,89.6z"/>
			<path class="st6" d="M137.9,89.4c-0.2-0.3,0.2,1.1,0.6,0.8S138.3,90.1,137.9,89.4z"/>
			<path class="st6" d="M149.3,90.4c-0.4,0,1-0.2,0.9,0.1C150.1,90.9,150,90.4,149.3,90.4z"/>
			<path class="st6" d="M148,92.7c-0.3,0.2,0.7-0.7,0.8-0.4C149,92.7,148.7,92.4,148,92.7z"/>
			<path class="st6" d="M144.3,91.9c-0.3,0.2,0.7-0.7,0.8-0.4C145.2,91.9,144.9,91.5,144.3,91.9z"/>
			<path class="st6" d="M150.7,92.7c-0.3,0.2,0.7-0.7,0.8-0.4C151.6,92.7,151.3,92.3,150.7,92.7z"/>
			<path class="st6" d="M166.1,93c-0.3,0.1,0.8-0.6,0.9-0.3S166.8,92.7,166.1,93z"/>
			<path class="st6" d="M158.8,93.5c-0.3,0.1,0.8-0.6,0.9-0.3C159.8,93.6,159.5,93.2,158.8,93.5z"/>
			<path class="st6" d="M156.3,91.2c-0.3,0.1,0.8-0.6,0.9-0.3C157.2,91.3,156.9,90.9,156.3,91.2z"/>
			<path class="st6" d="M161.4,93.9c-0.4-0.1,1-0.1,0.9,0.2C162.2,94.5,162.1,94,161.4,93.9z"/>
			<path class="st6" d="M161.9,92.2c-0.4-0.1,1-0.1,0.9,0.2C162.7,92.8,162.6,92.3,161.9,92.2z"/>
			<path class="st6" d="M154.7,92.8c-0.4-0.1,1-0.1,0.9,0.3C155.5,93.4,155.5,92.9,154.7,92.8z"/>
		</g>
		<g>
			<polygon class="st7" points="189.7,54.8 180.1,94.5 183.9,94.5 192.6,54.8 			"/>
			<polygon class="st7" points="190.5,54.8 181,94.5 184.7,94.5 193.4,54.8 			"/>
			<path class="st7" d="M149.4,97.7c-0.1,1.9,0,3.7,0.1,5.6c0.1,0.7,10.7,87.8,9.2,104.7c3.4,5.2,10.7,6.9,16.1,7.2
				c2.6,0.1,8.8,0.5,11,0c11.3,0.2,16.3-3.4,19.4-8c1.6-17.3,7.6-101.1,9.7-105c-0.3-2,0.4-4.6,0-4.6L149.4,97.7z"/>
			<path class="st8" d="M149.6,102.4h24.5c0,7.2,6.8,43.5,8.4,48.2c2.9,10.6-1.3,57.5-7.6,64.6c-11.8-0.8-15.2-5.5-16.1-7.2
				C160.6,197.4,149.6,102.4,149.6,102.4z"/>
			<path class="st8" d="M183.5,102.4h31.6c-1.7,11.4-10.1,103.1-9.7,104.8c-5.1,6.8-8.5,8-19.4,8c1.3-11.8,2.5-52,0.8-58.7
				C183.5,149,179,102.4,183.5,102.4z"/>
			<polygon class="st9" points="186.6,54.8 177.7,91.1 181.2,91.1 189.3,54.8 			"/>
			<polygon class="st10" points="192.4,54.8 183.5,91.1 187,91.1 195.1,54.8 			"/>
			<path class="st8" d="M146.6,91c0,0-3.4,5.9,0,6.8s72.7,0,72.7,0s-0.8-6.8-2.1-6.8H146.6z"/>
		</g>
		<g>
			<polygon class="st7" points="85.6,137.3 77.9,137.8 81.7,159.6 99.3,168.6 135.9,172.4 159.9,166.4 169.6,152.5 168,139.5 			"/>
			<g>
				<path class="st11" d="M92.5,233.2c14.1-7.9,42.8-6.2,59,0c7.4,8.7,6.4-41.7,22.7-90c0.2-2.4,0.4-4.7-1-3.4
					c-1.9-0.4-3.9-1.9-5.2-0.4c-5.4,34.2-75.2,40.6-87.8,0.6c-0.8-4.3-1.3-2.2-2.3-2.2c-2.7,0.4-4.4,0-4.2,2.4
					C75.5,149.2,89.4,231.3,92.5,233.2z"/>
				<path class="st12" d="M82,117.5c-4.6,59.7,85,65.4,85,2.2c-0.3-1.4-0.2-1.9-1.8-1.6c-1.7,0.1-4.6-0.8-4.9,0.6
					c-0.3,2.4-0.5,4.8-0.8,5.3c0.4-1.4,0.4-4.9-0.3-4.9c-1.5-0.4-7-2.5-7.5-0.4c-0.4,1.3-0.8,2.6-1.3,3.9c0.4-2.1,2.3-9.1,2.5-9.7
					c0-2-1.1-2.6-2-2.7c-0.9-0.1-5.4-1.7-5.9,0.6c-0.5,2.2-2.9,10.8-3.6,10.9c-0.7,0.1,0.3-8.2,0.6-8.2c0.3-0.1-7-3.9-8-0.3
					c-1,3.6-1.6,7.8-2,6.9c-0.5-0.9-0.2-13.9-0.7-14.3c0-1.1,0.2-3.6-3.2-3.1c-3.4,0.5-5.6-1.3-5.5,5.6c-5.4,1.3-5.1-0.7-5.5,9.8
					c-1.7-2.6-2-6.5-2.7-6.7s-6.8-0.6-6.7,2.8c0.1,3.4,0.3,8.8,0.6,9.1c-0.8-1.6-4.3-12.2-4.4-13.2c-0.2-1.8-7.4-0.5-7.5,1.3
					c0.4,2,1.9,10.4,2.2,10.8c-0.8-1.8-1.4-5.4-2.6-5.1c-1.2,0.3-6,0-6,2.6c0,2-0.1,4.4,0.1,4.8c-0.6-2.5,0-8-3.7-7.9
					C84.8,116.8,83.8,116.2,82,117.5z"/>
				<path class="st13" d="M126.7,215H121c0.1-0.8,0.1-1.5,0-2.3h5.7C126.6,213.5,126.6,214.3,126.7,215z"/>
				<path class="st13" d="M120.8,205h6.2c2.4-41.4,15.3-30.9,14.5,13h6.2c-1.2-38.4-14.1-56.8-23.8-28.5
					c-8.9-29.3-23.8-7.6-23.6,28.5h5.9C106.8,176,117.3,161.8,120.8,205z"/>
				<text transform="matrix(1 0 0 1 109.0545 212.0741)" class="st7 st14 st15">McData</text>
			</g>
		</g>
	</g>
</g>
</svg>
