<?xml version="1.0" encoding="utf-8"?>
<!-- Generator: Adobe Illustrator 24.1.0, SVG Export Plug-In . SVG Version: 6.00 Build 0)  -->
<svg version="1.1" id="Calque_1" xmlns="http://www.w3.org/2000/svg" xmlns:xlink="http://www.w3.org/1999/xlink" x="0px" y="0px"
	 viewBox="0 0 283.5 283.5" style="enable-background:new 0 0 283.5 283.5;" xml:space="preserve">
<style type="text/css">
	.st0{fill:#009FCC;}
	.st1{fill:#F2E3D2;}
	.st2{fill:#40221E;}
	.st3{fill:#FEC900;}
	.st4{fill:#FFFFFF;}
	.st5{font-family:'Roboto-Black';}
	.st6{font-size:10.8344px;}
</style>
<g>
	<path class="st0" d="M90.4,220.5c1.2,20.6,79.5,42.5,103.8,0c1.2-31,11.5-97.1,12.1-98.3c-21.2,22.5-98.3,28.5-131.1,0
		C78.9,148.2,89.2,199.8,90.4,220.5z"/>
	<path class="st1" d="M75.2,93.6c-20.6,48.1,111.7,63.7,135.3,8.5c-9.7-20-23.7-29.1-34-30.3c-9.6-14.6-29.4-35.8-34.7-38.9
		C128.6,37.8,125,49.3,125.6,56c-9.7-4.2-24.3,13.4-25.5,21.8C83.7,79.7,77,87.7,75.2,93.6z"/>
	<path class="st2" d="M193.6,103.1c1.2,3.6,6.7,7.6,6.7,7.6s6.7-23,0-15.3S193.6,103.1,193.6,103.1z"/>
	<path class="st2" d="M114,74.7c0.7,2.2,4,4.5,4,4.5s4-13.7,0-9.1S114,74.7,114,74.7z"/>
	<path class="st2" d="M135.9,127.6c2.4-5.5,18.2-16.4,17,0C151.7,144,135.9,127.6,135.9,127.6z"/>
	<path class="st2" d="M115.2,87.9c2.4-5.5,18.2-16.4,17,0C131,104.3,115.2,87.9,115.2,87.9z"/>
	<path class="st2" d="M89.4,114.7c1.2-10.7,3-20.4,15.8-5.2S89.4,114.7,89.4,114.7z"/>
	<path class="st2" d="M126.7,68.4c0.8-7.3,2.1-13.9,10.7-3.5C146,75.3,126.7,68.4,126.7,68.4z"/>
	<polygon class="st2" points="150,85 147.4,92.9 158.6,96.7 158.6,85 	"/>
	<polygon class="st2" points="135.9,104.8 144.4,101.3 153,109.7 141.8,113 	"/>
	<polygon class="st2" points="158.1,76.9 166.7,73.4 175.2,81.8 164,85 	"/>
	<polygon class="st2" points="93.8,87.6 100,85 106.3,91.2 98.1,93.6 	"/>
	<polygon class="st2" points="123.8,122 123.8,109.7 114.9,115.9 	"/>
	<polygon class="st2" points="166.7,98 173.2,104.8 178.7,92.9 173.8,90.9 171,94.7 	"/>
	<polygon class="st2" points="141.4,58.3 147.9,65.1 153.4,53.1 148.5,51.1 145.8,55 	"/>
	<path class="st2" d="M163.7,114.3c4.5-6.5,13.9,5.7,9,6c-4.9,0.3,3.5,6,1.8,5.7C172.7,125.8,160.7,118.7,163.7,114.3z"/>
	<path class="st3" d="M144.2,217.3h-7.1c0.1-1.3,0-2.5,0-2.8h7.1C144.2,215.4,144,216.5,144.2,217.3z"/>
	<path class="st3" d="M136.8,204.8h7.7c3-51.5,19.1-38.5,18,16.1h7.7c-1.5-47.8-17.6-70.7-29.6-35.5c-11-36.4-29.6-9.4-29.3,35.6
		h7.3C119.3,168.7,132.4,151.1,136.8,204.8z"/>
	<text transform="matrix(1 0 0 1 122.1786 213.6396)" class="st4 st5 st6">McData</text>
</g>
</svg>
