<?xml version="1.0" encoding="utf-8"?>
<!-- Generator: Adobe Illustrator 24.1.0, SVG Export Plug-In . SVG Version: 6.00 Build 0)  -->
<svg version="1.1" id="Calque_1" xmlns="http://www.w3.org/2000/svg" xmlns:xlink="http://www.w3.org/1999/xlink" x="0px" y="0px"
	 viewBox="0 0 283.5 283.5" style="enable-background:new 0 0 283.5 283.5;" xml:space="preserve">
<style type="text/css">
	.st0{fill:#C9927B;}
	.st1{fill:#F2F2F2;}
	.st2{fill:#F0E8DD;}
</style>
<path class="st0" d="M76.3,115c6,37,16.4,151.7,25,160.1c15.5,4.7,61.1,6.7,82.6-5.2c8.6-50.8,18.9-148.9,20.7-154.9
	C191.7,117.6,93.6,120.1,76.3,115z"/>
<path class="st1" d="M76.3,95.5c17.2,0.4,128.4,0,131.3,0c7.7,4.6,5,7-4.9,8.8c-22,0.4-116.1,0.4-123-0.6
	C70.3,102,70.1,96.7,76.3,95.5z"/>
<polygon class="st2" points="115,93.8 80.3,14.5 73.7,18.5 105.5,93.8 "/>
</svg>
