<?xml version="1.0" encoding="utf-8"?>
<!-- Generator: Adobe Illustrator 24.1.0, SVG Export Plug-In . SVG Version: 6.00 Build 0)  -->
<svg version="1.1" id="Calque_1" xmlns="http://www.w3.org/2000/svg" xmlns:xlink="http://www.w3.org/1999/xlink" x="0px" y="0px"
	 viewBox="0 0 283.5 283.5" style="enable-background:new 0 0 283.5 283.5;" xml:space="preserve">
<style type="text/css">
	.st0{fill:#F8BF80;}
	.st1{fill:#FFEAAD;}
	.st2{fill:#E0AE75;}
</style>
<polygon class="st0" points="106.7,142.4 151,268.2 196.4,144.7 "/>
<path class="st1" d="M110,89.9c-24.9,0-27.7,44.3-3.3,46.5c30.4,0.8,89.7,2.2,89.7,2.2c17.7-0.6,31.6-41,0-48.7
	C175.9,90.5,110,89.9,110,89.9z"/>
<path class="st1" d="M116.8,68.3c-21,0-23.3,32.7-2.8,34.4c25.6,0.6,75.5,1.6,75.5,1.6c14.9-0.4,26.6-30.3,0-36
	C172.2,68.7,116.8,68.3,116.8,68.3z"/>
<path class="st1" d="M116.8,68.3c0-33.8,79.7-10,68.6-36c-8.9-16.6,21.5,20.5,4.1,36S116.8,68.3,116.8,68.3z"/>
<polygon class="st2" points="110.4,153.1 178,194.8 178.5,193.3 109.9,151.7 "/>
<polygon class="st2" points="118.4,175.8 193.5,152.7 192.9,154.3 118.9,177.2 "/>
<polygon class="st2" points="126.3,198.2 182.9,181.4 182.4,182.8 126.8,199.5 "/>
<polygon class="st2" points="122.6,187.7 168.8,219.8 168.3,221.2 123.2,189.3 "/>
<polygon class="st2" points="134.3,220.7 173.6,206.7 173,208.5 134.8,222.1 "/>
<polygon class="st2" points="132.6,215.9 162.1,238 161.5,239.6 133.1,217.3 "/>
<polygon class="st2" points="142,242.8 165,230.2 164.5,231.5 142.4,243.8 "/>
</svg>
