<?xml version="1.0" encoding="utf-8"?>
<!-- Generator: Adobe Illustrator 24.1.0, SVG Export Plug-In . SVG Version: 6.00 Build 0)  -->
<svg version="1.1" id="Calque_1" xmlns="http://www.w3.org/2000/svg" xmlns:xlink="http://www.w3.org/1999/xlink" x="0px" y="0px"
	 viewBox="0 0 283.5 283.5" style="enable-background:new 0 0 283.5 283.5;" xml:space="preserve">
<style type="text/css">
	.st0{fill:#FFF8E8;}
	.st1{fill:#E32213;}
	.st2{font-family:'ArialNarrow';}
	.st3{font-size:28px;}
</style>
<path class="st0" d="M110.1,245.6c-31.8-117.4,3.3-175.2,3.3-191.1c-5.4,0.8-11.7,0.4-10.1-7.6c3-3,4.7-2.1,5.6-2.3
	c-0.5-4.2,2.3-8.2,10-9.3c8.2-0.2,41.7-2.3,50.6,1.9c7.2,1.2,5.4,6.1,5.4,6.8c4.7,1.6,10.3,10.5-3.3,12.1
	c-7,19.1,37.6,84.7,0.1,190.8C157,249.7,117.2,250,110.1,245.6z"/>
<text transform="matrix(1 0 0 1 108.9642 168.5877)" class="st1 st2 st3">Actimel</text>
</svg>
