<?xml version="1.0" encoding="utf-8"?>
<!-- Generator: Adobe Illustrator 24.1.0, SVG Export Plug-In . SVG Version: 6.00 Build 0)  -->
<svg version="1.1" id="Calque_1" xmlns="http://www.w3.org/2000/svg" xmlns:xlink="http://www.w3.org/1999/xlink" x="0px" y="0px"
	 viewBox="0 0 283.5 283.5" style="enable-background:new 0 0 283.5 283.5;" xml:space="preserve">
<style type="text/css">
	.st0{fill:#FFFFFF;}
	.st1{fill:#E3051D;}
	.st2{fill:#009E3C;}
	.st3{fill:none;}
	.st4{fill:#1A408D;}
	.st5{font-family:'MarkerFelt-Wide';}
	.st6{font-size:21px;}
	.st7{fill:#008039;}
	.st8{font-size:30px;}
	.st9{letter-spacing:2;}
</style>
<path class="st0" d="M94.3,126.8c0.3,16.2,0.5,102.4-4.7,108.9c16.9-0.4,109.7,1.1,109.7,1.1c-2.7-32.2-5.4-104.7-4.4-109.1
	C169.3,105.1,118.3,103.5,94.3,126.8z"/>
<path class="st1" d="M113.1,48.3c14.4-8.7,44.1-11.6,61.4,0c0.4,6.1,0.6,10.3,0,11.6c-5.7,5.9-20.5,5.3-20.5,9.7
	c-0.4,2.5-1.9,6.5,3.2,6.1c0.2,1.5,0.2,5.3-0.1,6.4c-1.9,0.5-24.6,0.5-25.8,0c0-2.2-0.3-5.3-0.2-6.1s5.1,1.5,3.4-6
	c-0.6-4.5-15-4.7-20.2-9.4C112.8,57.3,113,50.3,113.1,48.3z"/>
<path class="st2" d="M94.3,126.8c0.9-8.1,6.7-10.6,7.7-13.1c-1-10.9,7.4-27.2,20.2-31.1c2.8,0,44.6-0.1,45.5,0
	c10.9,3.8,20.3,17.7,20.2,31.7c5,2.2,7.3,12.2,7.1,13.4C170.7,105.1,117.1,108.3,94.3,126.8z"/>
<path class="st2" d="M89.6,235.7c-2,8.8-5.6,25.3,4.7,24.7c8.6,0.6,100.6,0,100.6,0c11.8,0.2,6.7-12.2,4.4-23.6
	C186,236.3,103.5,234.5,89.6,235.7z"/>
<rect x="103.4" y="177" class="st3" width="102.3" height="25.6"/>
<text transform="matrix(1 0 0 1 103.4012 194.3287)" class="st4 st5 st6">Danonino</text>
<text transform="matrix(1 0 0 1 122.9792 227.7216)" class="st7 st5 st8 st9">BIO</text>
</svg>
