<?xml version="1.0" encoding="utf-8"?>
<!-- Generator: Adobe Illustrator 24.1.0, SVG Export Plug-In . SVG Version: 6.00 Build 0)  -->
<svg version="1.1" id="Calque_1" xmlns="http://www.w3.org/2000/svg" xmlns:xlink="http://www.w3.org/1999/xlink" x="0px" y="0px"
	 viewBox="0 0 283.5 283.5" style="enable-background:new 0 0 283.5 283.5;" xml:space="preserve">
<style type="text/css">
	.st0{fill:#F8B300;}
	.st1{fill:#E33F12;}
	.st2{fill:#E5A105;}
</style>
<path class="st0" d="M184.5,31.6c8.7-3.2,54.7-3.6,22.8,41c-0.5,18.2-6.4,27.4-13.2,34.2c7.7,13.2,49.2,62,2.3,78.4
	c-2.7,8.2-5.9,10.5,0.9,14.6c21.1,25.1,7.7,86.6-46.5,47.4c-5-5-12.3-0.9-14.6,2.7c-20.5,20.5-62,17.3-43.8-38.7
	c6.8-9.6,15.5-15.5,12.3-26.9c-26-10.9-31.5-29.6,14.6-76.6c-8.7-20.1-8.2-29.6-8.2-39.2c-10.9-10.9-15-51.3,28.7-38.2
	C152.1,24.3,174.5,23.8,184.5,31.6z"/>
<path class="st1" d="M93.9,138c5.6-8,27.2-6.4,24.3,22.6s-30.3,21.7-33-2C87.2,147.3,89.8,143.9,93.9,138z"/>
<path class="st1" d="M184.9,156.7c-0.9-13.4,24.2-33.9,30.5,0C215.5,179.6,187.7,198,184.9,156.7z"/>
<path class="st1" d="M88,232.6c1.7-21.8,42.3-46,40,5.1C125.7,269.1,85.4,266.7,88,232.6z"/>
<path class="st1" d="M203,232.6c-1.7-21.8-42.3-46-40,5.1C165.3,269.1,205.6,266.7,203,232.6z"/>
<ellipse class="st2" cx="141.6" cy="62.6" rx="2.9" ry="7.3"/>
<ellipse class="st2" cx="176" cy="62.6" rx="3.4" ry="7.3"/>
<circle class="st2" cx="158.4" cy="83.9" r="6.7"/>
<path class="st2" d="M144.6,100.4h20.5C159,108.6,153,110.4,144.6,100.4z"/>
</svg>
