<?xml version="1.0" encoding="utf-8"?>
<!-- Generator: Adobe Illustrator 24.1.0, SVG Export Plug-In . SVG Version: 6.00 Build 0)  -->
<svg version="1.1" id="Calque_1" xmlns="http://www.w3.org/2000/svg" xmlns:xlink="http://www.w3.org/1999/xlink" x="0px" y="0px"
	 viewBox="0 0 283.5 283.5" style="enable-background:new 0 0 283.5 283.5;" xml:space="preserve">
<style type="text/css">
	.st0{fill:#FFFFFF;}
	.st1{fill:#DF6F83;}
	.st2{fill:#FFEEBF;}
	.st3{fill:#009E3C;}
</style>
<g>
	<polygon class="st0" points="159.6,31.1 146.7,84.9 151.7,84.9 163.5,31.1 	"/>
	<polygon class="st0" points="160.8,31.1 147.9,84.9 152.9,84.9 164.7,31.1 	"/>
</g>
<polygon class="st1" points="156.5,31.1 144.4,80.4 149.1,80.4 160.1,31.1 "/>
<polygon class="st2" points="164.3,31.1 152.3,80.4 157,80.4 167.9,31.1 "/>
<path class="st0" d="M105,89.1c0,5.8,0.1,6.7,0.2,7.6s14.5,119.1,12.4,142c4.6,7,14.5,9.4,21.8,9.8c3.5,0.1,12,0.7,14.9,0
	c15.3,0.3,22.1-4.6,26.4-10.9c2.1-23.5,10.4-137.2,13.2-142.4c-0.4-2.7,0.6-6.3,0-6.3C193.2,88.9,105,89.1,105,89.1z"/>
<path class="st3" d="M104.9,95.4h33.2c0,9.7,9.2,59,11.5,65.3c4,14.3-1.7,78-10.3,87.7c-16.1-1.1-20.6-7.5-21.8-9.7
	C119.8,224.4,104.9,95.4,104.9,95.4z"/>
<path class="st3" d="M150.9,95.4h42.8c-2.3,15.5-13.8,139.9-13.2,142.2c-6.9,9.2-11.5,10.9-26.4,10.9c1.7-16.1,3.3-70.5,1.1-79.7
	C150.9,158.6,144.7,95.4,150.9,95.4z"/>
<path class="st3" d="M100.8,79.9c0,0-4.6,8,0,9.2s98.6,0,98.6,0s-1.1-9.2-2.9-9.2C194.9,79.9,100.8,79.9,100.8,79.9z"/>
</svg>
