<?xml version="1.0" encoding="utf-8"?>
<!-- Generator: Adobe Illustrator 24.1.0, SVG Export Plug-In . SVG Version: 6.00 Build 0)  -->
<svg version="1.1" id="Calque_1" xmlns="http://www.w3.org/2000/svg" xmlns:xlink="http://www.w3.org/1999/xlink" x="0px" y="0px"
	 viewBox="0 0 283.5 283.5" style="enable-background:new 0 0 283.5 283.5;" xml:space="preserve">
<style type="text/css">
	.st0{fill:#FFFFFF;}
	.st1{fill:#DEB300;}
	.st2{fill:#DF6F83;}
	.st3{fill:#FFEEBF;}
</style>
<g>
	<polygon class="st0" points="160.1,26.1 147.1,79.9 152.2,79.9 164,26.1 	"/>
	<polygon class="st0" points="161.2,26.1 148.3,79.9 153.4,79.9 165.2,26.1 	"/>
</g>
<path class="st0" d="M104.9,89.4c0,5.8,0.1,6.6,0.2,7.6c0.1,1,14.5,118.9,12.4,141.7c4.6,6.9,14.5,9.4,21.8,9.7
	c3.5,0.1,12,0.7,14.9,0c15.3,0.3,22.1-4.6,26.4-10.9c2.1-23.4,10.4-136.9,13.2-142.2c-0.4-2.7,0.6-6.2,0-6.2
	C193.1,89.2,104.9,89.4,104.9,89.4z"/>
<path class="st1" d="M104.9,95.4h33.2c0,9.7,9.2,59,11.5,65.3c4,14.3-1.7,78-10.3,87.7c-16.1-1.1-20.6-7.5-21.8-9.7
	C119.8,224.4,104.9,95.4,104.9,95.4z"/>
<path class="st1" d="M150.9,95.4h42.8c-2.3,15.5-13.8,139.9-13.2,142.2c-6.9,9.2-11.5,10.9-26.4,10.9c1.7-16.1,3.3-70.5,1.1-79.7
	C150.9,158.6,144.7,95.4,150.9,95.4z"/>
<path class="st1" d="M100.8,79.9c0,0-4.6,8,0,9.2s98.6,0,98.6,0s-1.1-9.2-2.9-9.2C194.9,79.9,100.8,79.9,100.8,79.9z"/>
<polygon class="st2" points="156.5,26.1 144.4,79.9 149.1,79.9 160.1,26.1 "/>
<polygon class="st3" points="164.3,26.1 152.3,79.9 157,79.9 167.9,26.1 "/>
</svg>
