<?xml version="1.0" encoding="utf-8"?>
<!-- Generator: Adobe Illustrator 24.1.0, SVG Export Plug-In . SVG Version: 6.00 Build 0)  -->
<svg version="1.1" id="Calque_1" xmlns="http://www.w3.org/2000/svg" xmlns:xlink="http://www.w3.org/1999/xlink" x="0px" y="0px"
	 viewBox="0 0 283.5 283.5" style="enable-background:new 0 0 283.5 283.5;" xml:space="preserve">
<style type="text/css">
	.st0{fill:#CBE7E5;}
	.st1{fill:#C82117;}
	.st2{fill:#FFFFFF;}
	.st3{fill:#C82117;stroke:#C82117;stroke-miterlimit:10;}
	.st4{font-family:'MyriadPro-Regular';}
	.st5{font-size:14px;}
	.st6{letter-spacing:1;}
</style>
<path class="st0" d="M134.5,80.2C98.7,141.7,122.9,151.7,119,214c16.4,12.6,43.5,12.6,57.5-2.9c-9.7-34.8,17.4-79.2-16.4-131
	C151.4,82.6,141.7,83.1,134.5,80.2z"/>
<g>
	<rect x="138.4" y="63.1" class="st1" width="17.5" height="6.2"/>
	<g>
		<path class="st1" d="M155.9,61.8c-5.8,0-11.7,0-17.5,0c2.5,2.5,5,5,7.5,7.5c0-2.1,0-4.2,0-6.2c-2.5,2.5-5,5-7.5,7.5
			c5.8,0,11.7,0,17.5,0c-2.5-2.5-5-5-7.5-7.5c0,2.1,0,4.2,0,6.2c0,9.7,15,9.7,15,0c0-2.1,0-4.2,0-6.2c0-4.1-3.4-7.5-7.5-7.5
			c-5.8,0-11.7,0-17.5,0c-4.1,0-7.5,3.4-7.5,7.5c0,2.1,0,4.2,0,6.2c0,4.1,3.4,7.5,7.5,7.5c5.8,0,11.7,0,17.5,0
			C165.6,76.8,165.6,61.8,155.9,61.8z"/>
	</g>
</g>
<path class="st2" d="M116.1,160c0.6,5,3.2,27.9,3.2,34.1c12.2,5.3,52.2,2.7,54.9,0c0.2-9.5,2.3-31.9,2.5-34.1
	C166.6,163.8,125.7,162.8,116.1,160z"/>
<text transform="matrix(1 0 0 1 127.3749 182.2335)" class="st3 st4 st5 st6">Vittel</text>
</svg>
