<?xml version="1.0" encoding="utf-8"?>
<!-- Generator: Adobe Illustrator 24.1.0, SVG Export Plug-In . SVG Version: 6.00 Build 0)  -->
<svg version="1.1" id="Calque_1" xmlns="http://www.w3.org/2000/svg" xmlns:xlink="http://www.w3.org/1999/xlink" x="0px" y="0px"
	 viewBox="0 0 283.5 283.5" style="enable-background:new 0 0 283.5 283.5;" xml:space="preserve">
<style type="text/css">
	.st0{fill:#9ACEAD;}
	.st1{fill:#006734;}
	.st2{fill:#FFFFFF;}
	.st3{font-family:'MuseoSlab-700';}
	.st4{font-size:16.3319px;}
</style>
<path class="st0" d="M130.3,37.5c1,19-9.2,73.4-15.7,90.2c-4.4,20.5-1,114.6,2.4,120.3c27.6,4.8,37.6,5.2,58.6,0
	c5.2-45.7,4.8-108.6,0-121.4c-6.2-24.8-18.1-66.7-15.2-89C151.9,38.2,135.8,38.9,130.3,37.5z"/>
<path class="st1" d="M130.5,32.6c-0.2-6.8-5.1-17,15.3-16.8c17.3-0.9,15.7,11.8,15.1,16.8C151.5,33.5,136.9,33.9,130.5,32.6z"/>
<path class="st1" d="M112.5,162.9c-3.4-2.8,61.2,4.8,65,0c3.8-4.8,0.7,51.9,0.5,55.4c-0.2,3.5-61.7,4.5-64.2,0
	C112.5,212.6,113.4,167.4,112.5,162.9z"/>
<text transform="matrix(1 0 0 1 118.3563 183.4228)" class="st2 st3 st4">Perrier</text>
</svg>
