<?xml version="1.0" encoding="utf-8"?>
<!-- Generator: Adobe Illustrator 24.1.0, SVG Export Plug-In . SVG Version: 6.00 Build 0)  -->
<svg version="1.1" id="Calque_1" xmlns="http://www.w3.org/2000/svg" xmlns:xlink="http://www.w3.org/1999/xlink" x="0px" y="0px"
	 viewBox="0 0 283.5 283.5" style="enable-background:new 0 0 283.5 283.5;" xml:space="preserve">
<style type="text/css">
	.st0{fill:#7EBA28;}
	.st1{fill:#D9E8E9;}
	.st2{fill:#E4051E;}
	.st3{fill:#00983A;}
</style>
<path class="st0" d="M103.6,101.2c-0.3,8,14,93.7,15.1,95.9c10,6,62,8.9,73.7-1.4c4-14.3,15.4-90.8,16-94.5
	C194.7,100.4,109.9,99.2,103.6,101.2z"/>
<polygon class="st1" points="99.1,96.3 93.9,83.1 214.4,83.1 210.6,96.3 "/>
<path class="st2" d="M155.9,157.9c2.2-2.5,18.6-7.1,17.4,8.3c-1.2,15.4-6.6,23-15.9,17.4c-6.2,6.4-16.2-3.7-16.5-17.9
	C140.5,151.5,155.9,157.9,155.9,157.9z"/>
<path class="st3" d="M155.2,155.3c-3.7,2.3-13.7-14.6,0.8-6.2C162.2,136.5,177.9,141.1,155.2,155.3z"/>
</svg>
