<?xml version="1.0" encoding="utf-8"?>
<!-- Generator: Adobe Illustrator 24.1.0, SVG Export Plug-In . SVG Version: 6.00 Build 0)  -->
<svg version="1.1" id="Calque_1" xmlns="http://www.w3.org/2000/svg" xmlns:xlink="http://www.w3.org/1999/xlink" x="0px" y="0px"
	 viewBox="0 0 283.5 283.5" style="enable-background:new 0 0 283.5 283.5;" xml:space="preserve">
<style type="text/css">
	.st0{fill:#FFFFFF;}
	.st1{fill:#A6203B;}
	.st2{fill:#CC132A;}
</style>
<path class="st0" d="M82.9,40.7c14.3,1.6,95.1,1.6,103.6,0c-2.1,11.2,10.1,30.8,10.6,32.4c0.5,26.6,0.5,168.4,0,175.3
	c-10.1,6.9-17.5,8-21.2,12.2c-41.4,0-78.6,0.5-82.3,0c-5.8-3.2-17-11.2-20.7-13.3c-0.3-21.8,1.1-166.3,0-173.7
	C75.5,67.3,87.7,47.7,82.9,40.7z"/>
<path class="st1" d="M101.4,123.9L74,138.6l-1,28.7l36.6-19.1C106.4,143.4,101.6,129.6,101.4,123.9z"/>
<path class="st1" d="M147.9,99.2l49.2-26.1l0.3,28.4l-26.1,13.9c0.2-5.6-1.2-16.4-1.7-17.8C163.7,99,151.1,100.6,147.9,99.2z"/>
<path class="st2" d="M73,170.1l-0.2,77.3l5.8,3.7l113.6,0.4l4.9-3l0.3-144l-26.1,13.3c-0.6,33.9-26.6,50.3-35.2,53.6
	c-6.7-2.9-24.3-17.3-25.6-20.7C108.4,151.5,73.8,169.6,73,170.1z"/>
<polygon class="st0" points="86.5,181.3 93.2,178 100.1,178 100.1,199.7 94.9,202.8 83.5,202.8 90.1,199.2 94.7,199.2 94.5,181.7 
	"/>
<polygon class="st0" points="103.1,183.8 103.1,199.7 108.8,199.7 112.1,197.8 112.1,199.7 114.8,199.7 120.9,196.1 117.9,196 
	118,183.8 112,183.8 112,195.8 108.7,195.8 108.6,183.8 "/>
<polygon class="st0" points="121.5,183.8 121.5,206.5 127.4,203.5 127.4,199.7 130.7,199.7 136.4,196.7 136.4,183.8 130.5,183.8 
	127.4,185.5 127,183.8 "/>
<rect x="127.3" y="188" class="st2" width="3" height="7.9"/>
<rect x="138.9" y="178" class="st0" width="5.8" height="3.5"/>
<rect x="138.9" y="183.8" class="st0" width="5.8" height="15.9"/>
<rect x="147.1" y="178" class="st0" width="5.9" height="21.7"/>
<polygon class="st0" points="169.3,199.7 160.7,199.7 155.3,196.5 155.3,183.8 165.8,183.8 169.3,185.8 169.3,193.8 160.8,193.7 
	160.8,195.2 "/>
<rect x="161" y="188" class="st2" width="3" height="2.2"/>
<polygon class="st0" points="172.2,183.8 172.2,199.7 177.7,199.7 177.7,188 181.1,188 181.1,190.7 187.1,188 187.1,183.8 
	181.3,183.8 178.1,185.7 177.8,183.8 "/>
<path class="st2" d="M104.6,99.3c6.3,2.3,26.9,3.6,31.8-3c6.2,5.4,23.2,6,31.3,3.6c5.6,27.1-3.7,54.9-31.3,69
	C112,158.3,97.5,131.3,104.6,99.3z"/>
</svg>
