<?xml version="1.0" encoding="utf-8"?>
<!-- Generator: Adobe Illustrator 24.1.0, SVG Export Plug-In . SVG Version: 6.00 Build 0)  -->
<svg version="1.1" id="Calque_1" xmlns="http://www.w3.org/2000/svg" xmlns:xlink="http://www.w3.org/1999/xlink" x="0px" y="0px"
	 viewBox="0 0 283.5 283.5" style="enable-background:new 0 0 283.5 283.5;" xml:space="preserve">
<style type="text/css">
	.st0{fill:#FFFFFF;stroke:#000000;stroke-width:0.25;stroke-miterlimit:10;}
	.st1{fill:#E73633;}
	.st2{fill:#FBB900;}
	.st3{fill:#FEC900;}
	.st4{fill:#FFFFFF;}
	.st5{font-family:'Roboto-Black';}
	.st6{font-size:10.8344px;}
</style>
<path class="st0" d="M63.2,75.9L48.6,243.2l193.2-7.7L207.1,76.9C180.6,118.4,96.2,119.6,63.2,75.9z"/>
<path class="st1" d="M109.7,125c9,0,64.4,2.4,69.3-2.9c2.4,11.8,19.6,104,11,115.4l-85.6,3.4C104.8,228.1,112.5,130.3,109.7,125z"/>
<path class="st2" d="M62.5,40.1c-7.9,74.3,145.6,81.4,145.6,2.7c-0.5-1.7-0.4-2.4-3.2-2c-2.9,0.1-7.9-1-8.4,0.7
	c-0.5,3-0.8,6-1.4,6.6c0.7-1.8,0.6-6.1-0.5-6.1c-2.6-0.4-11.9-3.1-12.9-0.4s-1.9,4-2.3,4.8c0.6-2.6,4-11.3,4.3-12.1
	c0-2.5-1.8-3.2-3.4-3.3s-9.3-2.1-10.1,0.7c-0.8,2.8-4.9,13.5-6.1,13.6s0.5-10.1,1-10.2c0.5-0.1-12-4.9-13.7-0.4
	c-1.7,4.5-2.6,9.7-3.5,8.6c-0.8-1.1-0.4-17.3-1.2-17.8c0-1.3,0.4-4.5-5.4-3.8c-5.8,0.6-9.5-1.7-9.4,6.9c-9.3,1.6-8.8-0.9-9.4,12.2
	c-2.9-3.2-3.5-8.1-4.7-8.4c-1.2-0.3-11.7-0.8-11.4,3.5c0.2,4.3,0.5,10.9,1.1,11.4c-1.3-2-7.3-15.2-7.5-16.4
	c-0.4-2.3-12.8-0.6-12.9,1.7c0.7,2.4,3.2,13,3.7,13.5c-1.4-2.3-2.4-6.7-4.5-6.4c-2,0.3-10.2,0-10.2,3.2c0,2.5-0.1,5.4,0.2,5.9
	c-1-3.1,0-10-6.3-9.8C67.2,39.3,65.5,38.6,62.5,40.1z"/>
<path class="st3" d="M153.8,216h-7.1c0.1-1.3,0-2.5,0-2.8h7.1C153.7,214,153.6,215.2,153.8,216z"/>
<path class="st3" d="M146.4,203.5h7.7c3-51.5,19.1-38.5,18,16.1h7.7c-1.5-47.8-17.6-70.7-29.6-35.5c-11.1-36.5-29.6-9.4-29.3,35.5
	h7.3C128.9,167.4,142,149.7,146.4,203.5z"/>
<text transform="matrix(1 0 0 1 131.7788 212.3026)" class="st4 st5 st6">McData</text>
</svg>
