<?xml version="1.0" encoding="utf-8"?>
<!-- Generator: Adobe Illustrator 24.1.0, SVG Export Plug-In . SVG Version: 6.00 Build 0)  -->
<svg version="1.1" id="Calque_1" xmlns="http://www.w3.org/2000/svg" xmlns:xlink="http://www.w3.org/1999/xlink" x="0px" y="0px"
	 viewBox="0 0 283.5 283.5" style="enable-background:new 0 0 283.5 283.5;" xml:space="preserve">
<style type="text/css">
	.st0{fill:#E5281E;}
	.st1{fill:#FBB900;}
	.st2{fill:#FEC900;}
	.st3{fill:#FFFFFF;}
	.st4{font-family:'Roboto-Black';}
	.st5{font-size:10.8344px;}
</style>
<path class="st0" d="M102.5,254.8c17.6-9.8,53.3-7.8,73.5,0c9.2,10.8,7.9-51.9,28.2-112c0.3-3,0.5-5.8-1.3-4.2
	c-2.3-0.5-4.9-2.4-6.4-0.4c-6.7,42.6-93.6,50.6-109.3,0.7c-1-5.4-1.6-2.7-2.9-2.7c-3.4,0.6-5.4,0-5.3,3
	C81.3,150.2,98.7,252.4,102.5,254.8z"/>
<path class="st1" d="M89.5,110.7c-5.8,74.3,105.8,81.4,105.8,2.7c-0.4-1.7-0.3-2.4-2.3-2c-2.1,0.1-5.8-1-6.1,0.7c-0.3,3-0.6,6-1,6.6
	c0.5-1.8,0.4-6.1-0.3-6.1c-1.9-0.4-8.7-3.1-9.4-0.4c-0.7,2.6-1.4,4-1.7,4.8c0.4-2.6,2.9-11.3,3.1-12.1c0-2.5-1.3-3.2-2.4-3.3
	c-1.1-0.1-6.7-2.1-7.3,0.7c-0.6,2.8-3.6,13.5-4.5,13.6c-0.9,0.1,0.3-10.1,0.7-10.2c0.3-0.1-8.7-4.9-10-0.4c-1.2,4.5-1.9,9.7-2.5,8.6
	s-0.3-17.3-0.9-17.8c0-1.3,0.3-4.5-3.9-3.8c-4.2,0.6-6.9-1.7-6.8,6.9c-6.7,1.6-6.4-0.9-6.8,12.2c-2.1-3.2-2.5-8.1-3.4-8.4
	c-0.9-0.3-8.5-0.8-8.3,3.5c0.2,4.3,0.3,10.9,0.8,11.4c-1-2-5.3-15.2-5.4-16.4c-0.3-2.3-9.3-0.6-9.4,1.7c0.5,2.4,2.4,13,2.7,13.5
	c-1-2.3-1.7-6.7-3.2-6.4s-7.4,0-7.4,3.2c0,2.5-0.1,5.4,0.2,5.9c-0.7-3.1,0-10-4.5-9.8C92.9,109.9,91.7,109.2,89.5,110.7z"/>
<path class="st2" d="M145.1,232.2h-7.1c0.1-1.3,0-2.5,0-2.8h7.1C145.1,230.3,145,231.4,145.1,232.2z"/>
<path class="st2" d="M137.8,219.7h7.7c3-51.5,19.1-38.5,18,16.1h7.7c-1.5-47.8-17.6-70.7-29.6-35.5c-11.1-36.5-29.6-9.4-29.3,35.5
	h7.3C120.3,183.6,133.4,165.9,137.8,219.7z"/>
<text transform="matrix(1 0 0 1 123.1554 228.5078)" class="st3 st4 st5">McData</text>
</svg>
