<?xml version="1.0" encoding="utf-8"?>
<!-- Generator: Adobe Illustrator 24.1.0, SVG Export Plug-In . SVG Version: 6.00 Build 0)  -->
<svg version="1.1" id="Calque_1" xmlns="http://www.w3.org/2000/svg" xmlns:xlink="http://www.w3.org/1999/xlink" x="0px" y="0px"
	 viewBox="0 0 283.5 283.5" style="enable-background:new 0 0 283.5 283.5;" xml:space="preserve">
<style type="text/css">
	.st0{fill:#E5281E;}
	.st1{fill:#FBB900;}
	.st2{fill:#FEC900;}
	.st3{fill:#FFFFFF;}
	.st4{font-family:'Roboto-Black';}
	.st5{font-size:17.023px;}
</style>
<path class="st0" d="M84.4,259.8c25.7-14.4,77.9-11.3,107.4,0c13.4,15.8,11.6-75.9,41.2-163.6c0.4-4.3,0.8-8.5-1.9-6.2
	c-3.4-0.8-7.1-3.5-9.4-0.6c-9.8,62.3-136.8,73.9-159.7,1c-1.5-7.8-2.4-4-4.3-4c-4.9,0.8-8,0-7.7,4.4
	C53.4,106.9,78.8,256.3,84.4,259.8z"/>
<path class="st1" d="M65.3,49.2c-8.4,108.5,154.6,118.9,154.6,4c-0.5-2.5-0.4-3.5-3.4-2.9c-3.1,0.1-8.4-1.5-8.9,1
	c-0.5,4.3-0.9,8.8-1.5,9.6c0.7-2.6,0.6-8.9-0.5-8.9c-2.8-0.6-12.7-4.5-13.7-0.6c-1,3.8-2,5.9-2.4,7c0.6-3.8,4.2-16.5,4.6-17.6
	c0-3.7-1.9-4.7-3.6-4.9c-1.7-0.1-9.8-3.1-10.7,1s-5.2,19.7-6.5,19.8c-1.3,0.1,0.5-14.8,1-15c0.5-0.1-12.8-7.2-14.6-0.6
	s-2.8,14.2-3.7,12.5c-0.9-1.7-0.4-25.3-1.3-26.1c0-1.9,0.4-6.5-5.8-5.6c-6.1,0.9-10.1-2.4-10,10.1c-9.8,2.3-9.3-1.3-10,17.8
	c-3.1-4.7-3.7-11.9-5-12.3c-1.3-0.4-12.4-1.2-12.1,5.1s0.5,16,1.2,16.6c-1.4-2.9-7.8-22.2-7.9-24c-0.4-3.3-13.5-0.9-13.7,2.4
	c0.8,3.6,3.5,19,4,19.7c-1.5-3.3-2.6-9.8-4.7-9.3c-2.2,0.5-10.9,0-10.9,4.7c0,3.7-0.1,7.9,0.3,8.7c-1-4.5,0-14.6-6.6-14.3
	C70.4,48,68.6,47,65.3,49.2z"/>
<path class="st2" d="M145.1,232.9h-11.1c0.2-2,0-3.9,0-4.4h11.1C145.1,229.9,144.8,231.7,145.1,232.9z"/>
<path class="st2" d="M133.5,213.3h12.1c4.7-81,29.9-60.5,28.3,25.3H186c-2.3-75.1-27.7-111.1-46.5-55.8
	C122.1,125.6,93,168,93.4,238.6h11.5C106.1,156.5,126.6,128.8,133.5,213.3z"/>
<text transform="matrix(1 0 0 1 110.5444 227.1204)" class="st3 st4 st5">McData</text>
</svg>
