<?xml version="1.0" encoding="utf-8"?>
<!-- Generator: Adobe Illustrator 24.1.0, SVG Export Plug-In . SVG Version: 6.00 Build 0)  -->
<svg version="1.1" id="Calque_1" xmlns="http://www.w3.org/2000/svg" xmlns:xlink="http://www.w3.org/1999/xlink" x="0px" y="0px"
	 viewBox="0 0 283.5 283.5" style="enable-background:new 0 0 283.5 283.5;" xml:space="preserve">
<style type="text/css">
	.st0{fill:#EF7800;}
	.st1{fill:#BDC7C9;}
	.st2{fill:none;}
	.st3{fill:#FFFFFF;}
	.st4{font-family:'MuseoSlab-700';}
	.st5{font-size:26px;}
	.st6{fill:#FEC900;}
	.st7{font-family:'Roboto-Black';}
	.st8{font-size:10.8344px;}
</style>
<path class="st0" d="M82.6,234.9c-6.5,0.9-27,2.8-29.8-26.1C50,159.6,43.5,81.4,43.5,72.1s3.7-18.6,19.5-18.6s121,0,121,0
	c11.2,0.9,22.3,0,25.1,14c2.8,14,24.2,141.5,24.2,141.5c2.8,15.8,1.9,26.9-17.7,26.5S82.6,234.9,82.6,234.9z"/>
<path class="st1" d="M63.1,239.6c5.6,7.4,22.4,15.8,31.4,15.8s68.3,0,76.1,0c7.8,0,25.5-10,26.2-12.7S63.1,239.6,63.1,239.6z"/>
<g>
	<rect x="49.8" y="97.9" class="st2" width="170.8" height="39.1"/>
	<text transform="matrix(1 0 0 1 49.7519 116.376)" class="st3 st4 st5">MAYO CHILI</text>
</g>
<g>
	<path class="st6" d="M147.1,205.8h-7.1c0.1-1.3,0-2.5,0-2.8h7.1C147.1,203.9,147,205.1,147.1,205.8z"/>
	<path class="st6" d="M139.8,193.4h7.7c3-51.5,19.1-38.5,18,16.1h7.7c-1.5-47.8-17.6-70.7-29.6-35.5c-11.1-36.5-29.6-9.4-29.3,35.5
		h7.3C122.3,157.2,135.4,139.6,139.8,193.4z"/>
	<text transform="matrix(1 0 0 1 125.1751 202.1947)" class="st3 st7 st8">McData</text>
</g>
</svg>
