<?xml version="1.0" encoding="utf-8"?>
<!-- Generator: Adobe Illustrator 24.1.0, SVG Export Plug-In . SVG Version: 6.00 Build 0)  -->
<svg version="1.1" id="Calque_1" xmlns="http://www.w3.org/2000/svg" xmlns:xlink="http://www.w3.org/1999/xlink" x="0px" y="0px"
	 viewBox="0 0 283.5 283.5" style="enable-background:new 0 0 283.5 283.5;" xml:space="preserve">
<style type="text/css">
	.st0{fill:#005738;}
	.st1{fill:#BDC7C9;}
	.st2{fill:#FFFFFF;}
	.st3{fill:#FEC900;}
	.st4{font-family:'Roboto-Black';}
	.st5{font-size:10.8344px;}
</style>
<path class="st0" d="M82.6,234.9c-6.5,0.9-27,2.8-29.8-26.1C50,159.6,43.5,81.4,43.5,72.1s3.7-18.6,19.5-18.6s121,0,121,0
	c11.2,0.9,22.3,0,25.1,14c2.8,14,24.2,141.5,24.2,141.5c2.8,15.8,1.9,26.9-17.7,26.5S82.6,234.9,82.6,234.9z"/>
<path class="st1" d="M63.1,239.6c5.6,7.4,22.4,15.8,31.4,15.8s68.3,0,76.1,0c7.8,0,25.5-10,26.2-12.7S63.1,239.6,63.1,239.6z"/>
<g>
	<path class="st2" d="M92.5,115.1h2.4v-14.4h-2.4v-2.8h9.5c1.2,0,2.4,0.1,3.4,0.5c2.2,0.9,3.6,3.1,3.6,5.9c0,2.8-1.5,5.2-3.8,6
		c-0.9,0.3-1.9,0.4-3.1,0.4h-3.6v4.3h2.4v2.7h-8.5V115.1z M101.6,107.8c0.8,0,1.5-0.1,2-0.4c1.1-0.5,1.6-1.7,1.6-3.1
		c0-1.4-0.5-2.4-1.5-3c-0.6-0.3-1.3-0.5-2.2-0.5h-3.1v6.9H101.6z"/>
	<path class="st2" d="M110.2,115.1h2.4v-14.4h-2.4v-2.8h14.8v5.1h-3.1v-2.2h-5.6v5.5h6.6v2.9h-6.6v5.6h6v-2.2h3.1v5.2h-15.2V115.1z"
		/>
	<path class="st2" d="M130.5,111.4v1.5c0,1.3,1.6,2,3.5,2c2,0,3.4-0.9,3.4-2.5c0-2-2.3-2.7-4.6-3.6c-2.7-1-5.3-2.2-5.3-5.8
		c0-4,3.2-5.5,6.7-5.5c3.1,0,6.3,1.2,6.3,3.5v2.6h-3.3v-1.3c0-1-1.5-1.5-3-1.5c-1.6,0-3,0.7-3,2.2c0,1.8,1.8,2.5,3.9,3.2
		c3,1.1,5.9,2.2,5.9,6c0,4.1-3.4,5.9-7.2,5.9c-3.3,0-6.8-1.5-6.8-4.5v-2.3H130.5z"/>
	<path class="st2" d="M146.9,115.1h2.4v-14.2h-3.8v3h-3.1v-5.9h17.4v5.9h-3.1v-3H153v14.2h2.4v2.7h-8.5V115.1z"/>
	<path class="st2" d="M171.2,97.6c5.9,0,10.3,4.5,10.3,10.1c0,5.9-4.4,10.4-10.3,10.4s-10.3-4.6-10.3-10.4
		C160.9,102,165.4,97.6,171.2,97.6z M171.2,114.9c3.6,0,6.5-3.1,6.5-7.2c0-3.9-2.9-6.9-6.5-6.9s-6.5,3-6.5,6.9
		C164.7,111.8,167.7,114.9,171.2,114.9z"/>
</g>
<path class="st3" d="M142.4,200.3h-7.1c0.1-1.3,0-2.5,0-2.8h7.1C142.4,198.4,142.3,199.6,142.4,200.3z"/>
<path class="st3" d="M135,187.9h7.7c3-51.5,19.1-38.5,18,16.1h7.7c-1.5-47.8-17.6-70.7-29.6-35.5c-11.1-36.5-29.6-9.4-29.3,35.5h7.3
	C117.6,151.7,130.7,134.1,135,187.9z"/>
<text transform="matrix(1 0 0 1 120.4458 196.6963)" class="st2 st4 st5">McData</text>
</svg>
