<?xml version="1.0" encoding="utf-8"?>
<!-- Generator: Adobe Illustrator 24.1.0, SVG Export Plug-In . SVG Version: 6.00 Build 0)  -->
<svg version="1.1" id="Calque_1" xmlns="http://www.w3.org/2000/svg" xmlns:xlink="http://www.w3.org/1999/xlink" x="0px" y="0px"
	 viewBox="0 0 283.5 283.5" style="enable-background:new 0 0 283.5 283.5;" xml:space="preserve">
<style type="text/css">
	.st0{fill:#FFFFFF;}
	.st1{fill:#F07E00;}
	.st2{fill:#AF4317;}
	.st3{fill:#FEC900;}
	.st4{font-family:'Roboto-Black';}
	.st5{font-size:4.513px;}
</style>
<polygon class="st0" points="37.9,143.8 148.3,104.8 245.5,143.8 129.8,192 43.7,155.4 "/>
<path class="st1" d="M132.1,169.1c2.2-5.4,4.2-8.9,22.5-7.9S174,151,176,149.6c2-1.3,15.6-1.8,16.4,0.9c7.1-1.6,63.5-18.6,15.6,17.5
	c-9.4,9.1-37.6,16.2-42.4,27.5c-4.8,11.3-47.7,27.5-40.6,0.5C122.9,191.8,104.5,177.1,132.1,169.1z"/>
<path class="st1" d="M141.8,111c4.1-2.1,7-3.1,15.7,6s15.3,3.2,17,3.4c1.7,0.1,8.8,6.3,7.8,8.2c4.5,2.4,42.1,19.1-1.8,17.3
	c-9.7,0.8-27.7-8.3-36.4-4.1c-8.6,4.2-39-6.6-20.7-18.7C124.8,119.7,123.5,102.7,141.8,111z"/>
<path class="st1" d="M82.9,177.6c-21.2-5.9-35.2-21.8-10.6-28.1s8.7-16.8,27.1-3.8c4.2,0,4.2-1.3,9.8,1.4
	c10.7,0.2,12.1,2.7,18.1-1.4c9.8-0.4,32,5.9,10.2,12.8c-7.5,1-14.7-0.3-19.7,7.3C110.3,171.4,89.1,179.7,82.9,177.6z"/>
<polygon class="st2" points="134.9,189.4 134.9,240.2 231.3,183.7 245.5,143.8 "/>
<polygon class="st2" points="134.9,189.4 129.8,192 43.7,155.4 37.9,143.8 48.2,189.4 134.9,240.2 "/>
<path class="st3" d="M110,219.2l-2.5-1.4c0.2-0.6,0.3-1.2,0.3-1.4l2.5,1.4C110.3,218.3,110.1,218.8,110,219.2z"/>
<path class="st3" d="M109,213l2.7,1.6c7.3-24.4,11.3-14.8,4.3,11.5l2.7,1.6c5.3-23.5,2.4-37.9-6.1-23.3c0.5-20-9.2-10.6-14.5,11.2
	l2.6,1.5C107.2,191.9,113.9,186,109,213z"/>
<text transform="matrix(0.8478 0.4671 -0.2161 0.9764 103.0124 213.6142)" class="st0 st4 st5">McData</text>
</svg>
