<?xml version="1.0" encoding="utf-8"?>
<!-- Generator: Adobe Illustrator 24.1.0, SVG Export Plug-In . SVG Version: 6.00 Build 0)  -->
<svg version="1.1" id="Calque_1" xmlns="http://www.w3.org/2000/svg" xmlns:xlink="http://www.w3.org/1999/xlink" x="0px" y="0px"
	 viewBox="0 0 283.5 283.5" style="enable-background:new 0 0 283.5 283.5;" xml:space="preserve">
<style type="text/css">
	.st0{fill:#FFFFFF;}
	.st1{fill:#AF4317;}
	.st2{fill:#FBB900;}
	.st3{fill:#FEC900;}
	.st4{font-family:'Roboto-Black';}
	.st5{font-size:4.513px;}
</style>
<polygon class="st0" points="40.6,133.1 150.9,94.2 248.2,133.1 132.5,181.3 46.4,144.7 "/>
<polygon class="st1" points="137.6,178.8 137.6,229.5 234,173 248.2,133.1 "/>
<path class="st2" d="M84.8,152.2L41.7,130c0-26.8,20.8-33.1,32.2-30.2s45.1-1.3,49.1-0.6c4,0.6,14.3,15.5,4.6,18.9
	S81.4,104.9,84.8,152.2z"/>
<path class="st2" d="M90.8,155.9l41.6,15.4l41.6-18.3c0.6-12,2.9-26.4-10.8-29.4c-13.7-5.4-30.2-6.6-35.9,0
	C102.2,124.6,86.2,130.8,90.8,155.9z"/>
<path class="st2" d="M181.3,150.2l55.9-22.8c2.3-10.8,3.5-36.5-17.1-21.7C203.6,105.2,177.6,100.5,181.3,150.2z"/>
<path class="st2" d="M138.6,114.6c2.1,4.6,36.4-0.6,37,6.6c1.2-12.3,36.6-24.5,42.9-22.1c0.6-8.4-21.8-22.7-42.9-7.3
	C161.4,91.2,124.9,84.4,138.6,114.6z"/>
<polygon class="st1" points="137.6,178.8 132.5,181.3 46.4,144.7 40.6,133.1 50.9,178.8 137.6,229.5 "/>
<path class="st3" d="M112.7,208.6l-2.5-1.4c0.2-0.6,0.3-1.2,0.3-1.4l2.5,1.4C112.9,207.6,112.8,208.2,112.7,208.6z"/>
<path class="st3" d="M111.6,202.4l2.7,1.6c7.3-24.4,11.3-14.8,4.3,11.5l2.7,1.6c5.3-23.5,2.4-37.9-6.1-23.3
	c0.5-20-9.2-10.6-14.5,11.2l2.6,1.5C109.9,181.2,116.6,175.4,111.6,202.4z"/>
<text transform="matrix(0.8478 0.4671 -0.2161 0.9764 105.6973 202.9576)" class="st0 st4 st5">McData</text>
</svg>
