<?xml version="1.0" encoding="utf-8"?>
<!-- Generator: Adobe Illustrator 24.1.0, SVG Export Plug-In . SVG Version: 6.00 Build 0)  -->
<svg version="1.1" id="Calque_1" xmlns="http://www.w3.org/2000/svg" xmlns:xlink="http://www.w3.org/1999/xlink" x="0px" y="0px"
	 viewBox="0 0 283.5 283.5" style="enable-background:new 0 0 283.5 283.5;" xml:space="preserve">
<style type="text/css">
	.st0{fill:#FFFFFF;}
	.st1{fill:#E8D7C1;}
	.st2{fill:#FBB907;}
	.st3{fill:#FEC900;}
	.st4{fill:#E41929;}
	.st5{font-family:'Roboto-Black';}
	.st6{font-size:4.513px;}
</style>
<polygon class="st0" points="40.6,133.1 150.9,94.2 248.2,133.1 132.5,181.3 46.4,144.7 "/>
<polygon class="st1" points="137.6,178.8 137.6,229.5 234,173 248.2,133.1 "/>
<path class="st2" d="M88.9,159.7l-41.1-17.8c0-21.5,19.8-26.5,30.7-24.3s43-1,46.8-0.5s13.6,12.4,4.4,15.1S85.7,121.7,88.9,159.7z"
	/>
<path class="st2" d="M97.8,165.5l34.8,12.9l34.8-15.3c0.5-10,2.4-22.1-9.1-24.6c-11.5-4.5-25.3-5.5-30.1,0
	C107.3,139.2,94,144.5,97.8,165.5z"/>
<path class="st2" d="M173.5,160.7l46.8-19.1c1.9-9.1,3-30.5-14.3-18.1C192.1,123,170.4,119.1,173.5,160.7z"/>
<path class="st2" d="M137.7,130.9c1.8,3.9,30.4-0.5,31,5.5c1-10.3,30.6-20.5,35.8-18.5c0.5-7.1-18.3-19-35.8-6.1
	C156.8,111.3,126.3,105.6,137.7,130.9z"/>
<path class="st2" d="M131.9,114.5c4,8.2-18-16.4-22.5-15.2c-4.5,1.1,17.7-13,25.8-6.8c6.9-5.1,36.3-5.1,32.6,5.1
	C152.3,101,128.7,107.8,131.9,114.5z"/>
<path class="st2" d="M119,116.2c-5.6-2.2-39.5-0.5-39.5-4.5s2.3-14.7,5.1-14.1c2.8,0.6,13-8.5,14.7-4.5C101,97,119,116.2,119,116.2z
	"/>
<polygon class="st1" points="137.6,178.8 132.5,181.3 46.4,144.7 40.6,133.1 50.9,178.8 137.6,229.5 "/>
<path class="st3" d="M107.9,202.9l-2.5-1.4c0.2-0.6,0.3-1.2,0.3-1.4l2.5,1.4C108.1,202,107.9,202.5,107.9,202.9z"/>
<path class="st3" d="M106.8,196.7l2.7,1.6c7.3-24.4,11.3-14.8,4.3,11.5l2.7,1.6c5.3-23.5,2.4-37.9-6.1-23.3
	c0.5-20-9.2-10.6-14.5,11.2l2.6,1.5C105,175.6,111.7,169.7,106.8,196.7z"/>
<text transform="matrix(0.8478 0.4671 -0.2161 0.9764 100.8337 197.2823)" class="st4 st5 st6">McData</text>
</svg>
