<?xml version="1.0" encoding="utf-8"?>
<!-- Generator: Adobe Illustrator 24.1.0, SVG Export Plug-In . SVG Version: 6.00 Build 0)  -->
<svg version="1.1" id="Calque_1" xmlns="http://www.w3.org/2000/svg" xmlns:xlink="http://www.w3.org/1999/xlink" x="0px" y="0px"
	 viewBox="0 0 283.5 283.5" style="enable-background:new 0 0 283.5 283.5;" xml:space="preserve">
<style type="text/css">
	.st0{fill:#FFFFFF;}
	.st1{fill:#DD710E;}
	.st2{fill:#AF4317;}
	.st3{fill:#FEC900;}
	.st4{font-family:'Roboto-Black';}
	.st5{font-size:4.513px;}
</style>
<polygon class="st0" points="40.6,133.1 150.9,94.2 248.2,133.1 132.5,181.3 46.4,144.7 "/>
<path class="st1" d="M126.8,94.4c-10.1,8.7-4.5,13.7-21.2,19.4c-22,9.7-25.2-0.3-29.2,27.7c0.6,9.2,9.2,19.3,28.8,15.8
	c7-1.3,10.1-20.3,10.5-23.6c6-8,8.6-11.3,10.1-11c4.1-1.4,5.6-5.5,5.4-6.1c1.5,1.4,10.7-5.1,9.1-13.6c-1.2-1-0.8-1.8-4.6-3.3
	C135.9,96.6,131.6,93.2,126.8,94.4z"/>
<path class="st1" d="M186,131.7c-10.1,8.7-4.5,13.7-21.2,19.4c-22,9.7-25.2-0.3-29.2,27.7c0.6,9.2,9.2,19.3,28.8,15.8
	c7-1.3,10.1-20.3,10.5-23.6c6-8,8.6-11.3,10.1-11c4.1-1.4,5.6-5.5,5.4-6.1c1.5,1.4,10.7-5.1,9.1-13.6c-1.2-1-0.8-1.8-4.6-3.3
	C195.1,133.9,190.8,130.6,186,131.7z"/>
<path class="st1" d="M133.5,164c9.5-9.3,3.6-14,19.8-20.8c21.3-11.2,25.2-1.5,27.2-29.6c-1.2-9.1-10.5-18.7-29.8-13.8
	c-6.9,1.8-8.6,20.9-8.8,24.3c-5.4,8.4-7.8,11.9-9.3,11.7c-4,1.7-5.2,5.9-5,6.5c-1.6-1.3-10.3,5.8-8.2,14.2c1.3,0.9,1,1.8,4.8,2.9
	C124.2,162.5,128.8,165.5,133.5,164z"/>
<polygon class="st2" points="137.6,178.8 137.6,229.5 234,173 248.2,133.1 "/>
<polygon class="st2" points="137.6,178.8 132.5,181.3 46.4,144.7 40.6,133.1 50.9,178.8 137.6,229.5 "/>
<path class="st3" d="M112.7,208.6l-2.5-1.4c0.2-0.6,0.3-1.2,0.3-1.4l2.5,1.4C112.9,207.6,112.8,208.2,112.7,208.6z"/>
<path class="st3" d="M111.6,202.4l2.7,1.6c7.3-24.4,11.3-14.8,4.3,11.5l2.7,1.6c5.3-23.5,2.4-37.9-6.1-23.3
	c0.5-20-9.2-10.6-14.5,11.2l2.6,1.5C109.9,181.2,116.6,175.4,111.6,202.4z"/>
<text transform="matrix(0.8478 0.4671 -0.2161 0.9764 105.6973 202.9576)" class="st0 st4 st5">McData</text>
</svg>
