<?xml version="1.0" encoding="utf-8"?>
<!-- Generator: Adobe Illustrator 24.1.0, SVG Export Plug-In . SVG Version: 6.00 Build 0)  -->
<svg version="1.1" id="Calque_1" xmlns="http://www.w3.org/2000/svg" xmlns:xlink="http://www.w3.org/1999/xlink" x="0px" y="0px"
	 viewBox="0 0 283.5 283.5" style="enable-background:new 0 0 283.5 283.5;" xml:space="preserve">
<style type="text/css">
	.st0{fill:#FFFFFF;}
	.st1{fill:#DD710E;}
	.st2{fill:#DB461E;}
	.st3{fill:#FEC900;}
	.st4{font-family:'Roboto-Black';}
	.st5{font-size:5.646px;}
</style>
<polygon class="st0" points="10.7,108.9 148.7,60.2 270.4,108.9 125.6,169.2 17.9,123.5 "/>
<path class="st1" d="M85.5,159.1c10.1,4.7,12-1.3,22.1,9.4c15,13.4,8.5,19.3,31.1,12.7c6.8-3.6,11.6-13.6,2.1-27.3
	c-3.4-4.9-18.9-0.7-21.6,0.2c-8.2-1.8-11.6-2.6-11.9-3.9c-2.5-2.7-6.1-2.3-6.5-2c0.5-1.6-7.6-6.4-13.5-2.3c-0.3,1.3-1.1,1.3-0.9,4.6
	C84.1,151.4,83,155.8,85.5,159.1z"/>
<path class="st1" d="M27.9,132.2c10.1,4.7,12-1.3,22.1,9.4c15,13.4,8.5,19.3,31.1,12.7c6.8-3.6,11.6-13.6,2.1-27.3
	c-3.4-4.9-18.9-0.7-21.6,0.2c-8.2-1.8-11.6-2.6-11.9-3.9c-2.5-2.7-6.1-2.3-6.5-2c0.5-1.6-7.6-6.4-13.5-2.3c-0.3,1.3-1.1,1.3-0.9,4.6
	C26.4,124.5,25.4,128.9,27.9,132.2z"/>
<path class="st1" d="M197.2,100.9c8.3,7.4,11.9,2.2,18.5,15.3c10.6,17.1,2.7,20.9,26.2,21c7.5-1.5,14.9-9.8,9.7-25.6
	c-1.9-5.6-17.9-6-20.7-5.9c-7.3-4-10.3-5.8-10.3-7.1c-1.6-3.3-5.2-4-5.7-3.8c1-1.4-5.5-8.2-12.3-6c-0.7,1.1-1.4,0.9-2.2,4.2
	C198,93.1,195.7,97.1,197.2,100.9z"/>
<path class="st1" d="M165.1,146.7c-9.7-5.5-12,0.3-21.2-11.2c-13.8-14.6-6.9-19.9-30-15.1c-7,3-12.6,12.7-4.3,27.1
	c3,5.1,18.8,2.2,21.5,1.6c8,2.5,11.3,3.6,11.5,4.8c2.3,2.9,5.9,2.8,6.3,2.5c-0.6,1.6,7,7,13.3,3.3c0.4-1.2,1.2-1.2,1.3-4.5
	C165.9,154.5,167.3,150.2,165.1,146.7z"/>
<path class="st1" d="M109.5,108.5c-10.6-3.3-11.7,2.9-23.1-6.3C69.7,91,75.3,84.3,53.8,93.9c-6.2,4.5-9.6,15.1,1.7,27.3
	c4.1,4.3,18.8-1.9,21.3-3.1c8.4,0.7,11.8,1,12.3,2.2c2.8,2.3,6.4,1.5,6.7,1.1c-0.3,1.7,8.4,5.3,13.7,0.4c0.2-1.3,0.9-1.4,0.3-4.7
	C112.1,115.9,112.5,111.3,109.5,108.5z"/>
<path class="st1" d="M147.2,137c9.3,6.1,12,0.4,20.5,12.4c13,15.4,5.7,20.3,29.1,16.9c7.2-2.6,13.3-11.9,5.9-26.8
	c-2.7-5.3-18.6-3.3-21.4-2.8c-7.9-2.9-11.1-4.2-11.2-5.5c-2.1-3-5.8-3.2-6.2-2.9c0.7-1.5-6.6-7.3-13.1-4.1c-0.5,1.2-1.3,1.1-1.5,4.4
	C146.8,129.2,145.1,133.4,147.2,137z"/>
<path class="st1" d="M222.4,130.3c-8.8-6.8-12-1.4-19.5-14c-11.7-16.4-4.1-20.7-27.6-19.2c-7.4,2-14.3,10.8-8,26.2
	c2.3,5.5,18.3,4.8,21.1,4.5c7.6,3.5,10.7,5.1,10.7,6.4c1.8,3.1,5.5,3.6,5.9,3.4c-0.9,1.5,6,7.9,12.7,5.2c0.6-1.1,1.4-1,1.9-4.3
	C222.2,138.1,224.2,134,222.4,130.3z"/>
<path class="st1" d="M122.1,77c6.9,6.1,9.8,1.8,15.2,12.6c8.7,14.1,2.2,17.2,21.7,17.3c6.2-1.3,12.3-8.1,8-21.1
	c-1.6-4.6-14.8-4.9-17.1-4.9c-6.1-3.3-8.5-4.8-8.5-5.8c-1.3-2.7-4.3-3.3-4.7-3.1c0.8-1.2-4.5-6.8-10.2-4.9c-0.6,0.9-1.2,0.8-1.8,3.4
	C122.8,70.5,120.9,73.8,122.1,77z"/>
<path class="st1" d="M139.9,103.2c-7.3-5.6-9.9-1.1-16.1-11.5c-9.6-13.5-3.4-17-22.8-15.8c-6.1,1.7-11.8,8.9-6.6,21.6
	c1.9,4.5,15.1,3.9,17.4,3.7c6.3,2.9,8.8,4.2,8.9,5.3c1.5,2.6,4.5,3,4.9,2.8c-0.7,1.2,4.9,6.5,10.5,4.3c0.5-0.9,1.1-0.8,1.6-3.5
	C139.7,109.6,141.4,106.3,139.9,103.2z"/>
<polygon class="st2" points="132,166 132,229.5 252.6,158.9 270.4,108.9 "/>
<polygon class="st2" points="132,166 125.6,169.2 17.9,123.5 10.7,108.9 23.5,166 132,229.5 "/>
<path class="st3" d="M94.8,196.2l-3.1-1.8c0.3-0.7,0.4-1.5,0.4-1.7l3.1,1.8C95.1,195.1,94.9,195.7,94.8,196.2z"/>
<path class="st3" d="M93.5,188.4l3.4,2c9.1-30.5,14.1-18.5,5.4,14.4l3.4,2c6.6-29.4,3-47.5-7.6-29.1c0.7-25-11.5-13.3-18.2,14
	l3.2,1.9C91.3,162,99.7,154.7,93.5,188.4z"/>
<text transform="matrix(0.8478 0.4671 -0.2161 0.9764 86.0715 189.1985)" class="st0 st4 st5">McData</text>
</svg>
