<?xml version="1.0" encoding="utf-8"?>
<!-- Generator: Adobe Illustrator 24.1.0, SVG Export Plug-In . SVG Version: 6.00 Build 0)  -->
<svg version="1.1" id="Calque_1" xmlns="http://www.w3.org/2000/svg" xmlns:xlink="http://www.w3.org/1999/xlink" x="0px" y="0px"
	 viewBox="0 0 283.5 283.5" style="enable-background:new 0 0 283.5 283.5;" xml:space="preserve">
<style type="text/css">
	.st0{fill:#FFFFFF;}
	.st1{fill:#DD710E;}
	.st2{fill:#712283;}
	.st3{fill:#FEC900;}
	.st4{font-family:'Roboto-Black';}
	.st5{font-size:4.513px;}
</style>
<polygon class="st0" points="40.6,133.1 150.9,94.2 248.2,133.1 132.5,181.3 46.4,144.7 "/>
<path class="st1" d="M72.2,171.1c12.1,5.7,14.3-1.5,26.4,11.3c17.9,16.1,10.2,23.1,37.2,15.2c8.1-4.3,13.8-16.3,2.5-32.7
	c-4.1-5.8-22.6-0.8-25.8,0.2c-9.8-2.2-13.8-3.2-14.2-4.7c-3-3.2-7.4-2.8-7.8-2.4c0.6-2-9.1-7.6-16.2-2.7c-0.4,1.5-1.3,1.5-1.1,5.5
	C70.4,161.9,69.1,167.2,72.2,171.1z"/>
<path class="st1" d="M167.3,156.4c-11.6-6.6-14.4,0.4-25.4-13.4c-16.6-17.5-8.3-23.8-35.9-18.1c-8.4,3.6-15.1,15.2-5.1,32.4
	c3.6,6.1,22.5,2.6,25.7,1.9c9.6,2.9,13.5,4.3,13.8,5.8c2.7,3.4,7.1,3.4,7.6,3c-0.8,1.9,8.4,8.3,15.9,4c0.5-1.5,1.5-1.4,1.5-5.4
	C168.4,165.7,170.1,160.5,167.3,156.4z"/>
<path class="st1" d="M147.2,143.5c11.2,7.3,14.4,0.5,24.6,14.8c15.5,18.4,6.9,24.2,34.8,20.2c8.6-3.1,16-14.3,7-32
	c-3.3-6.3-22.3-3.9-25.6-3.4c-9.4-3.5-13.3-5.1-13.4-6.6c-2.5-3.6-6.9-3.8-7.4-3.5c0.9-1.9-7.9-8.8-15.6-4.9
	c-0.6,1.4-1.5,1.3-1.8,5.3C146.7,134.2,144.7,139.2,147.2,143.5z"/>
<path class="st1" d="M140.7,71.5c-2.3,10.6,3.6,10.9-4.2,22.9c-9.3,17.3-15.9,12.6-5.3,32.2c4.6,5.5,14.8,7.5,25.4-4.7
	c3.8-4.4-3.2-17.9-4.5-20.2c0-8.1,0.1-11.5,1.2-12.1c1.9-3,0.9-6.3,0.5-6.6c1.6,0.1,4.3-8.6-0.6-13.2c-1.2,0-1.4-0.7-4.4,0.3
	C147.4,68.2,143.2,68.3,140.7,71.5z"/>
<path class="st1" d="M233.6,133c-10.5-8.2-14.3-1.6-23.3-16.8c-14-19.6-4.9-24.7-33-22.9c-8.8,2.4-17.1,12.9-9.6,31.4
	c2.7,6.6,21.9,5.7,25.2,5.4c9.1,4.2,12.8,6.1,12.8,7.6c2.2,3.8,6.6,4.3,7.1,4c-1,1.8,7.2,9.4,15.2,6.2c0.7-1.4,1.6-1.2,2.3-5.1
	C233.3,142.4,235.7,137.5,233.6,133z"/>
<path class="st1" d="M110.2,90.7c-11,7.6-5.9,13.2-23,17.2c-22.9,7.5-25-2.8-31.8,24.6c-0.3,9.2,7.2,20.2,27.1,18.6
	c7.1-0.6,12-19.2,12.8-22.4c6.8-7.4,9.7-10.4,11.1-10c4.2-1,6.1-5,6-5.6c1.4,1.5,11.1-4,10.4-12.6c-1.1-1.1-0.7-1.9-4.2-3.7
	C119,93.8,115,90,110.2,90.7z"/>
<polygon class="st2" points="137.6,178.8 132.5,181.3 46.4,144.7 40.6,133.1 50.9,178.8 137.6,229.5 "/>
<path class="st3" d="M107.9,202.9l-2.5-1.4c0.2-0.6,0.3-1.2,0.3-1.4l2.5,1.4C108.1,202,107.9,202.5,107.9,202.9z"/>
<path class="st3" d="M106.8,196.7l2.7,1.6c7.3-24.4,11.3-14.8,4.3,11.5l2.7,1.6c5.3-23.5,2.4-37.9-6.1-23.3
	c0.5-20-9.2-10.6-14.5,11.2l2.6,1.5C105,175.6,111.7,169.7,106.8,196.7z"/>
<text transform="matrix(0.8478 0.4671 -0.2161 0.9764 100.8337 197.2823)" class="st0 st4 st5">McData</text>
<polygon class="st2" points="137.6,178.8 137.6,229.5 234,173 248.2,133.1 "/>
</svg>
