<?xml version="1.0" encoding="utf-8"?>
<!-- Generator: Adobe Illustrator 24.1.0, SVG Export Plug-In . SVG Version: 6.00 Build 0)  -->
<svg version="1.1" id="Calque_1" xmlns="http://www.w3.org/2000/svg" xmlns:xlink="http://www.w3.org/1999/xlink" x="0px" y="0px"
	 viewBox="0 0 283.5 283.5" style="enable-background:new 0 0 283.5 283.5;" xml:space="preserve">
<style type="text/css">
	.st0{fill:#FFE100;}
	.st1{fill:#FFFFFF;}
	.st2{fill:#E62A33;}
	.st3{fill:#FEC900;}
	.st4{fill:#E41728;}
	.st5{font-family:'Roboto-Black';}
	.st6{font-size:9.6326px;}
	.st7{font-family:'MyriadPro-Regular';}
	.st8{font-size:24.6494px;}
</style>
<polygon class="st0" points="72.9,173.3 74.9,255 126.3,243.2 126.3,162.5 "/>
<polygon class="st0" points="249,211.3 255.8,135.3 206,146.1 202,223.7 "/>
<polygon class="st1" points="126.3,162.5 206,146.1 202,223.7 126.3,243.2 "/>
<polygon class="st2" points="72.9,173.3 74.9,255 34.6,194.7 31.3,136.8 "/>
<polygon class="st1" points="31.3,136.8 72.9,173.3 255.8,135.3 208.9,104.7 "/>
<path class="st3" d="M169.3,219.9l-6.5,1c0.1-1.2,0-2.2,0-2.5l6.5-1C169.4,218.2,169.2,219.3,169.3,219.9z"/>
<path class="st3" d="M162.8,209.9l7-1.1c3.7-46.2,18.1-36.9,16.2,11.8l7-1.1c-0.5-42.3-14.8-60.4-26.4-27.4
	c-9.5-30.9-26.9-4.3-27.4,35.6l6.7-1C147.5,180.1,159.8,162.7,162.8,209.9z"/>
<text transform="matrix(1.0274 -0.1564 -1.993000e-02 0.9998 149.387 219.6947)" class="st4 st5 st6">McData</text>
<text transform="matrix(0.6974 -0.1271 0.5742 0.8187 105.1715 150.9321)" class="st2 st7 st8">Sharing box</text>
</svg>
