<?xml version="1.0" encoding="utf-8"?>
<!-- Generator: Adobe Illustrator 24.1.0, SVG Export Plug-In . SVG Version: 6.00 Build 0)  -->
<svg version="1.1" id="Calque_1" xmlns="http://www.w3.org/2000/svg" xmlns:xlink="http://www.w3.org/1999/xlink" x="0px" y="0px"
	 viewBox="0 0 283.5 283.5" style="enable-background:new 0 0 283.5 283.5;" xml:space="preserve">
<style type="text/css">
	.st0{fill:#FFFFFF;}
	.st1{fill:#DB461E;}
	.st2{fill:#F8AF51;}
	.st3{fill:#FEC900;}
	.st4{font-family:'Roboto-Black';}
	.st5{font-size:5.646px;}
</style>
<polygon class="st0" points="10.7,108.9 148.7,60.2 270.4,108.9 125.6,169.2 17.9,123.5 "/>
<polygon class="st1" points="132,166 132,229.5 252.6,158.9 270.4,108.9 "/>
<path class="st2" d="M81.3,144.5l-42.8-18.6c0-22.4,20.7-27.6,32-25.3s44.7-1.1,48.7-0.5c4,0.5,14.2,12.9,4.5,15.8
	S77.9,104.9,81.3,144.5z"/>
<path class="st2" d="M90.5,150.5l36.3,13.4l36.3-15.9c0.5-10.4,2.5-23-9.4-25.6c-11.9-4.7-26.3-5.8-31.3,0
	C100.5,123.2,86.6,128.6,90.5,150.5z"/>
<path class="st2" d="M169.4,145.5l48.7-19.9c2-9.4,3.1-31.8-14.9-18.9C188.8,106.3,166.2,102.2,169.4,145.5z"/>
<path class="st2" d="M132.1,114.5c1.8,4,31.7-0.5,32.2,5.7c1.1-10.7,31.9-21.3,37.3-19.2c0.5-7.3-19-19.8-37.3-6.3
	C152,94.1,120.2,88.2,132.1,114.5z"/>
<path class="st2" d="M126.1,97.5c4.1,8.5-18.7-17-23.4-15.9c-4.7,1.2,18.5-13.5,26.9-7c7.2-5.3,37.8-5.3,34,5.3
	C147.3,83.4,122.7,90.5,126.1,97.5z"/>
<path class="st2" d="M205.1,91.8c-6.8,6.5,5.4-9.8,2.9-13.9c-2.5-4.1,23.6,0.3,20,10.3c7.2,5.3,16.5,34.5,5.2,34
	C224.9,107.7,210.7,86.4,205.1,91.8z"/>
<path class="st2" d="M170.9,71.7c2.1-6,19.7-5.1,16.4-2.2c-3.6,3.2,14.4,8.6,4.7,12.5c-10,4.8-35.2,15.8-35.7,4.5
	C170,77,166.6,78.2,170.9,71.7z"/>
<path class="st2" d="M112.7,99.2c-5.9-2.3-41.1-0.6-41.1-4.7s2.3-15.3,5.3-14.7c2.9,0.6,13.5-8.8,15.3-4.7S112.7,99.2,112.7,99.2z"
	/>
<polygon class="st1" points="132,166 125.6,169.2 17.9,123.5 10.7,108.9 23.5,166 132,229.5 "/>
<path class="st3" d="M94.8,196.2l-3.1-1.8c0.3-0.7,0.4-1.5,0.4-1.7l3.1,1.8C95.1,195.1,94.9,195.7,94.8,196.2z"/>
<path class="st3" d="M93.5,188.4l3.4,2c9.1-30.5,14.1-18.5,5.4,14.4l3.4,2c6.6-29.4,3-47.5-7.6-29.1c0.7-25-11.5-13.3-18.2,14
	l3.2,1.9C91.3,162,99.7,154.7,93.5,188.4z"/>
<text transform="matrix(0.8478 0.4671 -0.2161 0.9764 86.0715 189.1985)" class="st0 st4 st5">McData</text>
</svg>
