<?xml version="1.0" encoding="utf-8"?>
<!-- Generator: Adobe Illustrator 24.1.0, SVG Export Plug-In . SVG Version: 6.00 Build 0)  -->
<svg version="1.1" id="Calque_1" xmlns="http://www.w3.org/2000/svg" xmlns:xlink="http://www.w3.org/1999/xlink" x="0px" y="0px"
	 viewBox="0 0 283.5 283.5" style="enable-background:new 0 0 283.5 283.5;" xml:space="preserve">
<style type="text/css">
	.st0{fill:#FFFFFF;}
	.st1{fill:#FECD5B;}
	.st2{fill:#FEE8CE;}
	.st3{fill:#DB461E;}
	.st4{fill:#FEC900;}
	.st5{font-family:'Roboto-Black';}
	.st6{font-size:5.646px;}
</style>
<polygon class="st0" points="10.7,108.9 148.7,60.2 270.4,108.9 125.6,169.2 17.9,123.5 "/>
<g>
	<ellipse class="st1" cx="209.4" cy="118.9" rx="25.5" ry="23.9"/>
	<path class="st2" d="M207.8,106.7c1.6-1.8,9-6,5.5-1.4C209.8,109.9,206.2,108.5,207.8,106.7z"/>
	<path class="st2" d="M194.2,105.7c0,1.6-1.3,3.7-4.9,3.3c-3.5-0.4,0.6-1.9,1.7-1.6c1.1,0.2,1.6-3.4,3.1-2.6V105.7z"/>
	<path class="st2" d="M223.1,124.5c1.3-2.5,7-2.4,3.3,1.3C222.6,129.6,221.7,127.4,223.1,124.5z"/>
	<path class="st2" d="M203.7,124.5c0.7-1.6,3.7-1.6,1.7,0.9C203.4,127.8,203,126.4,203.7,124.5z"/>
	<path class="st2" d="M221.5,134c0.7-1.6,3.7-1.6,1.7,0.9C221.2,137.3,220.7,135.8,221.5,134z"/>
	<path class="st2" d="M218.1,111.8c-0.1,1.6,0.4,3.1,1.2,1.9c0.8-1.2,2.7-1.4,1.3-1.9C219.2,111.4,218.1,111.8,218.1,111.8z"/>
	<path class="st2" d="M193.5,133.1c-0.1,1.6,0.4,3.1,1.2,1.9c0.8-1.2,2.7-1.4,1.3-1.9S193.5,133.1,193.5,133.1z"/>
	<path class="st2" d="M200.6,108.6c-0.1,1.6,0.4,3.1,1.2,1.9c0.8-1.2,2.7-1.4,1.3-1.9S200.6,108.6,200.6,108.6z"/>
	<path class="st2" d="M205.6,99.8l-2.6,2.5c0,0,0.5,1,1.3,0.4C205.1,102.2,207.7,99,205.6,99.8z"/>
	<path class="st2" d="M204.8,136.8l-2.6,2.5c0,0,0.5,1,1.3,0.4S206.9,136,204.8,136.8z"/>
	<path class="st2" d="M216.4,122.9l-2.6,2.5c0,0,0.5,1,1.3,0.4S218.5,122.1,216.4,122.9z"/>
	<path class="st2" d="M215.3,135.2l-2.6,2.5c0,0,0.5,1,1.3,0.4C214.8,137.5,217.4,134.4,215.3,135.2z"/>
	<path class="st2" d="M229.8,113.8l-2.6,2.5c0,0,0.5,1,1.3,0.4C229.3,116.1,232,113,229.8,113.8z"/>
	<path class="st2" d="M222,101l-2.6,2.5c0,0,0.5,1,1.3,0.4S224.1,100.1,222,101z"/>
	<path class="st2" d="M195.1,122.6c-0.5,2,1.5,3.5,1.8,0.7C197.2,120.5,195.8,119.6,195.1,122.6z"/>
	<path class="st2" d="M205.5,118.1c-1.2,2.2-3.9,0.1-2.8-1.3c1.1-1.4,4-1.5,5.6-1.5c1.5,0,3.9,2.8,0.6,2.8S207.1,115.3,205.5,118.1z
		"/>
	<path class="st2" d="M208.7,133.2c-0.8,0.7-2.8,0-2-0.4c0.8-0.5,2.9-0.5,4-0.5s2.8,0.9,0.4,0.9
		C208.7,133.2,209.8,132.2,208.7,133.2z"/>
	<path class="st2" d="M190.9,121.7c-1.6-1-5.1-2.2-3.1-0.4C189.8,123,191.8,122.3,190.9,121.7z"/>
</g>
<g>
	<ellipse class="st1" cx="170.8" cy="142.8" rx="25.5" ry="23.9"/>
	<path class="st2" d="M169.3,130.7c1.6-1.8,9-6,5.5-1.4C171.2,133.8,167.7,132.5,169.3,130.7z"/>
	<path class="st2" d="M155.7,129.7c0,1.6-1.3,3.7-4.9,3.3c-3.5-0.4,0.6-1.9,1.7-1.6c1.1,0.2,1.6-3.4,3.1-2.6V129.7z"/>
	<path class="st2" d="M184.6,148.5c1.3-2.5,7-2.4,3.3,1.3C184.1,153.5,183.2,151.3,184.6,148.5z"/>
	<path class="st2" d="M165.2,148.4c0.7-1.6,3.7-1.6,1.7,0.9C164.9,151.7,164.4,150.3,165.2,148.4z"/>
	<path class="st2" d="M182.9,157.9c0.7-1.6,3.7-1.6,1.7,0.9C182.7,161.2,182.2,159.8,182.9,157.9z"/>
	<path class="st2" d="M179.5,135.8c-0.1,1.6,0.4,3.1,1.2,1.9c0.8-1.2,2.7-1.4,1.3-1.9C180.6,135.3,179.5,135.8,179.5,135.8z"/>
	<path class="st2" d="M155,157c-0.1,1.6,0.4,3.1,1.2,1.9s2.7-1.4,1.3-1.9S155,157,155,157z"/>
	<path class="st2" d="M162.1,132.5c-0.1,1.6,0.4,3.1,1.2,1.9c0.8-1.2,2.7-1.4,1.3-1.9C163.2,132.1,162.1,132.5,162.1,132.5z"/>
	<path class="st2" d="M167.1,123.8l-2.6,2.5c0,0,0.5,1,1.3,0.4S169.2,123,167.1,123.8z"/>
	<path class="st2" d="M166.2,160.7l-2.6,2.5c0,0,0.5,1,1.3,0.4C165.7,163.1,168.3,159.9,166.2,160.7z"/>
	<path class="st2" d="M177.9,146.9l-2.6,2.5c0,0,0.5,1,1.3,0.4C177.3,149.2,180,146.1,177.9,146.9z"/>
	<path class="st2" d="M176.8,159.1l-2.6,2.5c0,0,0.5,1,1.3,0.4S178.9,158.3,176.8,159.1z"/>
	<path class="st2" d="M191.3,137.7l-2.6,2.5c0,0,0.5,1,1.3,0.4C190.8,140.1,193.4,136.9,191.3,137.7z"/>
	<path class="st2" d="M183.5,124.9l-2.6,2.5c0,0,0.5,1,1.3,0.4C183,127.2,185.6,124.1,183.5,124.9z"/>
	<path class="st2" d="M156.6,146.5c-0.5,2,1.5,3.5,1.8,0.7C158.7,144.4,157.3,143.5,156.6,146.5z"/>
	<path class="st2" d="M167,142c-1.2,2.2-3.9,0.1-2.8-1.3c1.1-1.4,4-1.5,5.6-1.5c1.5,0,3.9,2.8,0.6,2.8S168.5,139.2,167,142z"/>
	<path class="st2" d="M170.2,157.1c-0.8,0.7-2.8,0-2-0.4c0.8-0.5,2.9-0.5,4-0.5s2.8,0.9,0.4,0.9S171.2,156.2,170.2,157.1z"/>
	<path class="st2" d="M152.4,145.7c-1.6-1-5.1-2.2-3.1-0.4S153.3,146.2,152.4,145.7z"/>
</g>
<g>
	<ellipse class="st1" cx="140.4" cy="158.5" rx="25.5" ry="23.9"/>
	<path class="st2" d="M138.8,146.3c1.6-1.8,9-6,5.5-1.4C140.7,149.4,137.2,148.1,138.8,146.3z"/>
	<path class="st2" d="M125.2,145.3c0,1.6-1.3,3.7-4.9,3.3c-3.5-0.4,0.6-1.9,1.7-1.6c1.1,0.2,1.6-3.4,3.1-2.6V145.3z"/>
	<path class="st2" d="M154.1,164.1c1.3-2.5,7-2.4,3.3,1.3S152.7,166.9,154.1,164.1z"/>
	<path class="st2" d="M134.7,164.1c0.7-1.6,3.7-1.6,1.7,0.9C134.4,167.4,133.9,165.9,134.7,164.1z"/>
	<path class="st2" d="M152.5,173.6c0.7-1.6,3.7-1.6,1.7,0.9C152.2,176.9,151.7,175.4,152.5,173.6z"/>
	<path class="st2" d="M149,151.4c-0.1,1.6,0.4,3.1,1.2,1.9c0.8-1.2,2.7-1.4,1.3-1.9C150.2,151,149,151.4,149,151.4z"/>
	<path class="st2" d="M124.5,172.7c-0.1,1.6,0.4,3.1,1.2,1.9s2.7-1.4,1.3-1.9C125.6,172.2,124.5,172.7,124.5,172.7z"/>
	<path class="st2" d="M131.6,148.2c-0.1,1.6,0.4,3.1,1.2,1.9s2.7-1.4,1.3-1.9S131.6,148.2,131.6,148.2z"/>
	<path class="st2" d="M136.6,139.4L134,142c0,0,0.5,1,1.3,0.4S138.7,138.6,136.6,139.4z"/>
	<path class="st2" d="M135.7,176.4l-2.6,2.5c0,0,0.5,1,1.3,0.4C135.2,178.7,137.9,175.6,135.7,176.4z"/>
	<path class="st2" d="M147.4,162.5l-2.6,2.5c0,0,0.5,1,1.3,0.4C146.9,164.8,149.5,161.7,147.4,162.5z"/>
	<path class="st2" d="M146.3,174.8l-2.6,2.5c0,0,0.5,1,1.3,0.4C145.8,177.1,148.4,174,146.3,174.8z"/>
	<path class="st2" d="M160.8,153.4l-2.6,2.5c0,0,0.5,1,1.3,0.4C160.3,155.7,162.9,152.6,160.8,153.4z"/>
	<path class="st2" d="M153,140.5l-2.6,2.5c0,0,0.5,1,1.3,0.4C152.5,142.9,155.1,139.7,153,140.5z"/>
	<path class="st2" d="M126.1,162.2c-0.5,2,1.5,3.5,1.8,0.7C128.2,160.1,126.8,159.2,126.1,162.2z"/>
	<path class="st2" d="M136.5,157.7c-1.2,2.2-3.9,0.1-2.8-1.3c1.1-1.4,4-1.5,5.6-1.5c1.5,0,3.9,2.8,0.6,2.8S138,154.8,136.5,157.7z"
		/>
	<path class="st2" d="M139.7,172.8c-0.8,0.7-2.8,0-2-0.4c0.8-0.5,2.9-0.5,4-0.5s2.8,0.9,0.4,0.9
		C139.7,172.8,140.8,171.8,139.7,172.8z"/>
	<path class="st2" d="M121.9,161.3c-1.6-1-5.1-2.2-3.1-0.4C120.8,162.6,122.8,161.9,121.9,161.3z"/>
</g>
<g>
	<ellipse class="st1" cx="157.9" cy="102.6" rx="25.5" ry="23.9"/>
	<path class="st2" d="M156.4,90.4c1.6-1.8,9-6,5.5-1.4C158.3,93.5,154.7,92.2,156.4,90.4z"/>
	<path class="st2" d="M142.8,89.4c0,1.6-1.3,3.7-4.9,3.3c-3.5-0.4,0.6-1.9,1.7-1.6c1.1,0.2,1.6-3.4,3.1-2.6V89.4z"/>
	<path class="st2" d="M171.6,108.2c1.3-2.5,7-2.4,3.3,1.3S170.2,111,171.6,108.2z"/>
	<path class="st2" d="M152.2,108.2c0.7-1.6,3.7-1.6,1.7,0.9C152,111.5,151.5,110,152.2,108.2z"/>
	<path class="st2" d="M170,117.7c0.7-1.6,3.7-1.6,1.7,0.9C169.7,121,169.3,119.5,170,117.7z"/>
	<path class="st2" d="M166.6,95.5c-0.1,1.6,0.4,3.1,1.2,1.9c0.8-1.2,2.7-1.4,1.3-1.9S166.6,95.5,166.6,95.5z"/>
	<path class="st2" d="M142,116.8c-0.1,1.6,0.4,3.1,1.2,1.9c0.8-1.2,2.7-1.4,1.3-1.9C143.2,116.3,142,116.8,142,116.8z"/>
	<path class="st2" d="M149.1,92.3c-0.1,1.6,0.4,3.1,1.2,1.9c0.8-1.2,2.7-1.4,1.3-1.9C150.2,91.8,149.1,92.3,149.1,92.3z"/>
	<path class="st2" d="M154.1,83.5l-2.6,2.5c0,0,0.5,1,1.3,0.4C153.6,85.9,156.3,82.7,154.1,83.5z"/>
	<path class="st2" d="M153.3,120.5l-2.6,2.5c0,0,0.5,1,1.3,0.4S155.4,119.7,153.3,120.5z"/>
	<path class="st2" d="M164.9,106.6l-2.6,2.5c0,0,0.5,1,1.3,0.4S167,105.8,164.9,106.6z"/>
	<path class="st2" d="M163.8,118.9l-2.6,2.5c0,0,0.5,1,1.3,0.4S165.9,118.1,163.8,118.9z"/>
	<path class="st2" d="M178.4,97.5l-2.6,2.5c0,0,0.5,1,1.3,0.4S180.5,96.7,178.4,97.5z"/>
	<path class="st2" d="M170.5,84.6l-2.6,2.5c0,0,0.5,1,1.3,0.4S172.7,83.8,170.5,84.6z"/>
	<path class="st2" d="M143.6,106.3c-0.5,2,1.5,3.5,1.8,0.7C145.7,104.2,144.3,103.3,143.6,106.3z"/>
	<path class="st2" d="M154.1,101.8c-1.2,2.2-3.9,0.1-2.8-1.3c1.1-1.4,4-1.5,5.6-1.5s3.9,2.8,0.6,2.8
		C154.1,101.8,155.6,98.9,154.1,101.8z"/>
	<path class="st2" d="M157.2,116.9c-0.8,0.7-2.8,0-2-0.4c0.8-0.5,2.9-0.5,4-0.5s2.8,0.9,0.4,0.9S158.3,115.9,157.2,116.9z"/>
	<path class="st2" d="M139.4,105.4c-1.6-1-5.1-2.2-3.1-0.4C138.3,106.7,140.3,106,139.4,105.4z"/>
</g>
<g>
	<ellipse class="st1" cx="119.9" cy="124.6" rx="25.5" ry="23.9"/>
	<path class="st2" d="M118.4,112.4c1.6-1.8,9-6,5.5-1.4C120.3,115.6,116.8,114.3,118.4,112.4z"/>
	<path class="st2" d="M104.8,111.4c0,1.6-1.3,3.7-4.9,3.3s0.6-1.9,1.7-1.6s1.6-3.4,3.1-2.6V111.4z"/>
	<path class="st2" d="M133.7,130.2c1.3-2.5,7-2.4,3.3,1.3C133.2,135.3,132.3,133.1,133.7,130.2z"/>
	<path class="st2" d="M114.2,130.2c0.7-1.6,3.7-1.6,1.7,0.9S113.5,132.1,114.2,130.2z"/>
	<path class="st2" d="M132,139.7c0.7-1.6,3.7-1.6,1.7,0.9C131.8,143,131.3,141.6,132,139.7z"/>
	<path class="st2" d="M128.6,117.6c-0.1,1.6,0.4,3.1,1.2,1.9c0.8-1.2,2.7-1.4,1.3-1.9C129.7,117.1,128.6,117.6,128.6,117.6z"/>
	<path class="st2" d="M104.1,138.8c-0.1,1.6,0.4,3.1,1.2,1.9c0.8-1.2,2.7-1.4,1.3-1.9C105.2,138.3,104.1,138.8,104.1,138.8z"/>
	<path class="st2" d="M111.2,114.3c-0.1,1.6,0.4,3.1,1.2,1.9c0.8-1.2,2.7-1.4,1.3-1.9S111.2,114.3,111.2,114.3z"/>
	<path class="st2" d="M116.2,105.6l-2.6,2.5c0,0,0.5,1,1.3,0.4C115.7,107.9,118.3,104.8,116.2,105.6z"/>
	<path class="st2" d="M115.3,142.5l-2.6,2.5c0,0,0.5,1,1.3,0.4C114.8,144.9,117.4,141.7,115.3,142.5z"/>
	<path class="st2" d="M126.9,128.7l-2.6,2.5c0,0,0.5,1,1.3,0.4C126.4,131,129.1,127.8,126.9,128.7z"/>
	<path class="st2" d="M125.9,140.9l-2.6,2.5c0,0,0.5,1,1.3,0.4C125.3,143.2,128,140.1,125.9,140.9z"/>
	<path class="st2" d="M140.4,119.5l-2.6,2.5c0,0,0.5,1,1.3,0.4S142.5,118.7,140.4,119.5z"/>
	<path class="st2" d="M132.6,106.7l-2.6,2.5c0,0,0.5,1,1.3,0.4S134.7,105.9,132.6,106.7z"/>
	<path class="st2" d="M105.6,128.3c-0.5,2,1.5,3.5,1.8,0.7C107.8,126.2,106.4,125.3,105.6,128.3z"/>
	<path class="st2" d="M116.1,123.8c-1.2,2.2-3.9,0.1-2.8-1.3s4-1.5,5.6-1.5s3.9,2.8,0.6,2.8S117.6,121,116.1,123.8z"/>
	<path class="st2" d="M119.2,138.9c-0.8,0.7-2.8,0-2-0.4s2.9-0.5,4-0.5s2.8,0.9,0.4,0.9C119.2,138.9,120.3,137.9,119.2,138.9z"/>
	<path class="st2" d="M101.4,127.4c-1.6-1-5.1-2.2-3.1-0.4C100.3,128.7,102.3,128,101.4,127.4z"/>
</g>
<g>
	<ellipse class="st1" cx="85.9" cy="141.8" rx="25.5" ry="23.9"/>
	<path class="st2" d="M84.4,129.6c1.6-1.8,9-6,5.5-1.4C86.3,132.7,82.8,131.4,84.4,129.6z"/>
	<path class="st2" d="M70.8,128.6c0,1.6-1.3,3.7-4.9,3.3c-3.5-0.4,0.6-1.9,1.7-1.6c1.1,0.2,1.6-3.4,3.1-2.6V128.6z"/>
	<path class="st2" d="M99.7,147.4c1.3-2.5,7-2.4,3.3,1.3S98.3,150.2,99.7,147.4z"/>
	<path class="st2" d="M80.3,147.4c0.7-1.6,3.7-1.6,1.7,0.9S79.5,149.2,80.3,147.4z"/>
	<path class="st2" d="M98,156.9c0.7-1.6,3.7-1.6,1.7,0.9S97.3,158.7,98,156.9z"/>
	<path class="st2" d="M94.6,134.7c-0.1,1.6,0.4,3.1,1.2,1.9s2.7-1.4,1.3-1.9S94.6,134.7,94.6,134.7z"/>
	<path class="st2" d="M70.1,155.9c-0.1,1.6,0.4,3.1,1.2,1.9c0.8-1.2,2.7-1.4,1.3-1.9C71.2,155.5,70.1,155.9,70.1,155.9z"/>
	<path class="st2" d="M77.2,131.5c-0.1,1.6,0.4,3.1,1.2,1.9c0.8-1.2,2.7-1.4,1.3-1.9C78.3,131,77.2,131.5,77.2,131.5z"/>
	<path class="st2" d="M82.2,122.7l-2.6,2.5c0,0,0.5,1,1.3,0.4C81.7,125,84.3,121.9,82.2,122.7z"/>
	<path class="st2" d="M81.3,159.7l-2.6,2.5c0,0,0.5,1,1.3,0.4C80.8,162,83.4,158.9,81.3,159.7z"/>
	<path class="st2" d="M92.9,145.8l-2.6,2.5c0,0,0.5,1,1.3,0.4C92.4,148.1,95.1,145,92.9,145.8z"/>
	<path class="st2" d="M91.9,158l-2.6,2.5c0,0,0.5,1,1.3,0.4C91.3,160.4,94,157.2,91.9,158z"/>
	<path class="st2" d="M106.4,136.7l-2.6,2.5c0,0,0.5,1,1.3,0.4C105.9,139,108.5,135.8,106.4,136.7z"/>
	<path class="st2" d="M98.6,123.8l-2.6,2.5c0,0,0.5,1,1.3,0.4C98.1,126.1,100.7,123,98.6,123.8z"/>
	<path class="st2" d="M71.6,145.5c-0.5,2,1.5,3.5,1.8,0.7C73.8,143.4,72.4,142.4,71.6,145.5z"/>
	<path class="st2" d="M82.1,141c-1.2,2.2-3.9,0.1-2.8-1.3c1.1-1.4,4-1.5,5.6-1.5s3.9,2.8,0.6,2.8C82.1,141,83.6,138.1,82.1,141z"/>
	<path class="st2" d="M85.2,156c-0.8,0.7-2.8,0-2-0.4c0.8-0.5,2.9-0.5,4-0.5s2.8,0.9,0.4,0.9C85.2,156,86.3,155.1,85.2,156z"/>
	<path class="st2" d="M67.4,144.6c-1.6-1-5.1-2.2-3.1-0.4C66.3,145.9,68.3,145.1,67.4,144.6z"/>
</g>
<g>
	<ellipse class="st1" cx="115.5" cy="78.2" rx="25.5" ry="23.9"/>
	<path class="st2" d="M114,66.1c1.6-1.8,9-6,5.5-1.4C115.9,69.2,112.4,67.9,114,66.1z"/>
	<path class="st2" d="M100.4,65.1c0,1.6-1.3,3.7-4.9,3.3c-3.5-0.4,0.6-1.9,1.7-1.6c1.1,0.2,1.6-3.4,3.1-2.6V65.1z"/>
	<path class="st2" d="M129.3,83.9c1.3-2.5,7-2.4,3.3,1.3C128.8,88.9,127.8,86.7,129.3,83.9z"/>
	<path class="st2" d="M109.8,83.9c0.7-1.6,3.7-1.6,1.7,0.9S109.1,85.7,109.8,83.9z"/>
	<path class="st2" d="M127.6,93.3c0.7-1.6,3.7-1.6,1.7,0.9C127.4,96.6,126.9,95.2,127.6,93.3z"/>
	<path class="st2" d="M124.2,71.2c-0.1,1.6,0.4,3.1,1.2,1.9c0.8-1.2,2.7-1.4,1.3-1.9C125.3,70.7,124.2,71.2,124.2,71.2z"/>
	<path class="st2" d="M99.7,92.4c-0.1,1.6,0.4,3.1,1.2,1.9s2.7-1.4,1.3-1.9S99.7,92.4,99.7,92.4z"/>
	<path class="st2" d="M106.8,68c-0.1,1.6,0.4,3.1,1.2,1.9c0.8-1.2,2.7-1.4,1.3-1.9C107.9,67.5,106.8,68,106.8,68z"/>
	<path class="st2" d="M111.8,59.2l-2.6,2.5c0,0,0.5,1,1.3,0.4C111.3,61.5,113.9,58.4,111.8,59.2z"/>
	<path class="st2" d="M110.9,96.2l-2.6,2.5c0,0,0.5,1,1.3,0.4C110.4,98.5,113,95.3,110.9,96.2z"/>
	<path class="st2" d="M122.5,82.3l-2.6,2.5c0,0,0.5,1,1.3,0.4C122,84.6,124.7,81.5,122.5,82.3z"/>
	<path class="st2" d="M121.4,94.5l-2.6,2.5c0,0,0.5,1,1.3,0.4C120.9,96.9,123.6,93.7,121.4,94.5z"/>
	<path class="st2" d="M136,73.1l-2.6,2.5c0,0,0.5,1,1.3,0.4C135.5,75.5,138.1,72.3,136,73.1z"/>
	<path class="st2" d="M128.2,60.3l-2.6,2.5c0,0,0.5,1,1.3,0.4S130.3,59.5,128.2,60.3z"/>
	<path class="st2" d="M101.2,82c-0.5,2,1.5,3.5,1.8,0.7C103.4,79.8,101.9,78.9,101.2,82z"/>
	<path class="st2" d="M111.7,77.4c-1.2,2.2-3.9,0.1-2.8-1.3c1.1-1.4,4-1.5,5.6-1.5s3.9,2.8,0.6,2.8
		C111.7,77.4,113.2,74.6,111.7,77.4z"/>
	<path class="st2" d="M114.8,92.5c-0.8,0.7-2.8,0-2-0.4c0.8-0.5,2.9-0.5,4-0.5s2.8,0.9,0.4,0.9C114.8,92.5,115.9,91.6,114.8,92.5z"
		/>
	<path class="st2" d="M97,81.1c-1.6-1-5.1-2.2-3.1-0.4S97.9,81.6,97,81.1z"/>
</g>
<g>
	<ellipse class="st1" cx="77.6" cy="100.3" rx="25.5" ry="23.9"/>
	<path class="st2" d="M76,88.1c1.6-1.8,9-6,5.5-1.4C77.9,91.2,74.4,89.9,76,88.1z"/>
	<path class="st2" d="M62.4,87.1c0,1.6-1.3,3.7-4.9,3.3c-3.5-0.4,0.6-1.9,1.7-1.6c1.1,0.2,1.6-3.4,3.1-2.6V87.1z"/>
	<path class="st2" d="M91.3,105.9c1.3-2.5,7-2.4,3.3,1.3C90.8,111,89.9,108.7,91.3,105.9z"/>
	<path class="st2" d="M71.9,105.9c0.7-1.6,3.7-1.6,1.7,0.9C71.6,109.2,71.1,107.7,71.9,105.9z"/>
	<path class="st2" d="M89.7,115.4c0.7-1.6,3.7-1.6,1.7,0.9S88.9,117.2,89.7,115.4z"/>
	<path class="st2" d="M86.2,93.2c-0.1,1.6,0.4,3.1,1.2,1.9s2.7-1.4,1.3-1.9C87.3,92.7,86.2,93.2,86.2,93.2z"/>
	<path class="st2" d="M61.7,114.5c-0.1,1.6,0.4,3.1,1.2,1.9c0.8-1.2,2.7-1.4,1.3-1.9C62.8,114,61.7,114.5,61.7,114.5z"/>
	<path class="st2" d="M68.8,90c-0.1,1.6,0.4,3.1,1.2,1.9c0.8-1.2,2.7-1.4,1.3-1.9C69.9,89.5,68.8,90,68.8,90z"/>
	<path class="st2" d="M73.8,81.2l-2.6,2.5c0,0,0.5,1,1.3,0.4C73.3,83.5,75.9,80.4,73.8,81.2z"/>
	<path class="st2" d="M72.9,118.2l-2.6,2.5c0,0,0.5,1,1.3,0.4C72.4,120.5,75,117.4,72.9,118.2z"/>
	<path class="st2" d="M84.6,104.3l-2.6,2.5c0,0,0.5,1,1.3,0.4C84.1,106.6,86.7,103.5,84.6,104.3z"/>
	<path class="st2" d="M83.5,116.6l-2.6,2.5c0,0,0.5,1,1.3,0.4C83,118.9,85.6,115.8,83.5,116.6z"/>
	<path class="st2" d="M98,95.2l-2.6,2.5c0,0,0.5,1,1.3,0.4C97.5,97.5,100.1,94.4,98,95.2z"/>
	<path class="st2" d="M90.2,82.3l-2.6,2.5c0,0,0.5,1,1.3,0.4C89.7,84.7,92.3,81.5,90.2,82.3z"/>
	<path class="st2" d="M63.3,104c-0.5,2,1.5,3.5,1.8,0.7C65.4,101.9,64,101,63.3,104z"/>
	<path class="st2" d="M73.7,99.5c-1.2,2.2-3.9,0.1-2.8-1.3c1.1-1.4,4-1.5,5.6-1.5s3.9,2.8,0.6,2.8S75.2,96.6,73.7,99.5z"/>
	<path class="st2" d="M76.9,114.6c-0.8,0.7-2.8,0-2-0.4c0.8-0.5,2.9-0.5,4-0.5s2.8,0.9,0.4,0.9C76.9,114.6,78,113.6,76.9,114.6z"/>
	<path class="st2" d="M59.1,103.1c-1.6-1-5.1-2.2-3.1-0.4C58,104.4,60,103.6,59.1,103.1z"/>
</g>
<g>
	<ellipse class="st1" cx="43.6" cy="117.4" rx="25.5" ry="23.9"/>
	<path class="st2" d="M42,105.2c1.6-1.8,9-6,5.5-1.4C43.9,108.4,40.4,107.1,42,105.2z"/>
	<path class="st2" d="M28.4,104.2c0,1.6-1.3,3.7-4.9,3.3s0.6-1.9,1.7-1.6c1.1,0.2,1.6-3.4,3.1-2.6V104.2z"/>
	<path class="st2" d="M57.3,123c1.3-2.5,7-2.4,3.3,1.3C56.8,128.1,55.9,125.9,57.3,123z"/>
	<path class="st2" d="M37.9,123c0.7-1.6,3.7-1.6,1.7,0.9S37.1,124.9,37.9,123z"/>
	<path class="st2" d="M55.7,132.5c0.7-1.6,3.7-1.6,1.7,0.9S54.9,134.4,55.7,132.5z"/>
	<path class="st2" d="M52.2,110.4c-0.1,1.6,0.4,3.1,1.2,1.9s2.7-1.4,1.3-1.9C53.3,109.9,52.2,110.4,52.2,110.4z"/>
	<path class="st2" d="M27.7,131.6c-0.1,1.6,0.4,3.1,1.2,1.9s2.7-1.4,1.3-1.9C28.8,131.1,27.7,131.6,27.7,131.6z"/>
	<path class="st2" d="M34.8,107.1c-0.1,1.6,0.4,3.1,1.2,1.9c0.8-1.2,2.7-1.4,1.3-1.9C35.9,106.7,34.8,107.1,34.8,107.1z"/>
	<path class="st2" d="M39.8,98.4l-2.6,2.5c0,0,0.5,1,1.3,0.4C39.3,100.7,41.9,97.6,39.8,98.4z"/>
	<path class="st2" d="M38.9,135.3l-2.6,2.5c0,0,0.5,1,1.3,0.4C38.4,137.7,41.1,134.5,38.9,135.3z"/>
	<path class="st2" d="M50.6,121.5l-2.6,2.5c0,0,0.5,1,1.3,0.4C50.1,123.8,52.7,120.6,50.6,121.5z"/>
	<path class="st2" d="M49.5,133.7l-2.6,2.5c0,0,0.5,1,1.3,0.4C49,136,51.6,132.9,49.5,133.7z"/>
	<path class="st2" d="M64,112.3l-2.6,2.5c0,0,0.5,1,1.3,0.4C63.5,114.6,66.1,111.5,64,112.3z"/>
	<path class="st2" d="M56.2,99.5l-2.6,2.5c0,0,0.5,1,1.3,0.4C55.7,101.8,58.3,98.7,56.2,99.5z"/>
	<path class="st2" d="M29.3,121.1c-0.5,2,1.5,3.5,1.8,0.7C31.4,119,30,118.1,29.3,121.1z"/>
	<path class="st2" d="M39.7,116.6c-1.2,2.2-3.9,0.1-2.8-1.3c1.1-1.4,4-1.5,5.6-1.5s3.9,2.8,0.6,2.8
		C39.7,116.6,41.2,113.8,39.7,116.6z"/>
	<path class="st2" d="M42.9,131.7c-0.8,0.7-2.8,0-2-0.4c0.8-0.5,2.9-0.5,4-0.5s2.8,0.9,0.4,0.9S44,130.7,42.9,131.7z"/>
	<path class="st2" d="M25.1,120.2c-1.6-1-5.1-2.2-3.1-0.4S26,120.8,25.1,120.2z"/>
</g>
<polygon class="st3" points="132,166 132,229.5 252.6,158.9 270.4,108.9 "/>
<polygon class="st3" points="132,166 125.6,169.2 17.9,123.5 10.7,108.9 23.5,166 132,229.5 "/>
<path class="st4" d="M94.8,196.2l-3.1-1.8c0.3-0.7,0.4-1.5,0.4-1.7l3.1,1.8C95.1,195.1,94.9,195.7,94.8,196.2z"/>
<path class="st4" d="M93.5,188.4l3.4,2c9.1-30.5,14.1-18.5,5.4,14.4l3.4,2c6.6-29.4,3-47.5-7.6-29.1c0.7-25-11.5-13.3-18.2,14
	l3.2,1.9C91.3,162,99.7,154.7,93.5,188.4z"/>
<text transform="matrix(0.8478 0.4671 -0.2161 0.9764 86.0715 189.1985)" class="st0 st5 st6">McData</text>
</svg>
