<?xml version="1.0" encoding="utf-8"?>
<!-- Generator: Adobe Illustrator 24.1.0, SVG Export Plug-In . SVG Version: 6.00 Build 0)  -->
<svg version="1.1" id="Calque_1" xmlns="http://www.w3.org/2000/svg" xmlns:xlink="http://www.w3.org/1999/xlink" x="0px" y="0px"
	 viewBox="0 0 283.5 283.5" style="enable-background:new 0 0 283.5 283.5;" xml:space="preserve">
<style type="text/css">
	.st0{fill:#FFFFFF;}
	.st1{fill:#FECD5B;}
	.st2{fill:#FEE8CE;}
	.st3{fill:#AF4317;}
	.st4{fill:#FEC900;}
	.st5{font-family:'Roboto-Black';}
	.st6{font-size:4.513px;}
</style>
<polygon class="st0" points="40.6,133.1 150.9,94.2 248.2,133.1 132.5,181.3 46.4,144.7 "/>
<g>
	<ellipse class="st1" cx="151" cy="117.9" rx="25.5" ry="23.9"/>
	<path class="st2" d="M149.5,105.7c1.6-1.8,9-6,5.5-1.4C151.4,108.9,147.9,107.6,149.5,105.7z"/>
	<path class="st2" d="M135.9,104.7c0,1.6-1.3,3.7-4.9,3.3c-3.5-0.4,0.6-1.9,1.7-1.6c1.1,0.2,1.6-3.4,3.1-2.6V104.7z"/>
	<path class="st2" d="M164.8,123.5c1.3-2.5,7-2.4,3.3,1.3C164.3,128.6,163.4,126.4,164.8,123.5z"/>
	<path class="st2" d="M145.4,123.5c0.7-1.6,3.7-1.6,1.7,0.9C145.1,126.8,144.6,125.4,145.4,123.5z"/>
	<path class="st2" d="M163.1,133c0.7-1.6,3.7-1.6,1.7,0.9S162.4,134.9,163.1,133z"/>
	<path class="st2" d="M159.7,110.9c-0.1,1.6,0.4,3.1,1.2,1.9s2.7-1.4,1.3-1.9S159.7,110.9,159.7,110.9z"/>
	<path class="st2" d="M135.2,132.1c-0.1,1.6,0.4,3.1,1.2,1.9c0.8-1.2,2.7-1.4,1.3-1.9C136.3,131.6,135.2,132.1,135.2,132.1z"/>
	<path class="st2" d="M142.3,107.6c-0.1,1.6,0.4,3.1,1.2,1.9s2.7-1.4,1.3-1.9C143.4,107.2,142.3,107.6,142.3,107.6z"/>
	<path class="st2" d="M147.3,98.9l-2.6,2.5c0,0,0.5,1,1.3,0.4S149.4,98.1,147.3,98.9z"/>
	<path class="st2" d="M146.4,135.8l-2.6,2.5c0,0,0.5,1,1.3,0.4C145.9,138.2,148.5,135,146.4,135.8z"/>
	<path class="st2" d="M158,122l-2.6,2.5c0,0,0.5,1,1.3,0.4S160.2,121.1,158,122z"/>
	<path class="st2" d="M157,134.2l-2.6,2.5c0,0,0.5,1,1.3,0.4C156.5,136.5,159.1,133.4,157,134.2z"/>
	<path class="st2" d="M171.5,112.8l-2.6,2.5c0,0,0.5,1,1.3,0.4S173.6,112,171.5,112.8z"/>
	<path class="st2" d="M163.7,100l-2.6,2.5c0,0,0.5,1,1.3,0.4S165.8,99.2,163.7,100z"/>
	<path class="st2" d="M136.8,121.6c-0.5,2,1.5,3.5,1.8,0.7C138.9,119.5,137.5,118.6,136.8,121.6z"/>
	<path class="st2" d="M147.2,117.1c-1.2,2.2-3.9,0.1-2.8-1.3c1.1-1.4,4-1.5,5.6-1.5s3.9,2.8,0.6,2.8
		C147.2,117.1,148.7,114.3,147.2,117.1z"/>
	<path class="st2" d="M150.4,132.2c-0.8,0.7-2.8,0-2-0.4c0.8-0.5,2.9-0.5,4-0.5c1.1,0,2.8,0.9,0.4,0.9S151.4,131.2,150.4,132.2z"/>
	<path class="st2" d="M132.5,120.7c-1.6-1-5.1-2.2-3.1-0.4C131.4,122,133.4,121.3,132.5,120.7z"/>
</g>
<g>
	<ellipse class="st1" cx="89.2" cy="146.1" rx="25.5" ry="23.9"/>
	<path class="st2" d="M87.7,133.9c1.6-1.8,9-6,5.5-1.4C89.6,137.1,86.1,135.8,87.7,133.9z"/>
	<path class="st2" d="M74.1,132.9c0,1.6-1.3,3.7-4.9,3.3c-3.5-0.4,0.6-1.9,1.7-1.6s1.6-3.4,3.1-2.6V132.9z"/>
	<path class="st2" d="M103,151.7c1.3-2.5,7-2.4,3.3,1.3C102.5,156.8,101.6,154.6,103,151.7z"/>
	<path class="st2" d="M83.5,151.7c0.7-1.6,3.7-1.6,1.7,0.9S82.8,153.6,83.5,151.7z"/>
	<path class="st2" d="M101.3,161.2c0.7-1.6,3.7-1.6,1.7,0.9S100.6,163,101.3,161.2z"/>
	<path class="st2" d="M97.9,139.1c-0.1,1.6,0.4,3.1,1.2,1.9s2.7-1.4,1.3-1.9C99,138.6,97.9,139.1,97.9,139.1z"/>
	<path class="st2" d="M73.4,160.3c-0.1,1.6,0.4,3.1,1.2,1.9s2.7-1.4,1.3-1.9C74.5,159.8,73.4,160.3,73.4,160.3z"/>
	<path class="st2" d="M80.5,135.8c-0.1,1.6,0.4,3.1,1.2,1.9s2.7-1.4,1.3-1.9S80.5,135.8,80.5,135.8z"/>
	<path class="st2" d="M85.5,127.1l-2.6,2.5c0,0,0.5,1,1.3,0.4C85,129.4,87.6,126.2,85.5,127.1z"/>
	<path class="st2" d="M84.6,164l-2.6,2.5c0,0,0.5,1,1.3,0.4C84.1,166.4,86.7,163.2,84.6,164z"/>
	<path class="st2" d="M96.2,150.1l-2.6,2.5c0,0,0.5,1,1.3,0.4C95.7,152.5,98.4,149.3,96.2,150.1z"/>
	<path class="st2" d="M95.1,162.4l-2.6,2.5c0,0,0.5,1,1.3,0.4C94.6,164.7,97.3,161.6,95.1,162.4z"/>
	<path class="st2" d="M109.7,141l-2.6,2.5c0,0,0.5,1,1.3,0.4C109.2,143.3,111.8,140.2,109.7,141z"/>
	<path class="st2" d="M101.9,128.2l-2.6,2.5c0,0,0.5,1,1.3,0.4C101.3,130.5,104,127.4,101.9,128.2z"/>
	<path class="st2" d="M74.9,149.8c-0.5,2,1.5,3.5,1.8,0.7C77.1,147.7,75.7,146.8,74.9,149.8z"/>
	<path class="st2" d="M85.4,145.3c-1.2,2.2-3.9,0.1-2.8-1.3c1.1-1.4,4-1.5,5.6-1.5s3.9,2.8,0.6,2.8S86.9,142.5,85.4,145.3z"/>
	<path class="st2" d="M88.5,160.4c-0.8,0.7-2.8,0-2-0.4s2.9-0.5,4-0.5s2.8,0.9,0.4,0.9C88.5,160.4,89.6,159.4,88.5,160.4z"/>
	<path class="st2" d="M70.7,148.9c-1.6-1-5.1-2.2-3.1-0.4C69.6,150.2,71.6,149.5,70.7,148.9z"/>
</g>
<g>
	<ellipse class="st1" cx="139.8" cy="165.9" rx="26.9" ry="25.9"/>
	<path class="st2" d="M138.2,152.7c1.7-2,9.5-6.5,5.8-1.5C140.2,156.1,136.5,154.7,138.2,152.7z"/>
	<path class="st2" d="M123.8,151.6c0,1.8-1.4,4-5.1,3.6c-3.7-0.4,0.6-2,1.8-1.8s1.7-3.7,3.3-2.9V151.6z"/>
	<path class="st2" d="M154.3,171.9c1.3-2.7,7.4-2.6,3.4,1.4C153.8,177.4,152.8,175,154.3,171.9z"/>
	<path class="st2" d="M133.8,171.9c0.7-1.8,3.9-1.7,1.8,0.9C133.5,175.5,133,173.9,133.8,171.9z"/>
	<path class="st2" d="M152.6,182.2c0.7-1.8,3.9-1.7,1.8,0.9C152.3,185.7,151.8,184.2,152.6,182.2z"/>
	<path class="st2" d="M149,158.2c-0.1,1.8,0.4,3.3,1.3,2c0.9-1.3,2.9-1.5,1.4-2C150.2,157.7,149,158.2,149,158.2z"/>
	<path class="st2" d="M123,181.2c-0.1,1.8,0.4,3.3,1.3,2c0.9-1.3,2.9-1.5,1.4-2C124.2,180.7,123,181.2,123,181.2z"/>
	<path class="st2" d="M130.5,154.7c-0.1,1.8,0.4,3.3,1.3,2c0.9-1.3,2.9-1.5,1.4-2C131.7,154.2,130.5,154.7,130.5,154.7z"/>
	<path class="st2" d="M135.8,145.2L133,148c0,0,0.5,1.1,1.4,0.4C135.3,147.8,138.1,144.4,135.8,145.2z"/>
	<path class="st2" d="M134.9,185.2l-2.8,2.7c0,0,0.5,1.1,1.4,0.4C134.4,187.8,137.2,184.4,134.9,185.2z"/>
	<path class="st2" d="M147.2,170.2l-2.8,2.7c0,0,0.5,1.1,1.4,0.4C146.7,172.7,149.5,169.3,147.2,170.2z"/>
	<path class="st2" d="M146.1,183.5l-2.8,2.7c0,0,0.5,1.1,1.4,0.4C145.5,186,148.3,182.6,146.1,183.5z"/>
	<path class="st2" d="M161.4,160.3l-2.8,2.7c0,0,0.5,1.1,1.4,0.4C160.9,162.9,163.7,159.5,161.4,160.3z"/>
	<path class="st2" d="M153.1,146.4l-2.8,2.7c0,0,0.5,1.1,1.4,0.4C152.6,149,155.4,145.6,153.1,146.4z"/>
	<path class="st2" d="M124.7,169.9c-0.5,2.1,1.6,3.8,1.9,0.8C127,167.6,125.5,166.6,124.7,169.9z"/>
	<path class="st2" d="M135.7,165c-1.3,2.4-4.2,0.1-3-1.4s4.3-1.6,5.9-1.6s4.2,3,0.6,3S137.3,161.9,135.7,165z"/>
	<path class="st2" d="M139.1,181.3c-0.9,0.8-3,0-2.1-0.5c0.8-0.5,3-0.5,4.2-0.5c1.1,0,3,1,0.5,1S140.2,180.3,139.1,181.3z"/>
	<path class="st2" d="M120.3,168.9c-1.7-1.1-5.4-2.3-3.3-0.5C119.1,170.3,121.2,169.5,120.3,168.9z"/>
</g>
<g>
	<ellipse class="st1" cx="198.2" cy="147.8" rx="29.1" ry="27.4"/>
	<path class="st2" d="M196.5,133.9c1.8-2.1,10.3-6.8,6.2-1.6C198.7,137.5,194.6,136,196.5,133.9z"/>
	<path class="st2" d="M181,132.7c0,1.9-1.5,4.3-5.5,3.8c-4-0.5,0.7-2.1,2-1.9c1.3,0.3,1.8-3.9,3.6-3V132.7z"/>
	<path class="st2" d="M213.9,154.3c1.4-2.9,8-2.8,3.7,1.5C213.3,160.1,212.3,157.5,213.9,154.3z"/>
	<path class="st2" d="M191.7,154.3c0.8-1.9,4.2-1.8,1.9,1C191.4,158,190.9,156.4,191.7,154.3z"/>
	<path class="st2" d="M212,165.1c0.8-1.9,4.2-1.8,1.9,1C211.7,168.9,211.2,167.2,212,165.1z"/>
	<path class="st2" d="M208.1,139.7c-0.1,1.9,0.4,3.5,1.4,2.1c0.9-1.4,3.1-1.6,1.5-2.1C209.4,139.2,208.1,139.7,208.1,139.7z"/>
	<path class="st2" d="M180.1,164.1c-0.1,1.9,0.4,3.5,1.4,2.1c0.9-1.4,3.1-1.6,1.5-2.1C181.4,163.5,180.1,164.1,180.1,164.1z"/>
	<path class="st2" d="M188.2,136c-0.1,1.9,0.4,3.5,1.4,2.1c0.9-1.4,3.1-1.6,1.5-2.1C189.5,135.5,188.2,136,188.2,136z"/>
	<path class="st2" d="M193.9,126l-3,2.9c0,0,0.6,1.2,1.5,0.5S196.4,125.1,193.9,126z"/>
	<path class="st2" d="M192.9,168.4l-3,2.9c0,0,0.6,1.2,1.5,0.5S195.4,167.4,192.9,168.4z"/>
	<path class="st2" d="M206.2,152.5l-3,2.9c0,0,0.6,1.2,1.5,0.5S208.7,151.5,206.2,152.5z"/>
	<path class="st2" d="M205,166.5l-3,2.9c0,0,0.6,1.2,1.5,0.5C204.4,169.2,207.4,165.6,205,166.5z"/>
	<path class="st2" d="M221.6,142l-3,2.9c0,0,0.6,1.2,1.5,0.5C221,144.6,224,141.1,221.6,142z"/>
	<path class="st2" d="M212.6,127.3l-3,2.9c0,0,0.6,1.2,1.5,0.5C212.1,129.9,215.1,126.3,212.6,127.3z"/>
	<path class="st2" d="M181.9,152.1c-0.5,2.3,1.7,4.1,2.1,0.8C184.4,149.7,182.7,148.6,181.9,152.1z"/>
	<path class="st2" d="M193.8,146.9c-1.4,2.6-4.5,0.1-3.2-1.5c1.3-1.6,4.6-1.7,6.4-1.7s4.5,3.2,0.7,3.2S195.6,143.7,193.8,146.9z"/>
	<path class="st2" d="M197.5,164.2c-1,0.9-3.2,0-2.3-0.5c0.9-0.5,3.3-0.6,4.5-0.6c1.2,0,3.2,1.1,0.5,1.1S198.7,163.1,197.5,164.2z"
		/>
	<path class="st2" d="M177.1,151.1c-1.9-1.1-5.9-2.5-3.6-0.5C175.9,152.5,178.2,151.7,177.1,151.1z"/>
</g>
<polygon class="st3" points="137.6,178.8 137.6,229.5 234,173 248.2,133.1 "/>
<polygon class="st3" points="137.6,178.8 132.5,181.3 46.4,144.7 40.6,133.1 50.9,178.8 137.6,229.5 "/>
<path class="st4" d="M112.7,208.6l-2.5-1.4c0.2-0.6,0.3-1.2,0.3-1.4l2.5,1.4C112.9,207.6,112.8,208.2,112.7,208.6z"/>
<path class="st4" d="M111.6,202.4l2.7,1.6c7.3-24.4,11.3-14.8,4.3,11.5l2.7,1.6c5.3-23.5,2.4-37.9-6.1-23.3
	c0.5-20-9.2-10.6-14.5,11.2l2.6,1.5C109.9,181.2,116.6,175.4,111.6,202.4z"/>
<text transform="matrix(0.8478 0.4671 -0.2161 0.9764 105.6973 202.9576)" class="st0 st5 st6">McData</text>
</svg>
