<?xml version="1.0" encoding="utf-8"?>
<!-- Generator: Adobe Illustrator 24.1.0, SVG Export Plug-In . SVG Version: 6.00 Build 0)  -->
<svg version="1.1" id="Calque_1" xmlns="http://www.w3.org/2000/svg" xmlns:xlink="http://www.w3.org/1999/xlink" x="0px" y="0px"
	 viewBox="0 0 283.5 283.5" style="enable-background:new 0 0 283.5 283.5;" xml:space="preserve">
<style type="text/css">
	.st0{fill:#FFFFFF;}
	.st1{fill:#FECD5B;}
	.st2{fill:#FEE8CE;}
	.st3{fill:#712283;}
	.st4{fill:#FEC900;}
	.st5{font-family:'Roboto-Black';}
	.st6{font-size:4.513px;}
</style>
<polygon class="st0" points="40.6,133.1 150.9,94.2 248.2,133.1 132.5,181.3 46.4,144.7 "/>
<g>
	<ellipse class="st1" cx="202.5" cy="132.1" rx="25.5" ry="23.9"/>
	<path class="st2" d="M201,119.9c1.6-1.8,9-6,5.5-1.4C202.9,123,199.3,121.7,201,119.9z"/>
	<path class="st2" d="M187.4,118.9c0,1.6-1.3,3.7-4.9,3.3c-3.5-0.4,0.6-1.9,1.7-1.6c1.1,0.2,1.6-3.4,3.1-2.6V118.9z"/>
	<path class="st2" d="M216.2,137.7c1.3-2.5,7-2.4,3.3,1.3C215.7,142.7,214.8,140.5,216.2,137.7z"/>
	<path class="st2" d="M196.8,137.7c0.7-1.6,3.7-1.6,1.7,0.9C196.6,140.9,196.1,139.5,196.8,137.7z"/>
	<path class="st2" d="M214.6,147.1c0.7-1.6,3.7-1.6,1.7,0.9C214.3,150.4,213.9,149,214.6,147.1z"/>
	<path class="st2" d="M211.2,125c-0.1,1.6,0.4,3.1,1.2,1.9c0.8-1.2,2.7-1.4,1.3-1.9C212.3,124.5,211.2,125,211.2,125z"/>
	<path class="st2" d="M186.6,146.2c-0.1,1.6,0.4,3.1,1.2,1.9c0.8-1.2,2.7-1.4,1.3-1.9C187.8,145.8,186.6,146.2,186.6,146.2z"/>
	<path class="st2" d="M193.7,121.8c-0.1,1.6,0.4,3.1,1.2,1.9c0.8-1.2,2.7-1.4,1.3-1.9C194.8,121.3,193.7,121.8,193.7,121.8z"/>
	<path class="st2" d="M198.7,113l-2.6,2.5c0,0,0.5,1,1.3,0.4S200.9,112.2,198.7,113z"/>
	<path class="st2" d="M197.9,150l-2.6,2.5c0,0,0.5,1,1.3,0.4C197.4,152.3,200,149.2,197.9,150z"/>
	<path class="st2" d="M209.5,136.1l-2.6,2.5c0,0,0.5,1,1.3,0.4C209,138.4,211.6,135.3,209.5,136.1z"/>
	<path class="st2" d="M208.4,148.3l-2.6,2.5c0,0,0.5,1,1.3,0.4C207.9,150.7,210.5,147.5,208.4,148.3z"/>
	<path class="st2" d="M223,126.9l-2.6,2.5c0,0,0.5,1,1.3,0.4C222.4,129.3,225.1,126.1,223,126.9z"/>
	<path class="st2" d="M215.1,114.1l-2.6,2.5c0,0,0.5,1,1.3,0.4C214.6,116.4,217.3,113.3,215.1,114.1z"/>
	<path class="st2" d="M188.2,135.8c-0.5,2,1.5,3.5,1.8,0.7C190.3,133.6,188.9,132.7,188.2,135.8z"/>
	<path class="st2" d="M198.7,131.3c-1.2,2.2-3.9,0.1-2.8-1.3c1.1-1.4,4-1.5,5.6-1.5c1.5,0,3.9,2.8,0.6,2.8S200.2,128.4,198.7,131.3z
		"/>
	<path class="st2" d="M201.8,146.3c-0.8,0.7-2.8,0-2-0.4c0.8-0.5,2.9-0.5,4-0.5s2.8,0.9,0.4,0.9S202.9,145.4,201.8,146.3z"/>
	<path class="st2" d="M184,134.9c-1.6-1-5.1-2.2-3.1-0.4C182.9,136.2,184.9,135.4,184,134.9z"/>
</g>
<g>
	<ellipse class="st1" cx="164" cy="156" rx="25.5" ry="23.9"/>
	<path class="st2" d="M162.4,143.8c1.6-1.8,9-6,5.5-1.4C164.3,146.9,160.8,145.6,162.4,143.8z"/>
	<path class="st2" d="M148.8,142.8c0,1.6-1.3,3.7-4.9,3.3c-3.5-0.4,0.6-1.9,1.7-1.6c1.1,0.2,1.6-3.4,3.1-2.6V142.8z"/>
	<path class="st2" d="M177.7,161.6c1.3-2.5,7-2.4,3.3,1.3C177.2,166.7,176.3,164.4,177.7,161.6z"/>
	<path class="st2" d="M158.3,161.6c0.7-1.6,3.7-1.6,1.7,0.9C158,164.9,157.5,163.4,158.3,161.6z"/>
	<path class="st2" d="M176.1,171.1c0.7-1.6,3.7-1.6,1.7,0.9C175.8,174.4,175.3,172.9,176.1,171.1z"/>
	<path class="st2" d="M172.6,148.9c-0.1,1.6,0.4,3.1,1.2,1.9s2.7-1.4,1.3-1.9S172.6,148.9,172.6,148.9z"/>
	<path class="st2" d="M148.1,170.2c-0.1,1.6,0.4,3.1,1.2,1.9s2.7-1.4,1.3-1.9C149.2,169.7,148.1,170.2,148.1,170.2z"/>
	<path class="st2" d="M155.2,145.7c-0.1,1.6,0.4,3.1,1.2,1.9s2.7-1.4,1.3-1.9C156.3,145.2,155.2,145.7,155.2,145.7z"/>
	<path class="st2" d="M160.2,136.9l-2.6,2.5c0,0,0.5,1,1.3,0.4C159.7,139.2,162.3,136.1,160.2,136.9z"/>
	<path class="st2" d="M159.3,173.9l-2.6,2.5c0,0,0.5,1,1.3,0.4C158.8,176.2,161.5,173.1,159.3,173.9z"/>
	<path class="st2" d="M171,160l-2.6,2.5c0,0,0.5,1,1.3,0.4C170.5,162.3,173.1,159.2,171,160z"/>
	<path class="st2" d="M169.9,172.3l-2.6,2.5c0,0,0.5,1,1.3,0.4C169.4,174.6,172,171.5,169.9,172.3z"/>
	<path class="st2" d="M184.4,150.9l-2.6,2.5c0,0,0.5,1,1.3,0.4C183.9,153.2,186.5,150.1,184.4,150.9z"/>
	<path class="st2" d="M176.6,138l-2.6,2.5c0,0,0.5,1,1.3,0.4C176.1,140.4,178.7,137.2,176.6,138z"/>
	<path class="st2" d="M149.7,159.7c-0.5,2,1.5,3.5,1.8,0.7C151.8,157.6,150.4,156.7,149.7,159.7z"/>
	<path class="st2" d="M160.1,155.2c-1.2,2.2-3.9,0.1-2.8-1.3c1.1-1.4,4-1.5,5.6-1.5c1.5,0,3.9,2.8,0.6,2.8S161.6,152.3,160.1,155.2z
		"/>
	<path class="st2" d="M163.3,170.3c-0.8,0.7-2.8,0-2-0.4c0.8-0.5,2.9-0.5,4-0.5s2.8,0.9,0.4,0.9
		C163.3,170.3,164.4,169.3,163.3,170.3z"/>
	<path class="st2" d="M145.5,158.8c-1.6-1-5.1-2.2-3.1-0.4C144.4,160.1,146.4,159.3,145.5,158.8z"/>
</g>
<g>
	<ellipse class="st1" cx="133.5" cy="171.6" rx="25.5" ry="23.9"/>
	<path class="st2" d="M131.9,159.5c1.6-1.8,9-6,5.5-1.4C133.9,162.6,130.3,161.3,131.9,159.5z"/>
	<path class="st2" d="M118.3,158.5c0,1.6-1.3,3.7-4.9,3.3c-3.5-0.4,0.6-1.9,1.7-1.6c1.1,0.2,1.6-3.4,3.1-2.6V158.5z"/>
	<path class="st2" d="M147.2,177.3c1.3-2.5,7-2.4,3.3,1.3C146.7,182.3,145.8,180.1,147.2,177.3z"/>
	<path class="st2" d="M127.8,177.2c0.7-1.6,3.7-1.6,1.7,0.9C127.5,180.5,127.1,179.1,127.8,177.2z"/>
	<path class="st2" d="M145.6,186.7c0.7-1.6,3.7-1.6,1.7,0.9C145.3,190,144.8,188.6,145.6,186.7z"/>
	<path class="st2" d="M142.2,164.6c-0.1,1.6,0.4,3.1,1.2,1.9s2.7-1.4,1.3-1.9S142.2,164.6,142.2,164.6z"/>
	<path class="st2" d="M117.6,185.8c-0.1,1.6,0.4,3.1,1.2,1.9c0.8-1.2,2.7-1.4,1.3-1.9S117.6,185.8,117.6,185.8z"/>
	<path class="st2" d="M124.7,161.3c-0.1,1.6,0.4,3.1,1.2,1.9c0.8-1.2,2.7-1.4,1.3-1.9S124.7,161.3,124.7,161.3z"/>
	<path class="st2" d="M129.7,152.6l-2.6,2.5c0,0,0.5,1,1.3,0.4C129.2,154.9,131.8,151.8,129.7,152.6z"/>
	<path class="st2" d="M128.9,189.6l-2.6,2.5c0,0,0.5,1,1.3,0.4S131,188.7,128.9,189.6z"/>
	<path class="st2" d="M140.5,175.7l-2.6,2.5c0,0,0.5,1,1.3,0.4C140,178,142.6,174.9,140.5,175.7z"/>
	<path class="st2" d="M139.4,187.9l-2.6,2.5c0,0,0.5,1,1.3,0.4C138.9,190.2,141.5,187.1,139.4,187.9z"/>
	<path class="st2" d="M153.9,166.5l-2.6,2.5c0,0,0.5,1,1.3,0.4C153.4,168.9,156.1,165.7,153.9,166.5z"/>
	<path class="st2" d="M146.1,153.7l-2.6,2.5c0,0,0.5,1,1.3,0.4C145.6,156,148.2,152.9,146.1,153.7z"/>
	<path class="st2" d="M119.2,175.4c-0.5,2,1.5,3.5,1.8,0.7C121.3,173.2,119.9,172.3,119.2,175.4z"/>
	<path class="st2" d="M129.6,170.8c-1.2,2.2-3.9,0.1-2.8-1.3c1.1-1.4,4-1.5,5.6-1.5c1.5,0,3.9,2.8,0.6,2.8S131.2,168,129.6,170.8z"
		/>
	<path class="st2" d="M132.8,185.9c-0.8,0.7-2.8,0-2-0.4c0.8-0.5,2.9-0.5,4-0.5s2.8,0.9,0.4,0.9S133.9,185,132.8,185.9z"/>
	<path class="st2" d="M115,174.5c-1.6-1-5.1-2.2-3.1-0.4S115.9,175,115,174.5z"/>
</g>
<g>
	<ellipse class="st1" cx="153" cy="111.7" rx="25.5" ry="23.9"/>
	<path class="st2" d="M151.5,99.6c1.6-1.8,9-6,5.5-1.4C153.4,102.7,149.9,101.4,151.5,99.6z"/>
	<path class="st2" d="M137.9,98.6c0,1.6-1.3,3.7-4.9,3.3c-3.5-0.4,0.6-1.9,1.7-1.6c1.1,0.2,1.6-3.4,3.1-2.6V98.6z"/>
	<path class="st2" d="M166.8,117.4c1.3-2.5,7-2.4,3.3,1.3C166.3,122.4,165.3,120.2,166.8,117.4z"/>
	<path class="st2" d="M147.3,117.3c0.7-1.6,3.7-1.6,1.7,0.9C147.1,120.6,146.6,119.2,147.3,117.3z"/>
	<path class="st2" d="M165.1,126.8c0.7-1.6,3.7-1.6,1.7,0.9C164.9,130.1,164.4,128.7,165.1,126.8z"/>
	<path class="st2" d="M161.7,104.7c-0.1,1.6,0.4,3.1,1.2,1.9c0.8-1.2,2.7-1.4,1.3-1.9C162.8,104.2,161.7,104.7,161.7,104.7z"/>
	<path class="st2" d="M137.2,125.9c-0.1,1.6,0.4,3.1,1.2,1.9c0.8-1.2,2.7-1.4,1.3-1.9S137.2,125.9,137.2,125.9z"/>
	<path class="st2" d="M144.2,101.4c-0.1,1.6,0.4,3.1,1.2,1.9c0.8-1.2,2.7-1.4,1.3-1.9C145.4,101,144.2,101.4,144.2,101.4z"/>
	<path class="st2" d="M149.3,92.7l-2.6,2.5c0,0,0.5,1,1.3,0.4S151.4,91.9,149.3,92.7z"/>
	<path class="st2" d="M148.4,129.6l-2.6,2.5c0,0,0.5,1,1.3,0.4C147.9,132,150.5,128.8,148.4,129.6z"/>
	<path class="st2" d="M160,115.8l-2.6,2.5c0,0,0.5,1,1.3,0.4C159.5,118.1,162.2,115,160,115.8z"/>
	<path class="st2" d="M158.9,128l-2.6,2.5c0,0,0.5,1,1.3,0.4C158.4,130.3,161.1,127.2,158.9,128z"/>
	<path class="st2" d="M173.5,106.6l-2.6,2.5c0,0,0.5,1,1.3,0.4C173,109,175.6,105.8,173.5,106.6z"/>
	<path class="st2" d="M165.6,93.8l-2.6,2.5c0,0,0.5,1,1.3,0.4C165.1,96.1,167.8,93,165.6,93.8z"/>
	<path class="st2" d="M138.7,115.5c-0.5,2,1.5,3.5,1.8,0.7C140.9,113.3,139.4,112.4,138.7,115.5z"/>
	<path class="st2" d="M149.2,110.9c-1.2,2.2-3.9,0.1-2.8-1.3c1.1-1.4,4-1.5,5.6-1.5c1.5,0,3.9,2.8,0.6,2.8S150.7,108.1,149.2,110.9z
		"/>
	<path class="st2" d="M152.3,126c-0.8,0.7-2.8,0-2-0.4c0.8-0.5,2.9-0.5,4-0.5s2.8,0.9,0.4,0.9C152.3,126,153.4,125.1,152.3,126z"/>
	<path class="st2" d="M134.5,114.6c-1.6-1-5.1-2.2-3.1-0.4S135.4,115.1,134.5,114.6z"/>
</g>
<g>
	<ellipse class="st1" cx="115" cy="133.8" rx="25.5" ry="23.9"/>
	<path class="st2" d="M113.5,121.6c1.6-1.8,9-6,5.5-1.4C115.4,124.7,111.9,123.4,113.5,121.6z"/>
	<path class="st2" d="M99.9,120.6c0,1.6-1.3,3.7-4.9,3.3s0.6-1.9,1.7-1.6c1.1,0.2,1.6-3.4,3.1-2.6V120.6z"/>
	<path class="st2" d="M128.8,139.4c1.3-2.5,7-2.4,3.3,1.3C128.3,144.5,127.4,142.2,128.8,139.4z"/>
	<path class="st2" d="M109.4,139.4c0.7-1.6,3.7-1.6,1.7,0.9S108.6,141.2,109.4,139.4z"/>
	<path class="st2" d="M127.1,148.9c0.7-1.6,3.7-1.6,1.7,0.9C126.9,152.1,126.4,150.7,127.1,148.9z"/>
	<path class="st2" d="M123.7,126.7c-0.1,1.6,0.4,3.1,1.2,1.9c0.8-1.2,2.7-1.4,1.3-1.9C124.8,126.2,123.7,126.7,123.7,126.7z"/>
	<path class="st2" d="M99.2,147.9c-0.1,1.6,0.4,3.1,1.2,1.9c0.8-1.2,2.7-1.4,1.3-1.9C100.3,147.5,99.2,147.9,99.2,147.9z"/>
	<path class="st2" d="M106.3,123.5c-0.1,1.6,0.4,3.1,1.2,1.9s2.7-1.4,1.3-1.9S106.3,123.5,106.3,123.5z"/>
	<path class="st2" d="M111.3,114.7l-2.6,2.5c0,0,0.5,1,1.3,0.4S113.4,113.9,111.3,114.7z"/>
	<path class="st2" d="M110.4,151.7l-2.6,2.5c0,0,0.5,1,1.3,0.4C109.9,154,112.5,150.9,110.4,151.7z"/>
	<path class="st2" d="M122.1,137.8l-2.6,2.5c0,0,0.5,1,1.3,0.4C121.6,140.1,124.2,137,122.1,137.8z"/>
	<path class="st2" d="M121,150.1l-2.6,2.5c0,0,0.5,1,1.3,0.4S123.1,149.2,121,150.1z"/>
	<path class="st2" d="M135.5,128.7l-2.6,2.5c0,0,0.5,1,1.3,0.4C135,131,137.6,127.9,135.5,128.7z"/>
	<path class="st2" d="M127.7,115.8l-2.6,2.5c0,0,0.5,1,1.3,0.4C127.2,118.1,129.8,115,127.7,115.8z"/>
	<path class="st2" d="M100.8,137.5c-0.5,2,1.5,3.5,1.8,0.7C102.9,135.4,101.5,134.5,100.8,137.5z"/>
	<path class="st2" d="M111.2,133c-1.2,2.2-3.9,0.1-2.8-1.3c1.1-1.4,4-1.5,5.6-1.5s3.9,2.8,0.6,2.8S112.7,130.1,111.2,133z"/>
	<path class="st2" d="M114.4,148c-0.8,0.7-2.8,0-2-0.4c0.8-0.5,2.9-0.5,4-0.5s2.8,0.9,0.4,0.9C114.4,148,115.4,147.1,114.4,148z"/>
	<path class="st2" d="M96.6,136.6c-1.6-1-5.1-2.2-3.1-0.4C95.4,137.9,97.5,137.1,96.6,136.6z"/>
</g>
<g>
	<ellipse class="st1" cx="81.1" cy="150.9" rx="25.5" ry="23.9"/>
	<path class="st2" d="M79.5,138.7c1.6-1.8,9-6,5.5-1.4C81.4,141.9,77.9,140.6,79.5,138.7z"/>
	<path class="st2" d="M65.9,137.7c0,1.6-1.3,3.7-4.9,3.3c-3.5-0.4,0.6-1.9,1.7-1.6c1.1,0.2,1.6-3.4,3.1-2.6V137.7z"/>
	<path class="st2" d="M94.8,156.5c1.3-2.5,7-2.4,3.3,1.3C94.3,161.6,93.4,159.4,94.8,156.5z"/>
	<path class="st2" d="M75.4,156.5c0.7-1.6,3.7-1.6,1.7,0.9S74.6,158.4,75.4,156.5z"/>
	<path class="st2" d="M93.1,166c0.7-1.6,3.7-1.6,1.7,0.9S92.4,167.8,93.1,166z"/>
	<path class="st2" d="M89.7,143.9c-0.1,1.6,0.4,3.1,1.2,1.9c0.8-1.2,2.7-1.4,1.3-1.9S89.7,143.9,89.7,143.9z"/>
	<path class="st2" d="M65.2,165.1c-0.1,1.6,0.4,3.1,1.2,1.9c0.8-1.2,2.7-1.4,1.3-1.9C66.3,164.6,65.2,165.1,65.2,165.1z"/>
	<path class="st2" d="M72.3,140.6c-0.1,1.6,0.4,3.1,1.2,1.9c0.8-1.2,2.7-1.4,1.3-1.9C73.4,140.2,72.3,140.6,72.3,140.6z"/>
	<path class="st2" d="M77.3,131.9l-2.6,2.5c0,0,0.5,1,1.3,0.4C76.8,134.2,79.4,131,77.3,131.9z"/>
	<path class="st2" d="M76.4,168.8l-2.6,2.5c0,0,0.5,1,1.3,0.4C75.9,171.2,78.5,168,76.4,168.8z"/>
	<path class="st2" d="M88.1,154.9l-2.6,2.5c0,0,0.5,1,1.3,0.4C87.6,157.3,90.2,154.1,88.1,154.9z"/>
	<path class="st2" d="M87,167.2l-2.6,2.5c0,0,0.5,1,1.3,0.4C86.5,169.5,89.1,166.4,87,167.2z"/>
	<path class="st2" d="M101.5,145.8l-2.6,2.5c0,0,0.5,1,1.3,0.4C101,148.1,103.6,145,101.5,145.8z"/>
	<path class="st2" d="M93.7,133l-2.6,2.5c0,0,0.5,1,1.3,0.4S95.8,132.2,93.7,133z"/>
	<path class="st2" d="M66.8,154.6c-0.5,2,1.5,3.5,1.8,0.7C68.9,152.5,67.5,151.6,66.8,154.6z"/>
	<path class="st2" d="M77.2,150.1c-1.2,2.2-3.9,0.1-2.8-1.3c1.1-1.4,4-1.5,5.6-1.5s3.9,2.8,0.6,2.8
		C77.2,150.1,78.7,147.3,77.2,150.1z"/>
	<path class="st2" d="M80.4,165.2c-0.8,0.7-2.8,0-2-0.4c0.8-0.5,2.9-0.5,4-0.5s2.8,0.9,0.4,0.9C80.4,165.2,81.4,164.2,80.4,165.2z"
		/>
	<path class="st2" d="M62.6,153.7c-1.6-1-5.1-2.2-3.1-0.4S63.5,154.3,62.6,153.7z"/>
</g>
<polygon class="st3" points="137.6,178.8 137.6,229.5 234,173 248.2,133.1 "/>
<polygon class="st3" points="137.6,178.8 132.5,181.3 46.4,144.7 40.6,133.1 50.9,178.8 137.6,229.5 "/>
<path class="st4" d="M107.9,202.9l-2.5-1.4c0.2-0.6,0.3-1.2,0.3-1.4l2.5,1.4C108.1,202,107.9,202.5,107.9,202.9z"/>
<path class="st4" d="M106.8,196.7l2.7,1.6c7.3-24.4,11.3-14.8,4.3,11.5l2.7,1.6c5.3-23.5,2.4-37.9-6.1-23.3
	c0.5-20-9.2-10.6-14.5,11.2l2.6,1.5C105,175.6,111.7,169.7,106.8,196.7z"/>
<text transform="matrix(0.8478 0.4671 -0.2161 0.9764 100.8337 197.2823)" class="st0 st5 st6">McData</text>
</svg>
