<?xml version="1.0" encoding="utf-8"?>
<!-- Generator: Adobe Illustrator 24.1.0, SVG Export Plug-In . SVG Version: 6.00 Build 0)  -->
<svg version="1.1" id="Calque_1" xmlns="http://www.w3.org/2000/svg" xmlns:xlink="http://www.w3.org/1999/xlink" x="0px" y="0px"
	 viewBox="0 0 283.5 283.5" style="enable-background:new 0 0 283.5 283.5;" xml:space="preserve">
<style type="text/css">
	.st0{fill:#22A84D;stroke:#00983A;stroke-miterlimit:10;}
	.st1{fill:none;stroke:#00983A;stroke-miterlimit:10;}
	.st2{fill:#F9DDC2;}
	.st3{fill:#EBAE68;}
	.st4{fill:#E98626;}
	.st5{fill:#E84710;}
	.st6{fill:#9C1914;}
	.st7{fill:#C3153D;}
	.st8{fill:#F9D0DF;}
	.st9{fill:none;stroke:#000000;stroke-width:0.5;stroke-miterlimit:10;}
	.st10{fill:#FFDE3F;}
	.st11{fill:#F59A00;}
	.st12{fill:none;stroke:#FFD007;stroke-width:0.5;stroke-miterlimit:10;}
	.st13{fill:#FFF5E9;stroke:#000000;stroke-miterlimit:10;}
</style>
<g>
	<path class="st0" d="M207.3,101.5c-14.7-7.5-35.8-19.5-44.9,15.3c-3.4,5.3-7.3,9-19-1.6c-2-10.3-8.7-32.3,1.9-49
		c-6.2-11.3,1-17.5,4.9-17.3c2.5-12.7,7.9-18,21.2-13c6.2-9.6,12.8-10.8,19.2-6.4c5.1-7.3,9.4-6.8,17.7-0.8
		c11.9,2.6,16,8.8,10.4,14.6c16.1,10,7.8,14.5,6.7,16.8c12.2,9.7,11.8,32.6-21.5,26.4C215.2,93.9,207.3,101.5,207.3,101.5z"/>
	<path class="st1" d="M213.3,60c-24.6-22.1-61.6,14.1-59.9,61.8"/>
	<path class="st1" d="M208.6,46.9c-4.2,1.5-6.4,7-6.2,7.1"/>
	<path class="st1" d="M203.9,67.4c-4.6-4-11.1-10.5-18.7-11.3"/>
	<path class="st1" d="M174.3,46.3c-1.4,2.8-5.3,12.6,0.4,17.2"/>
	<path class="st1" d="M180.6,77.9c-4.9-1.8-14-5.1-15.5-2.4"/>
</g>
<g>
	<path class="st2" d="M232.6,78.7c-8.8,2.1-24.8,11.6-24.9,13.7c-9.9-4-9,4.5-9.9,6.9c-4.7,1.9-2.3,2.9-9.5,3
		c-3.5-0.3-7.4,3.6-7.8,4.7c-6.9-0.5-13.1,2.2-17.5,1.9c1.8-5.2,10.5-16,13.2-15.4s7.1-0.8,7.6-3.3c0.6-2.5,12.4-9.4,16.4-9.9
		c4.1-0.5,5.8-2.7,6.6-5c3.6,1.9,6.4,1.2,9.9-0.5C227.8,74.8,227.6,76.3,232.6,78.7z"/>
	<path class="st3" d="M163,108.6c2.6,4,7.4,18.4,20.8,8.4c-2-1.6-7.7-10.3-8-10.4C172.5,106.7,163.9,108.7,163,108.6z"/>
	<path class="st4" d="M183.8,116.9c1.5,0,5.8-1.3,5.7-1.7c-0.1-0.4-7.9-9.6-8.1-9.8c-0.5,0.6-0.8,0.9-0.9,1.2
		c-1.9-0.1-4.3-0.2-4.7-0.2C177.6,108.8,183.1,117,183.8,116.9z"/>
	<path class="st3" d="M181.4,105.5c4.8-4.5,6.2-3.2,9.6-3.6c3.4-0.4,3.6-1.1,4-1.4c0.8-0.7,1.2-0.7,1.3-0.8c0.4,1.7,5.4,8.4,6.8,9.2
		c-2.1,1.5-6.7,7.7-13.6,6.3C188.6,113.7,181.5,105.8,181.4,105.5z"/>
	<path class="st4" d="M203.1,108.9c1.5-0.4,5.5-1.4,6-1.7c0.6-0.3-10.5-10.3-10.7-10.9c-0.5,1.4-0.6,2.7-0.6,3.1
		c-0.6,0.2-1.3,0-1.4,0.4C196,100.1,201.5,108.2,203.1,108.9z"/>
	<path class="st3" d="M209.1,107.2c1.6-0.2,6.5-1.9,8.9-7.2c0.8-0.3,2.2-1,2.2-1.4c-2.1-1.2-8.8-9.3-8.8-9.7
		c-1.2,0.9-3.5,2.4-3.8,3.5c-0.8-0.3-7.9-4.1-9.3,3.8C201,99.4,209.3,106.7,209.1,107.2z"/>
	<path class="st4" d="M220.2,98.6c0.9-0.2,3.8-1.3,3.8-1.9c0-0.6-7.9-10.4-8.4-10.5c-1.4,0.8-3.9,2.2-4.2,2.7
		C212.1,90.4,219.4,98.8,220.2,98.6z"/>
	<path class="st3" d="M224,96.7c1.8-0.3,5.5-1.7,6.4-5c1.4-2.2,4.6-6.1,7.3-5.4c0.6-2.2-1.8-7.4-5.2-7.6c-5.3,1-15.8,6.3-16.9,7.5
		C217.1,87.8,224,96.3,224,96.7z"/>
</g>
<g>
	<path class="st5" d="M159.9,35.3l33.9,13.2c4.2,4.8-3.4,12.9-6.7,17.2c-1.7,7-1.7,20.8-14.2,39.7c-5,17.4-8.6,30.6-14.9,38.3
		c-4.5,15.4-5.7,24.8-10.8,22.4l-34-11.7c-3.8-3.5-0.1-6.5,5.8-16.2c3.9-12.1,6.6-27,16.6-41.4c4.5-13.1,4-22.3,14.6-37.5
		C153.2,44.2,155.7,35.7,159.9,35.3z"/>
	<path class="st6" d="M156.6,57.1c-4,7.6-12.9,23.2-15.1,38.8c-5.1,9.8-12.5,22.8-13.6,33.4c-2.6,8.3-8,18.9-9.6,21
		c-0.9,2.2,1.2,6.2,1.5,6.3s5.5,1.9,5.5,1.9c-0.9-4.3-2.5-4.3,5.1-16c4.8-9.7,5.2-18.6,6.2-21.2c3.7-8.8,6.6-14.7,8.6-17.7
		c3.8-5.8,6-29.1,15.5-39.4c2.4-4.2,5.5-17.6,5.7-19c1.7-2.3,3.1-4.8,5.3-5.4l-5.7-2.2C160.9,40.4,159.7,39.8,156.6,57.1z"/>
	<path class="st6" d="M181.9,67.1c-2.2,8.3-6.1,25.8-15.1,38.8c-2.8,10.7-6.2,25.3-12.5,33.9c-3.7,7.9-6.8,19.3-7.1,22
		c-0.8,2.2-5,3.8-5.3,3.6c-0.3-0.1-5.4-2.3-5.4-2.3c3.5-2.5,4.8-1.5,7-15.3c3-10.4,8.7-17.2,9.7-19.8c3.2-9,5-15.3,5.6-18.9
		c1.1-6.8,15.2-25.6,15.1-39.5c1-4.7,7.8-16.7,8.6-17.9c0.3-2.9,1-5.7-0.3-7.5l5.7,2.2C189.9,51.8,191.3,52.2,181.9,67.1z"/>
</g>
<g>
	<path class="st7" d="M139.9,109c0.6,1.5-3.8-1.3-4-1.6c-1.1-12.7,17.9-42.6,28.5-45.1c1.2,0.3,2.7,1.4,3.7,2.1
		C156.4,68.2,135.4,97,139.9,109z"/>
	<ellipse transform="matrix(0.5425 -0.84 0.84 0.5425 -2.5262 170.1949)" class="st8" cx="155" cy="87.4" rx="26.8" ry="8.5"/>
	<ellipse transform="matrix(0.5425 -0.84 0.84 0.5425 -2.4392 169.8112)" class="st9" cx="154.7" cy="87.1" rx="22.6" ry="7.1"/>
	
		<ellipse transform="matrix(0.5423 -0.8402 0.8402 0.5423 -2.0338 169.8677)" class="st9" cx="154.9" cy="86.8" rx="17.5" ry="5.4"/>
	<ellipse transform="matrix(0.5423 -0.8402 0.8402 0.5423 -2.4043 169.846)" class="st9" cx="154.7" cy="87.1" rx="12.1" ry="3.7"/>
	<path class="st9" d="M156,89.1c-1.9,2.9-7.4,9.2-5.4,0.4C152.5,88.2,154.9,87.9,156,89.1z"/>
	<path class="st9" d="M157.1,86.7c-0.5-0.3-3.4-0.5-4.3-0.1c-0.1,0-0.2-0.1-0.2-0.2C154.3,83.4,162.9,74.5,157.1,86.7z"/>
</g>
<g>
	<polygon class="st10" points="157.6,121.4 167.9,123.5 153.2,108.4 144.8,108 	"/>
	<path class="st10" d="M196.2,87.1l-28.3,36.4l-14.7-15.2L178,76.8c2.7-0.4,4.1-1.2,4.3-1.8L196.2,87.1z"/>
	<path class="st10" d="M170,74l-4.1,5.3c-0.4,1.7-1.9,4.3-3.9,5.3L144.8,108l8.4,0.4L178,76.8c-0.4-1.2-1.1-1.5,0-3.1L170,74z"/>
	<ellipse transform="matrix(0.6554 -0.7552 0.7552 0.6554 -11.9317 153.246)" class="st11" cx="162" cy="89.7" rx="2.9" ry="1"/>
	
		<ellipse transform="matrix(0.6555 -0.7552 0.7552 0.6555 -23.21 150.6303)" class="st11" cx="153.5" cy="100.8" rx="4.2" ry="1.5"/>
	<ellipse transform="matrix(0.651 -0.7591 0.7591 0.651 -2.5378 158.1442)" class="st11" cx="170.7" cy="81.8" rx="1.7" ry="0.7"/>
	
		<ellipse transform="matrix(0.5862 -0.8102 0.8102 0.5862 -4.2921 178.3813)" class="st11" cx="172.5" cy="93.4" rx="4.3" ry="3.1"/>
	<ellipse transform="matrix(0.6726 -0.74 0.74 0.6726 -10.9 165.8239)" class="st11" cx="181.9" cy="95.2" rx="5.1" ry="2.6"/>
	<ellipse transform="matrix(0.6407 -0.7678 0.7678 0.6407 -22.1821 168.5553)" class="st11" cx="169" cy="108" rx="2.9" ry="1.5"/>
	
		<ellipse transform="matrix(0.6801 -0.7331 0.7331 0.6801 -34.1557 147.8803)" class="st11" cx="152.4" cy="113.1" rx="1.4" ry="1.9"/>
	
		<ellipse transform="matrix(0.5651 -0.825 0.825 0.5651 -28.3748 181.8243)" class="st11" cx="158.3" cy="117.8" rx="1.4" ry="1.1"/>
	<polyline class="st12" points="178,76.8 153.2,108.4 167.9,123.5 	"/>
	<line class="st12" x1="153.2" y1="108.4" x2="144.8" y2="108"/>
</g>
<g>
	<path class="st13" d="M143.6,62.3c-1.8,3.9-20.3,11.6-21.6,30c-9.9,5.5-44.7,47.7-40.7,58.2c-14.2,15.3-45.2,73.7-30.5,50.5
		c-1,2.2-31,31.7-18.2,44.2c12.7,12.6,28.4-30.5,32.7-34.9c4.3-4.4,41.8-60.2,44.2-62.8s55.2-41.5,56.6-42.8
		C161.7,101.3,141.8,85,143.6,62.3z"/>
	<path class="st13" d="M225.9,95.6c-26.5,19.2-35.5,13.3-78.2,5.7c-16.3,7.9-12.7-4.5-43.7,33.9c-10.1,6-13.7,17.3-15.3,21.6
		c-5.2,6-14.8,20.8-16.2,29c-4.1,16.4-25.2,29.3-27.9,30.4c-3,10.1-18.4,33.7-8.8,39.2c6,5.5,20.8,19.7,34.8-4.4
		c7.4-12.3,18.1-26.3,27.9-28.2c13.2-8.8,41-34.2,43.3-41.1c7.2-13.2,23.6-31,26.9-32.9c15.6-12.3,55.8-38.4,57.2-47.7
		C226.7,98.2,230.5,95.1,225.9,95.6z"/>
</g>
</svg>
