<?xml version="1.0" encoding="utf-8"?>
<!-- Generator: Adobe Illustrator 24.1.0, SVG Export Plug-In . SVG Version: 6.00 Build 0)  -->
<svg version="1.1" id="Calque_1" xmlns="http://www.w3.org/2000/svg" xmlns:xlink="http://www.w3.org/1999/xlink" x="0px" y="0px"
	 viewBox="0 0 283.5 283.5" style="enable-background:new 0 0 283.5 283.5;" xml:space="preserve">
<style type="text/css">
	.st0{fill:#22A84D;stroke:#00983A;stroke-miterlimit:10;}
	.st1{fill:none;stroke:#00983A;stroke-miterlimit:10;}
	.st2{fill:#FFF2CC;}
	.st3{fill:#F9E1A5;}
	.st4{fill:#F9DDC2;}
	.st5{fill:#EBAE68;}
	.st6{fill:#E98626;}
	.st7{fill:#FFF5E9;stroke:#000000;stroke-miterlimit:10;}
</style>
<g>
	<path class="st0" d="M207.3,101.5c-14.7-7.5-35.8-19.5-44.9,15.3c-3.4,5.3-7.3,9-19-1.6c-2-10.3-8.7-32.3,1.9-49
		c-6.2-11.3,1-17.5,4.9-17.3c2.5-12.7,7.9-18,21.2-13c6.2-9.6,12.8-10.8,19.2-6.4c5.1-7.3,9.4-6.8,17.7-0.8
		c11.9,2.6,16,8.8,10.4,14.6c16.1,10,7.8,14.5,6.7,16.8c12.2,9.7,11.8,32.6-21.5,26.4C215.2,93.9,207.3,101.5,207.3,101.5z"/>
	<path class="st1" d="M213.3,60c-24.6-22.1-61.6,14.1-59.9,61.8"/>
	<path class="st1" d="M208.6,46.9c-4.2,1.5-6.4,7-6.2,7.1"/>
	<path class="st1" d="M203.9,67.4c-4.6-4-11.1-10.5-18.7-11.3"/>
	<path class="st1" d="M174.3,46.3c-1.4,2.8-5.3,12.6,0.4,17.2"/>
	<path class="st1" d="M180.6,77.9c-4.9-1.8-14-5.1-15.5-2.4"/>
</g>
<g>
	<path class="st2" d="M133.8,155.6c-13.9-5.7-33-25.2-26.6-42.6c11.7-17,58.7-66,66.4-68c15.4-2.1,30.7,11.8,37.1,32.4
		C197.1,91.8,136.6,158.4,133.8,155.6z"/>
	<path class="st3" d="M183.5,67.3c-1.3-0.1-3.8,1.9-0.3,2C186.7,69.4,186,67.8,183.5,67.3z"/>
	<path class="st3" d="M178.2,85.7c1.5,0.4,4.7,0.2,3.2-3.6C179.6,81.2,177,82.3,178.2,85.7z"/>
	<path class="st3" d="M172.6,86.1c1.6,1.1,3.8,0,3-2.4C173.9,82.4,173.2,83.5,172.6,86.1z"/>
	<path class="st3" d="M155,87.9c0.8,1.3,2.2,2,1.9-0.6c0.7-1.1,1.2-2.2-0.2-1.6c-1.2-1.9-2.4-2.6-2.6-0.4
		C153.4,86.9,153.1,88.5,155,87.9z"/>
	<path class="st3" d="M136.1,87.1c-0.2-0.9,0.5-2.6,1.3-2.9C138.2,85.9,137.3,86.1,136.1,87.1z"/>
	<path class="st3" d="M136.7,104.6c0.2-1.3,0.8-3.1,2.8-3.6C138.7,102.3,138.1,103.7,136.7,104.6z"/>
	<path class="st3" d="M132.7,113.1c-1,1,2.1-3.6,2.8-3.6C135.7,111.2,133.2,112.6,132.7,113.1z"/>
	<path class="st3" d="M114.4,136.4c-0.5,1.1-0.1,2.5,0.3,2.5c0.4,0,0.5-1.2,0.3-1.5C114.8,137.1,114.4,136.4,114.4,136.4z"/>
</g>
<g>
	<path class="st4" d="M232.6,78.7c-8.8,2.1-24.8,11.6-24.9,13.7c-9.9-4-9,4.5-9.9,6.9c-4.7,1.9-2.3,2.9-9.5,3
		c-3.5-0.3-7.4,3.6-7.8,4.7c-6.9-0.5-13.1,2.2-17.5,1.9c1.8-5.2,10.5-16,13.2-15.4s7.1-0.8,7.6-3.3c0.6-2.5,12.4-9.4,16.4-9.9
		c4.1-0.5,5.8-2.7,6.6-5c3.6,1.9,6.4,1.2,9.9-0.5C227.8,74.8,227.6,76.3,232.6,78.7z"/>
	<path class="st5" d="M163,108.6c2.6,4,7.4,18.4,20.8,8.4c-2-1.6-7.7-10.3-8-10.4C172.5,106.7,163.9,108.7,163,108.6z"/>
	<path class="st6" d="M183.8,116.9c1.5,0,5.8-1.3,5.7-1.7c-0.1-0.4-7.9-9.6-8.1-9.8c-0.5,0.6-0.8,0.9-0.9,1.2
		c-1.9-0.1-4.3-0.2-4.7-0.2C177.6,108.8,183.1,117,183.8,116.9z"/>
	<path class="st5" d="M181.4,105.5c4.8-4.5,6.2-3.2,9.6-3.6c3.4-0.4,3.6-1.1,4-1.4c0.8-0.7,1.2-0.7,1.3-0.8c0.4,1.7,5.4,8.4,6.8,9.2
		c-2.1,1.5-6.7,7.7-13.6,6.3C188.6,113.7,181.5,105.8,181.4,105.5z"/>
	<path class="st6" d="M203.1,108.9c1.5-0.4,5.5-1.4,6-1.7c0.6-0.3-10.5-10.3-10.7-10.9c-0.5,1.4-0.6,2.7-0.6,3.1
		c-0.6,0.2-1.3,0-1.4,0.4C196,100.1,201.5,108.2,203.1,108.9z"/>
	<path class="st5" d="M209.1,107.2c1.6-0.2,6.5-1.9,8.9-7.2c0.8-0.3,2.2-1,2.2-1.4c-2.1-1.2-8.8-9.3-8.8-9.7
		c-1.2,0.9-3.5,2.4-3.8,3.5c-0.8-0.3-7.9-4.1-9.3,3.8C201,99.4,209.3,106.7,209.1,107.2z"/>
	<path class="st6" d="M220.2,98.6c0.9-0.2,3.8-1.3,3.8-1.9c0-0.6-7.9-10.4-8.4-10.5c-1.4,0.8-3.9,2.2-4.2,2.7
		C212.1,90.4,219.4,98.8,220.2,98.6z"/>
	<path class="st5" d="M224,96.7c1.8-0.3,5.5-1.7,6.4-5c1.4-2.2,4.6-6.1,7.3-5.4c0.6-2.2-1.8-7.4-5.2-7.6c-5.3,1-15.8,6.3-16.9,7.5
		C217.1,87.8,224,96.3,224,96.7z"/>
</g>
<g>
	<path class="st4" d="M161.5,64.3c-6.9,5.9-16.9,21.6-16,23.5c-10.6,0.9-6,8.1-5.7,10.6c-3.4,3.8-0.8,3.6-7.1,6.9
		c-3.2,1.3-5,6.5-4.8,7.7c-6.4,2.7-10.7,7.8-14.7,9.6c-0.7-5.4,2.1-19,4.8-19.7s6-3.9,5.3-6.4c-0.6-2.5,6.8-14,10.2-16.3
		c3.4-2.3,4-5,3.6-7.5c4,0.1,6.2-1.8,8.6-4.9C155.5,62.9,156,64.3,161.5,64.3z"/>
	<path class="st5" d="M113,122.3c4.2,2.4,14.9,13,22.3-1.9c-2.5-0.5-11.5-5.7-11.8-5.7C120.6,116.4,113.8,122,113,122.3z"/>
	<path class="st6" d="M135.3,120.4c1.3-0.7,4.6-3.8,4.3-4.1s-11.3-5-11.7-5c-0.2,0.8-0.3,1.2-0.2,1.5c-1.7,0.8-3.9,1.8-4.3,2
		C126.1,115.9,134.7,120.7,135.3,120.4z"/>
	<path class="st5" d="M127.9,111.3c2.2-6.2,4.1-5.7,6.9-7.5c2.9-2,2.7-2.6,3-3.1c0.4-1,0.7-1.2,0.8-1.3c1.1,1.3,8.6,5.1,10.2,5.2
		c-1.2,2.3-2.5,9.9-9.3,11.8C138.1,115.4,128.1,111.5,127.9,111.3z"/>
	<path class="st6" d="M148.9,104.5c1.2-1,4.2-3.7,4.6-4.3c0.4-0.5-14-4.5-14.5-4.9c0.2,1.4,0.7,2.7,0.9,3c-0.4,0.5-1.2,0.6-1.1,1
		C138.6,99.9,147.1,104.5,148.9,104.5z"/>
	<path class="st5" d="M153.4,100.2c1.4-0.9,5-4.6,4.7-10.4c0.6-0.6,1.5-1.9,1.3-2.2c-2.4-0.1-12.1-4.3-12.2-4.7
		c-0.7,1.3-2,3.7-1.8,4.8c-0.9,0.1-8.9,0-6.6,7.6C142.7,96.9,153.4,99.8,153.4,100.2z"/>
	<path class="st6" d="M159.4,87.6c0.8-0.6,2.8-2.9,2.6-3.4c-0.3-0.5-11.7-5.7-12.2-5.6c-0.9,1.4-2.5,3.7-2.6,4.3
		C148.5,83.9,158.8,88.2,159.4,87.6z"/>
	<path class="st5" d="M162,84.2c1.4-1.1,4.1-4,3.4-7.4c0.3-2.6,1.3-7.5,4.1-8.1c-0.4-2.3-5-5.8-8.1-4.5
		c-4.3,3.3-11.2,12.8-11.7,14.4C151.8,79.4,161.8,83.8,162,84.2z"/>
</g>
<g>
	<path class="st7" d="M143.6,62.3c-1.8,3.9-20.3,11.6-21.6,30c-9.9,5.5-44.7,47.7-40.7,58.2c-14.2,15.3-45.2,73.7-30.5,50.5
		c-1,2.2-31,31.7-18.2,44.2c12.7,12.6,28.4-30.5,32.7-34.9c4.3-4.4,41.8-60.2,44.2-62.8s55.2-41.5,56.6-42.8
		C161.7,101.3,141.8,85,143.6,62.3z"/>
	<path class="st7" d="M225.9,95.6c-26.5,19.2-35.5,13.3-78.2,5.7c-16.3,7.9-12.7-4.5-43.7,33.9c-10.1,6-13.7,17.3-15.3,21.6
		c-5.2,6-14.8,20.8-16.2,29c-4.1,16.4-25.2,29.3-27.9,30.4c-3,10.1-18.4,33.7-8.8,39.2c6,5.5,20.8,19.7,34.8-4.4
		c7.4-12.3,18.1-26.3,27.9-28.2c13.2-8.8,41-34.2,43.3-41.1c7.2-13.2,23.6-31,26.9-32.9c15.6-12.3,55.8-38.4,57.2-47.7
		C226.7,98.2,230.5,95.1,225.9,95.6z"/>
</g>
</svg>
