<?xml version="1.0" encoding="utf-8"?>
<!-- Generator: Adobe Illustrator 24.1.0, SVG Export Plug-In . SVG Version: 6.00 Build 0)  -->
<svg version="1.1" id="Calque_1" xmlns="http://www.w3.org/2000/svg" xmlns:xlink="http://www.w3.org/1999/xlink" x="0px" y="0px"
	 viewBox="0 0 283.5 283.5" style="enable-background:new 0 0 283.5 283.5;" xml:space="preserve">
<style type="text/css">
	.st0{fill:#22A84D;stroke:#00983A;stroke-miterlimit:10;}
	.st1{fill:none;stroke:#00983A;stroke-miterlimit:10;}
	.st2{fill:#F9DDC2;}
	.st3{fill:#EBAE68;}
	.st4{fill:#E98626;}
	.st5{fill:#FFF5E9;stroke:#000000;stroke-miterlimit:10;}
</style>
<g>
	<path class="st0" d="M207.3,101.5c-14.7-7.5-35.8-19.5-44.9,15.3c-3.4,5.3-7.3,9-19-1.6c-2-10.3-8.7-32.3,1.9-49
		c-6.2-11.3,1-17.5,4.9-17.3c2.5-12.7,7.9-18,21.2-13c6.2-9.6,12.8-10.8,19.2-6.4c5.1-7.3,9.4-6.8,17.7-0.8
		c11.9,2.6,16,8.8,10.4,14.6c16.1,10,7.8,14.5,6.7,16.8c12.2,9.7,11.8,32.6-21.5,26.4C215.2,93.9,207.3,101.5,207.3,101.5z"/>
	<path class="st1" d="M213.3,60c-24.6-22.1-61.6,14.1-59.9,61.8"/>
	<path class="st1" d="M208.6,46.9c-4.2,1.5-6.4,7-6.2,7.1"/>
	<path class="st1" d="M203.9,67.4c-4.6-4-11.1-10.5-18.7-11.3"/>
	<path class="st1" d="M174.3,46.3c-1.4,2.8-5.3,12.6,0.4,17.2"/>
	<path class="st1" d="M180.6,77.9c-4.9-1.8-14-5.1-15.5-2.4"/>
</g>
<g>
	<path class="st2" d="M232.6,78.7c-8.8,2.1-24.8,11.6-24.9,13.7c-9.9-4-9,4.5-9.9,6.9c-4.7,1.9-2.3,2.9-9.5,3
		c-3.5-0.3-7.4,3.6-7.8,4.7c-6.9-0.5-13.1,2.2-17.5,1.9c1.8-5.2,10.5-16,13.2-15.4s7.1-0.8,7.6-3.3c0.6-2.5,12.4-9.4,16.4-9.9
		c4.1-0.5,5.8-2.7,6.6-5c3.6,1.9,6.4,1.2,9.9-0.5C227.8,74.8,227.6,76.3,232.6,78.7z"/>
	<path class="st3" d="M163,108.6c2.6,4,7.4,18.4,20.8,8.4c-2-1.6-7.7-10.3-8-10.4C172.5,106.7,163.9,108.7,163,108.6z"/>
	<path class="st4" d="M183.8,116.9c1.5,0,5.8-1.3,5.7-1.7c-0.1-0.4-7.9-9.6-8.1-9.8c-0.5,0.6-0.8,0.9-0.9,1.2
		c-1.9-0.1-4.3-0.2-4.7-0.2C177.6,108.8,183.1,117,183.8,116.9z"/>
	<path class="st3" d="M181.4,105.5c4.8-4.5,6.2-3.2,9.6-3.6c3.4-0.4,3.6-1.1,4-1.4c0.8-0.7,1.2-0.7,1.3-0.8c0.4,1.7,5.4,8.4,6.8,9.2
		c-2.1,1.5-6.7,7.7-13.6,6.3C188.6,113.7,181.5,105.8,181.4,105.5z"/>
	<path class="st4" d="M203.1,108.9c1.5-0.4,5.5-1.4,6-1.7c0.6-0.3-10.5-10.3-10.7-10.9c-0.5,1.4-0.6,2.7-0.6,3.1
		c-0.6,0.2-1.3,0-1.4,0.4C196,100.1,201.5,108.2,203.1,108.9z"/>
	<path class="st3" d="M209.1,107.2c1.6-0.2,6.5-1.9,8.9-7.2c0.8-0.3,2.2-1,2.2-1.4c-2.1-1.2-8.8-9.3-8.8-9.7
		c-1.2,0.9-3.5,2.4-3.8,3.5c-0.8-0.3-7.9-4.1-9.3,3.8C201,99.4,209.3,106.7,209.1,107.2z"/>
	<path class="st4" d="M220.2,98.6c0.9-0.2,3.8-1.3,3.8-1.9c0-0.6-7.9-10.4-8.4-10.5c-1.4,0.8-3.9,2.2-4.2,2.7
		C212.1,90.4,219.4,98.8,220.2,98.6z"/>
	<path class="st3" d="M224,96.7c1.8-0.3,5.5-1.7,6.4-5c1.4-2.2,4.6-6.1,7.3-5.4c0.6-2.2-1.8-7.4-5.2-7.6c-5.3,1-15.8,6.3-16.9,7.5
		C217.1,87.8,224,96.3,224,96.7z"/>
</g>
<g>
	<path class="st2" d="M177.5,55.3c-6.9,5.9-16.9,21.6-16,23.5c-10.6,0.9-6,8.1-5.7,10.6c-3.4,3.8-0.8,3.6-7.1,6.9
		c-3.2,1.3-5,6.5-4.8,7.7c-6.4,2.7-10.7,7.8-14.7,9.6c-0.7-5.4,2.1-19,4.8-19.7c2.7-0.7,6-3.9,5.3-6.4c-0.6-2.5,6.8-14,10.2-16.3
		c3.4-2.3,4-5,3.6-7.5c4,0.1,6.2-1.8,8.6-4.9C171.5,53.9,172,55.3,177.5,55.3z"/>
	<path class="st3" d="M129,113.3c4.2,2.4,14.9,13,22.3-1.9c-2.5-0.5-11.5-5.7-11.8-5.7C136.6,107.4,129.8,113,129,113.3z"/>
	<path class="st4" d="M151.3,111.4c1.3-0.7,4.6-3.8,4.3-4.1s-11.3-5-11.7-5c-0.2,0.8-0.3,1.2-0.2,1.5c-1.7,0.8-3.9,1.8-4.3,2
		C142.1,106.9,150.7,111.7,151.3,111.4z"/>
	<path class="st3" d="M143.9,102.3c2.2-6.2,4.1-5.7,6.9-7.5c2.9-2,2.7-2.6,3-3.1c0.4-1,0.7-1.2,0.8-1.3c1.1,1.3,8.6,5.1,10.2,5.2
		c-1.2,2.3-2.5,9.9-9.3,11.8C154.1,106.4,144.1,102.5,143.9,102.3z"/>
	<path class="st4" d="M164.9,95.5c1.2-1,4.2-3.7,4.6-4.3c0.4-0.5-14-4.5-14.5-4.9c0.2,1.4,0.7,2.7,0.9,3c-0.4,0.5-1.2,0.6-1.1,1
		C154.6,90.9,163.1,95.5,164.9,95.5z"/>
	<path class="st3" d="M169.4,91.2c1.4-0.9,5-4.6,4.7-10.4c0.6-0.6,1.5-1.9,1.3-2.2c-2.4-0.1-12.1-4.3-12.2-4.7
		c-0.7,1.3-2,3.7-1.8,4.8c-0.9,0.1-8.9,0-6.6,7.6C158.7,87.9,169.4,90.8,169.4,91.2z"/>
	<path class="st4" d="M175.4,78.6c0.8-0.6,2.8-2.9,2.6-3.4c-0.3-0.5-11.7-5.7-12.2-5.6c-0.9,1.4-2.5,3.7-2.6,4.3
		C164.5,74.9,174.8,79.2,175.4,78.6z"/>
	<path class="st3" d="M178,75.2c1.4-1.1,4.1-4,3.4-7.4c0.3-2.6,1.3-7.5,4.1-8.1c-0.4-2.3-5-5.8-8.1-4.5
		c-4.3,3.3-11.2,12.8-11.7,14.4C167.8,70.4,177.8,74.8,178,75.2z"/>
</g>
<g>
	<path class="st5" d="M143.6,62.3c-1.8,3.9-20.3,11.6-21.6,30c-9.9,5.5-44.7,47.7-40.7,58.2c-14.2,15.3-45.2,73.7-30.5,50.5
		c-1,2.2-31,31.7-18.2,44.2c12.7,12.6,28.4-30.5,32.7-34.9c4.3-4.4,41.8-60.2,44.2-62.8s55.2-41.5,56.6-42.8
		C161.7,101.3,141.8,85,143.6,62.3z"/>
	<path class="st5" d="M225.9,95.6c-26.5,19.2-35.5,13.3-78.2,5.7c-16.3,7.9-12.7-4.5-43.7,33.9c-10.1,6-13.7,17.3-15.3,21.6
		c-5.2,6-14.8,20.8-16.2,29c-4.1,16.4-25.2,29.3-27.9,30.4c-3,10.1-18.4,33.7-8.8,39.2c6,5.5,20.8,19.7,34.8-4.4
		c7.4-12.3,18.1-26.3,27.9-28.2c13.2-8.8,41-34.2,43.3-41.1c7.2-13.2,23.6-31,26.9-32.9c15.6-12.3,55.8-38.4,57.2-47.7
		C226.7,98.2,230.5,95.1,225.9,95.6z"/>
</g>
</svg>
