<?xml version="1.0" encoding="utf-8"?>
<!-- Generator: Adobe Illustrator 24.1.0, SVG Export Plug-In . SVG Version: 6.00 Build 0)  -->
<svg version="1.1" id="Calque_1" xmlns="http://www.w3.org/2000/svg" xmlns:xlink="http://www.w3.org/1999/xlink" x="0px" y="0px"
	 viewBox="0 0 283.5 283.5" style="enable-background:new 0 0 283.5 283.5;" xml:space="preserve">
<style type="text/css">
	.st0{fill:#22A84D;stroke:#00983A;stroke-miterlimit:10;}
	.st1{fill:none;stroke:#00983A;stroke-miterlimit:10;}
	.st2{fill:#FFF2CC;}
	.st3{fill:#F9E1A5;}
	.st4{fill:#E6243B;stroke:#C8161A;stroke-width:2;stroke-miterlimit:10;}
	.st5{fill:#FAEE6F;}
	.st6{fill:#F8AF50;}
	.st7{fill:#FFF5E9;stroke:#000000;stroke-miterlimit:10;}
</style>
<g>
	<path class="st0" d="M211.6,102.2c-11-12.3-26.3-31.1-47.4-2c-5,3.7-10.1,5.8-17.2-8.4c1.9-10.3,3.6-33.2,19.5-45
		c-1.6-12.7,7.3-15.9,10.8-14.3c6.9-10.9,13.9-13.9,24.5-4.4c9.3-6.7,15.9-5.5,20.2,1c7.4-5,11.3-2.9,16.8,5.6
		c10.2,6.8,11.8,14,4.4,17.4c11.4,15.1,2.1,16.3,0.1,18c7.9,13.5-0.8,34.7-29.6,16.8C221.7,97.9,211.6,102.2,211.6,102.2z"/>
	<path class="st1" d="M232.2,65.6c-14.9-29.5-62.6-9.2-78.2,35.9"/>
	<path class="st1" d="M232.6,51.7c-4.5-0.1-8.5,4.2-8.3,4.4"/>
	<path class="st1" d="M220.8,69.1c-2.8-5.4-6.5-13.8-13.3-17.3"/>
	<path class="st1" d="M200.9,38.7c-2.3,2.1-9.5,9.8-5.9,16.2"/>
	<path class="st1" d="M195.2,70.5c-3.9-3.5-11.2-9.8-13.6-7.9"/>
</g>
<g>
	<path class="st2" d="M141.4,154c-13.9-5.7-33-25.2-26.6-42.6c11.7-17,58.7-66,66.4-68c15.4-2.1,30.7,11.8,37.1,32.4
		C204.7,90.3,144.2,156.9,141.4,154z"/>
	<path class="st3" d="M191.2,65.8c-1.3-0.1-3.8,1.9-0.3,2C194.4,67.9,193.7,66.3,191.2,65.8z"/>
	<path class="st3" d="M185.9,84.2c1.5,0.4,4.7,0.2,3.2-3.6C187.3,79.7,184.7,80.8,185.9,84.2z"/>
	<path class="st3" d="M180.2,84.6c1.6,1.1,3.8,0,3-2.4C181.5,80.9,180.9,82,180.2,84.6z"/>
	<path class="st3" d="M162.7,86.4c0.8,1.3,2.2,2,1.9-0.6c0.7-1.1,1.2-2.2-0.2-1.6c-1.2-1.9-2.4-2.6-2.6-0.4
		C161.1,85.3,160.7,87,162.7,86.4z"/>
	<path class="st3" d="M143.8,85.6c-0.2-0.9,0.5-2.6,1.3-2.9C145.9,84.4,145,84.6,143.8,85.6z"/>
	<path class="st3" d="M144.4,103.1c0.2-1.3,0.8-3.1,2.8-3.6C146.4,100.8,145.8,102.2,144.4,103.1z"/>
	<path class="st3" d="M140.4,111.6c-1,1,2.1-3.6,2.8-3.6C143.3,109.7,140.9,111.1,140.4,111.6z"/>
	<path class="st3" d="M122.1,134.8c-0.5,1.1-0.1,2.5,0.3,2.5c0.4,0,0.5-1.2,0.3-1.5C122.4,135.6,122.1,134.8,122.1,134.8z"/>
</g>
<g>
	<ellipse transform="matrix(0.6452 -0.764 0.764 0.6452 -4.116 194.8494)" class="st4" cx="207.7" cy="101.9" rx="31.4" ry="10.6"/>
	<path class="st5" d="M196.1,111.3c-0.5,0.7,0.4-2,1.4-1.7C198.5,109.8,197.1,109.8,196.1,111.3z"/>
	<path class="st5" d="M189.6,116.3c-1.2,0.2,3.3,0,2.9-0.8C192,114.8,192,115.8,189.6,116.3z"/>
	<path class="st5" d="M199.2,106.6c-0.5,0.7,0.4-2,1.4-1.7C201.5,105.1,200.1,105.2,199.2,106.6z"/>
	<path class="st5" d="M206.4,110.9c0.2,0.7-1.3-1.6-0.2-1.8C207.3,108.9,206.1,109.5,206.4,110.9z"/>
	<path class="st5" d="M199.6,115.6c0.2,0.7-1.3-1.6-0.2-1.8C200.5,113.7,199.2,114.2,199.6,115.6z"/>
	<path class="st5" d="M204.2,107.5c0.2,0.7-1.3-1.6-0.2-1.8C205.1,105.6,203.8,106.1,204.2,107.5z"/>
	<path class="st5" d="M219.1,84.6c0,0.7-0.9-1.8,0.2-1.8C220.4,82.6,219,83.1,219.1,84.6z"/>
	<path class="st5" d="M215.5,92c0,0.7-0.9-1.8,0.2-1.8C216.8,90.1,215.4,90.5,215.5,92z"/>
	<path class="st5" d="M210,95.7c0,0.7-0.9-1.8,0.2-1.8C211.3,93.8,210,94.3,210,95.7z"/>
	<path class="st5" d="M218.3,94.6c-0.6,0.7,0.8-2,1.7-1.7S219.5,93.2,218.3,94.6z"/>
	<path class="st5" d="M222.5,88.6c-0.6,0.7,0.8-2,1.7-1.7C225.1,87.3,223.6,87.2,222.5,88.6z"/>
	<path class="st5" d="M213.3,96.9c-0.6,0.7,0.8-2,1.7-1.7C215.9,95.6,214.5,95.5,213.3,96.9z"/>
</g>
<g>
	<ellipse transform="matrix(0.6452 -0.764 0.764 0.6452 -0.2548 140.577)" class="st4" cx="151.2" cy="70.6" rx="31.4" ry="10.6"/>
	<path class="st5" d="M139.6,80c-0.5,0.7,0.4-2,1.4-1.7C142,78.5,140.6,78.5,139.6,80z"/>
	<path class="st5" d="M133.1,85c-1.2,0.2,3.3,0,2.9-0.8C135.5,83.5,135.5,84.5,133.1,85z"/>
	<path class="st5" d="M142.7,75.3c-0.5,0.7,0.4-2,1.4-1.7C145,73.8,143.6,73.9,142.7,75.3z"/>
	<path class="st5" d="M149.9,79.6c0.2,0.7-1.3-1.6-0.2-1.8S149.6,78.2,149.9,79.6z"/>
	<path class="st5" d="M143.1,84.3c0.2,0.7-1.3-1.6-0.2-1.8C144,82.4,142.7,82.9,143.1,84.3z"/>
	<path class="st5" d="M147.7,76.2c0.2,0.7-1.3-1.6-0.2-1.8C148.6,74.3,147.3,74.8,147.7,76.2z"/>
	<path class="st5" d="M162.6,53.3c0,0.7-0.9-1.8,0.2-1.8S162.5,51.8,162.6,53.3z"/>
	<path class="st5" d="M159,60.7c0,0.7-0.9-1.8,0.2-1.8C160.3,58.8,158.9,59.2,159,60.7z"/>
	<path class="st5" d="M153.5,64.5c0,0.7-0.9-1.8,0.2-1.8C154.8,62.5,153.5,63,153.5,64.5z"/>
	<path class="st5" d="M161.8,63.3c-0.6,0.7,0.8-2,1.7-1.7C164.4,62,163,61.9,161.8,63.3z"/>
	<path class="st5" d="M166,57.3c-0.6,0.7,0.8-2,1.7-1.7C168.6,56,167.1,55.9,166,57.3z"/>
	<path class="st5" d="M156.8,65.6c-0.6,0.7,0.8-2,1.7-1.7C159.4,64.3,158,64.2,156.8,65.6z"/>
</g>
<path class="st6" d="M150.3,150.1l39.9-17.2l22.6-37.9c-5.7-7.7-11.4-18.1-23.4-11.2c-13.3,5.5-26.6,15.3-27.6,23
	C142.9,123.4,133.9,137.5,150.3,150.1z"/>
<path class="st6" d="M112.4,136.8l39.9-17.2l22.6-37.9c-5.7-7.7-11.4-18.1-23.4-11.2c-13.3,5.5-26.6,15.3-27.6,23
	C105,110.2,96,124.3,112.4,136.8z"/>
<g>
	<path class="st7" d="M143.6,62.3c-1.8,3.9-20.3,11.6-21.6,30c-9.9,5.5-44.7,47.7-40.7,58.2c-14.2,15.3-45.2,73.7-30.5,50.5
		c-1,2.2-31,31.7-18.2,44.2c12.7,12.6,28.4-30.5,32.7-34.9c4.3-4.4,41.8-60.2,44.2-62.8s55.2-41.5,56.6-42.8
		C161.7,101.3,141.8,85,143.6,62.3z"/>
	<path class="st7" d="M225.9,95.6c-26.5,19.2-35.5,13.3-78.2,5.7c-16.3,7.9-12.7-4.5-43.7,33.9c-10.1,6-13.7,17.3-15.3,21.6
		c-5.2,6-14.8,20.8-16.2,29c-4.1,16.4-25.2,29.3-27.9,30.4c-3,10.1-18.4,33.7-8.8,39.2c6,5.5,20.8,19.7,34.8-4.4
		c7.4-12.3,18.1-26.3,27.9-28.2c13.2-8.8,41-34.2,43.3-41.1c7.2-13.2,23.6-31,26.9-32.9c15.6-12.3,55.8-38.4,57.2-47.7
		C226.7,98.2,230.5,95.1,225.9,95.6z"/>
</g>
</svg>
