<svg xmlns="http://www.w3.org/2000/svg" viewBox="0 0 453.5 255.1"><style><![CDATA[.AE{fill:none}.AF{fill:#fff}.AG{stroke-miterlimit:10}.AH{fill:#22a84d}.AI{fill:#f0c25e}.AJ{font-family:Roboto-Black}.AK{fill:#ebae68}.AL{fill:#e62f2a}.AM{fill:#86b15b}.AN{stroke-width:.5}.AO{fill:#fec900}.AP{fill:#f59e47}.AQ{fill:#e98626}]]></style><path d="M309.5 137.2c-3.2-7-23.7-46.8-25.3-49.5s-6.4-7-11.9 0c-5.4 7-24.8 41.4-24.8 41.4l3.2 65.7c.6 7 3.8 8.6 6.4 10.2 2.7 1.6 35 16.1 38.2 17.3 3.2 1.1 11.3 3.8 11.9-5.4.7-9.2 2.3-79.7 2.3-79.7zm74.9-60.8c0-4.3-1-9.2-8.1-8.6-7 .6-83 .5-86.2 0s-5.9 3.8-5.4 8.7c.6 4.8 2.7 8.1 4.3 10.8s24 43.8 24.4 44.6c.5.8 1.6 1.9 1.6 8.2 0 6.2-3 81.3-3 81.3s.6 6 9.8 4.3 75.2-21 77.5-21.8c2.2-.8 8.2-.3 8.7-12.8.6-12.6 6.8-59.7 6.5-62.5-.3-2.7-.3-8.5-3.3-13.9-2.8-5.5-26.8-38.3-26.8-38.3z" fill="#e41b2a"/><path d="M300.7 60.6c4.6-10.9 15.6-35.5 33.5-18.3 1.9 3 4.3 0 4.9-1.1 5.2-4.9 22.4-12 31.9 21-3.8.7-10.4 2.7-11.7-1.9.2-19.4-16.9-23.7-17.7.8-2.5 2.2-9.6 3-11.2.8-1-11.4-11.2-31.3-20.9-.8-3.6 2.3-5.8 3.4-8.8-.5z" fill="#fec707"/><path d="M365.8 191.8l-8.3 1.8c.2-1.5 0-2.9 0-3.3l8.3-1.8v3.3zm-8.6-12.7l9.1-1.9c3.6-61.3 22.5-50.1 21.2 14.4l9.1-1.9c-1.7-55.9-20.8-78.9-34.8-34.4-13-40.1-34.8-3.7-34.5 49.1l8.6-1.8c.7-61.8 16.1-85.7 21.3-23.5z" fill="#fec906"/><text transform="matrix(1 -.2126 0 1 339.999 192.9954)" font-size="12.749" class="AF AJ">McData</text><g fill="#0b9639"><path d="M376.3 214.5l3.4-11.6 6.8 4.8-4.4 7.9z"/><path d="M381.9 215.6l6.6-9.9 8.4 7.4-11.5 7z"/><path d="M385 219.5l11.1-4.8.6 8.4-8.8 1.6z"/></g><path d="M385.6 216.9c-11.3-12.2-32.7 20-32 30.5 10.8-.8 43.4-18.2 32-30.5z" fill="#ef7d00"/><path d="M370.8 218.1l5.3 5.5.6-.6zm-10.2 11.3l4.4 4.1.5-.4zm17 6.9l-5.3-5.5-.6.5z" fill="#d47000"/><g stroke="#00983a" class="AG"><path d="M45.5 182.6c-5.5 3.8-13.9 9.1-2 20.7 1.4 2.5 2.2 4.9-4 6.9-4.4-1.6-14.1-4.2-18.7-12.1-5.5-.3-6.6-4.5-5.8-5.9-4.5-3.9-5.6-7.2-1.3-11.1-2.6-4.6-1.9-7.4.9-8.8-1.9-3.6-1-5.2 2.8-6.9 3.1-3.9 6.2-4.1 7.5-.6 6.7-3.8 7 .4 7.7 1.4 5.9-2.4 14.7 3.1 6.5 14.3 4.8-2.6 6.4 2.1 6.4 2.1z" class="AH"/><g class="AE"><path d="M30.4 170.7c-12.9 4.2-5.4 26.7 13.4 37.2m-19.3-38.5c-.1 2 1.6 4.1 1.7 4"/><path d="M31.6 176c-2.3.8-6 1.8-7.7 4.5m-5.7 1.8c.8 1.2 4 4.9 6.7 3.9m6.7 1.1c-1.6 1.4-4.4 4.1-3.7 5.4"/></g><path d="M73.5 180.8c-6.3 4.4-15.8 10.4-3.5 21.8 1.4 2.5 2.1 5-4.8 7.5-4.7-1.4-15.1-3.5-19.7-11.5-6 .1-6.9-4.2-6-5.8-4.6-3.8-5.7-7.2-.7-11.5-2.6-4.6-1.6-7.6 1.6-9.3-1.9-3.7-.7-5.3 3.5-7.4 3.7-4.3 7.1-4.7 8.3-1.1 7.6-4.4 7.6-.1 8.3.9 6.7-2.9 15.9 2.3 6.1 14.6 5.5-3.1 6.9 1.8 6.9 1.8z" class="AH"/><g class="AE"><path d="M57.8,169.3c-14.4,5.3-7.7,28.3,12.3,38"/><path d="M51.4 168.4c-.3 2.1 1.5 4.2 1.6 4.1m5.8 2.2c-2.6 1-6.7 2.3-8.7 5.2m-6.4 2.4c.8 1.2 4 4.9 7.1 3.6m7.2.7c-1.8 1.6-5.1 4.6-4.4 5.8"/></g><path d="M82.6 180.7c5.5 3.8 13.9 9.1 2 20.7-1.4 2.5-2.2 4.9 4 6.9 4.4-1.6 14.1-4.2 18.7-12.1 5.5-.3 6.6-4.5 5.8-5.9 4.5-3.9 5.6-7.2 1.3-11.1 2.6-4.6 1.9-7.4-.9-8.8 1.9-3.6 1-5.2-2.8-6.9-3.1-3.9-6.2-4.1-7.5-.6-6.7-3.8-7 .4-7.7 1.4-5.9-2.4-14.7 3.1-6.5 14.3-4.8-2.6-6.4 2.1-6.4 2.1z" class="AH"/><g class="AE"><path d="M97.7 168.8c12.9 4.2 5.4 26.7-13.4 37.2m19.3-38.5c.1 2-1.6 4.1-1.7 4"/><path d="M96.5 174.1c2.3.8 6 1.8 7.7 4.5m5.7 1.8c-.8 1.2-4 4.9-6.7 3.9m-6.7 1.1c1.6 1.4 4.4 4.1 3.7 5.4"/></g><path d="M53 178.4c7 4.9 17.5 11.6 4.9 22.7-1.4 2.5-2 5 5.6 8 4.9-1.2 16-2.9 20.5-10.9 6.4.4 7.2-4 6.2-5.7 4.8-3.7 5.7-7.1.1-11.9 2.5-4.7 1.4-7.8-2.1-9.7 1.8-3.7.5-5.5-4.1-7.9-4.2-4.7-7.9-5.2-8.9-1.5-8.4-5-8.2-.4-8.9.5-7.3-3.3-17 1.5-5.8 14.8-6.2-3.3-7.5 1.6-7.5 1.6z" class="AH"/><g class="AE"><path d="M69.3 167.3C85 173.5 79 197 58.1 206m18-39.3c.4 2.2-1.4 4.2-1.5 4.1"/><path d="M68.5 172.9c2.9 1.2 7.3 2.7 9.6 5.8m7 2.8c-.8 1.2-4.1 4.9-7.5 3.4m-7.6.4c2 1.8 5.8 5 5 6.3m-47 8c1.9.5 4.5.5 5.2.1"/></g></g><ellipse cx="62.4" cy="197.7" rx="6.8" ry="7" class="AL"/><path d="M61.2 190.9l-1.4-1.8.7 2.5-3.1 1.5 3.5-.7.3 2.8 1-2.6 3.1 1.8-2.5-2.8 2.5-1.5-2.7.9v-2.2z" class="AM"/><ellipse cx="42.1" cy="196.1" rx="6.8" ry="7" class="AL"/><path d="M41 189.3l-1.5-1.8.7 2.5-3.1 1.5 3.5-.7.4 2.8.9-2.6 3.1 1.8-2.5-2.7 2.5-1.6-2.7 1v-2.3z" class="AM"/><ellipse cx="28.9" cy="195.9" rx="6.8" ry="7" class="AL"/><path d="M27.7 189.1l-1.5-1.8.7 2.5-3.1 1.5 3.5-.7.4 2.8.9-2.6 3.1 1.8-2.4-2.8 2.4-1.6-2.7 1V187z" class="AM"/><g fill="#fceede"><circle cx="70.4" cy="199.4" r="5.7"/><circle cx="111.2" cy="195.6" r="5.7"/><circle cx="98.4" cy="198.1" r="5.7"/></g><g stroke="#61390e" class="AG AN"><path d="M28.5 202.6c.7-5.3-2.3-5.3 5.2-6.8 2.3.9 3.5 1.4 4 2.1.6.8.5 1.9.2 4.1-1.9 2.7-4.9 3.9-9.4.6z" class="AI"/><path d="M33.2 199.7c-2.2-.1 3.5.3 4.4-1.8" class="AE"/><path d="M44.2 202.6c.7-5.3-2.3-5.3 5.2-6.8 2.3.9 3.5 1.4 4 2.1.6.8.5 1.9.2 4.1-1.9 2.7-4.9 3.9-9.4.6z" class="AI"/><path d="M48.9 199.7c-2.2-.1 3.5.3 4.4-1.8" class="AE"/><path d="M51 202.6c.7-5.3-2.3-5.3 5.2-6.8 2.3.9 3.5 1.4 4 2.1.6.8.5 1.9.2 4.1-1.9 2.7-4.8 3.9-9.4.6z" class="AI"/><path d="M55.8 199.7c-2.2-.1 3.5.3 4.4-1.8" class="AE"/><path d="M100.7 200c.7-5.3-2.3-5.3 5.2-6.8 2.3.9 3.5 1.4 4 2.1.6.8.5 1.9.2 4.1-1.9 2.8-4.9 4-9.4.6z" class="AI"/><path d="M105.5 197.1c-2.2-.1 3.5.3 4.4-1.8" class="AE"/><path d="M80.3 202c.7-5.3-2.3-5.3 5.2-6.8 2.3.9 3.5 1.4 4 2.1.6.8.5 1.9.2 4.1-1.9 2.8-4.8 4-9.4.6z" class="AI"/><path d="M85.1 199.1c-2.2-.1 3.5.3 4.4-1.8" class="AE"/></g><path d="M17.4 197.1c2.9 16.3 11.8 34.1 34.1 38.1-.5 5.8 29.8 5.5 29.5 1.4 11.5-2.2 35.5-15.8 36-39.6-26.9 8-84 7-99.6.1z" fill="#e0d1ca"/><path d="M110.5 234.9c-.8.1-3.2.3-3.5-3-.3-5.8-1.1-14.9-1.1-16s.4-2.2 2.3-2.2h14.1c1.3.1 2.6 0 2.9 1.6s2.8 16.5 2.8 16.5c.3 1.8.2 3.1-2.1 3.1h-15.4z" fill="#005738"/><path d="M108.3 235.5c.7.9 2.6 1.8 3.7 1.8h8.9c.9 0 3-1.2 3.1-1.5 0-.3-15.7-.3-15.7-.3z" fill="#bdc7c9"/><g class="AF"><path d="M111.7 220.9h.3v-1.7h-.3v-.3h1.1c.1 0 .3 0 .4.1.3.1.4.4.4.7s-.2.6-.4.7h-.8v.5h.3v.3h-1v-.3zm1.1-.8h.2c.1-.1.2-.2.2-.4s-.1-.3-.2-.3-.1-.1-.3-.1h-.4v.8h.5z"/><path d="M113.8 220.9h.3v-1.7h-.3v-.3h1.7v.6h-.4v-.3h-.7v.6h.8v.3h-.8v.7h.7v-.3h.4v.6h-1.8v-.2zm2.3-.4v.2c0 .2.2.2.4.2s.4-.1.4-.3-.3-.3-.5-.4c-.3-.1-.6-.3-.6-.7 0-.5.4-.6.8-.6s.7.1.7.4v.3h-.4v-.2c0-.1-.2-.2-.3-.2-.2 0-.3.1-.3.3s.2.3.5.4.7.3.7.7c0 .5-.4.7-.8.7s-.8-.2-.8-.5v-.3h.2zm1.9.4h.3v-1.7h-.4v.3h-.4v-.7h2v.7h-.4v-.3h-.4v1.7h.3v.3h-1v-.3z"/><path d="M120.9 218.9c.7 0 1.2.5 1.2 1.2s-.5 1.2-1.2 1.2-1.2-.5-1.2-1.2.5-1.2 1.2-1.2zm0 2c.4 0 .8-.4.8-.8 0-.5-.3-.8-.8-.8-.4 0-.8.3-.8.8 0 .4.4.8.8.8z"/></g><path d="M117.5 230.9h-.8v-.3h.8v.3zm-.8-1.5h.9c.4-6 2.2-4.5 2.1 1.9h.9c-.2-5.6-2.1-8.3-3.5-4.1-1.3-4.3-3.5-1.1-3.4 4.1h.9c0-6.1 1.5-8.2 2.1-1.9z" class="AO"/><text transform="translate(114.956 230.446)" font-size="1.265" class="AF AJ">McData</text><path d="M105.6 225.8c10.1-5.6 30.5-4.4 42 0 5.3 6.2 4.5-29.7 16.1-64 .1-1.7.3-3.3-.7-2.4-1.3-.3-2.8-1.4-3.7-.2-3.8 24.3-53.5 28.9-62.5.4-.6-3.1-.9-1.6-1.7-1.6-1.9.3-3.1 0-3 1.7 1.4 6.3 11.3 64.7 13.5 66.1z" fill="#e5281e"/><path d="M98.1 143.4c-3.3 42.4 60.5 46.5 60.5 1.6-.2-1-.2-1.4-1.3-1.1-1.2 0-3.3-.6-3.5.4-.2 1.7-.3 3.4-.6 3.7.3-1 .2-3.5-.2-3.5-1.1-.2-4.9-1.7-5.3-.2s-.8 2.3-.9 2.7c.2-1.5 1.6-6.4 1.8-6.9 0-1.4-.7-1.8-1.4-1.9s-3.8-1.2-4.2.4c-.3 1.6-2 7.7-2.5 7.7s.2-5.8.4-5.8-5-2.8-5.7-.2c-.7 2.5-1.1 5.5-1.4 4.9s-.1-9.9-.5-10.2c0-.7.1-2.5-2.2-2.2-2.4.3-3.9-.9-3.9 3.9-3.8.9-3.6-.5-3.9 6.9-1.2-1.8-1.4-4.6-1.9-4.8-.5-.1-4.8-.4-4.7 2s.2 6.2.4 6.5c-.5-1.1-3-8.7-3.1-9.4-.1-1.3-5.3-.3-5.3.9.3 1.4 1.3 7.4 1.5 7.7-.6-1.3-1-3.8-1.8-3.6s-4.2 0-4.2 1.8c0 1.4 0 3.1.1 3.4-.4-1.7 0-5.7-2.6-5.6-1.6.5-2.3 0-3.6.9z" fill="#fbb900"/><path d="M129.3 215.2H125c.1-.8 0-1.5 0-1.7h4.3c0 .5-.1 1.3 0 1.7zm-4.5-7.6h4.7c1.9-31.7 11.7-23.7 11.1 9.9h4.7c-.9-29.4-10.8-43.5-18.2-21.8-6.8-22.4-18.2-5.8-18 21.8h4.5c.4-32.1 8.5-43 11.2-9.9z" class="AO"/><text transform="translate(115.803 212.975)" font-size="6.656" class="AF AJ">McData</text><path d="M160.4 168.1c-3.3-34.9 78.9-52.8 88 0-25.8-4.5-69.2-5.4-88 0z" class="AP"/><path d="M160.3 170.7c25.4-6.7 77.4-4.5 88.1.6 1.4 1.4.8 6.3 0 6.4-15.2-4.9-70-5.6-87.5 0-1.8-2.8-1.5-5.6-.6-7zm.2 29.8c26.2 2.5 75 .9 88.1.6 1.4 1.4.8 6.3 0 6.4-17.4 3.1-69.6 2.8-87.5 0-1.7-2.8-1.4-5.6-.6-7z" fill="#91371a"/><path d="M160.3 185.1c28-6 74.9-4 88.9 1.1 1.2 2.4-.1 2.8-2 2.7-13.4-4.8-69.1-4.9-85.5-.5-3.1-1-2.4-1.9-1.4-3.3z" fill="#00983d"/><path d="M160.3 191.2c7.7-2.3 74.5-3.9 88.1 0 1.3 2.2.8 4.5.8 4.9-5.5 3.3-77.2 3.1-87.5 0-1.9-.3-1-2.2-1.4-4.9z" class="AP"/><path d="M188.8 212.3c5.7.8 28.4.5 29.8 0 2.3-.1 3.9.4 0 4.5l-12.7 13.6c-1.5 1.7-2.7 1.7-4.5-.8-7.2-8.7-16.7-16.7-12.6-17.3z" fill="#fcbc00"/><path d="M183.7 212.3c-6-.2-19.8-1.4-21.5-2.5-4 1.1-1.5 3.8.6 3.9 3 .5 17.5 2.4 21.9 2.1 2.1.1.1-2-1-3.5zm41.5.5c6-.2 19.8-1.4 21.5-2.5 4 1.1 1.5 3.8-.6 3.9-3 .5-17.5 2.4-21.9 2.1-2.1.1-.2-2 1-3.5z" fill="#00983d"/><path d="M187.8 219.1c-6.3-.5-24.7-1.1-26.5-2.8-1.5 2.5-.6 11.3 2.7 11.7 4.1 2.2 25.5 4.3 31.4 3.6 6.9.9-6.6-9.7-7.6-12.5zm33.2-.2c6.3-.5 24.7-1.1 26.5-2.8 1.5 2.5.6 11.3-2.7 11.7-4.1 2.2-25.5 4.3-31.4 3.6-6.8.9 6.6-9.7 7.6-12.5z" class="AP"/><g fill="#ffe3b1"><ellipse cx="181.6" cy="151.2" rx="2" ry=".9"/><ellipse transform="matrix(.2769 -.9609 .9609 .2769 -3.6969 285.4709)" cx="187.8" cy="145.2" rx="2" ry=".9"/><ellipse transform="matrix(.866 -.5 .5 .866 -48.4133 118.5261)" cx="197" cy="149.6" rx="2" ry=".9"/><ellipse transform="matrix(.8207 -.5713 .5713 .8207 -44.6103 142.7291)" cx="205.1" cy="142.5" rx=".9" ry="2"/><ellipse cx="214" cy="154.1" rx="2" ry=".9"/><ellipse transform="matrix(.2769 -.9609 .9609 .2769 18.9378 329.4393)" cx="228.4" cy="152.1" rx="2" ry=".9"/><ellipse transform="matrix(.9485 -.3168 .3168 .9485 -39.2529 79.0107)" cx="223.3" cy="160.2" rx=".9" ry="2"/><ellipse transform="matrix(.1067 -.9943 .9943 .1067 52.7921 375.9617)" cx="235.6" cy="158.6" rx=".9" ry="2"/><ellipse transform="matrix(.2769 -.9609 .9609 .2769 -2.0237 308.7215)" cx="204.1" cy="155.7" rx="2" ry=".9"/><ellipse transform="matrix(.8838 -.4678 .4678 .8838 -43.0202 118.1583)" cx="216.4" cy="145.7" rx="2" ry=".9"/><ellipse transform="matrix(.5 -.866 .866 .5 -41.555 243.2991)" cx="189.9" cy="157.6" rx=".9" ry="2"/><ellipse transform="matrix(.9335 -.3585 .3585 .9335 -45.8406 74.2153)" cx="177.2" cy="160.7" rx="2" ry=".9"/></g><g stroke="#168536" fill="#69b42d"><ellipse transform="matrix(.9868 -.1618 .1618 .9868 -26.6599 31.1961)" cx="178.2" cy="179.3" rx="11.7" ry="1.4"/><ellipse cx="206.5" cy="178.4" rx="9.7" ry="1.5"/><ellipse transform="matrix(.1067 -.9943 .9943 .1067 31.4482 396.5688)" cx="236.4" cy="180.8" rx="1.5" ry="9"/></g><path d="M172.9 179.6c-.2.1.4-.3.5-.1 0 .2-.1 0-.5.1zm-2.4.8c-.2-.1.3.5.4.3.1-.3-.1-.1-.4-.3zm5.6-1.5c-.2.1.4-.3.5-.1s-.1-.1-.5.1zm-.2 1.3c-.1.1.2-.5.3-.3.2.1 0 0-.3.3zm-1.9.2c-.1.1.2-.5.3-.3.2.1 0 .1-.3.3zm3.2-.7c-.1.1.2-.5.3-.3.2.1 0 0-.3.3zm7.8-1.3c-.1.1.3-.4.4-.3s-.1 0-.4.3zm-3.8.3c-.1.1.3-.4.4-.3.1.2-.1 0-.4.3zm-2-.1c-.1.1.3-.4.4-.3s-.1 0-.4.3zm.9.9c-.2 0 .5-.2.5 0s-.1 0-.5 0zm2.8-.8c-.2 0 .5-.2.5 0s-.1-.1-.5 0zm-4.1.9c-.2 0 .5-.2.5 0s-.1 0-.5 0zm22.7-1.1c-.2 0 .4-.2.5-.1 0 .2-.1 0-.5.1zm-2.4-.3c-.1-.1.3.5.4.3s-.1 0-.4-.3zm5.7-.2c-.2 0 .4-.2.5-.1 0 .2-.1 0-.5.1zm-.3 1.3c-.1.1.2-.4.4-.3.1.1-.1 0-.4.3zm-1.9.1c-.1.1.2-.4.4-.3.1.1-.2 0-.4.3zm3.2-.5c-.1.1.2-.4.4-.3.1.2-.1.1-.4.3zm7.9-.7c-.2.1.3-.4.4-.3.1.2-.1.1-.4.3zm-3.8 0c-.2.1.3-.4.4-.3.1.2-.1.1-.4.3zm-2-.3c-.2.1.3-.4.4-.3.1.2-.1.1-.4.3zm.8 1.1c-.2 0 .5-.2.5 0s-.1-.1-.5 0zm2.9-.6c-.2 0 .5-.2.5 0-.1.2-.2-.1-.5 0zm-4.1.6c-.2 0 .5-.2.5 0-.1.2-.2-.1-.5 0zm24.3.8c-.2 0 .5-.1.5.1-.1.1-.1-.1-.5-.1zm-2.5-.1c-.1-.2.1.5.3.4s-.1-.1-.3-.4zm5.8.5c-.2 0 .5-.1.5.1-.1.1-.1-.1-.5-.1zm-.7 1.2c-.2.1.3-.4.4-.2.1.1 0 0-.4.2zm-1.9-.5c-.2.1.3-.4.4-.2s0 .1-.4.2zm3.3.5c-.2.1.3-.4.4-.2.1.1-.1 0-.4.2zm7.8.1c-.2.1.4-.3.5-.1 0 .1-.2-.1-.5.1zm-3.7.2c-.2.1.4-.3.5-.1 0 .2-.1 0-.5.1zm-1.3-1.1c-.2.1.4-.3.5-.1 0 .1-.1 0-.5.1zm2.6 1.4c-.2 0 .5-.1.5.1-.1.2-.1-.1-.5-.1zm.3-.9c-.2 0 .5-.1.5.1-.1.2-.2 0-.5-.1zm-3.7.3c-.2 0 .5-.1.5.1-.1.2-.1 0-.5-.1z" fill="#d3e5bc"/><path d="M62.8 131.1c3.4-4 29-11.1 27.1 12.9-1.8 24-10.3 35.8-24.8 27.1-9.7 10-25.3-5.8-25.8-27.9s23.5-12.1 23.5-12.1z" fill="#e4051e"/><path d="M61.7 126.9c-5.7 3.6-21.3-22.7 1.3-9.6 9.5-19.7 34-12.4-1.3 9.6z" fill="#00983a"/><g stroke="#00983a" class="AG"><path d="M141.4 200.2c1.5 9.9 3 24.4 23.3 16.7 3.8-.2 7 .4 5.9 9.9-4.4 4.6-12.8 15.6-24.7 16.3-3.4 7-8.9 5.7-10.2 3.7-7.1 3.2-11.6 2.5-13.8-5.9-6.9.3-9.8-2.5-9.9-7.2-5.4.1-6.7-2.2-6.6-8.4-2.9-6.8-1.3-11 3.5-10.3-.8-11.4 4.3-8.9 5.9-9.2.5-9.4 11.8-17.3 20.5 1.2-.3-8 6.1-6.8 6.1-6.8z" class="AH"/><g class="AE"><path d="M118.9,211.9c-2.2,19.9,28.6,25.3,51.4,7.6"/><path d="M114.2 218.8c2.2 1.5 5.7.7 5.7.5m6-5.4c-.3 3.6-1.3 9.2 1 13.2m-1 8.8c1.8-.3 8-1.8 8.3-6.2m5.1-8c.8 3 2.4 8.7 4.3 8.5"/></g></g><path d="M121.4 195.9c4.1 3.6 14.4 8.1 15.5 7.4 1.5 6.3 5.4 2.9 6.9 2.4 2.6 1.7 2.2.1 4.8 3.6 1.1 1.8 4.4 2.4 5.1 2.2 2.2 3.6 5.7 5.7 7.1 7.9-3.2.9-11.6.5-12.2-1.1s-2.9-3.2-4.3-2.6-9-2.8-10.6-4.6c-1.7-1.8-3.4-1.9-4.8-1.5-.3-2.4-1.7-3.5-3.7-4.7-4.1-5.3-3.3-5.7-3.8-9z" fill="#f9ddc2"/><path d="M160.5 219.5c1.1-2.7 6.4-10.1-3.2-13.1-.1 1.6-2.4 7.4-2.3 7.6 1.3 1.5 5.2 5 5.5 5.5z" class="AK"/><path d="M157.3 206.3c-.5-.7-2.7-2.4-2.8-2.2-.2.2-2 7.2-1.9 7.4.5 0 .7.1.9 0l1.6 2.4c.4-1.7 2.5-7.3 2.2-7.6z" class="AQ"/><path d="M152.5 211.6c-3.9-.8-3.8-1.9-5.1-3.4-1.4-1.5-1.8-1.4-2.1-1.5-.6-.2-.8-.3-.9-.4.7-.8 2.2-5.6 2.2-6.6 1.5.5 6.1.6 7.9 4.4-.5 1-1.9 7.3-2 7.5z" class="AK"/><path d="M146.6 199.7c-.7-.6-2.6-2.2-3-2.3s-1.4 8.8-1.6 9.1c.8-.2 1.6-.6 1.7-.8.3.2.5.6.7.6.3-.1 2.4-5.6 2.2-6.6z" class="AQ"/><path d="M143.6 197.4c-.7-.7-3.2-2.5-6.7-1.9-.4-.3-1.3-.7-1.5-.6.1 1.4-1.5 7.6-1.7 7.7.8.3 2.4.9 3 .6.1.5.8 5.3 5.1 3.2.8-2.3 1.5-9 1.8-9z" class="AK"/><path d="M135.5 194.9c-.4-.4-2-1.4-2.3-1.2s-2.3 7.5-2.2 7.8c.9.4 2.4 1.1 2.8 1.1.5-.8 2.1-7.3 1.7-7.7z" class="AQ"/><path d="M133.2 193.7c-.8-.8-2.8-2.1-4.7-1.4-1.6.1-4.6-.1-5.2-1.7-1.3.5-3 3.5-1.9 5.2 2.4 2.3 8.6 5.5 9.7 5.7.2-1.3 1.9-7.6 2.1-7.8z" class="AK"/><path d="M125.6 246.8l-5.5-21.3c.9-3.8 7.5-2.9 10.8-2.8 4-1.6 10.8-6.5 24.5-7 10.3-3.7 18-6.6 24-6.2 9.1-3.2 14.2-5.9 14.8-2.6l6.2 20.8c-.4 3.1-3.2 2.3-10 2.9-7.3 2.3-15.6 6.3-26.2 6.4-8 2.4-12.3 5.9-23.6 6.1-8.2 3.8-13.3 5.7-15 3.7z" fill="#e84710"/><path d="M137.5 240.8c5.1-.7 15.9-1.8 24.4-6.3 6.6-.9 15.6-1.9 21.2-5.1 5-1.7 12.1-2.7 13.7-2.7 1.4-.3 2.6-2.8 2.6-2.9-.1-.2-1-3.4-1-3.4-1.8 1.9-1.2 2.8-9.7 3.1-6.5 1-11 4-12.6 4.4-5.6 1.3-9.5 1.9-11.7 2-4.2.2-16.4 7.3-24.8 6.2-2.9.3-10.6 3.5-11.4 3.9-1.7 0-3.5.2-4.5-.7l.9 3.6c3.2 1.6 3.3 2.4 12.9-2.1zm-4-16c4.8-1.9 14.8-6.1 24.4-6.3 6.2-2.4 14.6-5.9 21-5.8 5.2-.9 11.9-3.4 13.3-4.3 1.4-.4 3.6 1.1 3.7 1.3 0 .2.7 3.5.7 3.5-2.5-.8-2.4-1.8-10 1.9-6.2 2.2-11.5 1.8-13.1 2.2-5.5 1.6-9.3 2.9-11.2 3.9-3.7 1.9-17.9 1.5-24.7 6.5-2.7 1.2-10.9 2-11.8 2.1-1.5.9-3.1 1.5-3.6 2.8l-.9-3.6c1.9-2.8 1.6-3.5 12.2-4.2z" fill="#9c1914"/><path d="M168.8 230.7c.5-.8.7 2.3.6 2.5-5.9 5-27.2 6.2-32.2 1.9-.3-.7-.3-1.8-.2-2.6 6 4.5 27.5 4.6 31.8-1.8z" fill="#c3153d"/><ellipse transform="matrix(.9988 -.048587 .048587 .9988 -11.0368 7.7034)" cx="152.9" cy="230.9" rx="16.2" ry="5.1" fill="#f9d0df"/><g stroke="#000" class="AE AN"><ellipse transform="matrix(.9988 -.048587 .048587 .9988 -11.0489 7.7025)" cx="152.9" cy="231.1" rx="13.6" ry="4.3"/><ellipse transform="matrix(.9988 -.04882 .04882 .9988 -11.1022 7.729)" cx="152.7" cy="231.1" rx="10.6" ry="3.3"/><ellipse transform="matrix(.9988 -.04882 .04882 .9988 -11.1012 7.7404)" cx="152.9" cy="231.1" rx="7.3" ry="2.3"/><path d="M153.4 229.8c2.1-.1 7.1.4 2.1 2.5-1.3-.5-2.3-1.5-2.1-2.5zm-1.6.3c0 .4.9 1.8 1.5 2.1.1 0 0 .1 0 .2-2.1.2-9.5-.9-1.5-2.3z" class="AG"/></g><g fill="#ffde3f"><path d="M168.7 217.6l-2.6-5.8-2.2 12.6 2.7 4.2z"/><path d="M138.3 210.7l27.8 1.1-2.3 12.6-24.2-1.1c-1.2-1.2-2-1.6-2.4-1.5l1.1-11.1z"/><path d="M141.1 228.3l4 .1c1-.4 2.8-.6 4 0l17.6.2-2.8-4.3-24.2-1.1c-.5.6-.4 1.1-1.5 1.1l2.9 4z"/></g><g fill="#f59a00"><ellipse transform="matrix(.092604 -.9957 .9957 .092604 -88.1054 356.5985)" cx="151.6" cy="226.6" rx=".6" ry="1.7"/><ellipse transform="matrix(.092657 -.9957 .9957 .092657 -80.7525 365.2204)" cx="160" cy="226.9" rx=".9" ry="2.6"/><ellipse transform="matrix(.08672 -.9962 .9962 .08672 -92.1592 349.7267)" cx="144.7" cy="225.1" rx=".4" ry="1"/><ellipse transform="matrix(.004332 -1 1 .004332 -71.1164 368.9506)" cx="149.7" cy="220.2" rx="1.9" ry="2.6"/><ellipse transform="matrix(.1154 -.9933 .9933 .1154 -83.1674 336.394)" cx="147.3" cy="214.9" rx="1.6" ry="3.1"/><ellipse transform="matrix(.07327 -.9973 .9973 .07327 -69.6613 358.5635)" cx="158.1" cy="216.8" rx=".9" ry="1.8"/><ellipse transform="matrix(.1256 -.9921 .9921 .1256 -75.8038 360.2403)" cx="166.5" cy="223.1" rx="1.2" ry=".8"/><ellipse transform="matrix(.9998 -.02142 .02142 .9998 -4.6431 3.6211)" cx="166.7" cy="218.6" rx=".8" ry=".7"/></g><g class="AG"><path d="M139.7 223.3l24.2 1.1 2.2-12.6m-2.2 12.6l2.7 4.2" stroke="#ffd007" class="AE AN"/><g fill="#fff5e9" stroke="#e8d5c5" stroke-width=".75"><path d="M144.6 245.3c2.6-.5 12.8 5.9 22.3 0 6.2 2.9 39.1 5.1 42.9-.5 12.5 1.6 52.1-3.8 35.5-2.8 1.4-.3 26.4 4.1 28.1-6.6s-24.9-3.2-28.6-3.8-44.3.7-46.4.4-39.8-12.5-40.9-12.7c-.1 3.4-1.1 18.9-12.9 26z"/><path d="M132 193.2c18.7 6.3 19 12.8 30.4 36.4 9.6 5.2 2.3 7.8 32 9.5 6.5 2.9 13.3.6 16-.1 4.8.4 15.4-.1 19.9-2.3 9.5-3.8 23.3 2.1 24.8 3 6-2.1 23-2.9 22.3-9.5.6-4.9 2.4-17.2-14.4-15.5-8.7.7-19.3.4-23.7-3.8-8.9-3.4-31.3-8.1-35.4-6.8-9 1.1-23.5-.7-25.6-1.6-11.6-3.3-38.5-13.9-43.6-11.3-1.7.7-4.6-.1-2.7 2z"/></g></g><path d="M397.6 235.2c.5 8.3 32.1 17.2 41.9 0 .5-12.5 4.7-39.2 4.9-39.7-8.6 9.1-39.7 11.5-52.9 0 1.4 10.5 5.6 31.3 6.1 39.7z" fill="#009fcc"/><path d="M391.5 184c-8.3 19.4 45.1 25.7 54.6 3.4-3.9-8.1-9.6-11.8-13.7-12.3-3.9-5.9-11.9-14.5-14-15.7-5.3 2-6.8 6.6-6.5 9.3-3.9-1.7-9.8 5.4-10.3 8.8-6.7.8-9.4 4.1-10.1 6.5z" fill="#f2e3d2"/><path d="M439.3 187.8c.5 1.5 2.7 3.1 2.7 3.1s2.7-9.3 0-6.2l-2.7 3.1zm-32.2-11.5c.3.9 1.6 1.8 1.6 1.8s1.6-5.5 0-3.7l-1.6 1.9zm8.9 21.4c1-2.2 7.4-6.6 6.9 0-.6 6.6-6.9 0-6.9 0zm-8.4-16c1-2.2 7.4-6.6 6.9 0s-6.9 0-6.9 0zm-10.4 10.8c.5-4.3 1.2-8.2 6.4-2.1 5.1 6.1-6.4 2.1-6.4 2.1zm15-18.7c.3-2.9.8-5.6 4.3-1.4 3.6 4.1-4.3 1.4-4.3 1.4zm9.5 6.7l-1.1 3.2 4.5 1.5v-4.7zm-5.7 8l3.4-1.4 3.4 3.4-4.5 1.3zm8.9-11.3l3.5-1.4 3.4 3.4-4.5 1.3zm-25.9 4.3l2.5-1 2.5 2.5-3.3.9zm12.1 13.9v-4.9l-3.6 2.5zm17.3-9.7l2.6 2.8 2.2-4.8-2-.8-1.1 1.5zm-10.2-16l2.6 2.8 2.2-4.9-2-.8-1.1 1.6zm9 22.6c1.8-2.6 5.6 2.3 3.6 2.4s1.4 2.4.7 2.3-5.5-2.9-4.3-4.7z" fill="#40221e"/><path d="M419.3 233.9h-2.9c.1-.5 0-1 0-1.1h2.9c0 .3-.1.8 0 1.1zm-3-5h3.1c1.2-20.8 7.7-15.5 7.3 6.5h3.1c-.6-19.3-7.1-28.6-12-14.3-4.5-14.7-11.9-3.8-11.8 14.3h3c.3-21.1 5.5-28.2 7.3-6.5z" class="AO"/><text transform="translate(410.422 232.424)" font-size="4.373" class="AF AJ">McData</text><path d="M318.1 175.9c-.1 4.1 7.2 48.4 7.8 49.6 5.2 3.1 32 4.6 38-.7 2.1-7.4 8-46.9 8.3-48.8-7.1-.5-50.9-1.1-54.1-.1z" fill="#f59d35"/><g stroke="#fff" class="AG"><path d="M320.8,194.3c33.3-13.1,29.9,32.6,4.4,24.2" stroke-width="2" class="AE"/><path d="M345.1 208.5c11.1 6.8 9.8 12.3-7.9 10 2.5-.5 7-6.4 7.9-10z" fill="#008639"/></g><path d="M315.7 173.4l-2.7-6.8h62.3l-2 6.8z" fill="#d9e8e9"/><g class="AF"><path d="M272 101.5l-8.5 35.4h3.3l7.8-35.4z"/><path d="M272.8 101.5l-8.5 35.4h3.3l7.8-35.4zm-36.8 38l.1 5c.1.6 9.5 78.5 8.2 93.5 3 4.6 9.6 6.2 14.3 6.4 2.3 0 7.9.5 9.8 0 10.1.2 14.6-3 17.4-7.2 1.4-15.4 6.8-90.3 8.7-93.8-.3-1.8.4-4.1 0-4.1l-58.5.2z"/></g><path d="M236 143.8h21.9c0 6.4 6 38.9 7.6 43 2.6 9.4-1.1 51.3-6.8 57.8-10.6-.8-13.6-4.9-14.3-6.4 1.4-9.4-8.4-94.4-8.4-94.4zm30.3 0h28.2c-1.5 10.2-9.1 92.1-8.7 93.6-4.5 6-7.6 7.2-17.4 7.2 1.1-10.6 2.2-46.4.8-52.5-2.9-6.6-7-48.3-2.9-48.3z" fill="#878787"/><path d="M269.9 101.5L262 134h3.1l7.2-32.5z" fill="#df6f83"/><path d="M275.1 101.5l-7.9 32.5h3.1l7.2-32.5z" fill="#ffeebf"/><path d="M233.3 133.6s-3 5.3 0 6c3 .8 64.9 0 64.9 0s-.8-6-1.9-6h-63z" fill="#878787"/></svg>